M48
; DRILL file {KiCad (6.0.10)} date Mon Feb  6 14:01:36 2023
; FORMAT={-:-/ absolute / metric / decimal}
; #@! TF.CreationDate,2023-02-06T14:01:36-03:00
; #@! TF.GenerationSoftware,Kicad,Pcbnew,(6.0.10)
; #@! TF.FileFunction,Plated,1,2,PTH
FMAT,2
METRIC
; #@! TA.AperFunction,Plated,PTH,ComponentDrill
T1C1.000
; #@! TA.AperFunction,Plated,PTH,ComponentDrill
T2C3.500
%
G90
G05
T1
X88.468Y-43.51
X91.008Y-43.51
X96.69Y-67.208
X96.715Y-48.276
X96.715Y-50.816
X96.715Y-53.356
X96.715Y-55.896
X96.715Y-59.887
X99.23Y-67.208
X99.255Y-59.887
X101.77Y-67.208
X101.795Y-59.887
X104.31Y-67.208
X104.335Y-59.887
X106.85Y-67.208
X106.875Y-59.887
X109.39Y-67.208
X109.415Y-59.887
X111.93Y-67.208
X111.955Y-59.887
X114.47Y-67.208
X114.495Y-59.887
X117.01Y-67.208
X117.035Y-59.887
X119.55Y-67.208
X119.575Y-59.887
X122.09Y-67.208
X122.115Y-59.887
X124.63Y-67.208
X124.655Y-59.887
X127.17Y-67.208
X127.195Y-59.887
X129.71Y-67.208
X129.735Y-59.887
X132.25Y-67.208
X132.275Y-59.887
X134.79Y-67.208
X134.815Y-59.887
X140.2Y-43.55
X142.74Y-43.55
T2
X90.805Y-73.939
X90.805Y-118.872
X180.34Y-73.939
X180.34Y-118.872
T0
M30
