%TF.GenerationSoftware,KiCad,Pcbnew,(6.0.10)*%
%TF.CreationDate,2023-02-06T14:01:34-03:00*%
%TF.ProjectId,UserInterface_HW,55736572-496e-4746-9572-666163655f48,rev?*%
%TF.SameCoordinates,Original*%
%TF.FileFunction,Soldermask,Bot*%
%TF.FilePolarity,Negative*%
%FSLAX46Y46*%
G04 Gerber Fmt 4.6, Leading zero omitted, Abs format (unit mm)*
G04 Created by KiCad (PCBNEW (6.0.10)) date 2023-02-06 14:01:34*
%MOMM*%
%LPD*%
G01*
G04 APERTURE LIST*
%ADD10R,1.700000X1.700000*%
%ADD11O,1.700000X1.700000*%
%ADD12C,7.000000*%
G04 APERTURE END LIST*
D10*
%TO.C,U2*%
X96690200Y-67208400D03*
D11*
X99230200Y-67208400D03*
X101770200Y-67208400D03*
X104310200Y-67208400D03*
X106850200Y-67208400D03*
X109390200Y-67208400D03*
X111930200Y-67208400D03*
X114470200Y-67208400D03*
X117010200Y-67208400D03*
X119550200Y-67208400D03*
X122090200Y-67208400D03*
X124630200Y-67208400D03*
X127170200Y-67208400D03*
X129710200Y-67208400D03*
X132250200Y-67208400D03*
X134790200Y-67208400D03*
%TD*%
D10*
%TO.C,J1*%
X91008200Y-43510200D03*
D11*
X88468200Y-43510200D03*
%TD*%
D12*
%TO.C,*%
X90805000Y-73939400D03*
%TD*%
%TO.C,REF\u002A\u002A*%
X180340000Y-73939400D03*
%TD*%
D10*
%TO.C,U1*%
X96715100Y-59887500D03*
D11*
X99255100Y-59887500D03*
X101795100Y-59887500D03*
X104335100Y-59887500D03*
X106875100Y-59887500D03*
X109415100Y-59887500D03*
X111955100Y-59887500D03*
X114495100Y-59887500D03*
X117035100Y-59887500D03*
X119575100Y-59887500D03*
X122115100Y-59887500D03*
X124655100Y-59887500D03*
X127195100Y-59887500D03*
X129735100Y-59887500D03*
X132275100Y-59887500D03*
X134815100Y-59887500D03*
X96715100Y-48276300D03*
X96715100Y-50816300D03*
X96715100Y-53356300D03*
D10*
X96715100Y-55896300D03*
%TD*%
%TO.C,J2*%
X140200000Y-43550000D03*
D11*
X142740000Y-43550000D03*
%TD*%
D12*
%TO.C,*%
X180340000Y-118872000D03*
%TD*%
%TO.C,*%
X90805000Y-118872000D03*
%TD*%
M02*
