%TF.GenerationSoftware,KiCad,Pcbnew,(6.0.10)*%
%TF.CreationDate,2023-02-06T13:07:10-03:00*%
%TF.ProjectId,JMP_SYSTEM,4a4d505f-5359-4535-9445-4d2e6b696361,rev?*%
%TF.SameCoordinates,Original*%
%TF.FileFunction,Soldermask,Bot*%
%TF.FilePolarity,Negative*%
%FSLAX46Y46*%
G04 Gerber Fmt 4.6, Leading zero omitted, Abs format (unit mm)*
G04 Created by KiCad (PCBNEW (6.0.10)) date 2023-02-06 13:07:10*
%MOMM*%
%LPD*%
G01*
G04 APERTURE LIST*
G04 Aperture macros list*
%AMRoundRect*
0 Rectangle with rounded corners*
0 $1 Rounding radius*
0 $2 $3 $4 $5 $6 $7 $8 $9 X,Y pos of 4 corners*
0 Add a 4 corners polygon primitive as box body*
4,1,4,$2,$3,$4,$5,$6,$7,$8,$9,$2,$3,0*
0 Add four circle primitives for the rounded corners*
1,1,$1+$1,$2,$3*
1,1,$1+$1,$4,$5*
1,1,$1+$1,$6,$7*
1,1,$1+$1,$8,$9*
0 Add four rect primitives between the rounded corners*
20,1,$1+$1,$2,$3,$4,$5,0*
20,1,$1+$1,$4,$5,$6,$7,0*
20,1,$1+$1,$6,$7,$8,$9,0*
20,1,$1+$1,$8,$9,$2,$3,0*%
G04 Aperture macros list end*
%ADD10RoundRect,0.250000X-0.620000X-0.845000X0.620000X-0.845000X0.620000X0.845000X-0.620000X0.845000X0*%
%ADD11O,1.740000X2.190000*%
%ADD12R,1.700000X1.700000*%
%ADD13O,1.700000X1.700000*%
%ADD14R,1.600000X2.400000*%
%ADD15O,1.600000X2.400000*%
%ADD16RoundRect,0.250000X0.620000X0.845000X-0.620000X0.845000X-0.620000X-0.845000X0.620000X-0.845000X0*%
%ADD17C,7.000000*%
%ADD18RoundRect,0.250000X-0.250000X-0.475000X0.250000X-0.475000X0.250000X0.475000X-0.250000X0.475000X0*%
%ADD19RoundRect,0.250000X0.250000X0.475000X-0.250000X0.475000X-0.250000X-0.475000X0.250000X-0.475000X0*%
G04 APERTURE END LIST*
D10*
%TO.C,SW9*%
X-126223000Y-146770800D03*
D11*
X-123683000Y-146770800D03*
%TD*%
D10*
%TO.C,SW1*%
X-87020400Y-143560800D03*
D11*
X-84480400Y-143560800D03*
%TD*%
D12*
%TO.C,J13*%
X-102910800Y-124952200D03*
D13*
X-105450800Y-124952200D03*
X-107990800Y-124952200D03*
X-110530800Y-124952200D03*
X-113070800Y-124952200D03*
%TD*%
D14*
%TO.C,J1*%
X-99735800Y-104043000D03*
D15*
X-102275800Y-104043000D03*
X-104815800Y-104043000D03*
X-107355800Y-104043000D03*
X-109895800Y-104043000D03*
X-112435800Y-104043000D03*
X-114975800Y-104043000D03*
X-117515800Y-104043000D03*
X-120055800Y-104043000D03*
X-122595800Y-104043000D03*
X-125135800Y-104043000D03*
X-127675800Y-104043000D03*
X-130215800Y-104043000D03*
X-132755800Y-104043000D03*
X-135295800Y-104043000D03*
X-137835800Y-104043000D03*
X-140375800Y-104043000D03*
X-142915800Y-104043000D03*
X-145455800Y-104043000D03*
X-147995800Y-104043000D03*
X-147995800Y-119283000D03*
X-145455800Y-119283000D03*
X-142915800Y-119283000D03*
X-140375800Y-119283000D03*
X-137835800Y-119283000D03*
X-135295800Y-119283000D03*
X-132755800Y-119283000D03*
X-130215800Y-119283000D03*
X-127675800Y-119283000D03*
X-125135800Y-119283000D03*
X-122595800Y-119283000D03*
X-120055800Y-119283000D03*
X-117515800Y-119283000D03*
X-114975800Y-119283000D03*
X-112435800Y-119283000D03*
X-109895800Y-119283000D03*
X-107355800Y-119283000D03*
X-104815800Y-119283000D03*
X-102275800Y-119283000D03*
X-99735800Y-119283000D03*
%TD*%
D10*
%TO.C,SW4*%
X-159725600Y-142819000D03*
D11*
X-157185600Y-142819000D03*
%TD*%
D10*
%TO.C,SW5*%
X-167650400Y-134239200D03*
D11*
X-165110400Y-134239200D03*
%TD*%
D12*
%TO.C,J22*%
X-195326000Y-151282400D03*
D13*
X-197866000Y-151282400D03*
%TD*%
D12*
%TO.C,U3*%
X-240231400Y-34777200D03*
D13*
X-240231400Y-32237200D03*
D12*
X-240240600Y-45639200D03*
D13*
X-240240600Y-48179200D03*
X-217311400Y-32297200D03*
D12*
X-217311400Y-34837200D03*
D13*
X-217279000Y-48128400D03*
D12*
X-217279000Y-45588400D03*
%TD*%
%TO.C,J17*%
X-136281400Y-124749000D03*
D13*
X-133741400Y-124749000D03*
%TD*%
D12*
%TO.C,J12*%
X-197916800Y-143190200D03*
D13*
X-197916800Y-140650200D03*
X-197916800Y-138110200D03*
%TD*%
D12*
%TO.C,J20*%
X-133695600Y-98942600D03*
D13*
X-131155600Y-98942600D03*
%TD*%
D10*
%TO.C,SW7*%
X-117434600Y-146796200D03*
D11*
X-114894600Y-146796200D03*
%TD*%
D12*
%TO.C,J15*%
X-127645400Y-124850600D03*
D13*
X-125105400Y-124850600D03*
%TD*%
D12*
%TO.C,J4*%
X-80518000Y-85547200D03*
D13*
X-80518000Y-88087200D03*
X-80518000Y-90627200D03*
X-80518000Y-93167200D03*
%TD*%
D16*
%TO.C,SW10*%
X-102702600Y-146725400D03*
D11*
X-105242600Y-146725400D03*
%TD*%
D12*
%TO.C,J8*%
X-126527800Y-98790200D03*
D13*
X-123987800Y-98790200D03*
X-121447800Y-98790200D03*
X-118907800Y-98790200D03*
X-116367800Y-98790200D03*
%TD*%
D12*
%TO.C,J19*%
X-99613800Y-98993400D03*
D13*
X-102153800Y-98993400D03*
X-104693800Y-98993400D03*
X-107233800Y-98993400D03*
%TD*%
D17*
%TO.C,*%
X-238252000Y-155295600D03*
%TD*%
D12*
%TO.C,U4*%
X-204646600Y-30871500D03*
D13*
X-204668600Y-33381900D03*
X-204668600Y-45777100D03*
D12*
X-204646600Y-48321500D03*
X-165176600Y-48016500D03*
D13*
X-165197000Y-45472300D03*
D12*
X-165176600Y-30871500D03*
D13*
X-165197000Y-33381900D03*
%TD*%
D10*
%TO.C,SW2*%
X-86893400Y-132912800D03*
D11*
X-84353400Y-132912800D03*
%TD*%
D12*
%TO.C,J10*%
X-213360000Y-26573400D03*
D13*
X-210820000Y-26573400D03*
%TD*%
D12*
%TO.C,J18*%
X-120030400Y-124901400D03*
D13*
X-117490400Y-124901400D03*
%TD*%
D12*
%TO.C,J16*%
X-180898800Y-104297400D03*
D13*
X-180898800Y-101757400D03*
%TD*%
D12*
%TO.C,U1*%
X-133915300Y-46073100D03*
D13*
X-131375300Y-46073100D03*
X-128835300Y-46073100D03*
X-126295300Y-46073100D03*
X-123755300Y-46073100D03*
X-121215300Y-46073100D03*
X-118675300Y-46073100D03*
X-116135300Y-46073100D03*
X-113595300Y-46073100D03*
X-111055300Y-46073100D03*
X-108515300Y-46073100D03*
X-105975300Y-46073100D03*
X-103435300Y-46073100D03*
X-100895300Y-46073100D03*
X-98355300Y-46073100D03*
X-95815300Y-46073100D03*
X-133915300Y-34461900D03*
X-133915300Y-37001900D03*
X-133915300Y-39541900D03*
D12*
X-133915300Y-42081900D03*
%TD*%
D16*
%TO.C,SW3*%
X-172974000Y-142748000D03*
D11*
X-175514000Y-142748000D03*
%TD*%
D17*
%TO.C,*%
X-74269600Y-157149800D03*
%TD*%
D12*
%TO.C,J9*%
X-143154400Y-38552200D03*
D13*
X-143154400Y-41092200D03*
%TD*%
D12*
%TO.C,J6*%
X-83312000Y-116956200D03*
D13*
X-83312000Y-114416200D03*
%TD*%
D12*
%TO.C,J5*%
X-80568800Y-76301600D03*
D13*
X-80568800Y-73761600D03*
X-80568800Y-71221600D03*
X-80568800Y-68681600D03*
X-80568800Y-66141600D03*
X-80568800Y-63601600D03*
%TD*%
D16*
%TO.C,SW6*%
X-165110400Y-151308000D03*
D11*
X-167650400Y-151308000D03*
%TD*%
D12*
%TO.C,J14*%
X-140396200Y-124698200D03*
D13*
X-142936200Y-124698200D03*
X-145476200Y-124698200D03*
X-148016200Y-124698200D03*
%TD*%
D17*
%TO.C,*%
X-74269600Y-25857200D03*
%TD*%
D12*
%TO.C,J11*%
X-158242000Y-45471000D03*
D13*
X-155702000Y-45471000D03*
%TD*%
D12*
%TO.C,J3*%
X-85090000Y-32923400D03*
D13*
X-85090000Y-30383400D03*
%TD*%
D12*
%TO.C,BT1*%
X-228437600Y-62976200D03*
D13*
X-225897600Y-62976200D03*
%TD*%
D12*
%TO.C,J21*%
X-157515800Y-100984600D03*
D13*
X-157515800Y-103524600D03*
X-157515800Y-106064600D03*
X-157515800Y-108604600D03*
%TD*%
D17*
%TO.C,REF\u002A\u002A*%
X-238252000Y-25857200D03*
%TD*%
D10*
%TO.C,SW8*%
X-134579600Y-146720000D03*
D11*
X-132039600Y-146720000D03*
%TD*%
D12*
%TO.C,J2*%
X-85049600Y-41609800D03*
D13*
X-85049600Y-44149800D03*
%TD*%
D12*
%TO.C,J7*%
X-91343400Y-116971200D03*
D13*
X-91343400Y-114431200D03*
%TD*%
D12*
%TO.C,U2*%
X-134016600Y-54601000D03*
D13*
X-131476600Y-54601000D03*
X-128936600Y-54601000D03*
X-126396600Y-54601000D03*
X-123856600Y-54601000D03*
X-121316600Y-54601000D03*
X-118776600Y-54601000D03*
X-116236600Y-54601000D03*
X-113696600Y-54601000D03*
X-111156600Y-54601000D03*
X-108616600Y-54601000D03*
X-106076600Y-54601000D03*
X-103536600Y-54601000D03*
X-100996600Y-54601000D03*
X-98456600Y-54601000D03*
X-95916600Y-54601000D03*
%TD*%
D18*
%TO.C,C11*%
X-204678400Y-36596800D03*
X-202778400Y-36596800D03*
%TD*%
%TO.C,C12*%
X-204627600Y-41981600D03*
X-202727600Y-41981600D03*
%TD*%
D19*
%TO.C,C13*%
X-155636000Y-40721200D03*
X-157536000Y-40721200D03*
%TD*%
M02*
