M48
; DRILL file {KiCad (6.0.10)} date Mon Feb  6 13:07:32 2023
; FORMAT={-:-/ absolute / metric / decimal}
; #@! TF.CreationDate,2023-02-06T13:07:32-03:00
; #@! TF.GenerationSoftware,Kicad,Pcbnew,(6.0.10)
; #@! TF.FileFunction,Plated,1,2,PTH
FMAT,2
METRIC
; #@! TA.AperFunction,Plated,PTH,ViaDrill
T1C0.750
; #@! TA.AperFunction,Plated,PTH,ComponentDrill
T2C0.800
; #@! TA.AperFunction,Plated,PTH,ComponentDrill
T3C1.000
; #@! TA.AperFunction,Plated,PTH,ComponentDrill
T4C1.190
; #@! TA.AperFunction,Plated,PTH,ComponentDrill
T5C3.500
%
G90
G05
T1
X-220.269Y-54.432
X-118.352Y-115.423
X-113.538Y-90.475
X-106.172Y-68.631
X-100.381Y-136.55
X-82.398Y-103.632
T2
X-147.996Y-104.043
X-147.996Y-119.283
X-145.456Y-104.043
X-145.456Y-119.283
X-142.916Y-104.043
X-142.916Y-119.283
X-140.376Y-104.043
X-140.376Y-119.283
X-137.836Y-104.043
X-137.836Y-119.283
X-135.296Y-104.043
X-135.296Y-119.283
X-132.756Y-104.043
X-132.756Y-119.283
X-130.216Y-104.043
X-130.216Y-119.283
X-127.676Y-104.043
X-127.676Y-119.283
X-125.136Y-104.043
X-125.136Y-119.283
X-122.596Y-104.043
X-122.596Y-119.283
X-120.056Y-104.043
X-120.056Y-119.283
X-117.516Y-104.043
X-117.516Y-119.283
X-114.976Y-104.043
X-114.976Y-119.283
X-112.436Y-104.043
X-112.436Y-119.283
X-109.896Y-104.043
X-109.896Y-119.283
X-107.356Y-104.043
X-107.356Y-119.283
X-104.816Y-104.043
X-104.816Y-119.283
X-102.276Y-104.043
X-102.276Y-119.283
X-99.736Y-104.043
X-99.736Y-119.283
T3
X-240.241Y-45.639
X-240.241Y-48.179
X-240.231Y-32.237
X-240.231Y-34.777
X-228.438Y-62.976
X-225.898Y-62.976
X-217.311Y-32.297
X-217.311Y-34.837
X-217.279Y-45.588
X-217.279Y-48.128
X-213.36Y-26.573
X-210.82Y-26.573
X-204.669Y-33.382
X-204.669Y-45.777
X-204.647Y-30.871
X-204.647Y-48.322
X-197.917Y-138.11
X-197.917Y-140.65
X-197.917Y-143.19
X-197.866Y-151.282
X-195.326Y-151.282
X-180.899Y-101.757
X-180.899Y-104.297
X-165.197Y-33.382
X-165.197Y-45.472
X-165.177Y-30.871
X-165.177Y-48.017
X-158.242Y-45.471
X-157.516Y-100.985
X-157.516Y-103.525
X-157.516Y-106.065
X-157.516Y-108.605
X-155.702Y-45.471
X-148.016Y-124.698
X-145.476Y-124.698
X-143.154Y-38.552
X-143.154Y-41.092
X-142.936Y-124.698
X-140.396Y-124.698
X-136.281Y-124.749
X-134.017Y-54.601
X-133.915Y-34.462
X-133.915Y-37.002
X-133.915Y-39.542
X-133.915Y-42.082
X-133.915Y-46.073
X-133.741Y-124.749
X-133.696Y-98.943
X-131.477Y-54.601
X-131.375Y-46.073
X-131.156Y-98.943
X-128.937Y-54.601
X-128.835Y-46.073
X-127.645Y-124.851
X-126.528Y-98.79
X-126.397Y-54.601
X-126.295Y-46.073
X-125.105Y-124.851
X-123.988Y-98.79
X-123.857Y-54.601
X-123.755Y-46.073
X-121.448Y-98.79
X-121.317Y-54.601
X-121.215Y-46.073
X-120.03Y-124.901
X-118.908Y-98.79
X-118.777Y-54.601
X-118.675Y-46.073
X-117.49Y-124.901
X-116.368Y-98.79
X-116.237Y-54.601
X-116.135Y-46.073
X-113.697Y-54.601
X-113.595Y-46.073
X-113.071Y-124.952
X-111.157Y-54.601
X-111.055Y-46.073
X-110.531Y-124.952
X-108.617Y-54.601
X-108.515Y-46.073
X-107.991Y-124.952
X-107.234Y-98.993
X-106.077Y-54.601
X-105.975Y-46.073
X-105.451Y-124.952
X-104.694Y-98.993
X-103.537Y-54.601
X-103.435Y-46.073
X-102.911Y-124.952
X-102.154Y-98.993
X-100.997Y-54.601
X-100.895Y-46.073
X-99.614Y-98.993
X-98.457Y-54.601
X-98.355Y-46.073
X-95.917Y-54.601
X-95.815Y-46.073
X-91.343Y-114.431
X-91.343Y-116.971
X-85.09Y-30.383
X-85.09Y-32.923
X-85.05Y-41.61
X-85.05Y-44.15
X-83.312Y-114.416
X-83.312Y-116.956
X-80.569Y-63.602
X-80.569Y-66.142
X-80.569Y-68.682
X-80.569Y-71.222
X-80.569Y-73.762
X-80.569Y-76.302
X-80.518Y-85.547
X-80.518Y-88.087
X-80.518Y-90.627
X-80.518Y-93.167
T4
X-175.514Y-142.748
X-172.974Y-142.748
X-167.65Y-134.239
X-167.65Y-151.308
X-165.11Y-134.239
X-165.11Y-151.308
X-159.726Y-142.819
X-157.186Y-142.819
X-134.58Y-146.72
X-132.04Y-146.72
X-126.223Y-146.771
X-123.683Y-146.771
X-117.435Y-146.796
X-114.895Y-146.796
X-105.243Y-146.725
X-102.703Y-146.725
X-87.02Y-143.561
X-86.893Y-132.913
X-84.48Y-143.561
X-84.353Y-132.913
T5
X-238.252Y-25.857
X-238.252Y-155.296
X-74.27Y-25.857
X-74.27Y-157.15
T0
M30
