%TF.GenerationSoftware,KiCad,Pcbnew,(6.0.10)*%
%TF.CreationDate,2023-02-06T13:07:10-03:00*%
%TF.ProjectId,JMP_SYSTEM,4a4d505f-5359-4535-9445-4d2e6b696361,rev?*%
%TF.SameCoordinates,Original*%
%TF.FileFunction,Paste,Top*%
%TF.FilePolarity,Positive*%
%FSLAX46Y46*%
G04 Gerber Fmt 4.6, Leading zero omitted, Abs format (unit mm)*
G04 Created by KiCad (PCBNEW (6.0.10)) date 2023-02-06 13:07:10*
%MOMM*%
%LPD*%
G01*
G04 APERTURE LIST*
G04 Aperture macros list*
%AMRoundRect*
0 Rectangle with rounded corners*
0 $1 Rounding radius*
0 $2 $3 $4 $5 $6 $7 $8 $9 X,Y pos of 4 corners*
0 Add a 4 corners polygon primitive as box body*
4,1,4,$2,$3,$4,$5,$6,$7,$8,$9,$2,$3,0*
0 Add four circle primitives for the rounded corners*
1,1,$1+$1,$2,$3*
1,1,$1+$1,$4,$5*
1,1,$1+$1,$6,$7*
1,1,$1+$1,$8,$9*
0 Add four rect primitives between the rounded corners*
20,1,$1+$1,$2,$3,$4,$5,0*
20,1,$1+$1,$4,$5,$6,$7,0*
20,1,$1+$1,$6,$7,$8,$9,0*
20,1,$1+$1,$8,$9,$2,$3,0*%
G04 Aperture macros list end*
%ADD10RoundRect,0.250000X0.450000X-0.350000X0.450000X0.350000X-0.450000X0.350000X-0.450000X-0.350000X0*%
%ADD11RoundRect,0.250000X0.350000X0.450000X-0.350000X0.450000X-0.350000X-0.450000X0.350000X-0.450000X0*%
%ADD12RoundRect,0.250000X-0.450000X0.350000X-0.450000X-0.350000X0.450000X-0.350000X0.450000X0.350000X0*%
%ADD13RoundRect,0.250000X-0.350000X-0.450000X0.350000X-0.450000X0.350000X0.450000X-0.350000X0.450000X0*%
G04 APERTURE END LIST*
D10*
%TO.C,R8*%
X-152994600Y-140430200D03*
X-152994600Y-138430200D03*
%TD*%
D11*
%TO.C,R12*%
X-172949600Y-149844200D03*
X-174949600Y-149844200D03*
%TD*%
D12*
%TO.C,R3*%
X-84861400Y-122240800D03*
X-84861400Y-124240800D03*
%TD*%
D10*
%TO.C,C6*%
X-178521600Y-149996600D03*
X-178521600Y-147996600D03*
%TD*%
D12*
%TO.C,R1*%
X-80111600Y-135804400D03*
X-80111600Y-137804400D03*
%TD*%
D10*
%TO.C,R21*%
X-220431600Y-68929200D03*
X-220431600Y-66929200D03*
%TD*%
D13*
%TO.C,C3*%
X-177936400Y-131064000D03*
X-175936400Y-131064000D03*
%TD*%
D12*
%TO.C,C5*%
X-159624000Y-126609800D03*
X-159624000Y-128609800D03*
%TD*%
D13*
%TO.C,R9*%
X-167268400Y-122072400D03*
X-165268400Y-122072400D03*
%TD*%
D12*
%TO.C,C10*%
X-100315000Y-138735000D03*
X-100315000Y-140735000D03*
%TD*%
D13*
%TO.C,R14*%
X-114726200Y-138800600D03*
X-112726200Y-138800600D03*
%TD*%
D11*
%TO.C,R4*%
X-87011000Y-124231400D03*
X-89011000Y-124231400D03*
%TD*%
%TO.C,C7*%
X-110135400Y-141767000D03*
X-112135400Y-141767000D03*
%TD*%
%TO.C,R5*%
X-171897800Y-134299200D03*
X-173897800Y-134299200D03*
%TD*%
D13*
%TO.C,R20*%
X-105455200Y-138744400D03*
X-103455200Y-138744400D03*
%TD*%
D11*
%TO.C,R2*%
X-89932000Y-138328400D03*
X-91932000Y-138328400D03*
%TD*%
D13*
%TO.C,R16*%
X-132658600Y-139308600D03*
X-130658600Y-139308600D03*
%TD*%
%TO.C,R18*%
X-124352800Y-138962400D03*
X-122352800Y-138962400D03*
%TD*%
D12*
%TO.C,R22*%
X-220421200Y-62398400D03*
X-220421200Y-64398400D03*
%TD*%
%TO.C,R15*%
X-132420600Y-134600200D03*
X-132420600Y-136600200D03*
%TD*%
D11*
%TO.C,R7*%
X-150927800Y-143494200D03*
X-152927800Y-143494200D03*
%TD*%
D12*
%TO.C,R17*%
X-124292600Y-134518600D03*
X-124292600Y-136518600D03*
%TD*%
%TO.C,R13*%
X-114640600Y-134397000D03*
X-114640600Y-136397000D03*
%TD*%
%TO.C,C2*%
X-89941400Y-126304800D03*
X-89941400Y-128304800D03*
%TD*%
D11*
%TO.C,C4*%
X-155616400Y-136398000D03*
X-157616400Y-136398000D03*
%TD*%
D12*
%TO.C,R19*%
X-105420400Y-134366200D03*
X-105420400Y-136366200D03*
%TD*%
%TO.C,R23*%
X-220421200Y-58283600D03*
X-220421200Y-60283600D03*
%TD*%
%TO.C,C8*%
X-127340600Y-139324600D03*
X-127340600Y-141324600D03*
%TD*%
%TO.C,C9*%
X-119466600Y-138953000D03*
X-119466600Y-140953000D03*
%TD*%
D13*
%TO.C,R10*%
X-165348400Y-126670000D03*
X-163348400Y-126670000D03*
%TD*%
D10*
%TO.C,R6*%
X-178079400Y-136315200D03*
X-178079400Y-134315200D03*
%TD*%
D12*
%TO.C,C1*%
X-91948000Y-142357600D03*
X-91948000Y-144357600D03*
%TD*%
D10*
%TO.C,R11*%
X-172959000Y-154959000D03*
X-172959000Y-152959000D03*
%TD*%
M02*
