%TF.GenerationSoftware,KiCad,Pcbnew,(6.0.10)*%
%TF.CreationDate,2023-02-06T13:07:10-03:00*%
%TF.ProjectId,JMP_SYSTEM,4a4d505f-5359-4535-9445-4d2e6b696361,rev?*%
%TF.SameCoordinates,Original*%
%TF.FileFunction,Legend,Bot*%
%TF.FilePolarity,Positive*%
%FSLAX46Y46*%
G04 Gerber Fmt 4.6, Leading zero omitted, Abs format (unit mm)*
G04 Created by KiCad (PCBNEW (6.0.10)) date 2023-02-06 13:07:10*
%MOMM*%
%LPD*%
G01*
G04 APERTURE LIST*
%ADD10C,0.150000*%
%ADD11C,0.120000*%
G04 APERTURE END LIST*
D10*
%TO.C,C11*%
X-203085542Y-38633942D02*
X-203037923Y-38681561D01*
X-202895066Y-38729180D01*
X-202799828Y-38729180D01*
X-202656971Y-38681561D01*
X-202561733Y-38586323D01*
X-202514114Y-38491085D01*
X-202466495Y-38300609D01*
X-202466495Y-38157752D01*
X-202514114Y-37967276D01*
X-202561733Y-37872038D01*
X-202656971Y-37776800D01*
X-202799828Y-37729180D01*
X-202895066Y-37729180D01*
X-203037923Y-37776800D01*
X-203085542Y-37824419D01*
X-204037923Y-38729180D02*
X-203466495Y-38729180D01*
X-203752209Y-38729180D02*
X-203752209Y-37729180D01*
X-203656971Y-37872038D01*
X-203561733Y-37967276D01*
X-203466495Y-38014895D01*
X-204990304Y-38729180D02*
X-204418876Y-38729180D01*
X-204704590Y-38729180D02*
X-204704590Y-37729180D01*
X-204609352Y-37872038D01*
X-204514114Y-37967276D01*
X-204418876Y-38014895D01*
%TO.C,C12*%
X-203034742Y-44018742D02*
X-202987123Y-44066361D01*
X-202844266Y-44113980D01*
X-202749028Y-44113980D01*
X-202606171Y-44066361D01*
X-202510933Y-43971123D01*
X-202463314Y-43875885D01*
X-202415695Y-43685409D01*
X-202415695Y-43542552D01*
X-202463314Y-43352076D01*
X-202510933Y-43256838D01*
X-202606171Y-43161600D01*
X-202749028Y-43113980D01*
X-202844266Y-43113980D01*
X-202987123Y-43161600D01*
X-203034742Y-43209219D01*
X-203987123Y-44113980D02*
X-203415695Y-44113980D01*
X-203701409Y-44113980D02*
X-203701409Y-43113980D01*
X-203606171Y-43256838D01*
X-203510933Y-43352076D01*
X-203415695Y-43399695D01*
X-204368076Y-43209219D02*
X-204415695Y-43161600D01*
X-204510933Y-43113980D01*
X-204749028Y-43113980D01*
X-204844266Y-43161600D01*
X-204891885Y-43209219D01*
X-204939504Y-43304457D01*
X-204939504Y-43399695D01*
X-204891885Y-43542552D01*
X-204320457Y-44113980D01*
X-204939504Y-44113980D01*
%TO.C,C13*%
X-155943142Y-39398342D02*
X-155895523Y-39445961D01*
X-155752666Y-39493580D01*
X-155657428Y-39493580D01*
X-155514571Y-39445961D01*
X-155419333Y-39350723D01*
X-155371714Y-39255485D01*
X-155324095Y-39065009D01*
X-155324095Y-38922152D01*
X-155371714Y-38731676D01*
X-155419333Y-38636438D01*
X-155514571Y-38541200D01*
X-155657428Y-38493580D01*
X-155752666Y-38493580D01*
X-155895523Y-38541200D01*
X-155943142Y-38588819D01*
X-156895523Y-39493580D02*
X-156324095Y-39493580D01*
X-156609809Y-39493580D02*
X-156609809Y-38493580D01*
X-156514571Y-38636438D01*
X-156419333Y-38731676D01*
X-156324095Y-38779295D01*
X-157228857Y-38493580D02*
X-157847904Y-38493580D01*
X-157514571Y-38874533D01*
X-157657428Y-38874533D01*
X-157752666Y-38922152D01*
X-157800285Y-38969771D01*
X-157847904Y-39065009D01*
X-157847904Y-39303104D01*
X-157800285Y-39398342D01*
X-157752666Y-39445961D01*
X-157657428Y-39493580D01*
X-157371714Y-39493580D01*
X-157276476Y-39445961D01*
X-157228857Y-39398342D01*
D11*
%TO.C,C11*%
X-203989652Y-37331800D02*
X-203467148Y-37331800D01*
X-203989652Y-35861800D02*
X-203467148Y-35861800D01*
%TO.C,C12*%
X-203938852Y-41246600D02*
X-203416348Y-41246600D01*
X-203938852Y-42716600D02*
X-203416348Y-42716600D01*
%TO.C,C13*%
X-156324748Y-39986200D02*
X-156847252Y-39986200D01*
X-156324748Y-41456200D02*
X-156847252Y-41456200D01*
%TD*%
M02*
