G04 #@! TF.GenerationSoftware,KiCad,Pcbnew,(6.0.10)*
G04 #@! TF.CreationDate,2023-02-06T13:34:11-03:00*
G04 #@! TF.ProjectId,Core_HW,436f7265-5f48-4572-9e6b-696361645f70,rev?*
G04 #@! TF.SameCoordinates,Original*
G04 #@! TF.FileFunction,Profile,NP*
%FSLAX46Y46*%
G04 Gerber Fmt 4.6, Leading zero omitted, Abs format (unit mm)*
G04 Created by KiCad (PCBNEW (6.0.10)) date 2023-02-06 13:34:11*
%MOMM*%
%LPD*%
G01*
G04 APERTURE LIST*
G04 #@! TA.AperFunction,Profile*
%ADD10C,0.100000*%
G04 #@! TD*
%ADD11C,0.150000*%
G04 APERTURE END LIST*
D10*
X77343000Y-66548000D02*
X164973000Y-66548000D01*
X164973000Y-66548000D02*
X164973000Y-164973000D01*
X164973000Y-164973000D02*
X77343000Y-164973000D01*
X77343000Y-164973000D02*
X77343000Y-66548000D01*
D11*
X116729428Y-167132952D02*
X116634190Y-167085333D01*
X116586571Y-167037714D01*
X116538952Y-166942476D01*
X116538952Y-166894857D01*
X116586571Y-166799619D01*
X116634190Y-166752000D01*
X116729428Y-166704380D01*
X116919904Y-166704380D01*
X117015142Y-166752000D01*
X117062761Y-166799619D01*
X117110380Y-166894857D01*
X117110380Y-166942476D01*
X117062761Y-167037714D01*
X117015142Y-167085333D01*
X116919904Y-167132952D01*
X116729428Y-167132952D01*
X116634190Y-167180571D01*
X116586571Y-167228190D01*
X116538952Y-167323428D01*
X116538952Y-167513904D01*
X116586571Y-167609142D01*
X116634190Y-167656761D01*
X116729428Y-167704380D01*
X116919904Y-167704380D01*
X117015142Y-167656761D01*
X117062761Y-167609142D01*
X117110380Y-167513904D01*
X117110380Y-167323428D01*
X117062761Y-167228190D01*
X117015142Y-167180571D01*
X116919904Y-167132952D01*
X117443714Y-166704380D02*
X118110380Y-166704380D01*
X117681809Y-167704380D01*
X118491333Y-167609142D02*
X118538952Y-167656761D01*
X118491333Y-167704380D01*
X118443714Y-167656761D01*
X118491333Y-167609142D01*
X118491333Y-167704380D01*
X119396095Y-166704380D02*
X119205619Y-166704380D01*
X119110380Y-166752000D01*
X119062761Y-166799619D01*
X118967523Y-166942476D01*
X118919904Y-167132952D01*
X118919904Y-167513904D01*
X118967523Y-167609142D01*
X119015142Y-167656761D01*
X119110380Y-167704380D01*
X119300857Y-167704380D01*
X119396095Y-167656761D01*
X119443714Y-167609142D01*
X119491333Y-167513904D01*
X119491333Y-167275809D01*
X119443714Y-167180571D01*
X119396095Y-167132952D01*
X119300857Y-167085333D01*
X119110380Y-167085333D01*
X119015142Y-167132952D01*
X118967523Y-167180571D01*
X118919904Y-167275809D01*
X119824666Y-166704380D02*
X120443714Y-166704380D01*
X120110380Y-167085333D01*
X120253238Y-167085333D01*
X120348476Y-167132952D01*
X120396095Y-167180571D01*
X120443714Y-167275809D01*
X120443714Y-167513904D01*
X120396095Y-167609142D01*
X120348476Y-167656761D01*
X120253238Y-167704380D01*
X119967523Y-167704380D01*
X119872285Y-167656761D01*
X119824666Y-167609142D01*
X121062761Y-166704380D02*
X121158000Y-166704380D01*
X121253238Y-166752000D01*
X121300857Y-166799619D01*
X121348476Y-166894857D01*
X121396095Y-167085333D01*
X121396095Y-167323428D01*
X121348476Y-167513904D01*
X121300857Y-167609142D01*
X121253238Y-167656761D01*
X121158000Y-167704380D01*
X121062761Y-167704380D01*
X120967523Y-167656761D01*
X120919904Y-167609142D01*
X120872285Y-167513904D01*
X120824666Y-167323428D01*
X120824666Y-167085333D01*
X120872285Y-166894857D01*
X120919904Y-166799619D01*
X120967523Y-166752000D01*
X121062761Y-166704380D01*
X122015142Y-166704380D02*
X122110380Y-166704380D01*
X122205619Y-166752000D01*
X122253238Y-166799619D01*
X122300857Y-166894857D01*
X122348476Y-167085333D01*
X122348476Y-167323428D01*
X122300857Y-167513904D01*
X122253238Y-167609142D01*
X122205619Y-167656761D01*
X122110380Y-167704380D01*
X122015142Y-167704380D01*
X121919904Y-167656761D01*
X121872285Y-167609142D01*
X121824666Y-167513904D01*
X121777047Y-167323428D01*
X121777047Y-167085333D01*
X121824666Y-166894857D01*
X121872285Y-166799619D01*
X121919904Y-166752000D01*
X122015142Y-166704380D01*
X123538952Y-167704380D02*
X123538952Y-167037714D01*
X123538952Y-167132952D02*
X123586571Y-167085333D01*
X123681809Y-167037714D01*
X123824666Y-167037714D01*
X123919904Y-167085333D01*
X123967523Y-167180571D01*
X123967523Y-167704380D01*
X123967523Y-167180571D02*
X124015142Y-167085333D01*
X124110380Y-167037714D01*
X124253238Y-167037714D01*
X124348476Y-167085333D01*
X124396095Y-167180571D01*
X124396095Y-167704380D01*
X124872285Y-167704380D02*
X124872285Y-167037714D01*
X124872285Y-167132952D02*
X124919904Y-167085333D01*
X125015142Y-167037714D01*
X125158000Y-167037714D01*
X125253238Y-167085333D01*
X125300857Y-167180571D01*
X125300857Y-167704380D01*
X125300857Y-167180571D02*
X125348476Y-167085333D01*
X125443714Y-167037714D01*
X125586571Y-167037714D01*
X125681809Y-167085333D01*
X125729428Y-167180571D01*
X125729428Y-167704380D01*
D10*
X77343000Y-165473000D02*
X77343000Y-168988420D01*
X164973000Y-165473000D02*
X164973000Y-168988420D01*
X77343000Y-168402000D02*
X164973000Y-168402000D01*
X77343000Y-168402000D02*
X164973000Y-168402000D01*
X77343000Y-168402000D02*
X78469504Y-168988421D01*
X77343000Y-168402000D02*
X78469504Y-167815579D01*
X164973000Y-168402000D02*
X163846496Y-167815579D01*
X164973000Y-168402000D02*
X163846496Y-168988421D01*
D11*
X175070380Y-120284309D02*
X175070380Y-120093833D01*
X175022761Y-119998595D01*
X174975142Y-119950976D01*
X174832285Y-119855738D01*
X174641809Y-119808119D01*
X174260857Y-119808119D01*
X174165619Y-119855738D01*
X174118000Y-119903357D01*
X174070380Y-119998595D01*
X174070380Y-120189071D01*
X174118000Y-120284309D01*
X174165619Y-120331928D01*
X174260857Y-120379547D01*
X174498952Y-120379547D01*
X174594190Y-120331928D01*
X174641809Y-120284309D01*
X174689428Y-120189071D01*
X174689428Y-119998595D01*
X174641809Y-119903357D01*
X174594190Y-119855738D01*
X174498952Y-119808119D01*
X174498952Y-119236690D02*
X174451333Y-119331928D01*
X174403714Y-119379547D01*
X174308476Y-119427166D01*
X174260857Y-119427166D01*
X174165619Y-119379547D01*
X174118000Y-119331928D01*
X174070380Y-119236690D01*
X174070380Y-119046214D01*
X174118000Y-118950976D01*
X174165619Y-118903357D01*
X174260857Y-118855738D01*
X174308476Y-118855738D01*
X174403714Y-118903357D01*
X174451333Y-118950976D01*
X174498952Y-119046214D01*
X174498952Y-119236690D01*
X174546571Y-119331928D01*
X174594190Y-119379547D01*
X174689428Y-119427166D01*
X174879904Y-119427166D01*
X174975142Y-119379547D01*
X175022761Y-119331928D01*
X175070380Y-119236690D01*
X175070380Y-119046214D01*
X175022761Y-118950976D01*
X174975142Y-118903357D01*
X174879904Y-118855738D01*
X174689428Y-118855738D01*
X174594190Y-118903357D01*
X174546571Y-118950976D01*
X174498952Y-119046214D01*
X174975142Y-118427166D02*
X175022761Y-118379547D01*
X175070380Y-118427166D01*
X175022761Y-118474785D01*
X174975142Y-118427166D01*
X175070380Y-118427166D01*
X174403714Y-117522404D02*
X175070380Y-117522404D01*
X174022761Y-117760500D02*
X174737047Y-117998595D01*
X174737047Y-117379547D01*
X174165619Y-117046214D02*
X174118000Y-116998595D01*
X174070380Y-116903357D01*
X174070380Y-116665261D01*
X174118000Y-116570023D01*
X174165619Y-116522404D01*
X174260857Y-116474785D01*
X174356095Y-116474785D01*
X174498952Y-116522404D01*
X175070380Y-117093833D01*
X175070380Y-116474785D01*
X174070380Y-115570023D02*
X174070380Y-116046214D01*
X174546571Y-116093833D01*
X174498952Y-116046214D01*
X174451333Y-115950976D01*
X174451333Y-115712880D01*
X174498952Y-115617642D01*
X174546571Y-115570023D01*
X174641809Y-115522404D01*
X174879904Y-115522404D01*
X174975142Y-115570023D01*
X175022761Y-115617642D01*
X175070380Y-115712880D01*
X175070380Y-115950976D01*
X175022761Y-116046214D01*
X174975142Y-116093833D01*
X174070380Y-114903357D02*
X174070380Y-114808119D01*
X174118000Y-114712880D01*
X174165619Y-114665261D01*
X174260857Y-114617642D01*
X174451333Y-114570023D01*
X174689428Y-114570023D01*
X174879904Y-114617642D01*
X174975142Y-114665261D01*
X175022761Y-114712880D01*
X175070380Y-114808119D01*
X175070380Y-114903357D01*
X175022761Y-114998595D01*
X174975142Y-115046214D01*
X174879904Y-115093833D01*
X174689428Y-115141452D01*
X174451333Y-115141452D01*
X174260857Y-115093833D01*
X174165619Y-115046214D01*
X174118000Y-114998595D01*
X174070380Y-114903357D01*
X175070380Y-113379547D02*
X174403714Y-113379547D01*
X174498952Y-113379547D02*
X174451333Y-113331928D01*
X174403714Y-113236690D01*
X174403714Y-113093833D01*
X174451333Y-112998595D01*
X174546571Y-112950976D01*
X175070380Y-112950976D01*
X174546571Y-112950976D02*
X174451333Y-112903357D01*
X174403714Y-112808119D01*
X174403714Y-112665261D01*
X174451333Y-112570023D01*
X174546571Y-112522404D01*
X175070380Y-112522404D01*
X175070380Y-112046214D02*
X174403714Y-112046214D01*
X174498952Y-112046214D02*
X174451333Y-111998595D01*
X174403714Y-111903357D01*
X174403714Y-111760500D01*
X174451333Y-111665261D01*
X174546571Y-111617642D01*
X175070380Y-111617642D01*
X174546571Y-111617642D02*
X174451333Y-111570023D01*
X174403714Y-111474785D01*
X174403714Y-111331928D01*
X174451333Y-111236690D01*
X174546571Y-111189071D01*
X175070380Y-111189071D01*
D10*
X165473000Y-66548000D02*
X176354420Y-66548000D01*
X165473000Y-164973000D02*
X176354420Y-164973000D01*
X175768000Y-66548000D02*
X175768000Y-164973000D01*
X175768000Y-66548000D02*
X175768000Y-164973000D01*
X175768000Y-66548000D02*
X175181579Y-67674504D01*
X175768000Y-66548000D02*
X176354421Y-67674504D01*
X175768000Y-164973000D02*
X176354421Y-163846496D01*
X175768000Y-164973000D02*
X175181579Y-163846496D01*
M02*
