G04 #@! TF.GenerationSoftware,KiCad,Pcbnew,(6.0.10)*
G04 #@! TF.CreationDate,2023-02-06T13:34:11-03:00*
G04 #@! TF.ProjectId,Core_HW,436f7265-5f48-4572-9e6b-696361645f70,rev?*
G04 #@! TF.SameCoordinates,Original*
G04 #@! TF.FileFunction,Legend,Top*
G04 #@! TF.FilePolarity,Positive*
%FSLAX46Y46*%
G04 Gerber Fmt 4.6, Leading zero omitted, Abs format (unit mm)*
G04 Created by KiCad (PCBNEW (6.0.10)) date 2023-02-06 13:34:11*
%MOMM*%
%LPD*%
G01*
G04 APERTURE LIST*
G04 Aperture macros list*
%AMRoundRect*
0 Rectangle with rounded corners*
0 $1 Rounding radius*
0 $2 $3 $4 $5 $6 $7 $8 $9 X,Y pos of 4 corners*
0 Add a 4 corners polygon primitive as box body*
4,1,4,$2,$3,$4,$5,$6,$7,$8,$9,$2,$3,0*
0 Add four circle primitives for the rounded corners*
1,1,$1+$1,$2,$3*
1,1,$1+$1,$4,$5*
1,1,$1+$1,$6,$7*
1,1,$1+$1,$8,$9*
0 Add four rect primitives between the rounded corners*
20,1,$1+$1,$2,$3,$4,$5,0*
20,1,$1+$1,$4,$5,$6,$7,0*
20,1,$1+$1,$6,$7,$8,$9,0*
20,1,$1+$1,$8,$9,$2,$3,0*%
G04 Aperture macros list end*
%ADD10C,0.150000*%
%ADD11C,0.120000*%
%ADD12RoundRect,0.250000X-0.450000X0.350000X-0.450000X-0.350000X0.450000X-0.350000X0.450000X0.350000X0*%
%ADD13R,1.700000X1.700000*%
%ADD14O,1.700000X1.700000*%
%ADD15C,2.000000*%
%ADD16RoundRect,0.250000X-0.350000X-0.450000X0.350000X-0.450000X0.350000X0.450000X-0.350000X0.450000X0*%
%ADD17R,1.600000X2.400000*%
%ADD18O,1.600000X2.400000*%
%ADD19RoundRect,0.250000X0.350000X0.450000X-0.350000X0.450000X-0.350000X-0.450000X0.350000X-0.450000X0*%
%ADD20RoundRect,0.250000X0.450000X-0.350000X0.450000X0.350000X-0.450000X0.350000X-0.450000X-0.350000X0*%
%ADD21RoundRect,0.250000X0.620000X0.845000X-0.620000X0.845000X-0.620000X-0.845000X0.620000X-0.845000X0*%
%ADD22O,1.740000X2.190000*%
G04 APERTURE END LIST*
D10*
X101575142Y-96702666D02*
X101622761Y-96750285D01*
X101670380Y-96893142D01*
X101670380Y-96988380D01*
X101622761Y-97131238D01*
X101527523Y-97226476D01*
X101432285Y-97274095D01*
X101241809Y-97321714D01*
X101098952Y-97321714D01*
X100908476Y-97274095D01*
X100813238Y-97226476D01*
X100718000Y-97131238D01*
X100670380Y-96988380D01*
X100670380Y-96893142D01*
X100718000Y-96750285D01*
X100765619Y-96702666D01*
X101098952Y-96131238D02*
X101051333Y-96226476D01*
X101003714Y-96274095D01*
X100908476Y-96321714D01*
X100860857Y-96321714D01*
X100765619Y-96274095D01*
X100718000Y-96226476D01*
X100670380Y-96131238D01*
X100670380Y-95940761D01*
X100718000Y-95845523D01*
X100765619Y-95797904D01*
X100860857Y-95750285D01*
X100908476Y-95750285D01*
X101003714Y-95797904D01*
X101051333Y-95845523D01*
X101098952Y-95940761D01*
X101098952Y-96131238D01*
X101146571Y-96226476D01*
X101194190Y-96274095D01*
X101289428Y-96321714D01*
X101479904Y-96321714D01*
X101575142Y-96274095D01*
X101622761Y-96226476D01*
X101670380Y-96131238D01*
X101670380Y-95940761D01*
X101622761Y-95845523D01*
X101575142Y-95797904D01*
X101479904Y-95750285D01*
X101289428Y-95750285D01*
X101194190Y-95797904D01*
X101146571Y-95845523D01*
X101098952Y-95940761D01*
X105861380Y-159551666D02*
X105385190Y-159885000D01*
X105861380Y-160123095D02*
X104861380Y-160123095D01*
X104861380Y-159742142D01*
X104909000Y-159646904D01*
X104956619Y-159599285D01*
X105051857Y-159551666D01*
X105194714Y-159551666D01*
X105289952Y-159599285D01*
X105337571Y-159646904D01*
X105385190Y-159742142D01*
X105385190Y-160123095D01*
X105289952Y-158980238D02*
X105242333Y-159075476D01*
X105194714Y-159123095D01*
X105099476Y-159170714D01*
X105051857Y-159170714D01*
X104956619Y-159123095D01*
X104909000Y-159075476D01*
X104861380Y-158980238D01*
X104861380Y-158789761D01*
X104909000Y-158694523D01*
X104956619Y-158646904D01*
X105051857Y-158599285D01*
X105099476Y-158599285D01*
X105194714Y-158646904D01*
X105242333Y-158694523D01*
X105289952Y-158789761D01*
X105289952Y-158980238D01*
X105337571Y-159075476D01*
X105385190Y-159123095D01*
X105480428Y-159170714D01*
X105670904Y-159170714D01*
X105766142Y-159123095D01*
X105813761Y-159075476D01*
X105861380Y-158980238D01*
X105861380Y-158789761D01*
X105813761Y-158694523D01*
X105766142Y-158646904D01*
X105670904Y-158599285D01*
X105480428Y-158599285D01*
X105385190Y-158646904D01*
X105337571Y-158694523D01*
X105289952Y-158789761D01*
X112179380Y-90757333D02*
X112893666Y-90757333D01*
X113036523Y-90804952D01*
X113131761Y-90900190D01*
X113179380Y-91043047D01*
X113179380Y-91138285D01*
X112607952Y-90138285D02*
X112560333Y-90233523D01*
X112512714Y-90281142D01*
X112417476Y-90328761D01*
X112369857Y-90328761D01*
X112274619Y-90281142D01*
X112227000Y-90233523D01*
X112179380Y-90138285D01*
X112179380Y-89947809D01*
X112227000Y-89852571D01*
X112274619Y-89804952D01*
X112369857Y-89757333D01*
X112417476Y-89757333D01*
X112512714Y-89804952D01*
X112560333Y-89852571D01*
X112607952Y-89947809D01*
X112607952Y-90138285D01*
X112655571Y-90233523D01*
X112703190Y-90281142D01*
X112798428Y-90328761D01*
X112988904Y-90328761D01*
X113084142Y-90281142D01*
X113131761Y-90233523D01*
X113179380Y-90138285D01*
X113179380Y-89947809D01*
X113131761Y-89852571D01*
X113084142Y-89804952D01*
X112988904Y-89757333D01*
X112798428Y-89757333D01*
X112703190Y-89804952D01*
X112655571Y-89852571D01*
X112607952Y-89947809D01*
X153082666Y-94101380D02*
X153082666Y-94815666D01*
X153035047Y-94958523D01*
X152939809Y-95053761D01*
X152796952Y-95101380D01*
X152701714Y-95101380D01*
X153463619Y-94101380D02*
X154082666Y-94101380D01*
X153749333Y-94482333D01*
X153892190Y-94482333D01*
X153987428Y-94529952D01*
X154035047Y-94577571D01*
X154082666Y-94672809D01*
X154082666Y-94910904D01*
X154035047Y-95006142D01*
X153987428Y-95053761D01*
X153892190Y-95101380D01*
X153606476Y-95101380D01*
X153511238Y-95053761D01*
X153463619Y-95006142D01*
X109006666Y-150994761D02*
X109149523Y-151042380D01*
X109387619Y-151042380D01*
X109482857Y-150994761D01*
X109530476Y-150947142D01*
X109578095Y-150851904D01*
X109578095Y-150756666D01*
X109530476Y-150661428D01*
X109482857Y-150613809D01*
X109387619Y-150566190D01*
X109197142Y-150518571D01*
X109101904Y-150470952D01*
X109054285Y-150423333D01*
X109006666Y-150328095D01*
X109006666Y-150232857D01*
X109054285Y-150137619D01*
X109101904Y-150090000D01*
X109197142Y-150042380D01*
X109435238Y-150042380D01*
X109578095Y-150090000D01*
X109911428Y-150042380D02*
X110149523Y-151042380D01*
X110340000Y-150328095D01*
X110530476Y-151042380D01*
X110768571Y-150042380D01*
X111054285Y-150042380D02*
X111673333Y-150042380D01*
X111340000Y-150423333D01*
X111482857Y-150423333D01*
X111578095Y-150470952D01*
X111625714Y-150518571D01*
X111673333Y-150613809D01*
X111673333Y-150851904D01*
X111625714Y-150947142D01*
X111578095Y-150994761D01*
X111482857Y-151042380D01*
X111197142Y-151042380D01*
X111101904Y-150994761D01*
X111054285Y-150947142D01*
X134608666Y-161408761D02*
X134751523Y-161456380D01*
X134989619Y-161456380D01*
X135084857Y-161408761D01*
X135132476Y-161361142D01*
X135180095Y-161265904D01*
X135180095Y-161170666D01*
X135132476Y-161075428D01*
X135084857Y-161027809D01*
X134989619Y-160980190D01*
X134799142Y-160932571D01*
X134703904Y-160884952D01*
X134656285Y-160837333D01*
X134608666Y-160742095D01*
X134608666Y-160646857D01*
X134656285Y-160551619D01*
X134703904Y-160504000D01*
X134799142Y-160456380D01*
X135037238Y-160456380D01*
X135180095Y-160504000D01*
X135513428Y-160456380D02*
X135751523Y-161456380D01*
X135942000Y-160742095D01*
X136132476Y-161456380D01*
X136370571Y-160456380D01*
X136799142Y-161456380D02*
X136989619Y-161456380D01*
X137084857Y-161408761D01*
X137132476Y-161361142D01*
X137227714Y-161218285D01*
X137275333Y-161027809D01*
X137275333Y-160646857D01*
X137227714Y-160551619D01*
X137180095Y-160504000D01*
X137084857Y-160456380D01*
X136894380Y-160456380D01*
X136799142Y-160504000D01*
X136751523Y-160551619D01*
X136703904Y-160646857D01*
X136703904Y-160884952D01*
X136751523Y-160980190D01*
X136799142Y-161027809D01*
X136894380Y-161075428D01*
X137084857Y-161075428D01*
X137180095Y-161027809D01*
X137227714Y-160980190D01*
X137275333Y-160884952D01*
X128389142Y-157552380D02*
X128055809Y-157076190D01*
X127817714Y-157552380D02*
X127817714Y-156552380D01*
X128198666Y-156552380D01*
X128293904Y-156600000D01*
X128341523Y-156647619D01*
X128389142Y-156742857D01*
X128389142Y-156885714D01*
X128341523Y-156980952D01*
X128293904Y-157028571D01*
X128198666Y-157076190D01*
X127817714Y-157076190D01*
X129341523Y-157552380D02*
X128770095Y-157552380D01*
X129055809Y-157552380D02*
X129055809Y-156552380D01*
X128960571Y-156695238D01*
X128865333Y-156790476D01*
X128770095Y-156838095D01*
X129674857Y-156552380D02*
X130341523Y-156552380D01*
X129912952Y-157552380D01*
X129405142Y-150186380D02*
X129071809Y-149710190D01*
X128833714Y-150186380D02*
X128833714Y-149186380D01*
X129214666Y-149186380D01*
X129309904Y-149234000D01*
X129357523Y-149281619D01*
X129405142Y-149376857D01*
X129405142Y-149519714D01*
X129357523Y-149614952D01*
X129309904Y-149662571D01*
X129214666Y-149710190D01*
X128833714Y-149710190D01*
X130357523Y-150186380D02*
X129786095Y-150186380D01*
X130071809Y-150186380D02*
X130071809Y-149186380D01*
X129976571Y-149329238D01*
X129881333Y-149424476D01*
X129786095Y-149472095D01*
X130690857Y-149186380D02*
X131309904Y-149186380D01*
X130976571Y-149567333D01*
X131119428Y-149567333D01*
X131214666Y-149614952D01*
X131262285Y-149662571D01*
X131309904Y-149757809D01*
X131309904Y-149995904D01*
X131262285Y-150091142D01*
X131214666Y-150138761D01*
X131119428Y-150186380D01*
X130833714Y-150186380D01*
X130738476Y-150138761D01*
X130690857Y-150091142D01*
X155452380Y-113363333D02*
X156166666Y-113363333D01*
X156309523Y-113410952D01*
X156404761Y-113506190D01*
X156452380Y-113649047D01*
X156452380Y-113744285D01*
X155452380Y-112458571D02*
X155452380Y-112649047D01*
X155500000Y-112744285D01*
X155547619Y-112791904D01*
X155690476Y-112887142D01*
X155880952Y-112934761D01*
X156261904Y-112934761D01*
X156357142Y-112887142D01*
X156404761Y-112839523D01*
X156452380Y-112744285D01*
X156452380Y-112553809D01*
X156404761Y-112458571D01*
X156357142Y-112410952D01*
X156261904Y-112363333D01*
X156023809Y-112363333D01*
X155928571Y-112410952D01*
X155880952Y-112458571D01*
X155833333Y-112553809D01*
X155833333Y-112744285D01*
X155880952Y-112839523D01*
X155928571Y-112887142D01*
X156023809Y-112934761D01*
X123863380Y-129333523D02*
X124577666Y-129333523D01*
X124720523Y-129381142D01*
X124815761Y-129476380D01*
X124863380Y-129619238D01*
X124863380Y-129714476D01*
X124863380Y-128333523D02*
X124863380Y-128904952D01*
X124863380Y-128619238D02*
X123863380Y-128619238D01*
X124006238Y-128714476D01*
X124101476Y-128809714D01*
X124149095Y-128904952D01*
X123863380Y-127476380D02*
X123863380Y-127666857D01*
X123911000Y-127762095D01*
X123958619Y-127809714D01*
X124101476Y-127904952D01*
X124291952Y-127952571D01*
X124672904Y-127952571D01*
X124768142Y-127904952D01*
X124815761Y-127857333D01*
X124863380Y-127762095D01*
X124863380Y-127571619D01*
X124815761Y-127476380D01*
X124768142Y-127428761D01*
X124672904Y-127381142D01*
X124434809Y-127381142D01*
X124339571Y-127428761D01*
X124291952Y-127476380D01*
X124244333Y-127571619D01*
X124244333Y-127762095D01*
X124291952Y-127857333D01*
X124339571Y-127904952D01*
X124434809Y-127952571D01*
X146885066Y-70902580D02*
X146885066Y-71616866D01*
X146837447Y-71759723D01*
X146742209Y-71854961D01*
X146599352Y-71902580D01*
X146504114Y-71902580D01*
X147313638Y-70997819D02*
X147361257Y-70950200D01*
X147456495Y-70902580D01*
X147694590Y-70902580D01*
X147789828Y-70950200D01*
X147837447Y-70997819D01*
X147885066Y-71093057D01*
X147885066Y-71188295D01*
X147837447Y-71331152D01*
X147266019Y-71902580D01*
X147885066Y-71902580D01*
X100290333Y-147172380D02*
X99957000Y-146696190D01*
X99718904Y-147172380D02*
X99718904Y-146172380D01*
X100099857Y-146172380D01*
X100195095Y-146220000D01*
X100242714Y-146267619D01*
X100290333Y-146362857D01*
X100290333Y-146505714D01*
X100242714Y-146600952D01*
X100195095Y-146648571D01*
X100099857Y-146696190D01*
X99718904Y-146696190D01*
X101242714Y-147172380D02*
X100671285Y-147172380D01*
X100957000Y-147172380D02*
X100957000Y-146172380D01*
X100861761Y-146315238D01*
X100766523Y-146410476D01*
X100671285Y-146458095D01*
X148843380Y-129333523D02*
X149557666Y-129333523D01*
X149700523Y-129381142D01*
X149795761Y-129476380D01*
X149843380Y-129619238D01*
X149843380Y-129714476D01*
X149843380Y-128333523D02*
X149843380Y-128904952D01*
X149843380Y-128619238D02*
X148843380Y-128619238D01*
X148986238Y-128714476D01*
X149081476Y-128809714D01*
X149129095Y-128904952D01*
X148843380Y-128000190D02*
X148843380Y-127381142D01*
X149224333Y-127714476D01*
X149224333Y-127571619D01*
X149271952Y-127476380D01*
X149319571Y-127428761D01*
X149414809Y-127381142D01*
X149652904Y-127381142D01*
X149748142Y-127428761D01*
X149795761Y-127476380D01*
X149843380Y-127571619D01*
X149843380Y-127857333D01*
X149795761Y-127952571D01*
X149748142Y-128000190D01*
X94694476Y-103050380D02*
X94694476Y-103764666D01*
X94646857Y-103907523D01*
X94551619Y-104002761D01*
X94408761Y-104050380D01*
X94313523Y-104050380D01*
X95694476Y-104050380D02*
X95123047Y-104050380D01*
X95408761Y-104050380D02*
X95408761Y-103050380D01*
X95313523Y-103193238D01*
X95218285Y-103288476D01*
X95123047Y-103336095D01*
X96646857Y-104050380D02*
X96075428Y-104050380D01*
X96361142Y-104050380D02*
X96361142Y-103050380D01*
X96265904Y-103193238D01*
X96170666Y-103288476D01*
X96075428Y-103336095D01*
X147803142Y-138850666D02*
X147850761Y-138898285D01*
X147898380Y-139041142D01*
X147898380Y-139136380D01*
X147850761Y-139279238D01*
X147755523Y-139374476D01*
X147660285Y-139422095D01*
X147469809Y-139469714D01*
X147326952Y-139469714D01*
X147136476Y-139422095D01*
X147041238Y-139374476D01*
X146946000Y-139279238D01*
X146898380Y-139136380D01*
X146898380Y-139041142D01*
X146946000Y-138898285D01*
X146993619Y-138850666D01*
X146898380Y-138517333D02*
X146898380Y-137850666D01*
X147898380Y-138279238D01*
X99826380Y-82597523D02*
X100540666Y-82597523D01*
X100683523Y-82645142D01*
X100778761Y-82740380D01*
X100826380Y-82883238D01*
X100826380Y-82978476D01*
X99921619Y-82168952D02*
X99874000Y-82121333D01*
X99826380Y-82026095D01*
X99826380Y-81788000D01*
X99874000Y-81692761D01*
X99921619Y-81645142D01*
X100016857Y-81597523D01*
X100112095Y-81597523D01*
X100254952Y-81645142D01*
X100826380Y-82216571D01*
X100826380Y-81597523D01*
X100826380Y-80645142D02*
X100826380Y-81216571D01*
X100826380Y-80930857D02*
X99826380Y-80930857D01*
X99969238Y-81026095D01*
X100064476Y-81121333D01*
X100112095Y-81216571D01*
X94804380Y-144438666D02*
X94328190Y-144772000D01*
X94804380Y-145010095D02*
X93804380Y-145010095D01*
X93804380Y-144629142D01*
X93852000Y-144533904D01*
X93899619Y-144486285D01*
X93994857Y-144438666D01*
X94137714Y-144438666D01*
X94232952Y-144486285D01*
X94280571Y-144533904D01*
X94328190Y-144629142D01*
X94328190Y-145010095D01*
X93899619Y-144057714D02*
X93852000Y-144010095D01*
X93804380Y-143914857D01*
X93804380Y-143676761D01*
X93852000Y-143581523D01*
X93899619Y-143533904D01*
X93994857Y-143486285D01*
X94090095Y-143486285D01*
X94232952Y-143533904D01*
X94804380Y-144105333D01*
X94804380Y-143486285D01*
X145478666Y-150958761D02*
X145621523Y-151006380D01*
X145859619Y-151006380D01*
X145954857Y-150958761D01*
X146002476Y-150911142D01*
X146050095Y-150815904D01*
X146050095Y-150720666D01*
X146002476Y-150625428D01*
X145954857Y-150577809D01*
X145859619Y-150530190D01*
X145669142Y-150482571D01*
X145573904Y-150434952D01*
X145526285Y-150387333D01*
X145478666Y-150292095D01*
X145478666Y-150196857D01*
X145526285Y-150101619D01*
X145573904Y-150054000D01*
X145669142Y-150006380D01*
X145907238Y-150006380D01*
X146050095Y-150054000D01*
X146383428Y-150006380D02*
X146621523Y-151006380D01*
X146812000Y-150292095D01*
X147002476Y-151006380D01*
X147240571Y-150006380D01*
X147526285Y-150006380D02*
X148192952Y-150006380D01*
X147764380Y-151006380D01*
X122212380Y-99869523D02*
X122926666Y-99869523D01*
X123069523Y-99917142D01*
X123164761Y-100012380D01*
X123212380Y-100155238D01*
X123212380Y-100250476D01*
X123212380Y-98869523D02*
X123212380Y-99440952D01*
X123212380Y-99155238D02*
X122212380Y-99155238D01*
X122355238Y-99250476D01*
X122450476Y-99345714D01*
X122498095Y-99440952D01*
X122212380Y-97964761D02*
X122212380Y-98440952D01*
X122688571Y-98488571D01*
X122640952Y-98440952D01*
X122593333Y-98345714D01*
X122593333Y-98107619D01*
X122640952Y-98012380D01*
X122688571Y-97964761D01*
X122783809Y-97917142D01*
X123021904Y-97917142D01*
X123117142Y-97964761D01*
X123164761Y-98012380D01*
X123212380Y-98107619D01*
X123212380Y-98345714D01*
X123164761Y-98440952D01*
X123117142Y-98488571D01*
X94694476Y-84747380D02*
X94694476Y-85461666D01*
X94646857Y-85604523D01*
X94551619Y-85699761D01*
X94408761Y-85747380D01*
X94313523Y-85747380D01*
X95694476Y-85747380D02*
X95123047Y-85747380D01*
X95408761Y-85747380D02*
X95408761Y-84747380D01*
X95313523Y-84890238D01*
X95218285Y-84985476D01*
X95123047Y-85033095D01*
X96265904Y-85175952D02*
X96170666Y-85128333D01*
X96123047Y-85080714D01*
X96075428Y-84985476D01*
X96075428Y-84937857D01*
X96123047Y-84842619D01*
X96170666Y-84795000D01*
X96265904Y-84747380D01*
X96456380Y-84747380D01*
X96551619Y-84795000D01*
X96599238Y-84842619D01*
X96646857Y-84937857D01*
X96646857Y-84985476D01*
X96599238Y-85080714D01*
X96551619Y-85128333D01*
X96456380Y-85175952D01*
X96265904Y-85175952D01*
X96170666Y-85223571D01*
X96123047Y-85271190D01*
X96075428Y-85366428D01*
X96075428Y-85556904D01*
X96123047Y-85652142D01*
X96170666Y-85699761D01*
X96265904Y-85747380D01*
X96456380Y-85747380D01*
X96551619Y-85699761D01*
X96599238Y-85652142D01*
X96646857Y-85556904D01*
X96646857Y-85366428D01*
X96599238Y-85271190D01*
X96551619Y-85223571D01*
X96456380Y-85175952D01*
X133515380Y-99869523D02*
X134229666Y-99869523D01*
X134372523Y-99917142D01*
X134467761Y-100012380D01*
X134515380Y-100155238D01*
X134515380Y-100250476D01*
X134515380Y-98869523D02*
X134515380Y-99440952D01*
X134515380Y-99155238D02*
X133515380Y-99155238D01*
X133658238Y-99250476D01*
X133753476Y-99345714D01*
X133801095Y-99440952D01*
X133610619Y-98488571D02*
X133563000Y-98440952D01*
X133515380Y-98345714D01*
X133515380Y-98107619D01*
X133563000Y-98012380D01*
X133610619Y-97964761D01*
X133705857Y-97917142D01*
X133801095Y-97917142D01*
X133943952Y-97964761D01*
X134515380Y-98536190D01*
X134515380Y-97917142D01*
X109006666Y-163694761D02*
X109149523Y-163742380D01*
X109387619Y-163742380D01*
X109482857Y-163694761D01*
X109530476Y-163647142D01*
X109578095Y-163551904D01*
X109578095Y-163456666D01*
X109530476Y-163361428D01*
X109482857Y-163313809D01*
X109387619Y-163266190D01*
X109197142Y-163218571D01*
X109101904Y-163170952D01*
X109054285Y-163123333D01*
X109006666Y-163028095D01*
X109006666Y-162932857D01*
X109054285Y-162837619D01*
X109101904Y-162790000D01*
X109197142Y-162742380D01*
X109435238Y-162742380D01*
X109578095Y-162790000D01*
X109911428Y-162742380D02*
X110149523Y-163742380D01*
X110340000Y-163028095D01*
X110530476Y-163742380D01*
X110768571Y-162742380D01*
X111578095Y-163075714D02*
X111578095Y-163742380D01*
X111340000Y-162694761D02*
X111101904Y-163409047D01*
X111720952Y-163409047D01*
X102481142Y-97489380D02*
X102147809Y-97013190D01*
X101909714Y-97489380D02*
X101909714Y-96489380D01*
X102290666Y-96489380D01*
X102385904Y-96537000D01*
X102433523Y-96584619D01*
X102481142Y-96679857D01*
X102481142Y-96822714D01*
X102433523Y-96917952D01*
X102385904Y-96965571D01*
X102290666Y-97013190D01*
X101909714Y-97013190D01*
X103433523Y-97489380D02*
X102862095Y-97489380D01*
X103147809Y-97489380D02*
X103147809Y-96489380D01*
X103052571Y-96632238D01*
X102957333Y-96727476D01*
X102862095Y-96775095D01*
X104290666Y-96489380D02*
X104100190Y-96489380D01*
X104004952Y-96537000D01*
X103957333Y-96584619D01*
X103862095Y-96727476D01*
X103814476Y-96917952D01*
X103814476Y-97298904D01*
X103862095Y-97394142D01*
X103909714Y-97441761D01*
X104004952Y-97489380D01*
X104195428Y-97489380D01*
X104290666Y-97441761D01*
X104338285Y-97394142D01*
X104385904Y-97298904D01*
X104385904Y-97060809D01*
X104338285Y-96965571D01*
X104290666Y-96917952D01*
X104195428Y-96870333D01*
X104004952Y-96870333D01*
X103909714Y-96917952D01*
X103862095Y-96965571D01*
X103814476Y-97060809D01*
X101575142Y-89558666D02*
X101622761Y-89606285D01*
X101670380Y-89749142D01*
X101670380Y-89844380D01*
X101622761Y-89987238D01*
X101527523Y-90082476D01*
X101432285Y-90130095D01*
X101241809Y-90177714D01*
X101098952Y-90177714D01*
X100908476Y-90130095D01*
X100813238Y-90082476D01*
X100718000Y-89987238D01*
X100670380Y-89844380D01*
X100670380Y-89749142D01*
X100718000Y-89606285D01*
X100765619Y-89558666D01*
X100670380Y-88653904D02*
X100670380Y-89130095D01*
X101146571Y-89177714D01*
X101098952Y-89130095D01*
X101051333Y-89034857D01*
X101051333Y-88796761D01*
X101098952Y-88701523D01*
X101146571Y-88653904D01*
X101241809Y-88606285D01*
X101479904Y-88606285D01*
X101575142Y-88653904D01*
X101622761Y-88701523D01*
X101670380Y-88796761D01*
X101670380Y-89034857D01*
X101622761Y-89130095D01*
X101575142Y-89177714D01*
X149610380Y-80089333D02*
X150324666Y-80089333D01*
X150467523Y-80136952D01*
X150562761Y-80232190D01*
X150610380Y-80375047D01*
X150610380Y-80470285D01*
X149943714Y-79184571D02*
X150610380Y-79184571D01*
X149562761Y-79422666D02*
X150277047Y-79660761D01*
X150277047Y-79041714D01*
X121924380Y-129333523D02*
X122638666Y-129333523D01*
X122781523Y-129381142D01*
X122876761Y-129476380D01*
X122924380Y-129619238D01*
X122924380Y-129714476D01*
X122924380Y-128333523D02*
X122924380Y-128904952D01*
X122924380Y-128619238D02*
X121924380Y-128619238D01*
X122067238Y-128714476D01*
X122162476Y-128809714D01*
X122210095Y-128904952D01*
X121924380Y-128000190D02*
X121924380Y-127333523D01*
X122924380Y-127762095D01*
X138268142Y-139326857D02*
X138315761Y-139374476D01*
X138363380Y-139517333D01*
X138363380Y-139612571D01*
X138315761Y-139755428D01*
X138220523Y-139850666D01*
X138125285Y-139898285D01*
X137934809Y-139945904D01*
X137791952Y-139945904D01*
X137601476Y-139898285D01*
X137506238Y-139850666D01*
X137411000Y-139755428D01*
X137363380Y-139612571D01*
X137363380Y-139517333D01*
X137411000Y-139374476D01*
X137458619Y-139326857D01*
X138363380Y-138374476D02*
X138363380Y-138945904D01*
X138363380Y-138660190D02*
X137363380Y-138660190D01*
X137506238Y-138755428D01*
X137601476Y-138850666D01*
X137649095Y-138945904D01*
X137363380Y-137755428D02*
X137363380Y-137660190D01*
X137411000Y-137564952D01*
X137458619Y-137517333D01*
X137553857Y-137469714D01*
X137744333Y-137422095D01*
X137982428Y-137422095D01*
X138172904Y-137469714D01*
X138268142Y-137517333D01*
X138315761Y-137564952D01*
X138363380Y-137660190D01*
X138363380Y-137755428D01*
X138315761Y-137850666D01*
X138268142Y-137898285D01*
X138172904Y-137945904D01*
X137982428Y-137993523D01*
X137744333Y-137993523D01*
X137553857Y-137945904D01*
X137458619Y-137898285D01*
X137411000Y-137850666D01*
X137363380Y-137755428D01*
X143073333Y-161245380D02*
X142740000Y-160769190D01*
X142501904Y-161245380D02*
X142501904Y-160245380D01*
X142882857Y-160245380D01*
X142978095Y-160293000D01*
X143025714Y-160340619D01*
X143073333Y-160435857D01*
X143073333Y-160578714D01*
X143025714Y-160673952D01*
X142978095Y-160721571D01*
X142882857Y-160769190D01*
X142501904Y-160769190D01*
X143549523Y-161245380D02*
X143740000Y-161245380D01*
X143835238Y-161197761D01*
X143882857Y-161150142D01*
X143978095Y-161007285D01*
X144025714Y-160816809D01*
X144025714Y-160435857D01*
X143978095Y-160340619D01*
X143930476Y-160293000D01*
X143835238Y-160245380D01*
X143644761Y-160245380D01*
X143549523Y-160293000D01*
X143501904Y-160340619D01*
X143454285Y-160435857D01*
X143454285Y-160673952D01*
X143501904Y-160769190D01*
X143549523Y-160816809D01*
X143644761Y-160864428D01*
X143835238Y-160864428D01*
X143930476Y-160816809D01*
X143978095Y-160769190D01*
X144025714Y-160673952D01*
X103272333Y-141137380D02*
X102939000Y-140661190D01*
X102700904Y-141137380D02*
X102700904Y-140137380D01*
X103081857Y-140137380D01*
X103177095Y-140185000D01*
X103224714Y-140232619D01*
X103272333Y-140327857D01*
X103272333Y-140470714D01*
X103224714Y-140565952D01*
X103177095Y-140613571D01*
X103081857Y-140661190D01*
X102700904Y-140661190D01*
X104177095Y-140137380D02*
X103700904Y-140137380D01*
X103653285Y-140613571D01*
X103700904Y-140565952D01*
X103796142Y-140518333D01*
X104034238Y-140518333D01*
X104129476Y-140565952D01*
X104177095Y-140613571D01*
X104224714Y-140708809D01*
X104224714Y-140946904D01*
X104177095Y-141042142D01*
X104129476Y-141089761D01*
X104034238Y-141137380D01*
X103796142Y-141137380D01*
X103700904Y-141089761D01*
X103653285Y-141042142D01*
X154407142Y-138850666D02*
X154454761Y-138898285D01*
X154502380Y-139041142D01*
X154502380Y-139136380D01*
X154454761Y-139279238D01*
X154359523Y-139374476D01*
X154264285Y-139422095D01*
X154073809Y-139469714D01*
X153930952Y-139469714D01*
X153740476Y-139422095D01*
X153645238Y-139374476D01*
X153550000Y-139279238D01*
X153502380Y-139136380D01*
X153502380Y-139041142D01*
X153550000Y-138898285D01*
X153597619Y-138850666D01*
X154502380Y-138374476D02*
X154502380Y-138184000D01*
X154454761Y-138088761D01*
X154407142Y-138041142D01*
X154264285Y-137945904D01*
X154073809Y-137898285D01*
X153692857Y-137898285D01*
X153597619Y-137945904D01*
X153550000Y-137993523D01*
X153502380Y-138088761D01*
X153502380Y-138279238D01*
X153550000Y-138374476D01*
X153597619Y-138422095D01*
X153692857Y-138469714D01*
X153930952Y-138469714D01*
X154026190Y-138422095D01*
X154073809Y-138374476D01*
X154121428Y-138279238D01*
X154121428Y-138088761D01*
X154073809Y-137993523D01*
X154026190Y-137945904D01*
X153930952Y-137898285D01*
X145478666Y-161626761D02*
X145621523Y-161674380D01*
X145859619Y-161674380D01*
X145954857Y-161626761D01*
X146002476Y-161579142D01*
X146050095Y-161483904D01*
X146050095Y-161388666D01*
X146002476Y-161293428D01*
X145954857Y-161245809D01*
X145859619Y-161198190D01*
X145669142Y-161150571D01*
X145573904Y-161102952D01*
X145526285Y-161055333D01*
X145478666Y-160960095D01*
X145478666Y-160864857D01*
X145526285Y-160769619D01*
X145573904Y-160722000D01*
X145669142Y-160674380D01*
X145907238Y-160674380D01*
X146050095Y-160722000D01*
X146383428Y-160674380D02*
X146621523Y-161674380D01*
X146812000Y-160960095D01*
X147002476Y-161674380D01*
X147240571Y-160674380D01*
X148097714Y-160674380D02*
X147621523Y-160674380D01*
X147573904Y-161150571D01*
X147621523Y-161102952D01*
X147716761Y-161055333D01*
X147954857Y-161055333D01*
X148050095Y-161102952D01*
X148097714Y-161150571D01*
X148145333Y-161245809D01*
X148145333Y-161483904D01*
X148097714Y-161579142D01*
X148050095Y-161626761D01*
X147954857Y-161674380D01*
X147716761Y-161674380D01*
X147621523Y-161626761D01*
X147573904Y-161579142D01*
X109891142Y-139326666D02*
X109938761Y-139374285D01*
X109986380Y-139517142D01*
X109986380Y-139612380D01*
X109938761Y-139755238D01*
X109843523Y-139850476D01*
X109748285Y-139898095D01*
X109557809Y-139945714D01*
X109414952Y-139945714D01*
X109224476Y-139898095D01*
X109129238Y-139850476D01*
X109034000Y-139755238D01*
X108986380Y-139612380D01*
X108986380Y-139517142D01*
X109034000Y-139374285D01*
X109081619Y-139326666D01*
X108986380Y-138993333D02*
X108986380Y-138374285D01*
X109367333Y-138707619D01*
X109367333Y-138564761D01*
X109414952Y-138469523D01*
X109462571Y-138421904D01*
X109557809Y-138374285D01*
X109795904Y-138374285D01*
X109891142Y-138421904D01*
X109938761Y-138469523D01*
X109986380Y-138564761D01*
X109986380Y-138850476D01*
X109938761Y-138945714D01*
X109891142Y-138993333D01*
X107053142Y-91002380D02*
X106719809Y-90526190D01*
X106481714Y-91002380D02*
X106481714Y-90002380D01*
X106862666Y-90002380D01*
X106957904Y-90050000D01*
X107005523Y-90097619D01*
X107053142Y-90192857D01*
X107053142Y-90335714D01*
X107005523Y-90430952D01*
X106957904Y-90478571D01*
X106862666Y-90526190D01*
X106481714Y-90526190D01*
X108005523Y-91002380D02*
X107434095Y-91002380D01*
X107719809Y-91002380D02*
X107719809Y-90002380D01*
X107624571Y-90145238D01*
X107529333Y-90240476D01*
X107434095Y-90288095D01*
X108862666Y-90335714D02*
X108862666Y-91002380D01*
X108624571Y-89954761D02*
X108386476Y-90669047D01*
X109005523Y-90669047D01*
X109478380Y-129333523D02*
X110192666Y-129333523D01*
X110335523Y-129381142D01*
X110430761Y-129476380D01*
X110478380Y-129619238D01*
X110478380Y-129714476D01*
X110478380Y-128333523D02*
X110478380Y-128904952D01*
X110478380Y-128619238D02*
X109478380Y-128619238D01*
X109621238Y-128714476D01*
X109716476Y-128809714D01*
X109764095Y-128904952D01*
X109478380Y-127714476D02*
X109478380Y-127619238D01*
X109526000Y-127524000D01*
X109573619Y-127476380D01*
X109668857Y-127428761D01*
X109859333Y-127381142D01*
X110097428Y-127381142D01*
X110287904Y-127428761D01*
X110383142Y-127476380D01*
X110430761Y-127524000D01*
X110478380Y-127619238D01*
X110478380Y-127714476D01*
X110430761Y-127809714D01*
X110383142Y-127857333D01*
X110287904Y-127904952D01*
X110097428Y-127952571D01*
X109859333Y-127952571D01*
X109668857Y-127904952D01*
X109573619Y-127857333D01*
X109526000Y-127809714D01*
X109478380Y-127714476D01*
X96734333Y-138915142D02*
X96686714Y-138962761D01*
X96543857Y-139010380D01*
X96448619Y-139010380D01*
X96305761Y-138962761D01*
X96210523Y-138867523D01*
X96162904Y-138772285D01*
X96115285Y-138581809D01*
X96115285Y-138438952D01*
X96162904Y-138248476D01*
X96210523Y-138153238D01*
X96305761Y-138058000D01*
X96448619Y-138010380D01*
X96543857Y-138010380D01*
X96686714Y-138058000D01*
X96734333Y-138105619D01*
X97686714Y-139010380D02*
X97115285Y-139010380D01*
X97401000Y-139010380D02*
X97401000Y-138010380D01*
X97305761Y-138153238D01*
X97210523Y-138248476D01*
X97115285Y-138296095D01*
X111002380Y-82597523D02*
X111716666Y-82597523D01*
X111859523Y-82645142D01*
X111954761Y-82740380D01*
X112002380Y-82883238D01*
X112002380Y-82978476D01*
X111097619Y-82168952D02*
X111050000Y-82121333D01*
X111002380Y-82026095D01*
X111002380Y-81788000D01*
X111050000Y-81692761D01*
X111097619Y-81645142D01*
X111192857Y-81597523D01*
X111288095Y-81597523D01*
X111430952Y-81645142D01*
X112002380Y-82216571D01*
X112002380Y-81597523D01*
X111097619Y-81216571D02*
X111050000Y-81168952D01*
X111002380Y-81073714D01*
X111002380Y-80835619D01*
X111050000Y-80740380D01*
X111097619Y-80692761D01*
X111192857Y-80645142D01*
X111288095Y-80645142D01*
X111430952Y-80692761D01*
X112002380Y-81264190D01*
X112002380Y-80645142D01*
X130421142Y-139244380D02*
X130087809Y-138768190D01*
X129849714Y-139244380D02*
X129849714Y-138244380D01*
X130230666Y-138244380D01*
X130325904Y-138292000D01*
X130373523Y-138339619D01*
X130421142Y-138434857D01*
X130421142Y-138577714D01*
X130373523Y-138672952D01*
X130325904Y-138720571D01*
X130230666Y-138768190D01*
X129849714Y-138768190D01*
X131373523Y-139244380D02*
X130802095Y-139244380D01*
X131087809Y-139244380D02*
X131087809Y-138244380D01*
X130992571Y-138387238D01*
X130897333Y-138482476D01*
X130802095Y-138530095D01*
X131849714Y-139244380D02*
X132040190Y-139244380D01*
X132135428Y-139196761D01*
X132183047Y-139149142D01*
X132278285Y-139006285D01*
X132325904Y-138815809D01*
X132325904Y-138434857D01*
X132278285Y-138339619D01*
X132230666Y-138292000D01*
X132135428Y-138244380D01*
X131944952Y-138244380D01*
X131849714Y-138292000D01*
X131802095Y-138339619D01*
X131754476Y-138434857D01*
X131754476Y-138672952D01*
X131802095Y-138768190D01*
X131849714Y-138815809D01*
X131944952Y-138863428D01*
X132135428Y-138863428D01*
X132230666Y-138815809D01*
X132278285Y-138768190D01*
X132325904Y-138672952D01*
X115232380Y-72977333D02*
X115946666Y-72977333D01*
X116089523Y-73024952D01*
X116184761Y-73120190D01*
X116232380Y-73263047D01*
X116232380Y-73358285D01*
X115232380Y-72024952D02*
X115232380Y-72501142D01*
X115708571Y-72548761D01*
X115660952Y-72501142D01*
X115613333Y-72405904D01*
X115613333Y-72167809D01*
X115660952Y-72072571D01*
X115708571Y-72024952D01*
X115803809Y-71977333D01*
X116041904Y-71977333D01*
X116137142Y-72024952D01*
X116184761Y-72072571D01*
X116232380Y-72167809D01*
X116232380Y-72405904D01*
X116184761Y-72501142D01*
X116137142Y-72548761D01*
X141550380Y-139326857D02*
X141074190Y-139660190D01*
X141550380Y-139898285D02*
X140550380Y-139898285D01*
X140550380Y-139517333D01*
X140598000Y-139422095D01*
X140645619Y-139374476D01*
X140740857Y-139326857D01*
X140883714Y-139326857D01*
X140978952Y-139374476D01*
X141026571Y-139422095D01*
X141074190Y-139517333D01*
X141074190Y-139898285D01*
X141550380Y-138374476D02*
X141550380Y-138945904D01*
X141550380Y-138660190D02*
X140550380Y-138660190D01*
X140693238Y-138755428D01*
X140788476Y-138850666D01*
X140836095Y-138945904D01*
X140550380Y-137469714D02*
X140550380Y-137945904D01*
X141026571Y-137993523D01*
X140978952Y-137945904D01*
X140931333Y-137850666D01*
X140931333Y-137612571D01*
X140978952Y-137517333D01*
X141026571Y-137469714D01*
X141121809Y-137422095D01*
X141359904Y-137422095D01*
X141455142Y-137469714D01*
X141502761Y-137517333D01*
X141550380Y-137612571D01*
X141550380Y-137850666D01*
X141502761Y-137945904D01*
X141455142Y-137993523D01*
X115241380Y-153201666D02*
X114765190Y-153535000D01*
X115241380Y-153773095D02*
X114241380Y-153773095D01*
X114241380Y-153392142D01*
X114289000Y-153296904D01*
X114336619Y-153249285D01*
X114431857Y-153201666D01*
X114574714Y-153201666D01*
X114669952Y-153249285D01*
X114717571Y-153296904D01*
X114765190Y-153392142D01*
X114765190Y-153773095D01*
X114241380Y-152868333D02*
X114241380Y-152249285D01*
X114622333Y-152582619D01*
X114622333Y-152439761D01*
X114669952Y-152344523D01*
X114717571Y-152296904D01*
X114812809Y-152249285D01*
X115050904Y-152249285D01*
X115146142Y-152296904D01*
X115193761Y-152344523D01*
X115241380Y-152439761D01*
X115241380Y-152725476D01*
X115193761Y-152820714D01*
X115146142Y-152868333D01*
X94694476Y-92626380D02*
X94694476Y-93340666D01*
X94646857Y-93483523D01*
X94551619Y-93578761D01*
X94408761Y-93626380D01*
X94313523Y-93626380D01*
X95694476Y-93626380D02*
X95123047Y-93626380D01*
X95408761Y-93626380D02*
X95408761Y-92626380D01*
X95313523Y-92769238D01*
X95218285Y-92864476D01*
X95123047Y-92912095D01*
X96170666Y-93626380D02*
X96361142Y-93626380D01*
X96456380Y-93578761D01*
X96504000Y-93531142D01*
X96599238Y-93388285D01*
X96646857Y-93197809D01*
X96646857Y-92816857D01*
X96599238Y-92721619D01*
X96551619Y-92674000D01*
X96456380Y-92626380D01*
X96265904Y-92626380D01*
X96170666Y-92674000D01*
X96123047Y-92721619D01*
X96075428Y-92816857D01*
X96075428Y-93054952D01*
X96123047Y-93150190D01*
X96170666Y-93197809D01*
X96265904Y-93245428D01*
X96456380Y-93245428D01*
X96551619Y-93197809D01*
X96599238Y-93150190D01*
X96646857Y-93054952D01*
X134132476Y-150994761D02*
X134275333Y-151042380D01*
X134513428Y-151042380D01*
X134608666Y-150994761D01*
X134656285Y-150947142D01*
X134703904Y-150851904D01*
X134703904Y-150756666D01*
X134656285Y-150661428D01*
X134608666Y-150613809D01*
X134513428Y-150566190D01*
X134322952Y-150518571D01*
X134227714Y-150470952D01*
X134180095Y-150423333D01*
X134132476Y-150328095D01*
X134132476Y-150232857D01*
X134180095Y-150137619D01*
X134227714Y-150090000D01*
X134322952Y-150042380D01*
X134561047Y-150042380D01*
X134703904Y-150090000D01*
X135037238Y-150042380D02*
X135275333Y-151042380D01*
X135465809Y-150328095D01*
X135656285Y-151042380D01*
X135894380Y-150042380D01*
X136799142Y-151042380D02*
X136227714Y-151042380D01*
X136513428Y-151042380D02*
X136513428Y-150042380D01*
X136418190Y-150185238D01*
X136322952Y-150280476D01*
X136227714Y-150328095D01*
X137418190Y-150042380D02*
X137513428Y-150042380D01*
X137608666Y-150090000D01*
X137656285Y-150137619D01*
X137703904Y-150232857D01*
X137751523Y-150423333D01*
X137751523Y-150661428D01*
X137703904Y-150851904D01*
X137656285Y-150947142D01*
X137608666Y-150994761D01*
X137513428Y-151042380D01*
X137418190Y-151042380D01*
X137322952Y-150994761D01*
X137275333Y-150947142D01*
X137227714Y-150851904D01*
X137180095Y-150661428D01*
X137180095Y-150423333D01*
X137227714Y-150232857D01*
X137275333Y-150137619D01*
X137322952Y-150090000D01*
X137418190Y-150042380D01*
X101926380Y-91066857D02*
X101450190Y-91400190D01*
X101926380Y-91638285D02*
X100926380Y-91638285D01*
X100926380Y-91257333D01*
X100974000Y-91162095D01*
X101021619Y-91114476D01*
X101116857Y-91066857D01*
X101259714Y-91066857D01*
X101354952Y-91114476D01*
X101402571Y-91162095D01*
X101450190Y-91257333D01*
X101450190Y-91638285D01*
X101926380Y-90114476D02*
X101926380Y-90685904D01*
X101926380Y-90400190D02*
X100926380Y-90400190D01*
X101069238Y-90495428D01*
X101164476Y-90590666D01*
X101212095Y-90685904D01*
X100926380Y-89495428D02*
X100926380Y-89400190D01*
X100974000Y-89304952D01*
X101021619Y-89257333D01*
X101116857Y-89209714D01*
X101307333Y-89162095D01*
X101545428Y-89162095D01*
X101735904Y-89209714D01*
X101831142Y-89257333D01*
X101878761Y-89304952D01*
X101926380Y-89400190D01*
X101926380Y-89495428D01*
X101878761Y-89590666D01*
X101831142Y-89638285D01*
X101735904Y-89685904D01*
X101545428Y-89733523D01*
X101307333Y-89733523D01*
X101116857Y-89685904D01*
X101021619Y-89638285D01*
X100974000Y-89590666D01*
X100926380Y-89495428D01*
X133637380Y-74374333D02*
X134351666Y-74374333D01*
X134494523Y-74421952D01*
X134589761Y-74517190D01*
X134637380Y-74660047D01*
X134637380Y-74755285D01*
X134637380Y-73374333D02*
X134637380Y-73945761D01*
X134637380Y-73660047D02*
X133637380Y-73660047D01*
X133780238Y-73755285D01*
X133875476Y-73850523D01*
X133923095Y-73945761D01*
X101966142Y-159551666D02*
X102013761Y-159599285D01*
X102061380Y-159742142D01*
X102061380Y-159837380D01*
X102013761Y-159980238D01*
X101918523Y-160075476D01*
X101823285Y-160123095D01*
X101632809Y-160170714D01*
X101489952Y-160170714D01*
X101299476Y-160123095D01*
X101204238Y-160075476D01*
X101109000Y-159980238D01*
X101061380Y-159837380D01*
X101061380Y-159742142D01*
X101109000Y-159599285D01*
X101156619Y-159551666D01*
X101394714Y-158694523D02*
X102061380Y-158694523D01*
X101013761Y-158932619D02*
X101728047Y-159170714D01*
X101728047Y-158551666D01*
X115271380Y-147486666D02*
X114795190Y-147820000D01*
X115271380Y-148058095D02*
X114271380Y-148058095D01*
X114271380Y-147677142D01*
X114319000Y-147581904D01*
X114366619Y-147534285D01*
X114461857Y-147486666D01*
X114604714Y-147486666D01*
X114699952Y-147534285D01*
X114747571Y-147581904D01*
X114795190Y-147677142D01*
X114795190Y-148058095D01*
X114604714Y-146629523D02*
X115271380Y-146629523D01*
X114223761Y-146867619D02*
X114938047Y-147105714D01*
X114938047Y-146486666D01*
X107131380Y-153201666D02*
X106655190Y-153535000D01*
X107131380Y-153773095D02*
X106131380Y-153773095D01*
X106131380Y-153392142D01*
X106179000Y-153296904D01*
X106226619Y-153249285D01*
X106321857Y-153201666D01*
X106464714Y-153201666D01*
X106559952Y-153249285D01*
X106607571Y-153296904D01*
X106655190Y-153392142D01*
X106655190Y-153773095D01*
X106131380Y-152868333D02*
X106131380Y-152201666D01*
X107131380Y-152630238D01*
X112179380Y-94821333D02*
X112893666Y-94821333D01*
X113036523Y-94868952D01*
X113131761Y-94964190D01*
X113179380Y-95107047D01*
X113179380Y-95202285D01*
X112179380Y-94440380D02*
X112179380Y-93773714D01*
X113179380Y-94202285D01*
X152733476Y-70924380D02*
X152733476Y-71638666D01*
X152685857Y-71781523D01*
X152590619Y-71876761D01*
X152447761Y-71924380D01*
X152352523Y-71924380D01*
X153733476Y-71924380D02*
X153162047Y-71924380D01*
X153447761Y-71924380D02*
X153447761Y-70924380D01*
X153352523Y-71067238D01*
X153257285Y-71162476D01*
X153162047Y-71210095D01*
X154590619Y-71257714D02*
X154590619Y-71924380D01*
X154352523Y-70876761D02*
X154114428Y-71591047D01*
X154733476Y-71591047D01*
X161011142Y-138850666D02*
X161058761Y-138898285D01*
X161106380Y-139041142D01*
X161106380Y-139136380D01*
X161058761Y-139279238D01*
X160963523Y-139374476D01*
X160868285Y-139422095D01*
X160677809Y-139469714D01*
X160534952Y-139469714D01*
X160344476Y-139422095D01*
X160249238Y-139374476D01*
X160154000Y-139279238D01*
X160106380Y-139136380D01*
X160106380Y-139041142D01*
X160154000Y-138898285D01*
X160201619Y-138850666D01*
X160106380Y-137993523D02*
X160106380Y-138184000D01*
X160154000Y-138279238D01*
X160201619Y-138326857D01*
X160344476Y-138422095D01*
X160534952Y-138469714D01*
X160915904Y-138469714D01*
X161011142Y-138422095D01*
X161058761Y-138374476D01*
X161106380Y-138279238D01*
X161106380Y-138088761D01*
X161058761Y-137993523D01*
X161011142Y-137945904D01*
X160915904Y-137898285D01*
X160677809Y-137898285D01*
X160582571Y-137945904D01*
X160534952Y-137993523D01*
X160487333Y-138088761D01*
X160487333Y-138279238D01*
X160534952Y-138374476D01*
X160582571Y-138422095D01*
X160677809Y-138469714D01*
X155442380Y-99393333D02*
X156156666Y-99393333D01*
X156299523Y-99440952D01*
X156394761Y-99536190D01*
X156442380Y-99679047D01*
X156442380Y-99774285D01*
X156442380Y-98869523D02*
X156442380Y-98679047D01*
X156394761Y-98583809D01*
X156347142Y-98536190D01*
X156204285Y-98440952D01*
X156013809Y-98393333D01*
X155632857Y-98393333D01*
X155537619Y-98440952D01*
X155490000Y-98488571D01*
X155442380Y-98583809D01*
X155442380Y-98774285D01*
X155490000Y-98869523D01*
X155537619Y-98917142D01*
X155632857Y-98964761D01*
X155870952Y-98964761D01*
X155966190Y-98917142D01*
X156013809Y-98869523D01*
X156061428Y-98774285D01*
X156061428Y-98583809D01*
X156013809Y-98488571D01*
X155966190Y-98440952D01*
X155870952Y-98393333D01*
X154758380Y-139326857D02*
X154282190Y-139660190D01*
X154758380Y-139898285D02*
X153758380Y-139898285D01*
X153758380Y-139517333D01*
X153806000Y-139422095D01*
X153853619Y-139374476D01*
X153948857Y-139326857D01*
X154091714Y-139326857D01*
X154186952Y-139374476D01*
X154234571Y-139422095D01*
X154282190Y-139517333D01*
X154282190Y-139898285D01*
X154758380Y-138374476D02*
X154758380Y-138945904D01*
X154758380Y-138660190D02*
X153758380Y-138660190D01*
X153901238Y-138755428D01*
X153996476Y-138850666D01*
X154044095Y-138945904D01*
X153853619Y-137993523D02*
X153806000Y-137945904D01*
X153758380Y-137850666D01*
X153758380Y-137612571D01*
X153806000Y-137517333D01*
X153853619Y-137469714D01*
X153948857Y-137422095D01*
X154044095Y-137422095D01*
X154186952Y-137469714D01*
X154758380Y-138041142D01*
X154758380Y-137422095D01*
X96941666Y-157344761D02*
X97084523Y-157392380D01*
X97322619Y-157392380D01*
X97417857Y-157344761D01*
X97465476Y-157297142D01*
X97513095Y-157201904D01*
X97513095Y-157106666D01*
X97465476Y-157011428D01*
X97417857Y-156963809D01*
X97322619Y-156916190D01*
X97132142Y-156868571D01*
X97036904Y-156820952D01*
X96989285Y-156773333D01*
X96941666Y-156678095D01*
X96941666Y-156582857D01*
X96989285Y-156487619D01*
X97036904Y-156440000D01*
X97132142Y-156392380D01*
X97370238Y-156392380D01*
X97513095Y-156440000D01*
X97846428Y-156392380D02*
X98084523Y-157392380D01*
X98275000Y-156678095D01*
X98465476Y-157392380D01*
X98703571Y-156392380D01*
X99608333Y-157392380D02*
X99036904Y-157392380D01*
X99322619Y-157392380D02*
X99322619Y-156392380D01*
X99227380Y-156535238D01*
X99132142Y-156630476D01*
X99036904Y-156678095D01*
X121157333Y-144757142D02*
X121109714Y-144804761D01*
X120966857Y-144852380D01*
X120871619Y-144852380D01*
X120728761Y-144804761D01*
X120633523Y-144709523D01*
X120585904Y-144614285D01*
X120538285Y-144423809D01*
X120538285Y-144280952D01*
X120585904Y-144090476D01*
X120633523Y-143995238D01*
X120728761Y-143900000D01*
X120871619Y-143852380D01*
X120966857Y-143852380D01*
X121109714Y-143900000D01*
X121157333Y-143947619D01*
X121538285Y-143947619D02*
X121585904Y-143900000D01*
X121681142Y-143852380D01*
X121919238Y-143852380D01*
X122014476Y-143900000D01*
X122062095Y-143947619D01*
X122109714Y-144042857D01*
X122109714Y-144138095D01*
X122062095Y-144280952D01*
X121490666Y-144852380D01*
X122109714Y-144852380D01*
X100912561Y-75171133D02*
X100960180Y-75028276D01*
X100960180Y-74790180D01*
X100912561Y-74694942D01*
X100864942Y-74647323D01*
X100769704Y-74599704D01*
X100674466Y-74599704D01*
X100579228Y-74647323D01*
X100531609Y-74694942D01*
X100483990Y-74790180D01*
X100436371Y-74980657D01*
X100388752Y-75075895D01*
X100341133Y-75123514D01*
X100245895Y-75171133D01*
X100150657Y-75171133D01*
X100055419Y-75123514D01*
X100007800Y-75075895D01*
X99960180Y-74980657D01*
X99960180Y-74742561D01*
X100007800Y-74599704D01*
X99960180Y-74266371D02*
X100960180Y-74028276D01*
X100245895Y-73837800D01*
X100960180Y-73647323D01*
X99960180Y-73409228D01*
X99960180Y-72599704D02*
X99960180Y-72790180D01*
X100007800Y-72885419D01*
X100055419Y-72933038D01*
X100198276Y-73028276D01*
X100388752Y-73075895D01*
X100769704Y-73075895D01*
X100864942Y-73028276D01*
X100912561Y-72980657D01*
X100960180Y-72885419D01*
X100960180Y-72694942D01*
X100912561Y-72599704D01*
X100864942Y-72552085D01*
X100769704Y-72504466D01*
X100531609Y-72504466D01*
X100436371Y-72552085D01*
X100388752Y-72599704D01*
X100341133Y-72694942D01*
X100341133Y-72885419D01*
X100388752Y-72980657D01*
X100436371Y-73028276D01*
X100531609Y-73075895D01*
X121781666Y-157344761D02*
X121924523Y-157392380D01*
X122162619Y-157392380D01*
X122257857Y-157344761D01*
X122305476Y-157297142D01*
X122353095Y-157201904D01*
X122353095Y-157106666D01*
X122305476Y-157011428D01*
X122257857Y-156963809D01*
X122162619Y-156916190D01*
X121972142Y-156868571D01*
X121876904Y-156820952D01*
X121829285Y-156773333D01*
X121781666Y-156678095D01*
X121781666Y-156582857D01*
X121829285Y-156487619D01*
X121876904Y-156440000D01*
X121972142Y-156392380D01*
X122210238Y-156392380D01*
X122353095Y-156440000D01*
X122686428Y-156392380D02*
X122924523Y-157392380D01*
X123115000Y-156678095D01*
X123305476Y-157392380D01*
X123543571Y-156392380D01*
X123876904Y-156487619D02*
X123924523Y-156440000D01*
X124019761Y-156392380D01*
X124257857Y-156392380D01*
X124353095Y-156440000D01*
X124400714Y-156487619D01*
X124448333Y-156582857D01*
X124448333Y-156678095D01*
X124400714Y-156820952D01*
X123829285Y-157392380D01*
X124448333Y-157392380D01*
X152606476Y-125661380D02*
X152606476Y-126375666D01*
X152558857Y-126518523D01*
X152463619Y-126613761D01*
X152320761Y-126661380D01*
X152225523Y-126661380D01*
X153035047Y-125756619D02*
X153082666Y-125709000D01*
X153177904Y-125661380D01*
X153416000Y-125661380D01*
X153511238Y-125709000D01*
X153558857Y-125756619D01*
X153606476Y-125851857D01*
X153606476Y-125947095D01*
X153558857Y-126089952D01*
X152987428Y-126661380D01*
X153606476Y-126661380D01*
X153939809Y-125661380D02*
X154558857Y-125661380D01*
X154225523Y-126042333D01*
X154368380Y-126042333D01*
X154463619Y-126089952D01*
X154511238Y-126137571D01*
X154558857Y-126232809D01*
X154558857Y-126470904D01*
X154511238Y-126566142D01*
X154463619Y-126613761D01*
X154368380Y-126661380D01*
X154082666Y-126661380D01*
X153987428Y-126613761D01*
X153939809Y-126566142D01*
X147763380Y-139326857D02*
X147287190Y-139660190D01*
X147763380Y-139898285D02*
X146763380Y-139898285D01*
X146763380Y-139517333D01*
X146811000Y-139422095D01*
X146858619Y-139374476D01*
X146953857Y-139326857D01*
X147096714Y-139326857D01*
X147191952Y-139374476D01*
X147239571Y-139422095D01*
X147287190Y-139517333D01*
X147287190Y-139898285D01*
X147763380Y-138374476D02*
X147763380Y-138945904D01*
X147763380Y-138660190D02*
X146763380Y-138660190D01*
X146906238Y-138755428D01*
X147001476Y-138850666D01*
X147049095Y-138945904D01*
X147191952Y-137803047D02*
X147144333Y-137898285D01*
X147096714Y-137945904D01*
X147001476Y-137993523D01*
X146953857Y-137993523D01*
X146858619Y-137945904D01*
X146811000Y-137898285D01*
X146763380Y-137803047D01*
X146763380Y-137612571D01*
X146811000Y-137517333D01*
X146858619Y-137469714D01*
X146953857Y-137422095D01*
X147001476Y-137422095D01*
X147096714Y-137469714D01*
X147144333Y-137517333D01*
X147191952Y-137612571D01*
X147191952Y-137803047D01*
X147239571Y-137898285D01*
X147287190Y-137945904D01*
X147382428Y-137993523D01*
X147572904Y-137993523D01*
X147668142Y-137945904D01*
X147715761Y-137898285D01*
X147763380Y-137803047D01*
X147763380Y-137612571D01*
X147715761Y-137517333D01*
X147668142Y-137469714D01*
X147572904Y-137422095D01*
X147382428Y-137422095D01*
X147287190Y-137469714D01*
X147239571Y-137517333D01*
X147191952Y-137612571D01*
X104493961Y-75120333D02*
X104541580Y-74977476D01*
X104541580Y-74739380D01*
X104493961Y-74644142D01*
X104446342Y-74596523D01*
X104351104Y-74548904D01*
X104255866Y-74548904D01*
X104160628Y-74596523D01*
X104113009Y-74644142D01*
X104065390Y-74739380D01*
X104017771Y-74929857D01*
X103970152Y-75025095D01*
X103922533Y-75072714D01*
X103827295Y-75120333D01*
X103732057Y-75120333D01*
X103636819Y-75072714D01*
X103589200Y-75025095D01*
X103541580Y-74929857D01*
X103541580Y-74691761D01*
X103589200Y-74548904D01*
X103541580Y-74215571D02*
X104541580Y-73977476D01*
X103827295Y-73787000D01*
X104541580Y-73596523D01*
X103541580Y-73358428D01*
X103970152Y-72834619D02*
X103922533Y-72929857D01*
X103874914Y-72977476D01*
X103779676Y-73025095D01*
X103732057Y-73025095D01*
X103636819Y-72977476D01*
X103589200Y-72929857D01*
X103541580Y-72834619D01*
X103541580Y-72644142D01*
X103589200Y-72548904D01*
X103636819Y-72501285D01*
X103732057Y-72453666D01*
X103779676Y-72453666D01*
X103874914Y-72501285D01*
X103922533Y-72548904D01*
X103970152Y-72644142D01*
X103970152Y-72834619D01*
X104017771Y-72929857D01*
X104065390Y-72977476D01*
X104160628Y-73025095D01*
X104351104Y-73025095D01*
X104446342Y-72977476D01*
X104493961Y-72929857D01*
X104541580Y-72834619D01*
X104541580Y-72644142D01*
X104493961Y-72548904D01*
X104446342Y-72501285D01*
X104351104Y-72453666D01*
X104160628Y-72453666D01*
X104065390Y-72501285D01*
X104017771Y-72548904D01*
X103970152Y-72644142D01*
X126154380Y-134921523D02*
X126868666Y-134921523D01*
X127011523Y-134969142D01*
X127106761Y-135064380D01*
X127154380Y-135207238D01*
X127154380Y-135302476D01*
X126249619Y-134492952D02*
X126202000Y-134445333D01*
X126154380Y-134350095D01*
X126154380Y-134112000D01*
X126202000Y-134016761D01*
X126249619Y-133969142D01*
X126344857Y-133921523D01*
X126440095Y-133921523D01*
X126582952Y-133969142D01*
X127154380Y-134540571D01*
X127154380Y-133921523D01*
X126487714Y-133064380D02*
X127154380Y-133064380D01*
X126106761Y-133302476D02*
X126821047Y-133540571D01*
X126821047Y-132921523D01*
X103196380Y-139326666D02*
X102720190Y-139660000D01*
X103196380Y-139898095D02*
X102196380Y-139898095D01*
X102196380Y-139517142D01*
X102244000Y-139421904D01*
X102291619Y-139374285D01*
X102386857Y-139326666D01*
X102529714Y-139326666D01*
X102624952Y-139374285D01*
X102672571Y-139421904D01*
X102720190Y-139517142D01*
X102720190Y-139898095D01*
X102196380Y-138469523D02*
X102196380Y-138660000D01*
X102244000Y-138755238D01*
X102291619Y-138802857D01*
X102434476Y-138898095D01*
X102624952Y-138945714D01*
X103005904Y-138945714D01*
X103101142Y-138898095D01*
X103148761Y-138850476D01*
X103196380Y-138755238D01*
X103196380Y-138564761D01*
X103148761Y-138469523D01*
X103101142Y-138421904D01*
X103005904Y-138374285D01*
X102767809Y-138374285D01*
X102672571Y-138421904D01*
X102624952Y-138469523D01*
X102577333Y-138564761D01*
X102577333Y-138755238D01*
X102624952Y-138850476D01*
X102672571Y-138898095D01*
X102767809Y-138945714D01*
X101465142Y-87954380D02*
X101131809Y-87478190D01*
X100893714Y-87954380D02*
X100893714Y-86954380D01*
X101274666Y-86954380D01*
X101369904Y-87002000D01*
X101417523Y-87049619D01*
X101465142Y-87144857D01*
X101465142Y-87287714D01*
X101417523Y-87382952D01*
X101369904Y-87430571D01*
X101274666Y-87478190D01*
X100893714Y-87478190D01*
X102417523Y-87954380D02*
X101846095Y-87954380D01*
X102131809Y-87954380D02*
X102131809Y-86954380D01*
X102036571Y-87097238D01*
X101941333Y-87192476D01*
X101846095Y-87240095D01*
X103369904Y-87954380D02*
X102798476Y-87954380D01*
X103084190Y-87954380D02*
X103084190Y-86954380D01*
X102988952Y-87097238D01*
X102893714Y-87192476D01*
X102798476Y-87240095D01*
X138111380Y-139326857D02*
X137635190Y-139660190D01*
X138111380Y-139898285D02*
X137111380Y-139898285D01*
X137111380Y-139517333D01*
X137159000Y-139422095D01*
X137206619Y-139374476D01*
X137301857Y-139326857D01*
X137444714Y-139326857D01*
X137539952Y-139374476D01*
X137587571Y-139422095D01*
X137635190Y-139517333D01*
X137635190Y-139898285D01*
X137206619Y-138945904D02*
X137159000Y-138898285D01*
X137111380Y-138803047D01*
X137111380Y-138564952D01*
X137159000Y-138469714D01*
X137206619Y-138422095D01*
X137301857Y-138374476D01*
X137397095Y-138374476D01*
X137539952Y-138422095D01*
X138111380Y-138993523D01*
X138111380Y-138374476D01*
X137111380Y-137755428D02*
X137111380Y-137660190D01*
X137159000Y-137564952D01*
X137206619Y-137517333D01*
X137301857Y-137469714D01*
X137492333Y-137422095D01*
X137730428Y-137422095D01*
X137920904Y-137469714D01*
X138016142Y-137517333D01*
X138063761Y-137564952D01*
X138111380Y-137660190D01*
X138111380Y-137755428D01*
X138063761Y-137850666D01*
X138016142Y-137898285D01*
X137920904Y-137945904D01*
X137730428Y-137993523D01*
X137492333Y-137993523D01*
X137301857Y-137945904D01*
X137206619Y-137898285D01*
X137159000Y-137850666D01*
X137111380Y-137755428D01*
D11*
X98833000Y-96308936D02*
X98833000Y-96763064D01*
X100303000Y-96308936D02*
X100303000Y-96763064D01*
X104494000Y-159157936D02*
X104494000Y-159612064D01*
X103024000Y-159157936D02*
X103024000Y-159612064D01*
X116327000Y-91754000D02*
X118927000Y-91754000D01*
X116327000Y-91754000D02*
X116327000Y-89094000D01*
X118927000Y-91754000D02*
X118927000Y-89094000D01*
X115057000Y-91754000D02*
X113727000Y-91754000D01*
X113727000Y-91754000D02*
X113727000Y-90424000D01*
X116327000Y-89094000D02*
X118927000Y-89094000D01*
X154746000Y-91049000D02*
X152086000Y-91049000D01*
X154746000Y-91049000D02*
X154746000Y-83369000D01*
X154746000Y-83369000D02*
X152086000Y-83369000D01*
X154746000Y-92319000D02*
X154746000Y-93649000D01*
X154746000Y-93649000D02*
X153416000Y-93649000D01*
X152086000Y-91049000D02*
X152086000Y-83369000D01*
X106840000Y-145590000D02*
X106840000Y-147090000D01*
X108090000Y-149590000D02*
X112590000Y-149590000D01*
X113840000Y-147090000D02*
X113840000Y-145590000D01*
X112590000Y-143090000D02*
X108090000Y-143090000D01*
X139442000Y-157504000D02*
X139442000Y-156004000D01*
X132442000Y-156004000D02*
X132442000Y-157504000D01*
X138192000Y-153504000D02*
X133692000Y-153504000D01*
X133692000Y-160004000D02*
X138192000Y-160004000D01*
X128804936Y-159485000D02*
X129259064Y-159485000D01*
X128804936Y-158015000D02*
X129259064Y-158015000D01*
X129820936Y-152119000D02*
X130275064Y-152119000D01*
X129820936Y-150649000D02*
X130275064Y-150649000D01*
X155060000Y-103970000D02*
X104020000Y-103970000D01*
X155000000Y-106970000D02*
X104080000Y-106970000D01*
X104020000Y-122090000D02*
X155060000Y-122090000D01*
X155000000Y-112030000D02*
X155000000Y-106970000D01*
X155060000Y-122090000D02*
X155060000Y-103970000D01*
X104020000Y-103970000D02*
X104020000Y-122090000D01*
X104080000Y-106970000D02*
X104080000Y-119090000D01*
X155000000Y-119090000D02*
X155000000Y-114030000D01*
X104080000Y-119090000D02*
X155000000Y-119090000D01*
X155000000Y-112030000D02*
G75*
G03*
X155000000Y-114030000I0J-1000000D01*
G01*
X128011000Y-129854000D02*
X130611000Y-129854000D01*
X126741000Y-129854000D02*
X125411000Y-129854000D01*
X128011000Y-129854000D02*
X128011000Y-127194000D01*
X128011000Y-127194000D02*
X130611000Y-127194000D01*
X125411000Y-129854000D02*
X125411000Y-128524000D01*
X130611000Y-129854000D02*
X130611000Y-127194000D01*
X146299000Y-72711000D02*
X148899000Y-72711000D01*
X148899000Y-75371000D02*
X148899000Y-72711000D01*
X145029000Y-75371000D02*
X143699000Y-75371000D01*
X143699000Y-75371000D02*
X143699000Y-74041000D01*
X146299000Y-75371000D02*
X148899000Y-75371000D01*
X146299000Y-75371000D02*
X146299000Y-72711000D01*
X100684064Y-145805000D02*
X100229936Y-145805000D01*
X100684064Y-144335000D02*
X100229936Y-144335000D01*
X135571000Y-127194000D02*
X135571000Y-129854000D01*
X147061000Y-127194000D02*
X148391000Y-127194000D01*
X145791000Y-127194000D02*
X145791000Y-129854000D01*
X148391000Y-127194000D02*
X148391000Y-128524000D01*
X145791000Y-129854000D02*
X135571000Y-129854000D01*
X145791000Y-127194000D02*
X135571000Y-127194000D01*
X94174000Y-107198000D02*
X96834000Y-107198000D01*
X94174000Y-114878000D02*
X96834000Y-114878000D01*
X94174000Y-105928000D02*
X94174000Y-104598000D01*
X96834000Y-107198000D02*
X96834000Y-114878000D01*
X94174000Y-107198000D02*
X94174000Y-114878000D01*
X94174000Y-104598000D02*
X95504000Y-104598000D01*
X145061000Y-138456936D02*
X145061000Y-138911064D01*
X146531000Y-138456936D02*
X146531000Y-138911064D01*
X96774000Y-80458000D02*
X94174000Y-80458000D01*
X94174000Y-80458000D02*
X94174000Y-83118000D01*
X96774000Y-80458000D02*
X96774000Y-83118000D01*
X98044000Y-80458000D02*
X99374000Y-80458000D01*
X99374000Y-80458000D02*
X99374000Y-81788000D01*
X96774000Y-83118000D02*
X94174000Y-83118000D01*
X95267000Y-144499064D02*
X95267000Y-144044936D01*
X96737000Y-144499064D02*
X96737000Y-144044936D01*
X144562000Y-149554000D02*
X149062000Y-149554000D01*
X143312000Y-145554000D02*
X143312000Y-147054000D01*
X150312000Y-147054000D02*
X150312000Y-145554000D01*
X149062000Y-143054000D02*
X144562000Y-143054000D01*
X125090000Y-100390000D02*
X123760000Y-100390000D01*
X126360000Y-100390000D02*
X128960000Y-100390000D01*
X126360000Y-100390000D02*
X126360000Y-97730000D01*
X123760000Y-100390000D02*
X123760000Y-99060000D01*
X128960000Y-100390000D02*
X128960000Y-97730000D01*
X126360000Y-97730000D02*
X128960000Y-97730000D01*
X94174000Y-86295000D02*
X95504000Y-86295000D01*
X96834000Y-88895000D02*
X96834000Y-91495000D01*
X94174000Y-88895000D02*
X94174000Y-91495000D01*
X94174000Y-88895000D02*
X96834000Y-88895000D01*
X94174000Y-91495000D02*
X96834000Y-91495000D01*
X94174000Y-87625000D02*
X94174000Y-86295000D01*
X136393000Y-100390000D02*
X135063000Y-100390000D01*
X137663000Y-97730000D02*
X140263000Y-97730000D01*
X135063000Y-100390000D02*
X135063000Y-99060000D01*
X140263000Y-100390000D02*
X140263000Y-97730000D01*
X137663000Y-100390000D02*
X140263000Y-100390000D01*
X137663000Y-100390000D02*
X137663000Y-97730000D01*
X106840000Y-158290000D02*
X106840000Y-159790000D01*
X112590000Y-155790000D02*
X108090000Y-155790000D01*
X113840000Y-159790000D02*
X113840000Y-158290000D01*
X108090000Y-162290000D02*
X112590000Y-162290000D01*
X103351064Y-96122000D02*
X102896936Y-96122000D01*
X103351064Y-94652000D02*
X102896936Y-94652000D01*
X98833000Y-89164936D02*
X98833000Y-89619064D01*
X100303000Y-89164936D02*
X100303000Y-89619064D01*
X149158000Y-78426000D02*
X149158000Y-79756000D01*
X146558000Y-78426000D02*
X146558000Y-81086000D01*
X146558000Y-81086000D02*
X133798000Y-81086000D01*
X146558000Y-78426000D02*
X133798000Y-78426000D01*
X133798000Y-78426000D02*
X133798000Y-81086000D01*
X147828000Y-78426000D02*
X149158000Y-78426000D01*
X118872000Y-127194000D02*
X116272000Y-127194000D01*
X118872000Y-127194000D02*
X118872000Y-129854000D01*
X121472000Y-127194000D02*
X121472000Y-128524000D01*
X118872000Y-129854000D02*
X116272000Y-129854000D01*
X120142000Y-127194000D02*
X121472000Y-127194000D01*
X116272000Y-127194000D02*
X116272000Y-129854000D01*
X136996000Y-138456936D02*
X136996000Y-138911064D01*
X135526000Y-138456936D02*
X135526000Y-138911064D01*
X143012936Y-161708000D02*
X143467064Y-161708000D01*
X143012936Y-163178000D02*
X143467064Y-163178000D01*
X103211936Y-141600000D02*
X103666064Y-141600000D01*
X103211936Y-143070000D02*
X103666064Y-143070000D01*
X151665000Y-138456936D02*
X151665000Y-138911064D01*
X153135000Y-138456936D02*
X153135000Y-138911064D01*
X150312000Y-157722000D02*
X150312000Y-156222000D01*
X143312000Y-156222000D02*
X143312000Y-157722000D01*
X149062000Y-153722000D02*
X144562000Y-153722000D01*
X144562000Y-160222000D02*
X149062000Y-160222000D01*
X107149000Y-138932936D02*
X107149000Y-139387064D01*
X108619000Y-138932936D02*
X108619000Y-139387064D01*
X107923064Y-89635000D02*
X107468936Y-89635000D01*
X107923064Y-88165000D02*
X107468936Y-88165000D01*
X106426000Y-127194000D02*
X106426000Y-129854000D01*
X109026000Y-127194000D02*
X109026000Y-128524000D01*
X107696000Y-127194000D02*
X109026000Y-127194000D01*
X98746000Y-127194000D02*
X98746000Y-129854000D01*
X106426000Y-127194000D02*
X98746000Y-127194000D01*
X106426000Y-129854000D02*
X98746000Y-129854000D01*
X96673936Y-140943000D02*
X97128064Y-140943000D01*
X96673936Y-139473000D02*
X97128064Y-139473000D01*
X105350000Y-80458000D02*
X105350000Y-83118000D01*
X107950000Y-83118000D02*
X105350000Y-83118000D01*
X107950000Y-80458000D02*
X105350000Y-80458000D01*
X110550000Y-80458000D02*
X110550000Y-81788000D01*
X107950000Y-80458000D02*
X107950000Y-83118000D01*
X109220000Y-80458000D02*
X110550000Y-80458000D01*
X130836936Y-139707000D02*
X131291064Y-139707000D01*
X130836936Y-141177000D02*
X131291064Y-141177000D01*
X132140000Y-73974000D02*
X132140000Y-71314000D01*
X119380000Y-71314000D02*
X132140000Y-71314000D01*
X118110000Y-73974000D02*
X116780000Y-73974000D01*
X116780000Y-73974000D02*
X116780000Y-72644000D01*
X119380000Y-73974000D02*
X132140000Y-73974000D01*
X119380000Y-73974000D02*
X119380000Y-71314000D01*
X143483000Y-138911064D02*
X143483000Y-138456936D01*
X142013000Y-138911064D02*
X142013000Y-138456936D01*
X115704000Y-153262064D02*
X115704000Y-152807936D01*
X117174000Y-153262064D02*
X117174000Y-152807936D01*
X96834000Y-96774000D02*
X96834000Y-99374000D01*
X94174000Y-99374000D02*
X96834000Y-99374000D01*
X94174000Y-94174000D02*
X95504000Y-94174000D01*
X94174000Y-96774000D02*
X94174000Y-99374000D01*
X94174000Y-95504000D02*
X94174000Y-94174000D01*
X94174000Y-96774000D02*
X96834000Y-96774000D01*
X132442000Y-145590000D02*
X132442000Y-147090000D01*
X133692000Y-149590000D02*
X138192000Y-149590000D01*
X139442000Y-147090000D02*
X139442000Y-145590000D01*
X138192000Y-143090000D02*
X133692000Y-143090000D01*
X103859000Y-90651064D02*
X103859000Y-90196936D01*
X102389000Y-90651064D02*
X102389000Y-90196936D01*
X137785000Y-72711000D02*
X140385000Y-72711000D01*
X137785000Y-75371000D02*
X140385000Y-75371000D01*
X140385000Y-75371000D02*
X140385000Y-72711000D01*
X137785000Y-75371000D02*
X137785000Y-72711000D01*
X135185000Y-75371000D02*
X135185000Y-74041000D01*
X136515000Y-75371000D02*
X135185000Y-75371000D01*
X99224000Y-159157936D02*
X99224000Y-159612064D01*
X100694000Y-159157936D02*
X100694000Y-159612064D01*
X117204000Y-147547064D02*
X117204000Y-147092936D01*
X115734000Y-147547064D02*
X115734000Y-147092936D01*
X104294000Y-152807936D02*
X104294000Y-153262064D01*
X105764000Y-152807936D02*
X105764000Y-153262064D01*
X115057000Y-95818000D02*
X113727000Y-95818000D01*
X118927000Y-95818000D02*
X118927000Y-93158000D01*
X116327000Y-93158000D02*
X118927000Y-93158000D01*
X116327000Y-95818000D02*
X118927000Y-95818000D01*
X116327000Y-95818000D02*
X116327000Y-93158000D01*
X113727000Y-95818000D02*
X113727000Y-94488000D01*
X152213000Y-75072000D02*
X154873000Y-75072000D01*
X152213000Y-73802000D02*
X152213000Y-72472000D01*
X152213000Y-72472000D02*
X153543000Y-72472000D01*
X154873000Y-75072000D02*
X154873000Y-80212000D01*
X152213000Y-75072000D02*
X152213000Y-80212000D01*
X152213000Y-80212000D02*
X154873000Y-80212000D01*
X159739000Y-138456936D02*
X159739000Y-138911064D01*
X158269000Y-138456936D02*
X158269000Y-138911064D01*
X154990000Y-97730000D02*
X154990000Y-99060000D01*
X152390000Y-100390000D02*
X144710000Y-100390000D01*
X152390000Y-97730000D02*
X144710000Y-97730000D01*
X152390000Y-97730000D02*
X152390000Y-100390000D01*
X153660000Y-97730000D02*
X154990000Y-97730000D01*
X144710000Y-97730000D02*
X144710000Y-100390000D01*
X156691000Y-138911064D02*
X156691000Y-138456936D01*
X155221000Y-138911064D02*
X155221000Y-138456936D01*
X101775000Y-153440000D02*
X101775000Y-151940000D01*
X94775000Y-151940000D02*
X94775000Y-153440000D01*
X100525000Y-149440000D02*
X96025000Y-149440000D01*
X96025000Y-155940000D02*
X100525000Y-155940000D01*
X121096936Y-146785000D02*
X121551064Y-146785000D01*
X121096936Y-145315000D02*
X121551064Y-145315000D01*
X97790000Y-72178000D02*
X97540000Y-72708000D01*
X94450000Y-76598000D02*
X94450000Y-77198000D01*
X97790000Y-72178000D02*
X95250000Y-72178000D01*
X97540000Y-71178000D02*
X97540000Y-72178000D01*
X98590000Y-76598000D02*
X96990000Y-76598000D01*
X97540000Y-72708000D02*
X95500000Y-72708000D01*
X98590000Y-77198000D02*
X98590000Y-76598000D01*
X95500000Y-71178000D02*
X95500000Y-72178000D01*
X99170000Y-71178000D02*
X93870000Y-71178000D01*
X95250000Y-72178000D02*
X95250000Y-71178000D01*
X96990000Y-76598000D02*
X96990000Y-77198000D01*
X97790000Y-71178000D02*
X97790000Y-72178000D01*
X99460000Y-76168000D02*
X99460000Y-72168000D01*
X96050000Y-77198000D02*
X96050000Y-76598000D01*
X93870000Y-77198000D02*
X99170000Y-77198000D01*
X96050000Y-76598000D02*
X94450000Y-76598000D01*
X93870000Y-71178000D02*
X93870000Y-77198000D01*
X95500000Y-72708000D02*
X95250000Y-72178000D01*
X99170000Y-77198000D02*
X99170000Y-71178000D01*
X119615000Y-151940000D02*
X119615000Y-153440000D01*
X125365000Y-149440000D02*
X120865000Y-149440000D01*
X126615000Y-153440000D02*
X126615000Y-151940000D01*
X120865000Y-155940000D02*
X125365000Y-155940000D01*
X152086000Y-129809000D02*
X154746000Y-129809000D01*
X152086000Y-128539000D02*
X152086000Y-127209000D01*
X154746000Y-129809000D02*
X154746000Y-134949000D01*
X152086000Y-129809000D02*
X152086000Y-134949000D01*
X152086000Y-127209000D02*
X153416000Y-127209000D01*
X152086000Y-134949000D02*
X154746000Y-134949000D01*
X149696000Y-138911064D02*
X149696000Y-138456936D01*
X148226000Y-138911064D02*
X148226000Y-138456936D01*
X109215000Y-72158000D02*
X106675000Y-72158000D01*
X110015000Y-77178000D02*
X110015000Y-76578000D01*
X106925000Y-71158000D02*
X106925000Y-72158000D01*
X106675000Y-72158000D02*
X106675000Y-71158000D01*
X105295000Y-71158000D02*
X105295000Y-77178000D01*
X105875000Y-76578000D02*
X105875000Y-77178000D01*
X109215000Y-71158000D02*
X109215000Y-72158000D01*
X106925000Y-72688000D02*
X106675000Y-72158000D01*
X108965000Y-71158000D02*
X108965000Y-72158000D01*
X109215000Y-72158000D02*
X108965000Y-72688000D01*
X105295000Y-77178000D02*
X110595000Y-77178000D01*
X110595000Y-77178000D02*
X110595000Y-71158000D01*
X107475000Y-76578000D02*
X105875000Y-76578000D01*
X108965000Y-72688000D02*
X106925000Y-72688000D01*
X110885000Y-76148000D02*
X110885000Y-72148000D01*
X110015000Y-76578000D02*
X108415000Y-76578000D01*
X107475000Y-77178000D02*
X107475000Y-76578000D01*
X110595000Y-71158000D02*
X105295000Y-71158000D01*
X108415000Y-76578000D02*
X108415000Y-77178000D01*
X127702000Y-135442000D02*
X127702000Y-134112000D01*
X130302000Y-135442000D02*
X130302000Y-132782000D01*
X130302000Y-132782000D02*
X132902000Y-132782000D01*
X130302000Y-135442000D02*
X132902000Y-135442000D01*
X132902000Y-135442000D02*
X132902000Y-132782000D01*
X129032000Y-135442000D02*
X127702000Y-135442000D01*
X103659000Y-139387064D02*
X103659000Y-138932936D01*
X105129000Y-139387064D02*
X105129000Y-138932936D01*
X102335064Y-85117000D02*
X101880936Y-85117000D01*
X102335064Y-86587000D02*
X101880936Y-86587000D01*
X138574000Y-138911064D02*
X138574000Y-138456936D01*
X140044000Y-138911064D02*
X140044000Y-138456936D01*
%LPC*%
D12*
X99568000Y-95536000D03*
X99568000Y-97536000D03*
X103759000Y-158385000D03*
X103759000Y-160385000D03*
D13*
X115057000Y-90424000D03*
D14*
X117597000Y-90424000D03*
D13*
X153416000Y-92319000D03*
D14*
X153416000Y-89779000D03*
X153416000Y-87239000D03*
X153416000Y-84699000D03*
D15*
X107090000Y-148590000D03*
X113590000Y-148590000D03*
X113590000Y-144090000D03*
X107090000Y-144090000D03*
X139192000Y-159004000D03*
X132692000Y-159004000D03*
X139192000Y-154504000D03*
X132692000Y-154504000D03*
D16*
X128032000Y-158750000D03*
X130032000Y-158750000D03*
X129048000Y-151384000D03*
X131048000Y-151384000D03*
D17*
X153670000Y-105410000D03*
D18*
X151130000Y-105410000D03*
X148590000Y-105410000D03*
X146050000Y-105410000D03*
X143510000Y-105410000D03*
X140970000Y-105410000D03*
X138430000Y-105410000D03*
X135890000Y-105410000D03*
X133350000Y-105410000D03*
X130810000Y-105410000D03*
X128270000Y-105410000D03*
X125730000Y-105410000D03*
X123190000Y-105410000D03*
X120650000Y-105410000D03*
X118110000Y-105410000D03*
X115570000Y-105410000D03*
X113030000Y-105410000D03*
X110490000Y-105410000D03*
X107950000Y-105410000D03*
X105410000Y-105410000D03*
X105410000Y-120650000D03*
X107950000Y-120650000D03*
X110490000Y-120650000D03*
X113030000Y-120650000D03*
X115570000Y-120650000D03*
X118110000Y-120650000D03*
X120650000Y-120650000D03*
X123190000Y-120650000D03*
X125730000Y-120650000D03*
X128270000Y-120650000D03*
X130810000Y-120650000D03*
X133350000Y-120650000D03*
X135890000Y-120650000D03*
X138430000Y-120650000D03*
X140970000Y-120650000D03*
X143510000Y-120650000D03*
X146050000Y-120650000D03*
X148590000Y-120650000D03*
X151130000Y-120650000D03*
X153670000Y-120650000D03*
D13*
X126741000Y-128524000D03*
D14*
X129281000Y-128524000D03*
D13*
X145029000Y-74041000D03*
D14*
X147569000Y-74041000D03*
D19*
X101457000Y-145070000D03*
X99457000Y-145070000D03*
D13*
X147061000Y-128524000D03*
D14*
X144521000Y-128524000D03*
X141981000Y-128524000D03*
X139441000Y-128524000D03*
X136901000Y-128524000D03*
D13*
X95504000Y-105928000D03*
D14*
X95504000Y-108468000D03*
X95504000Y-111008000D03*
X95504000Y-113548000D03*
D12*
X145796000Y-137684000D03*
X145796000Y-139684000D03*
D13*
X98044000Y-81788000D03*
D14*
X95504000Y-81788000D03*
D20*
X96002000Y-145272000D03*
X96002000Y-143272000D03*
D15*
X143562000Y-148554000D03*
X150062000Y-148554000D03*
X143562000Y-144054000D03*
X150062000Y-144054000D03*
D13*
X125090000Y-99060000D03*
D14*
X127630000Y-99060000D03*
D13*
X95504000Y-87625000D03*
D14*
X95504000Y-90165000D03*
D13*
X136393000Y-99060000D03*
D14*
X138933000Y-99060000D03*
D15*
X113590000Y-161290000D03*
X107090000Y-161290000D03*
X113590000Y-156790000D03*
X107090000Y-156790000D03*
D19*
X104124000Y-95387000D03*
X102124000Y-95387000D03*
D12*
X99568000Y-88392000D03*
X99568000Y-90392000D03*
D13*
X147828000Y-79756000D03*
D14*
X145288000Y-79756000D03*
X142748000Y-79756000D03*
X140208000Y-79756000D03*
X137668000Y-79756000D03*
X135128000Y-79756000D03*
D13*
X120142000Y-128524000D03*
D14*
X117602000Y-128524000D03*
D12*
X136261000Y-137684000D03*
X136261000Y-139684000D03*
D16*
X142240000Y-162443000D03*
X144240000Y-162443000D03*
X102439000Y-142335000D03*
X104439000Y-142335000D03*
D12*
X152400000Y-137684000D03*
X152400000Y-139684000D03*
D15*
X143562000Y-159222000D03*
X150062000Y-159222000D03*
X143562000Y-154722000D03*
X150062000Y-154722000D03*
D12*
X107884000Y-138160000D03*
X107884000Y-140160000D03*
D19*
X108696000Y-88900000D03*
X106696000Y-88900000D03*
D13*
X107696000Y-128524000D03*
D14*
X105156000Y-128524000D03*
X102616000Y-128524000D03*
X100076000Y-128524000D03*
D16*
X95901000Y-140208000D03*
X97901000Y-140208000D03*
D13*
X109220000Y-81788000D03*
D14*
X106680000Y-81788000D03*
D16*
X130064000Y-140442000D03*
X132064000Y-140442000D03*
D13*
X118110000Y-72644000D03*
D14*
X120650000Y-72644000D03*
X123190000Y-72644000D03*
X125730000Y-72644000D03*
X128270000Y-72644000D03*
X130810000Y-72644000D03*
D20*
X142748000Y-139684000D03*
X142748000Y-137684000D03*
X116439000Y-154035000D03*
X116439000Y-152035000D03*
D13*
X95504000Y-95504000D03*
D14*
X95504000Y-98044000D03*
D15*
X139192000Y-148590000D03*
X132692000Y-148590000D03*
X139192000Y-144090000D03*
X132692000Y-144090000D03*
D20*
X103124000Y-91424000D03*
X103124000Y-89424000D03*
D13*
X136515000Y-74041000D03*
D14*
X139055000Y-74041000D03*
D12*
X99959000Y-158385000D03*
X99959000Y-160385000D03*
D20*
X116469000Y-148320000D03*
X116469000Y-146320000D03*
D12*
X105029000Y-152035000D03*
X105029000Y-154035000D03*
D13*
X115057000Y-94488000D03*
D14*
X117597000Y-94488000D03*
D13*
X153543000Y-73802000D03*
D14*
X153543000Y-76342000D03*
X153543000Y-78882000D03*
D12*
X159004000Y-137684000D03*
X159004000Y-139684000D03*
D13*
X153660000Y-99060000D03*
D14*
X151120000Y-99060000D03*
X148580000Y-99060000D03*
X146040000Y-99060000D03*
D20*
X155956000Y-139684000D03*
X155956000Y-137684000D03*
D15*
X101525000Y-154940000D03*
X95025000Y-154940000D03*
X95025000Y-150440000D03*
X101525000Y-150440000D03*
D16*
X120324000Y-146050000D03*
X122324000Y-146050000D03*
D21*
X97790000Y-74168000D03*
D22*
X95250000Y-74168000D03*
D15*
X126365000Y-154940000D03*
X119865000Y-154940000D03*
X119865000Y-150440000D03*
X126365000Y-150440000D03*
D13*
X153416000Y-128539000D03*
D14*
X153416000Y-131079000D03*
X153416000Y-133619000D03*
D20*
X148961000Y-139684000D03*
X148961000Y-137684000D03*
D22*
X106675000Y-74148000D03*
D21*
X109215000Y-74148000D03*
D13*
X129032000Y-134112000D03*
D14*
X131572000Y-134112000D03*
D20*
X104394000Y-140160000D03*
X104394000Y-138160000D03*
D19*
X103108000Y-85852000D03*
X101108000Y-85852000D03*
D20*
X139309000Y-139684000D03*
X139309000Y-137684000D03*
M02*
