G04 #@! TF.GenerationSoftware,KiCad,Pcbnew,(6.0.10)*
G04 #@! TF.CreationDate,2023-02-06T13:34:11-03:00*
G04 #@! TF.ProjectId,Core_HW,436f7265-5f48-4572-9e6b-696361645f70,rev?*
G04 #@! TF.SameCoordinates,Original*
G04 #@! TF.FileFunction,Paste,Top*
G04 #@! TF.FilePolarity,Positive*
%FSLAX46Y46*%
G04 Gerber Fmt 4.6, Leading zero omitted, Abs format (unit mm)*
G04 Created by KiCad (PCBNEW (6.0.10)) date 2023-02-06 13:34:11*
%MOMM*%
%LPD*%
G01*
G04 APERTURE LIST*
G04 Aperture macros list*
%AMRoundRect*
0 Rectangle with rounded corners*
0 $1 Rounding radius*
0 $2 $3 $4 $5 $6 $7 $8 $9 X,Y pos of 4 corners*
0 Add a 4 corners polygon primitive as box body*
4,1,4,$2,$3,$4,$5,$6,$7,$8,$9,$2,$3,0*
0 Add four circle primitives for the rounded corners*
1,1,$1+$1,$2,$3*
1,1,$1+$1,$4,$5*
1,1,$1+$1,$6,$7*
1,1,$1+$1,$8,$9*
0 Add four rect primitives between the rounded corners*
20,1,$1+$1,$2,$3,$4,$5,0*
20,1,$1+$1,$4,$5,$6,$7,0*
20,1,$1+$1,$6,$7,$8,$9,0*
20,1,$1+$1,$8,$9,$2,$3,0*%
G04 Aperture macros list end*
%ADD10RoundRect,0.250000X-0.450000X0.350000X-0.450000X-0.350000X0.450000X-0.350000X0.450000X0.350000X0*%
%ADD11RoundRect,0.250000X-0.350000X-0.450000X0.350000X-0.450000X0.350000X0.450000X-0.350000X0.450000X0*%
%ADD12RoundRect,0.250000X0.350000X0.450000X-0.350000X0.450000X-0.350000X-0.450000X0.350000X-0.450000X0*%
%ADD13RoundRect,0.250000X0.450000X-0.350000X0.450000X0.350000X-0.450000X0.350000X-0.450000X-0.350000X0*%
G04 APERTURE END LIST*
D10*
X99568000Y-95536000D03*
X99568000Y-97536000D03*
X103759000Y-158385000D03*
X103759000Y-160385000D03*
D11*
X128032000Y-158750000D03*
X130032000Y-158750000D03*
X129048000Y-151384000D03*
X131048000Y-151384000D03*
D12*
X101457000Y-145070000D03*
X99457000Y-145070000D03*
D10*
X145796000Y-137684000D03*
X145796000Y-139684000D03*
D13*
X96002000Y-145272000D03*
X96002000Y-143272000D03*
D12*
X104124000Y-95387000D03*
X102124000Y-95387000D03*
D10*
X99568000Y-88392000D03*
X99568000Y-90392000D03*
X136261000Y-137684000D03*
X136261000Y-139684000D03*
D11*
X142240000Y-162443000D03*
X144240000Y-162443000D03*
X102439000Y-142335000D03*
X104439000Y-142335000D03*
D10*
X152400000Y-137684000D03*
X152400000Y-139684000D03*
X107884000Y-138160000D03*
X107884000Y-140160000D03*
D12*
X108696000Y-88900000D03*
X106696000Y-88900000D03*
D11*
X95901000Y-140208000D03*
X97901000Y-140208000D03*
X130064000Y-140442000D03*
X132064000Y-140442000D03*
D13*
X142748000Y-139684000D03*
X142748000Y-137684000D03*
X116439000Y-154035000D03*
X116439000Y-152035000D03*
X103124000Y-91424000D03*
X103124000Y-89424000D03*
D10*
X99959000Y-158385000D03*
X99959000Y-160385000D03*
D13*
X116469000Y-148320000D03*
X116469000Y-146320000D03*
D10*
X105029000Y-152035000D03*
X105029000Y-154035000D03*
X159004000Y-137684000D03*
X159004000Y-139684000D03*
D13*
X155956000Y-139684000D03*
X155956000Y-137684000D03*
D11*
X120324000Y-146050000D03*
X122324000Y-146050000D03*
D13*
X148961000Y-139684000D03*
X148961000Y-137684000D03*
X104394000Y-140160000D03*
X104394000Y-138160000D03*
D12*
X103108000Y-85852000D03*
X101108000Y-85852000D03*
D13*
X139309000Y-139684000D03*
X139309000Y-137684000D03*
M02*
