G04 #@! TF.GenerationSoftware,KiCad,Pcbnew,(6.0.10)*
G04 #@! TF.CreationDate,2023-02-06T13:34:11-03:00*
G04 #@! TF.ProjectId,Core_HW,436f7265-5f48-4572-9e6b-696361645f70,rev?*
G04 #@! TF.SameCoordinates,Original*
G04 #@! TF.FileFunction,Soldermask,Top*
G04 #@! TF.FilePolarity,Negative*
%FSLAX46Y46*%
G04 Gerber Fmt 4.6, Leading zero omitted, Abs format (unit mm)*
G04 Created by KiCad (PCBNEW (6.0.10)) date 2023-02-06 13:34:11*
%MOMM*%
%LPD*%
G01*
G04 APERTURE LIST*
G04 Aperture macros list*
%AMRoundRect*
0 Rectangle with rounded corners*
0 $1 Rounding radius*
0 $2 $3 $4 $5 $6 $7 $8 $9 X,Y pos of 4 corners*
0 Add a 4 corners polygon primitive as box body*
4,1,4,$2,$3,$4,$5,$6,$7,$8,$9,$2,$3,0*
0 Add four circle primitives for the rounded corners*
1,1,$1+$1,$2,$3*
1,1,$1+$1,$4,$5*
1,1,$1+$1,$6,$7*
1,1,$1+$1,$8,$9*
0 Add four rect primitives between the rounded corners*
20,1,$1+$1,$2,$3,$4,$5,0*
20,1,$1+$1,$4,$5,$6,$7,0*
20,1,$1+$1,$6,$7,$8,$9,0*
20,1,$1+$1,$8,$9,$2,$3,0*%
G04 Aperture macros list end*
%ADD10RoundRect,0.250000X-0.450000X0.350000X-0.450000X-0.350000X0.450000X-0.350000X0.450000X0.350000X0*%
%ADD11R,1.700000X1.700000*%
%ADD12O,1.700000X1.700000*%
%ADD13C,2.000000*%
%ADD14RoundRect,0.250000X-0.350000X-0.450000X0.350000X-0.450000X0.350000X0.450000X-0.350000X0.450000X0*%
%ADD15R,1.600000X2.400000*%
%ADD16O,1.600000X2.400000*%
%ADD17RoundRect,0.250000X0.350000X0.450000X-0.350000X0.450000X-0.350000X-0.450000X0.350000X-0.450000X0*%
%ADD18RoundRect,0.250000X0.450000X-0.350000X0.450000X0.350000X-0.450000X0.350000X-0.450000X-0.350000X0*%
%ADD19RoundRect,0.250000X0.620000X0.845000X-0.620000X0.845000X-0.620000X-0.845000X0.620000X-0.845000X0*%
%ADD20O,1.740000X2.190000*%
G04 APERTURE END LIST*
D10*
X99568000Y-95536000D03*
X99568000Y-97536000D03*
X103759000Y-158385000D03*
X103759000Y-160385000D03*
D11*
X115057000Y-90424000D03*
D12*
X117597000Y-90424000D03*
D11*
X153416000Y-92319000D03*
D12*
X153416000Y-89779000D03*
X153416000Y-87239000D03*
X153416000Y-84699000D03*
D13*
X107090000Y-148590000D03*
X113590000Y-148590000D03*
X113590000Y-144090000D03*
X107090000Y-144090000D03*
X139192000Y-159004000D03*
X132692000Y-159004000D03*
X139192000Y-154504000D03*
X132692000Y-154504000D03*
D14*
X128032000Y-158750000D03*
X130032000Y-158750000D03*
X129048000Y-151384000D03*
X131048000Y-151384000D03*
D15*
X153670000Y-105410000D03*
D16*
X151130000Y-105410000D03*
X148590000Y-105410000D03*
X146050000Y-105410000D03*
X143510000Y-105410000D03*
X140970000Y-105410000D03*
X138430000Y-105410000D03*
X135890000Y-105410000D03*
X133350000Y-105410000D03*
X130810000Y-105410000D03*
X128270000Y-105410000D03*
X125730000Y-105410000D03*
X123190000Y-105410000D03*
X120650000Y-105410000D03*
X118110000Y-105410000D03*
X115570000Y-105410000D03*
X113030000Y-105410000D03*
X110490000Y-105410000D03*
X107950000Y-105410000D03*
X105410000Y-105410000D03*
X105410000Y-120650000D03*
X107950000Y-120650000D03*
X110490000Y-120650000D03*
X113030000Y-120650000D03*
X115570000Y-120650000D03*
X118110000Y-120650000D03*
X120650000Y-120650000D03*
X123190000Y-120650000D03*
X125730000Y-120650000D03*
X128270000Y-120650000D03*
X130810000Y-120650000D03*
X133350000Y-120650000D03*
X135890000Y-120650000D03*
X138430000Y-120650000D03*
X140970000Y-120650000D03*
X143510000Y-120650000D03*
X146050000Y-120650000D03*
X148590000Y-120650000D03*
X151130000Y-120650000D03*
X153670000Y-120650000D03*
D11*
X126741000Y-128524000D03*
D12*
X129281000Y-128524000D03*
D11*
X145029000Y-74041000D03*
D12*
X147569000Y-74041000D03*
D17*
X101457000Y-145070000D03*
X99457000Y-145070000D03*
D11*
X147061000Y-128524000D03*
D12*
X144521000Y-128524000D03*
X141981000Y-128524000D03*
X139441000Y-128524000D03*
X136901000Y-128524000D03*
D11*
X95504000Y-105928000D03*
D12*
X95504000Y-108468000D03*
X95504000Y-111008000D03*
X95504000Y-113548000D03*
D10*
X145796000Y-137684000D03*
X145796000Y-139684000D03*
D11*
X98044000Y-81788000D03*
D12*
X95504000Y-81788000D03*
D18*
X96002000Y-145272000D03*
X96002000Y-143272000D03*
D13*
X143562000Y-148554000D03*
X150062000Y-148554000D03*
X143562000Y-144054000D03*
X150062000Y-144054000D03*
D11*
X125090000Y-99060000D03*
D12*
X127630000Y-99060000D03*
D11*
X95504000Y-87625000D03*
D12*
X95504000Y-90165000D03*
D11*
X136393000Y-99060000D03*
D12*
X138933000Y-99060000D03*
D13*
X113590000Y-161290000D03*
X107090000Y-161290000D03*
X113590000Y-156790000D03*
X107090000Y-156790000D03*
D17*
X104124000Y-95387000D03*
X102124000Y-95387000D03*
D10*
X99568000Y-88392000D03*
X99568000Y-90392000D03*
D11*
X147828000Y-79756000D03*
D12*
X145288000Y-79756000D03*
X142748000Y-79756000D03*
X140208000Y-79756000D03*
X137668000Y-79756000D03*
X135128000Y-79756000D03*
D11*
X120142000Y-128524000D03*
D12*
X117602000Y-128524000D03*
D10*
X136261000Y-137684000D03*
X136261000Y-139684000D03*
D14*
X142240000Y-162443000D03*
X144240000Y-162443000D03*
X102439000Y-142335000D03*
X104439000Y-142335000D03*
D10*
X152400000Y-137684000D03*
X152400000Y-139684000D03*
D13*
X143562000Y-159222000D03*
X150062000Y-159222000D03*
X143562000Y-154722000D03*
X150062000Y-154722000D03*
D10*
X107884000Y-138160000D03*
X107884000Y-140160000D03*
D17*
X108696000Y-88900000D03*
X106696000Y-88900000D03*
D11*
X107696000Y-128524000D03*
D12*
X105156000Y-128524000D03*
X102616000Y-128524000D03*
X100076000Y-128524000D03*
D14*
X95901000Y-140208000D03*
X97901000Y-140208000D03*
D11*
X109220000Y-81788000D03*
D12*
X106680000Y-81788000D03*
D14*
X130064000Y-140442000D03*
X132064000Y-140442000D03*
D11*
X118110000Y-72644000D03*
D12*
X120650000Y-72644000D03*
X123190000Y-72644000D03*
X125730000Y-72644000D03*
X128270000Y-72644000D03*
X130810000Y-72644000D03*
D18*
X142748000Y-139684000D03*
X142748000Y-137684000D03*
X116439000Y-154035000D03*
X116439000Y-152035000D03*
D11*
X95504000Y-95504000D03*
D12*
X95504000Y-98044000D03*
D13*
X139192000Y-148590000D03*
X132692000Y-148590000D03*
X139192000Y-144090000D03*
X132692000Y-144090000D03*
D18*
X103124000Y-91424000D03*
X103124000Y-89424000D03*
D11*
X136515000Y-74041000D03*
D12*
X139055000Y-74041000D03*
D10*
X99959000Y-158385000D03*
X99959000Y-160385000D03*
D18*
X116469000Y-148320000D03*
X116469000Y-146320000D03*
D10*
X105029000Y-152035000D03*
X105029000Y-154035000D03*
D11*
X115057000Y-94488000D03*
D12*
X117597000Y-94488000D03*
D11*
X153543000Y-73802000D03*
D12*
X153543000Y-76342000D03*
X153543000Y-78882000D03*
D10*
X159004000Y-137684000D03*
X159004000Y-139684000D03*
D11*
X153660000Y-99060000D03*
D12*
X151120000Y-99060000D03*
X148580000Y-99060000D03*
X146040000Y-99060000D03*
D18*
X155956000Y-139684000D03*
X155956000Y-137684000D03*
D13*
X101525000Y-154940000D03*
X95025000Y-154940000D03*
X95025000Y-150440000D03*
X101525000Y-150440000D03*
D14*
X120324000Y-146050000D03*
X122324000Y-146050000D03*
D19*
X97790000Y-74168000D03*
D20*
X95250000Y-74168000D03*
D13*
X126365000Y-154940000D03*
X119865000Y-154940000D03*
X119865000Y-150440000D03*
X126365000Y-150440000D03*
D11*
X153416000Y-128539000D03*
D12*
X153416000Y-131079000D03*
X153416000Y-133619000D03*
D18*
X148961000Y-139684000D03*
X148961000Y-137684000D03*
D20*
X106675000Y-74148000D03*
D19*
X109215000Y-74148000D03*
D11*
X129032000Y-134112000D03*
D12*
X131572000Y-134112000D03*
D18*
X104394000Y-140160000D03*
X104394000Y-138160000D03*
D17*
X103108000Y-85852000D03*
X101108000Y-85852000D03*
D18*
X139309000Y-139684000D03*
X139309000Y-137684000D03*
M02*
