M48
; DRILL file {KiCad (6.0.10)} date Mon Feb  6 13:34:17 2023
; FORMAT={-:-/ absolute / metric / decimal}
; #@! TF.CreationDate,2023-02-06T13:34:17-03:00
; #@! TF.GenerationSoftware,Kicad,Pcbnew,(6.0.10)
; #@! TF.FileFunction,Plated,1,2,PTH
FMAT,2
METRIC
; #@! TA.AperFunction,Plated,PTH,ViaDrill
T1C0.400
; #@! TA.AperFunction,Plated,PTH,ComponentDrill
T2C0.800
; #@! TA.AperFunction,Plated,PTH,ComponentDrill
T3C1.000
; #@! TA.AperFunction,Plated,PTH,ComponentDrill
T4C1.100
; #@! TA.AperFunction,Plated,PTH,ComponentDrill
T5C1.190
%
G90
G05
T1
X97.917Y-90.424
X99.695Y-99.314
X100.203Y-140.208
X110.998Y-84.836
X114.681Y-84.836
X130.81Y-67.691
T2
X105.41Y-105.41
X105.41Y-120.65
X107.95Y-105.41
X107.95Y-120.65
X110.49Y-105.41
X110.49Y-120.65
X113.03Y-105.41
X113.03Y-120.65
X115.57Y-105.41
X115.57Y-120.65
X118.11Y-105.41
X118.11Y-120.65
X120.65Y-105.41
X120.65Y-120.65
X123.19Y-105.41
X123.19Y-120.65
X125.73Y-105.41
X125.73Y-120.65
X128.27Y-105.41
X128.27Y-120.65
X130.81Y-105.41
X130.81Y-120.65
X133.35Y-105.41
X133.35Y-120.65
X135.89Y-105.41
X135.89Y-120.65
X138.43Y-105.41
X138.43Y-120.65
X140.97Y-105.41
X140.97Y-120.65
X143.51Y-105.41
X143.51Y-120.65
X146.05Y-105.41
X146.05Y-120.65
X148.59Y-105.41
X148.59Y-120.65
X151.13Y-105.41
X151.13Y-120.65
X153.67Y-105.41
X153.67Y-120.65
T3
X95.504Y-81.788
X95.504Y-87.625
X95.504Y-90.165
X95.504Y-95.504
X95.504Y-98.044
X95.504Y-105.928
X95.504Y-108.468
X95.504Y-111.008
X95.504Y-113.548
X98.044Y-81.788
X100.076Y-128.524
X102.616Y-128.524
X105.156Y-128.524
X106.68Y-81.788
X107.696Y-128.524
X109.22Y-81.788
X115.057Y-90.424
X115.057Y-94.488
X117.597Y-90.424
X117.597Y-94.488
X117.602Y-128.524
X118.11Y-72.644
X120.142Y-128.524
X120.65Y-72.644
X123.19Y-72.644
X125.09Y-99.06
X125.73Y-72.644
X126.741Y-128.524
X127.63Y-99.06
X128.27Y-72.644
X129.032Y-134.112
X129.281Y-128.524
X130.81Y-72.644
X131.572Y-134.112
X135.128Y-79.756
X136.393Y-99.06
X136.515Y-74.041
X136.901Y-128.524
X137.668Y-79.756
X138.933Y-99.06
X139.055Y-74.041
X139.441Y-128.524
X140.208Y-79.756
X141.981Y-128.524
X142.748Y-79.756
X144.521Y-128.524
X145.029Y-74.041
X145.288Y-79.756
X146.04Y-99.06
X147.061Y-128.524
X147.569Y-74.041
X147.828Y-79.756
X148.58Y-99.06
X151.12Y-99.06
X153.416Y-84.699
X153.416Y-87.239
X153.416Y-89.779
X153.416Y-92.319
X153.416Y-128.539
X153.416Y-131.079
X153.416Y-133.619
X153.543Y-73.802
X153.543Y-76.342
X153.543Y-78.882
X153.66Y-99.06
T4
X95.025Y-150.44
X95.025Y-154.94
X101.525Y-150.44
X101.525Y-154.94
X107.09Y-144.09
X107.09Y-148.59
X107.09Y-156.79
X107.09Y-161.29
X113.59Y-144.09
X113.59Y-148.59
X113.59Y-156.79
X113.59Y-161.29
X119.865Y-150.44
X119.865Y-154.94
X126.365Y-150.44
X126.365Y-154.94
X132.692Y-144.09
X132.692Y-148.59
X132.692Y-154.504
X132.692Y-159.004
X139.192Y-144.09
X139.192Y-148.59
X139.192Y-154.504
X139.192Y-159.004
X143.562Y-144.054
X143.562Y-148.554
X143.562Y-154.722
X143.562Y-159.222
X150.062Y-144.054
X150.062Y-148.554
X150.062Y-154.722
X150.062Y-159.222
T5
X95.25Y-74.168
X97.79Y-74.168
X106.675Y-74.148
X109.215Y-74.148
T0
M30
