G04 #@! TF.GenerationSoftware,KiCad,Pcbnew,(6.0.10)*
G04 #@! TF.CreationDate,2023-02-06T13:43:24-03:00*
G04 #@! TF.ProjectId,PowerSupply_HW,506f7765-7253-4757-9070-6c795f48572e,rev?*
G04 #@! TF.SameCoordinates,Original*
G04 #@! TF.FileFunction,Legend,Top*
G04 #@! TF.FilePolarity,Positive*
%FSLAX46Y46*%
G04 Gerber Fmt 4.6, Leading zero omitted, Abs format (unit mm)*
G04 Created by KiCad (PCBNEW (6.0.10)) date 2023-02-06 13:43:24*
%MOMM*%
%LPD*%
G01*
G04 APERTURE LIST*
G04 Aperture macros list*
%AMRoundRect*
0 Rectangle with rounded corners*
0 $1 Rounding radius*
0 $2 $3 $4 $5 $6 $7 $8 $9 X,Y pos of 4 corners*
0 Add a 4 corners polygon primitive as box body*
4,1,4,$2,$3,$4,$5,$6,$7,$8,$9,$2,$3,0*
0 Add four circle primitives for the rounded corners*
1,1,$1+$1,$2,$3*
1,1,$1+$1,$4,$5*
1,1,$1+$1,$6,$7*
1,1,$1+$1,$8,$9*
0 Add four rect primitives between the rounded corners*
20,1,$1+$1,$2,$3,$4,$5,0*
20,1,$1+$1,$4,$5,$6,$7,0*
20,1,$1+$1,$6,$7,$8,$9,0*
20,1,$1+$1,$8,$9,$2,$3,0*%
G04 Aperture macros list end*
%ADD10C,0.150000*%
%ADD11C,0.300000*%
%ADD12C,0.120000*%
%ADD13C,7.000000*%
%ADD14RoundRect,0.250000X-0.450000X0.350000X-0.450000X-0.350000X0.450000X-0.350000X0.450000X0.350000X0*%
%ADD15R,1.700000X1.700000*%
%ADD16O,1.700000X1.700000*%
%ADD17RoundRect,0.250000X0.350000X0.450000X-0.350000X0.450000X-0.350000X-0.450000X0.350000X-0.450000X0*%
G04 APERTURE END LIST*
D10*
X92865800Y-127577200D02*
X58365800Y-127577200D01*
X58365800Y-127577200D02*
X58365800Y-71577200D01*
X58365800Y-71577200D02*
X92865800Y-71577200D01*
X92865800Y-71577200D02*
X92865800Y-127577200D01*
D11*
X75700085Y-110342914D02*
X75890561Y-109628628D01*
X76081038Y-109390533D01*
X76461990Y-109152438D01*
X77033419Y-109152438D01*
X77414371Y-109390533D01*
X77604847Y-109628628D01*
X77795323Y-110104819D01*
X77795323Y-112009580D01*
X73795323Y-112009580D01*
X73795323Y-110342914D01*
X73985800Y-109866723D01*
X74176276Y-109628628D01*
X74557228Y-109390533D01*
X74938180Y-109390533D01*
X75319133Y-109628628D01*
X75509609Y-109866723D01*
X75700085Y-110342914D01*
X75700085Y-112009580D01*
X76652466Y-107247676D02*
X76652466Y-104866723D01*
X77795323Y-107723866D02*
X73795323Y-106057200D01*
X77795323Y-104390533D01*
X73795323Y-103438152D02*
X73795323Y-100581009D01*
X77795323Y-102009580D02*
X73795323Y-102009580D01*
X75700085Y-98914342D02*
X75700085Y-97247676D01*
X77795323Y-96533390D02*
X77795323Y-98914342D01*
X73795323Y-98914342D01*
X73795323Y-96533390D01*
X77795323Y-91533390D02*
X75890561Y-93200057D01*
X77795323Y-94390533D02*
X73795323Y-94390533D01*
X73795323Y-92485771D01*
X73985800Y-92009580D01*
X74176276Y-91771485D01*
X74557228Y-91533390D01*
X75128657Y-91533390D01*
X75509609Y-91771485D01*
X75700085Y-92009580D01*
X75890561Y-92485771D01*
X75890561Y-94390533D01*
X77795323Y-89390533D02*
X73795323Y-89390533D01*
X76652466Y-87247676D02*
X76652466Y-84866723D01*
X77795323Y-87723866D02*
X73795323Y-86057200D01*
X77795323Y-84390533D01*
X117181904Y-50384285D02*
X117086666Y-50479523D01*
X116800952Y-50574761D01*
X116610476Y-50574761D01*
X116324761Y-50479523D01*
X116134285Y-50289047D01*
X116039047Y-50098571D01*
X115943809Y-49717619D01*
X115943809Y-49431904D01*
X116039047Y-49050952D01*
X116134285Y-48860476D01*
X116324761Y-48670000D01*
X116610476Y-48574761D01*
X116800952Y-48574761D01*
X117086666Y-48670000D01*
X117181904Y-48765238D01*
X118420000Y-48574761D02*
X118800952Y-48574761D01*
X118991428Y-48670000D01*
X119181904Y-48860476D01*
X119277142Y-49241428D01*
X119277142Y-49908095D01*
X119181904Y-50289047D01*
X118991428Y-50479523D01*
X118800952Y-50574761D01*
X118420000Y-50574761D01*
X118229523Y-50479523D01*
X118039047Y-50289047D01*
X117943809Y-49908095D01*
X117943809Y-49241428D01*
X118039047Y-48860476D01*
X118229523Y-48670000D01*
X118420000Y-48574761D01*
X120134285Y-50574761D02*
X120134285Y-48574761D01*
X121277142Y-50574761D01*
X121277142Y-48574761D01*
X121943809Y-48574761D02*
X122610476Y-50574761D01*
X123277142Y-48574761D01*
X123943809Y-49527142D02*
X124610476Y-49527142D01*
X124896190Y-50574761D02*
X123943809Y-50574761D01*
X123943809Y-48574761D01*
X124896190Y-48574761D01*
X126896190Y-50574761D02*
X126229523Y-49622380D01*
X125753333Y-50574761D02*
X125753333Y-48574761D01*
X126515238Y-48574761D01*
X126705714Y-48670000D01*
X126800952Y-48765238D01*
X126896190Y-48955714D01*
X126896190Y-49241428D01*
X126800952Y-49431904D01*
X126705714Y-49527142D01*
X126515238Y-49622380D01*
X125753333Y-49622380D01*
X127658095Y-50479523D02*
X127943809Y-50574761D01*
X128420000Y-50574761D01*
X128610476Y-50479523D01*
X128705714Y-50384285D01*
X128800952Y-50193809D01*
X128800952Y-50003333D01*
X128705714Y-49812857D01*
X128610476Y-49717619D01*
X128420000Y-49622380D01*
X128039047Y-49527142D01*
X127848571Y-49431904D01*
X127753333Y-49336666D01*
X127658095Y-49146190D01*
X127658095Y-48955714D01*
X127753333Y-48765238D01*
X127848571Y-48670000D01*
X128039047Y-48574761D01*
X128515238Y-48574761D01*
X128800952Y-48670000D01*
X130039047Y-48574761D02*
X130420000Y-48574761D01*
X130610476Y-48670000D01*
X130800952Y-48860476D01*
X130896190Y-49241428D01*
X130896190Y-49908095D01*
X130800952Y-50289047D01*
X130610476Y-50479523D01*
X130420000Y-50574761D01*
X130039047Y-50574761D01*
X129848571Y-50479523D01*
X129658095Y-50289047D01*
X129562857Y-49908095D01*
X129562857Y-49241428D01*
X129658095Y-48860476D01*
X129848571Y-48670000D01*
X130039047Y-48574761D01*
X132896190Y-50574761D02*
X132229523Y-49622380D01*
X131753333Y-50574761D02*
X131753333Y-48574761D01*
X132515238Y-48574761D01*
X132705714Y-48670000D01*
X132800952Y-48765238D01*
X132896190Y-48955714D01*
X132896190Y-49241428D01*
X132800952Y-49431904D01*
X132705714Y-49527142D01*
X132515238Y-49622380D01*
X131753333Y-49622380D01*
X119848571Y-53794761D02*
X119848571Y-51794761D01*
X120324761Y-51794761D01*
X120610476Y-51890000D01*
X120800952Y-52080476D01*
X120896190Y-52270952D01*
X120991428Y-52651904D01*
X120991428Y-52937619D01*
X120896190Y-53318571D01*
X120800952Y-53509047D01*
X120610476Y-53699523D01*
X120324761Y-53794761D01*
X119848571Y-53794761D01*
X122991428Y-53604285D02*
X122896190Y-53699523D01*
X122610476Y-53794761D01*
X122420000Y-53794761D01*
X122134285Y-53699523D01*
X121943809Y-53509047D01*
X121848571Y-53318571D01*
X121753333Y-52937619D01*
X121753333Y-52651904D01*
X121848571Y-52270952D01*
X121943809Y-52080476D01*
X122134285Y-51890000D01*
X122420000Y-51794761D01*
X122610476Y-51794761D01*
X122896190Y-51890000D01*
X122991428Y-51985238D01*
X125277142Y-51699523D02*
X123562857Y-54270952D01*
X125943809Y-53794761D02*
X125943809Y-51794761D01*
X126420000Y-51794761D01*
X126705714Y-51890000D01*
X126896190Y-52080476D01*
X126991428Y-52270952D01*
X127086666Y-52651904D01*
X127086666Y-52937619D01*
X126991428Y-53318571D01*
X126896190Y-53509047D01*
X126705714Y-53699523D01*
X126420000Y-53794761D01*
X125943809Y-53794761D01*
X129086666Y-53604285D02*
X128991428Y-53699523D01*
X128705714Y-53794761D01*
X128515238Y-53794761D01*
X128229523Y-53699523D01*
X128039047Y-53509047D01*
X127943809Y-53318571D01*
X127848571Y-52937619D01*
X127848571Y-52651904D01*
X127943809Y-52270952D01*
X128039047Y-52080476D01*
X128229523Y-51890000D01*
X128515238Y-51794761D01*
X128705714Y-51794761D01*
X128991428Y-51890000D01*
X129086666Y-51985238D01*
X63542380Y-50144285D02*
X63447142Y-50239523D01*
X63161428Y-50334761D01*
X62970952Y-50334761D01*
X62685238Y-50239523D01*
X62494761Y-50049047D01*
X62399523Y-49858571D01*
X62304285Y-49477619D01*
X62304285Y-49191904D01*
X62399523Y-48810952D01*
X62494761Y-48620476D01*
X62685238Y-48430000D01*
X62970952Y-48334761D01*
X63161428Y-48334761D01*
X63447142Y-48430000D01*
X63542380Y-48525238D01*
X64304285Y-49763333D02*
X65256666Y-49763333D01*
X64113809Y-50334761D02*
X64780476Y-48334761D01*
X65447142Y-50334761D01*
X67256666Y-50334761D02*
X66590000Y-49382380D01*
X66113809Y-50334761D02*
X66113809Y-48334761D01*
X66875714Y-48334761D01*
X67066190Y-48430000D01*
X67161428Y-48525238D01*
X67256666Y-48715714D01*
X67256666Y-49001428D01*
X67161428Y-49191904D01*
X67066190Y-49287142D01*
X66875714Y-49382380D01*
X66113809Y-49382380D01*
X69256666Y-50334761D02*
X68590000Y-49382380D01*
X68113809Y-50334761D02*
X68113809Y-48334761D01*
X68875714Y-48334761D01*
X69066190Y-48430000D01*
X69161428Y-48525238D01*
X69256666Y-48715714D01*
X69256666Y-49001428D01*
X69161428Y-49191904D01*
X69066190Y-49287142D01*
X68875714Y-49382380D01*
X68113809Y-49382380D01*
X70113809Y-49287142D02*
X70780476Y-49287142D01*
X71066190Y-50334761D02*
X70113809Y-50334761D01*
X70113809Y-48334761D01*
X71066190Y-48334761D01*
X72970952Y-48430000D02*
X72780476Y-48334761D01*
X72494761Y-48334761D01*
X72209047Y-48430000D01*
X72018571Y-48620476D01*
X71923333Y-48810952D01*
X71828095Y-49191904D01*
X71828095Y-49477619D01*
X71923333Y-49858571D01*
X72018571Y-50049047D01*
X72209047Y-50239523D01*
X72494761Y-50334761D01*
X72685238Y-50334761D01*
X72970952Y-50239523D01*
X73066190Y-50144285D01*
X73066190Y-49477619D01*
X72685238Y-49477619D01*
X73828095Y-49763333D02*
X74780476Y-49763333D01*
X73637619Y-50334761D02*
X74304285Y-48334761D01*
X74970952Y-50334761D01*
X75637619Y-50334761D02*
X75637619Y-48334761D01*
X76113809Y-48334761D01*
X76399523Y-48430000D01*
X76590000Y-48620476D01*
X76685238Y-48810952D01*
X76780476Y-49191904D01*
X76780476Y-49477619D01*
X76685238Y-49858571D01*
X76590000Y-50049047D01*
X76399523Y-50239523D01*
X76113809Y-50334761D01*
X75637619Y-50334761D01*
X78018571Y-48334761D02*
X78399523Y-48334761D01*
X78590000Y-48430000D01*
X78780476Y-48620476D01*
X78875714Y-49001428D01*
X78875714Y-49668095D01*
X78780476Y-50049047D01*
X78590000Y-50239523D01*
X78399523Y-50334761D01*
X78018571Y-50334761D01*
X77828095Y-50239523D01*
X77637619Y-50049047D01*
X77542380Y-49668095D01*
X77542380Y-49001428D01*
X77637619Y-48620476D01*
X77828095Y-48430000D01*
X78018571Y-48334761D01*
X80875714Y-50334761D02*
X80209047Y-49382380D01*
X79732857Y-50334761D02*
X79732857Y-48334761D01*
X80494761Y-48334761D01*
X80685238Y-48430000D01*
X80780476Y-48525238D01*
X80875714Y-48715714D01*
X80875714Y-49001428D01*
X80780476Y-49191904D01*
X80685238Y-49287142D01*
X80494761Y-49382380D01*
X79732857Y-49382380D01*
D10*
X69993000Y-61412428D02*
X70754904Y-61412428D01*
X70373952Y-61793380D02*
X70373952Y-61031476D01*
X71231095Y-61412428D02*
X71993000Y-61412428D01*
X75412380Y-69012857D02*
X74936190Y-69346190D01*
X75412380Y-69584285D02*
X74412380Y-69584285D01*
X74412380Y-69203333D01*
X74460000Y-69108095D01*
X74507619Y-69060476D01*
X74602857Y-69012857D01*
X74745714Y-69012857D01*
X74840952Y-69060476D01*
X74888571Y-69108095D01*
X74936190Y-69203333D01*
X74936190Y-69584285D01*
X74507619Y-68631904D02*
X74460000Y-68584285D01*
X74412380Y-68489047D01*
X74412380Y-68250952D01*
X74460000Y-68155714D01*
X74507619Y-68108095D01*
X74602857Y-68060476D01*
X74698095Y-68060476D01*
X74840952Y-68108095D01*
X75412380Y-68679523D01*
X75412380Y-68060476D01*
X74507619Y-67679523D02*
X74460000Y-67631904D01*
X74412380Y-67536666D01*
X74412380Y-67298571D01*
X74460000Y-67203333D01*
X74507619Y-67155714D01*
X74602857Y-67108095D01*
X74698095Y-67108095D01*
X74840952Y-67155714D01*
X75412380Y-67727142D01*
X75412380Y-67108095D01*
X150230476Y-45807380D02*
X150230476Y-46521666D01*
X150182857Y-46664523D01*
X150087619Y-46759761D01*
X149944761Y-46807380D01*
X149849523Y-46807380D01*
X151230476Y-46807380D02*
X150659047Y-46807380D01*
X150944761Y-46807380D02*
X150944761Y-45807380D01*
X150849523Y-45950238D01*
X150754285Y-46045476D01*
X150659047Y-46093095D01*
X152182857Y-46807380D02*
X151611428Y-46807380D01*
X151897142Y-46807380D02*
X151897142Y-45807380D01*
X151801904Y-45950238D01*
X151706666Y-46045476D01*
X151611428Y-46093095D01*
X114152380Y-68783333D02*
X114866666Y-68783333D01*
X115009523Y-68830952D01*
X115104761Y-68926190D01*
X115152380Y-69069047D01*
X115152380Y-69164285D01*
X114247619Y-68354761D02*
X114200000Y-68307142D01*
X114152380Y-68211904D01*
X114152380Y-67973809D01*
X114200000Y-67878571D01*
X114247619Y-67830952D01*
X114342857Y-67783333D01*
X114438095Y-67783333D01*
X114580952Y-67830952D01*
X115152380Y-68402380D01*
X115152380Y-67783333D01*
X76607142Y-66082380D02*
X76273809Y-65606190D01*
X76035714Y-66082380D02*
X76035714Y-65082380D01*
X76416666Y-65082380D01*
X76511904Y-65130000D01*
X76559523Y-65177619D01*
X76607142Y-65272857D01*
X76607142Y-65415714D01*
X76559523Y-65510952D01*
X76511904Y-65558571D01*
X76416666Y-65606190D01*
X76035714Y-65606190D01*
X76988095Y-65177619D02*
X77035714Y-65130000D01*
X77130952Y-65082380D01*
X77369047Y-65082380D01*
X77464285Y-65130000D01*
X77511904Y-65177619D01*
X77559523Y-65272857D01*
X77559523Y-65368095D01*
X77511904Y-65510952D01*
X76940476Y-66082380D01*
X77559523Y-66082380D01*
X77892857Y-65082380D02*
X78511904Y-65082380D01*
X78178571Y-65463333D01*
X78321428Y-65463333D01*
X78416666Y-65510952D01*
X78464285Y-65558571D01*
X78511904Y-65653809D01*
X78511904Y-65891904D01*
X78464285Y-65987142D01*
X78416666Y-66034761D01*
X78321428Y-66082380D01*
X78035714Y-66082380D01*
X77940476Y-66034761D01*
X77892857Y-65987142D01*
X135171380Y-68833333D02*
X135885666Y-68833333D01*
X136028523Y-68880952D01*
X136123761Y-68976190D01*
X136171380Y-69119047D01*
X136171380Y-69214285D01*
X135171380Y-68452380D02*
X135171380Y-67833333D01*
X135552333Y-68166666D01*
X135552333Y-68023809D01*
X135599952Y-67928571D01*
X135647571Y-67880952D01*
X135742809Y-67833333D01*
X135980904Y-67833333D01*
X136076142Y-67880952D01*
X136123761Y-67928571D01*
X136171380Y-68023809D01*
X136171380Y-68309523D01*
X136123761Y-68404761D01*
X136076142Y-68452380D01*
X66603571Y-65976238D02*
X66651190Y-65833380D01*
X66698809Y-65785761D01*
X66794047Y-65738142D01*
X66936904Y-65738142D01*
X67032142Y-65785761D01*
X67079761Y-65833380D01*
X67127380Y-65928619D01*
X67127380Y-66309571D01*
X66127380Y-66309571D01*
X66127380Y-65976238D01*
X66175000Y-65881000D01*
X66222619Y-65833380D01*
X66317857Y-65785761D01*
X66413095Y-65785761D01*
X66508333Y-65833380D01*
X66555952Y-65881000D01*
X66603571Y-65976238D01*
X66603571Y-66309571D01*
X67127380Y-64881000D02*
X66603571Y-64881000D01*
X66508333Y-64928619D01*
X66460714Y-65023857D01*
X66460714Y-65214333D01*
X66508333Y-65309571D01*
X67079761Y-64881000D02*
X67127380Y-64976238D01*
X67127380Y-65214333D01*
X67079761Y-65309571D01*
X66984523Y-65357190D01*
X66889285Y-65357190D01*
X66794047Y-65309571D01*
X66746428Y-65214333D01*
X66746428Y-64976238D01*
X66698809Y-64881000D01*
X66460714Y-64547666D02*
X66460714Y-64166714D01*
X66127380Y-64404809D02*
X66984523Y-64404809D01*
X67079761Y-64357190D01*
X67127380Y-64261952D01*
X67127380Y-64166714D01*
X67079761Y-63452428D02*
X67127380Y-63547666D01*
X67127380Y-63738142D01*
X67079761Y-63833380D01*
X66984523Y-63881000D01*
X66603571Y-63881000D01*
X66508333Y-63833380D01*
X66460714Y-63738142D01*
X66460714Y-63547666D01*
X66508333Y-63452428D01*
X66603571Y-63404809D01*
X66698809Y-63404809D01*
X66794047Y-63881000D01*
X67127380Y-62976238D02*
X66460714Y-62976238D01*
X66651190Y-62976238D02*
X66555952Y-62928619D01*
X66508333Y-62881000D01*
X66460714Y-62785761D01*
X66460714Y-62690523D01*
X67127380Y-62357190D02*
X66460714Y-62357190D01*
X66127380Y-62357190D02*
X66175000Y-62404809D01*
X66222619Y-62357190D01*
X66175000Y-62309571D01*
X66127380Y-62357190D01*
X66222619Y-62357190D01*
X67127380Y-61452428D02*
X66603571Y-61452428D01*
X66508333Y-61500047D01*
X66460714Y-61595285D01*
X66460714Y-61785761D01*
X66508333Y-61881000D01*
X67079761Y-61452428D02*
X67127380Y-61547666D01*
X67127380Y-61785761D01*
X67079761Y-61881000D01*
X66984523Y-61928619D01*
X66889285Y-61928619D01*
X66794047Y-61881000D01*
X66746428Y-61785761D01*
X66746428Y-61547666D01*
X66698809Y-61452428D01*
X70368095Y-41762380D02*
X70368095Y-42571904D01*
X70415714Y-42667142D01*
X70463333Y-42714761D01*
X70558571Y-42762380D01*
X70749047Y-42762380D01*
X70844285Y-42714761D01*
X70891904Y-42667142D01*
X70939523Y-42571904D01*
X70939523Y-41762380D01*
X71320476Y-41762380D02*
X71939523Y-41762380D01*
X71606190Y-42143333D01*
X71749047Y-42143333D01*
X71844285Y-42190952D01*
X71891904Y-42238571D01*
X71939523Y-42333809D01*
X71939523Y-42571904D01*
X71891904Y-42667142D01*
X71844285Y-42714761D01*
X71749047Y-42762380D01*
X71463333Y-42762380D01*
X71368095Y-42714761D01*
X71320476Y-42667142D01*
X118772380Y-68833333D02*
X119486666Y-68833333D01*
X119629523Y-68880952D01*
X119724761Y-68976190D01*
X119772380Y-69119047D01*
X119772380Y-69214285D01*
X119772380Y-67833333D02*
X119772380Y-68404761D01*
X119772380Y-68119047D02*
X118772380Y-68119047D01*
X118915238Y-68214285D01*
X119010476Y-68309523D01*
X119058095Y-68404761D01*
X92700476Y-46057380D02*
X92700476Y-46771666D01*
X92652857Y-46914523D01*
X92557619Y-47009761D01*
X92414761Y-47057380D01*
X92319523Y-47057380D01*
X93700476Y-47057380D02*
X93129047Y-47057380D01*
X93414761Y-47057380D02*
X93414761Y-46057380D01*
X93319523Y-46200238D01*
X93224285Y-46295476D01*
X93129047Y-46343095D01*
X94319523Y-46057380D02*
X94414761Y-46057380D01*
X94510000Y-46105000D01*
X94557619Y-46152619D01*
X94605238Y-46247857D01*
X94652857Y-46438333D01*
X94652857Y-46676428D01*
X94605238Y-46866904D01*
X94557619Y-46962142D01*
X94510000Y-47009761D01*
X94414761Y-47057380D01*
X94319523Y-47057380D01*
X94224285Y-47009761D01*
X94176666Y-46962142D01*
X94129047Y-46866904D01*
X94081428Y-46676428D01*
X94081428Y-46438333D01*
X94129047Y-46247857D01*
X94176666Y-46152619D01*
X94224285Y-46105000D01*
X94319523Y-46057380D01*
X71962380Y-68952857D02*
X71486190Y-69286190D01*
X71962380Y-69524285D02*
X70962380Y-69524285D01*
X70962380Y-69143333D01*
X71010000Y-69048095D01*
X71057619Y-69000476D01*
X71152857Y-68952857D01*
X71295714Y-68952857D01*
X71390952Y-69000476D01*
X71438571Y-69048095D01*
X71486190Y-69143333D01*
X71486190Y-69524285D01*
X71057619Y-68571904D02*
X71010000Y-68524285D01*
X70962380Y-68429047D01*
X70962380Y-68190952D01*
X71010000Y-68095714D01*
X71057619Y-68048095D01*
X71152857Y-68000476D01*
X71248095Y-68000476D01*
X71390952Y-68048095D01*
X71962380Y-68619523D01*
X71962380Y-68000476D01*
X71962380Y-67048095D02*
X71962380Y-67619523D01*
X71962380Y-67333809D02*
X70962380Y-67333809D01*
X71105238Y-67429047D01*
X71200476Y-67524285D01*
X71248095Y-67619523D01*
X125068095Y-41432380D02*
X125068095Y-42241904D01*
X125115714Y-42337142D01*
X125163333Y-42384761D01*
X125258571Y-42432380D01*
X125449047Y-42432380D01*
X125544285Y-42384761D01*
X125591904Y-42337142D01*
X125639523Y-42241904D01*
X125639523Y-41432380D01*
X126544285Y-41765714D02*
X126544285Y-42432380D01*
X126306190Y-41384761D02*
X126068095Y-42099047D01*
X126687142Y-42099047D01*
D12*
X72575000Y-68142936D02*
X72575000Y-68597064D01*
X74045000Y-68142936D02*
X74045000Y-68597064D01*
X149710000Y-49955000D02*
X149710000Y-52555000D01*
X152370000Y-49955000D02*
X152370000Y-52555000D01*
X149710000Y-52555000D02*
X152370000Y-52555000D01*
X149710000Y-48685000D02*
X149710000Y-47355000D01*
X149710000Y-49955000D02*
X152370000Y-49955000D01*
X149710000Y-47355000D02*
X151040000Y-47355000D01*
X103420000Y-67120000D02*
X103420000Y-69780000D01*
X111100000Y-67120000D02*
X103420000Y-67120000D01*
X111100000Y-67120000D02*
X111100000Y-69780000D01*
X113700000Y-67120000D02*
X113700000Y-68450000D01*
X112370000Y-67120000D02*
X113700000Y-67120000D01*
X111100000Y-69780000D02*
X103420000Y-69780000D01*
X77477064Y-63245000D02*
X77022936Y-63245000D01*
X77477064Y-64715000D02*
X77022936Y-64715000D01*
X139319000Y-67170000D02*
X146999000Y-67170000D01*
X146999000Y-69830000D02*
X146999000Y-67170000D01*
X139319000Y-69830000D02*
X139319000Y-67170000D01*
X138049000Y-69830000D02*
X136719000Y-69830000D01*
X136719000Y-69830000D02*
X136719000Y-68500000D01*
X139319000Y-69830000D02*
X146999000Y-69830000D01*
X73755000Y-65230000D02*
X73755000Y-62570000D01*
X68555000Y-65230000D02*
X68555000Y-63900000D01*
X71155000Y-62570000D02*
X73755000Y-62570000D01*
X71155000Y-65230000D02*
X73755000Y-65230000D01*
X69885000Y-65230000D02*
X68555000Y-65230000D01*
X71155000Y-65230000D02*
X71155000Y-62570000D01*
X84770200Y-45609000D02*
X83440200Y-45609000D01*
X82110200Y-43009000D02*
X82110200Y-40409000D01*
X59181000Y-53751000D02*
X60511000Y-53751000D01*
X59190200Y-45549000D02*
X61850200Y-45549000D01*
X61841000Y-56351000D02*
X61841000Y-58951000D01*
X82142600Y-55030200D02*
X82142600Y-53700200D01*
X59181000Y-58951000D02*
X61841000Y-58951000D01*
X82142600Y-56300200D02*
X82142600Y-58900200D01*
X84770200Y-40409000D02*
X82110200Y-40409000D01*
X84770200Y-43009000D02*
X84770200Y-40409000D01*
X61850200Y-42949000D02*
X59190200Y-42949000D01*
X61850200Y-45549000D02*
X60520200Y-45549000D01*
X84770200Y-44279000D02*
X84770200Y-45609000D01*
X59181000Y-55081000D02*
X59181000Y-53751000D01*
X59190200Y-42949000D02*
X59190200Y-45549000D01*
X84802600Y-56300200D02*
X84802600Y-58900200D01*
X82142600Y-58900200D02*
X84802600Y-58900200D01*
X61850200Y-44219000D02*
X61850200Y-45549000D01*
X84770200Y-43009000D02*
X82110200Y-43009000D01*
X82142600Y-56300200D02*
X84802600Y-56300200D01*
X82142600Y-53700200D02*
X83472600Y-53700200D01*
X59181000Y-56351000D02*
X61841000Y-56351000D01*
X61850200Y-42949000D02*
X61850200Y-45549000D01*
X59181000Y-56351000D02*
X59181000Y-58951000D01*
X58894600Y-40155000D02*
X85215400Y-40155000D01*
X85215400Y-40155000D02*
X85215400Y-59155000D01*
X85215400Y-59155000D02*
X58894600Y-59155000D01*
X58894600Y-59155000D02*
X58894600Y-40155000D01*
X122920000Y-69830000D02*
X130600000Y-69830000D01*
X130600000Y-69830000D02*
X130600000Y-67170000D01*
X121650000Y-69830000D02*
X120320000Y-69830000D01*
X122920000Y-67170000D02*
X130600000Y-67170000D01*
X120320000Y-69830000D02*
X120320000Y-68500000D01*
X122920000Y-69830000D02*
X122920000Y-67170000D01*
X92180000Y-43005000D02*
X92180000Y-40405000D01*
X94840000Y-43005000D02*
X94840000Y-40405000D01*
X94840000Y-45605000D02*
X93510000Y-45605000D01*
X94840000Y-43005000D02*
X92180000Y-43005000D01*
X94840000Y-44275000D02*
X94840000Y-45605000D01*
X94840000Y-40405000D02*
X92180000Y-40405000D01*
X70595000Y-68082936D02*
X70595000Y-68537064D01*
X69125000Y-68082936D02*
X69125000Y-68537064D01*
X106283000Y-58035600D02*
X103623000Y-58035600D01*
X103623000Y-40500400D02*
X104953000Y-40500400D01*
X103623000Y-43100400D02*
X106283000Y-43100400D01*
X106283000Y-59305600D02*
X106283000Y-60635600D01*
X143094600Y-43100400D02*
X145754600Y-43100400D01*
X106283000Y-40500400D02*
X103623000Y-40500400D01*
X143094600Y-41830400D02*
X143094600Y-40500400D01*
X106283000Y-58035600D02*
X106283000Y-60635600D01*
X103623000Y-43100400D02*
X103623000Y-40500400D01*
X106283000Y-43100400D02*
X106283000Y-40500400D01*
X143094600Y-57730800D02*
X143094600Y-60330800D01*
X103623000Y-41830400D02*
X103623000Y-40500400D01*
X103623000Y-60635600D02*
X106283000Y-60635600D01*
X145754600Y-59000800D02*
X145754600Y-60330800D01*
X145754600Y-57730800D02*
X143094600Y-57730800D01*
X143094600Y-60330800D02*
X145754600Y-60330800D01*
X143094600Y-40500400D02*
X144424600Y-40500400D01*
X106283000Y-60635600D02*
X104953000Y-60635600D01*
X143094600Y-43100400D02*
X143094600Y-40500400D01*
X145754600Y-40500400D02*
X143094600Y-40500400D01*
X145754600Y-43100400D02*
X145754600Y-40500400D01*
X145754600Y-57730800D02*
X145754600Y-60330800D01*
X145754600Y-60330800D02*
X144424600Y-60330800D01*
X103623000Y-58035600D02*
X103623000Y-60635600D01*
X103175000Y-39900000D02*
X146355000Y-39900000D01*
X146355000Y-39900000D02*
X146355000Y-60982000D01*
X146355000Y-60982000D02*
X103175000Y-60982000D01*
X103175000Y-60982000D02*
X103175000Y-39900000D01*
%LPC*%
D13*
X150749000Y-40767000D03*
D14*
X73310000Y-67370000D03*
X73310000Y-69370000D03*
D15*
X151040000Y-48685000D03*
D16*
X151040000Y-51225000D03*
D13*
X98882200Y-124307600D03*
D15*
X112370000Y-68450000D03*
D16*
X109830000Y-68450000D03*
X107290000Y-68450000D03*
X104750000Y-68450000D03*
D13*
X60071000Y-66243200D03*
D17*
X78250000Y-63980000D03*
X76250000Y-63980000D03*
D15*
X138049000Y-68500000D03*
D16*
X140589000Y-68500000D03*
X143129000Y-68500000D03*
X145669000Y-68500000D03*
D15*
X69885000Y-63900000D03*
D16*
X72425000Y-63900000D03*
D15*
X60520200Y-44219000D03*
D16*
X60520200Y-41679000D03*
D15*
X60511000Y-55081000D03*
D16*
X60511000Y-57621000D03*
X83440200Y-41739000D03*
D15*
X83440200Y-44279000D03*
D16*
X83472600Y-57570200D03*
D15*
X83472600Y-55030200D03*
X121650000Y-68500000D03*
D16*
X124190000Y-68500000D03*
X126730000Y-68500000D03*
X129270000Y-68500000D03*
D15*
X93510000Y-44275000D03*
D16*
X93510000Y-41735000D03*
D14*
X69860000Y-67310000D03*
X69860000Y-69310000D03*
D15*
X104975000Y-41860000D03*
D16*
X104953000Y-44370400D03*
X104953000Y-56765600D03*
D15*
X104975000Y-59310000D03*
X144445000Y-59005000D03*
D16*
X144424600Y-56460800D03*
D15*
X144445000Y-41860000D03*
D16*
X144424600Y-44370400D03*
M02*
