G04 #@! TF.GenerationSoftware,KiCad,Pcbnew,(6.0.10)*
G04 #@! TF.CreationDate,2023-02-06T13:43:24-03:00*
G04 #@! TF.ProjectId,PowerSupply_HW,506f7765-7253-4757-9070-6c795f48572e,rev?*
G04 #@! TF.SameCoordinates,Original*
G04 #@! TF.FileFunction,Copper,L1,Top*
G04 #@! TF.FilePolarity,Positive*
%FSLAX46Y46*%
G04 Gerber Fmt 4.6, Leading zero omitted, Abs format (unit mm)*
G04 Created by KiCad (PCBNEW (6.0.10)) date 2023-02-06 13:43:24*
%MOMM*%
%LPD*%
G01*
G04 APERTURE LIST*
G04 Aperture macros list*
%AMRoundRect*
0 Rectangle with rounded corners*
0 $1 Rounding radius*
0 $2 $3 $4 $5 $6 $7 $8 $9 X,Y pos of 4 corners*
0 Add a 4 corners polygon primitive as box body*
4,1,4,$2,$3,$4,$5,$6,$7,$8,$9,$2,$3,0*
0 Add four circle primitives for the rounded corners*
1,1,$1+$1,$2,$3*
1,1,$1+$1,$4,$5*
1,1,$1+$1,$6,$7*
1,1,$1+$1,$8,$9*
0 Add four rect primitives between the rounded corners*
20,1,$1+$1,$2,$3,$4,$5,0*
20,1,$1+$1,$4,$5,$6,$7,0*
20,1,$1+$1,$6,$7,$8,$9,0*
20,1,$1+$1,$8,$9,$2,$3,0*%
G04 Aperture macros list end*
G04 #@! TA.AperFunction,ComponentPad*
%ADD10C,7.000000*%
G04 #@! TD*
G04 #@! TA.AperFunction,SMDPad,CuDef*
%ADD11RoundRect,0.250000X-0.450000X0.350000X-0.450000X-0.350000X0.450000X-0.350000X0.450000X0.350000X0*%
G04 #@! TD*
G04 #@! TA.AperFunction,ComponentPad*
%ADD12R,1.700000X1.700000*%
G04 #@! TD*
G04 #@! TA.AperFunction,ComponentPad*
%ADD13O,1.700000X1.700000*%
G04 #@! TD*
G04 #@! TA.AperFunction,SMDPad,CuDef*
%ADD14RoundRect,0.250000X0.350000X0.450000X-0.350000X0.450000X-0.350000X-0.450000X0.350000X-0.450000X0*%
G04 #@! TD*
G04 #@! TA.AperFunction,WasherPad*
%ADD15C,3.500000*%
G04 #@! TD*
G04 #@! TA.AperFunction,Conductor*
%ADD16C,1.000000*%
G04 #@! TD*
G04 #@! TA.AperFunction,Conductor*
%ADD17C,1.500000*%
G04 #@! TD*
G04 APERTURE END LIST*
D10*
X150749000Y-40767000D03*
D11*
X73310000Y-67370000D03*
X73310000Y-69370000D03*
D12*
X151040000Y-48685000D03*
D13*
X151040000Y-51225000D03*
D10*
X98882200Y-124307600D03*
D12*
X112370000Y-68450000D03*
D13*
X109830000Y-68450000D03*
X107290000Y-68450000D03*
X104750000Y-68450000D03*
D10*
X60071000Y-66243200D03*
D14*
X78250000Y-63980000D03*
X76250000Y-63980000D03*
D12*
X138049000Y-68500000D03*
D13*
X140589000Y-68500000D03*
X143129000Y-68500000D03*
X145669000Y-68500000D03*
D12*
X69885000Y-63900000D03*
D13*
X72425000Y-63900000D03*
D12*
X60520200Y-44219000D03*
D13*
X60520200Y-41679000D03*
D12*
X60511000Y-55081000D03*
D13*
X60511000Y-57621000D03*
X83440200Y-41739000D03*
D12*
X83440200Y-44279000D03*
D13*
X83472600Y-57570200D03*
D12*
X83472600Y-55030200D03*
X121650000Y-68500000D03*
D13*
X124190000Y-68500000D03*
X126730000Y-68500000D03*
X129270000Y-68500000D03*
D12*
X93510000Y-44275000D03*
D13*
X93510000Y-41735000D03*
D11*
X69860000Y-67310000D03*
X69860000Y-69310000D03*
D15*
X111579000Y-42440000D03*
X137841000Y-58442000D03*
D12*
X104975000Y-41860000D03*
D13*
X104953000Y-44370400D03*
X104953000Y-56765600D03*
D12*
X104975000Y-59310000D03*
X144445000Y-59005000D03*
D13*
X144424600Y-56460800D03*
D12*
X144445000Y-41860000D03*
D13*
X144424600Y-44370400D03*
D16*
X69860000Y-63925000D02*
X69885000Y-63900000D01*
X69860000Y-67310000D02*
X69860000Y-63925000D01*
D17*
X73310000Y-67370000D02*
X93170000Y-67370000D01*
X106280000Y-65050000D02*
X107290000Y-66060000D01*
X107290000Y-66060000D02*
X107290000Y-68450000D01*
X95490000Y-65050000D02*
X106280000Y-65050000D01*
D16*
X72425000Y-66485000D02*
X73310000Y-67370000D01*
X72425000Y-63900000D02*
X72425000Y-66485000D01*
X72505000Y-63980000D02*
X72425000Y-63900000D01*
X76250000Y-63980000D02*
X72505000Y-63980000D01*
D17*
X93170000Y-67370000D02*
X95490000Y-65050000D01*
D16*
X72820000Y-69310000D02*
X72840000Y-69290000D01*
D17*
X101900000Y-68450000D02*
X104750000Y-68450000D01*
D16*
X73250000Y-69310000D02*
X73310000Y-69370000D01*
X69860000Y-69310000D02*
X73250000Y-69310000D01*
D17*
X100980000Y-69370000D02*
X101900000Y-68450000D01*
X73310000Y-69370000D02*
X100980000Y-69370000D01*
G04 #@! TA.AperFunction,Conductor*
G36*
X149365334Y-36788502D02*
G01*
X149411827Y-36842158D01*
X149421931Y-36912432D01*
X149392437Y-36977012D01*
X149338650Y-37013491D01*
X149245579Y-37045902D01*
X148889638Y-37210369D01*
X148551446Y-37408785D01*
X148391444Y-37525033D01*
X148236711Y-37637453D01*
X148236705Y-37637458D01*
X148234230Y-37639256D01*
X148231944Y-37641285D01*
X148231941Y-37641288D01*
X148152123Y-37712154D01*
X147941017Y-37899583D01*
X147938938Y-37901828D01*
X147938931Y-37901835D01*
X147676694Y-38185026D01*
X147674608Y-38187279D01*
X147437544Y-38499599D01*
X147232089Y-38833562D01*
X147060203Y-39185980D01*
X146923527Y-39553489D01*
X146823367Y-39932581D01*
X146813932Y-39990833D01*
X146783836Y-40176654D01*
X146760677Y-40319638D01*
X146760483Y-40322718D01*
X146760483Y-40322720D01*
X146738078Y-40678848D01*
X146736057Y-40710965D01*
X146739223Y-40801623D01*
X146749171Y-41086492D01*
X146749741Y-41102827D01*
X146750147Y-41105871D01*
X146750148Y-41105881D01*
X146775376Y-41294954D01*
X146801599Y-41491484D01*
X146802299Y-41494468D01*
X146802300Y-41494474D01*
X146885757Y-41850290D01*
X146891136Y-41873225D01*
X147017496Y-42244407D01*
X147179475Y-42601487D01*
X147375525Y-42941056D01*
X147377314Y-42943554D01*
X147377316Y-42943558D01*
X147593303Y-43245245D01*
X147603776Y-43259874D01*
X147605802Y-43262189D01*
X147605805Y-43262192D01*
X147730345Y-43404452D01*
X147862049Y-43554896D01*
X148147878Y-43823308D01*
X148285837Y-43929550D01*
X148433332Y-44043136D01*
X148458536Y-44062546D01*
X148461139Y-44064173D01*
X148461144Y-44064176D01*
X148542046Y-44114729D01*
X148791056Y-44270328D01*
X149142266Y-44444670D01*
X149508812Y-44583907D01*
X149887195Y-44686712D01*
X150185419Y-44737153D01*
X150270783Y-44751591D01*
X150270786Y-44751591D01*
X150273805Y-44752102D01*
X150428444Y-44762916D01*
X150661885Y-44779240D01*
X150661893Y-44779240D01*
X150664951Y-44779454D01*
X150917037Y-44772413D01*
X151053825Y-44768592D01*
X151053828Y-44768592D01*
X151056899Y-44768506D01*
X151059952Y-44768120D01*
X151059956Y-44768120D01*
X151201576Y-44750229D01*
X151445908Y-44719362D01*
X151448912Y-44718680D01*
X151448915Y-44718679D01*
X151825269Y-44633174D01*
X151825275Y-44633172D01*
X151828265Y-44632493D01*
X151843948Y-44627276D01*
X152197396Y-44509700D01*
X152197402Y-44509698D01*
X152200320Y-44508727D01*
X152341735Y-44445765D01*
X152555722Y-44350492D01*
X152555728Y-44350489D01*
X152558522Y-44349245D01*
X152588946Y-44331962D01*
X152896784Y-44157086D01*
X152896790Y-44157083D01*
X152899452Y-44155570D01*
X153210322Y-43936275D01*
X153217342Y-43931323D01*
X153217346Y-43931320D01*
X153219855Y-43929550D01*
X153455393Y-43726240D01*
X153514347Y-43675353D01*
X153514351Y-43675349D01*
X153516674Y-43673344D01*
X153610225Y-43575106D01*
X153784957Y-43391618D01*
X153787074Y-43389395D01*
X153842320Y-43318684D01*
X154026565Y-43082860D01*
X154026567Y-43082857D01*
X154028475Y-43080415D01*
X154238574Y-42749354D01*
X154243570Y-42739465D01*
X154344483Y-42539689D01*
X154415363Y-42399370D01*
X154416473Y-42396509D01*
X154556041Y-42036681D01*
X154556044Y-42036672D01*
X154557156Y-42033805D01*
X154647327Y-41710851D01*
X154661771Y-41659118D01*
X154661772Y-41659113D01*
X154662600Y-41656148D01*
X154662797Y-41655030D01*
X154697234Y-41593329D01*
X154759859Y-41559883D01*
X154830625Y-41565605D01*
X154887064Y-41608676D01*
X154911257Y-41675424D01*
X154911500Y-41683247D01*
X154911500Y-73665500D01*
X154891498Y-73733621D01*
X154837842Y-73780114D01*
X154785500Y-73791500D01*
X103488623Y-73791500D01*
X103487853Y-73791498D01*
X103487037Y-73791493D01*
X103410279Y-73791024D01*
X103387918Y-73797415D01*
X103381847Y-73799150D01*
X103365085Y-73802728D01*
X103335813Y-73806920D01*
X103327645Y-73810634D01*
X103327644Y-73810634D01*
X103312438Y-73817548D01*
X103294914Y-73823996D01*
X103270229Y-73831051D01*
X103262635Y-73835843D01*
X103262632Y-73835844D01*
X103245220Y-73846830D01*
X103230137Y-73854969D01*
X103203218Y-73867208D01*
X103196416Y-73873069D01*
X103183765Y-73883970D01*
X103168761Y-73895073D01*
X103147042Y-73908776D01*
X103141103Y-73915501D01*
X103141099Y-73915504D01*
X103127468Y-73930938D01*
X103115276Y-73942982D01*
X103099673Y-73956427D01*
X103099671Y-73956430D01*
X103092873Y-73962287D01*
X103087993Y-73969816D01*
X103087992Y-73969817D01*
X103078906Y-73983835D01*
X103067615Y-73998709D01*
X103056569Y-74011217D01*
X103050622Y-74017951D01*
X103038058Y-74044711D01*
X103029737Y-74059691D01*
X103018529Y-74076983D01*
X103018527Y-74076988D01*
X103013648Y-74084515D01*
X103011078Y-74093108D01*
X103011076Y-74093113D01*
X103006289Y-74109120D01*
X102999628Y-74126564D01*
X102988719Y-74149800D01*
X102987338Y-74158667D01*
X102987338Y-74158668D01*
X102984170Y-74179015D01*
X102980387Y-74195732D01*
X102974485Y-74215466D01*
X102974484Y-74215472D01*
X102971914Y-74224066D01*
X102971859Y-74233037D01*
X102971859Y-74233038D01*
X102971704Y-74258497D01*
X102971671Y-74259289D01*
X102971500Y-74260386D01*
X102971500Y-74291377D01*
X102971498Y-74292147D01*
X102971024Y-74369721D01*
X102971408Y-74371065D01*
X102971500Y-74372410D01*
X102971500Y-123113825D01*
X102951498Y-123181946D01*
X102897842Y-123228439D01*
X102827568Y-123238543D01*
X102762988Y-123209049D01*
X102724909Y-123150291D01*
X102724243Y-123147619D01*
X102592712Y-122778237D01*
X102425764Y-122423454D01*
X102424197Y-122420825D01*
X102424192Y-122420816D01*
X102226561Y-122089289D01*
X102224991Y-122086655D01*
X102223177Y-122084195D01*
X102223172Y-122084187D01*
X101994133Y-121773526D01*
X101994131Y-121773523D01*
X101992311Y-121771055D01*
X101729944Y-121479668D01*
X101440395Y-121215273D01*
X101126428Y-120980395D01*
X101078215Y-120951196D01*
X100793667Y-120778867D01*
X100793658Y-120778862D01*
X100791039Y-120777276D01*
X100437429Y-120607855D01*
X100434539Y-120606803D01*
X100434534Y-120606801D01*
X100071874Y-120474804D01*
X100071871Y-120474803D01*
X100068975Y-120473749D01*
X99792763Y-120402829D01*
X99692177Y-120377003D01*
X99692174Y-120377002D01*
X99689193Y-120376237D01*
X99301708Y-120316251D01*
X98910218Y-120294364D01*
X98907139Y-120294493D01*
X98907136Y-120294493D01*
X98651388Y-120305212D01*
X98518461Y-120310783D01*
X98515417Y-120311211D01*
X98515415Y-120311211D01*
X98304978Y-120340786D01*
X98130176Y-120365353D01*
X97749069Y-120457553D01*
X97378779Y-120586502D01*
X97022838Y-120750969D01*
X96684646Y-120949385D01*
X96524644Y-121065633D01*
X96369911Y-121178053D01*
X96369905Y-121178058D01*
X96367430Y-121179856D01*
X96365144Y-121181885D01*
X96365141Y-121181888D01*
X96285323Y-121252754D01*
X96074217Y-121440183D01*
X96072138Y-121442428D01*
X96072131Y-121442435D01*
X95809894Y-121725626D01*
X95807808Y-121727879D01*
X95570744Y-122040199D01*
X95365289Y-122374162D01*
X95193403Y-122726580D01*
X95056727Y-123094089D01*
X94956567Y-123473181D01*
X94893877Y-123860238D01*
X94869257Y-124251565D01*
X94882941Y-124643427D01*
X94934799Y-125032084D01*
X95024336Y-125413825D01*
X95150696Y-125785007D01*
X95312675Y-126142087D01*
X95508725Y-126481656D01*
X95510514Y-126484154D01*
X95510516Y-126484158D01*
X95610247Y-126623460D01*
X95736976Y-126800474D01*
X95995249Y-127095496D01*
X96281078Y-127363908D01*
X96591736Y-127603146D01*
X96594339Y-127604773D01*
X96594344Y-127604776D01*
X96713776Y-127679405D01*
X96924256Y-127810928D01*
X97275466Y-127985270D01*
X97642012Y-128124507D01*
X98020395Y-128227312D01*
X98318619Y-128277753D01*
X98403983Y-128292191D01*
X98403986Y-128292191D01*
X98407005Y-128292702D01*
X98561644Y-128303516D01*
X98795085Y-128319840D01*
X98795093Y-128319840D01*
X98798151Y-128320054D01*
X99050237Y-128313013D01*
X99187025Y-128309192D01*
X99187028Y-128309192D01*
X99190099Y-128309106D01*
X99193152Y-128308720D01*
X99193156Y-128308720D01*
X99334776Y-128290829D01*
X99579108Y-128259962D01*
X99582112Y-128259280D01*
X99582115Y-128259279D01*
X99958469Y-128173774D01*
X99958475Y-128173772D01*
X99961465Y-128173093D01*
X99964384Y-128172122D01*
X100330596Y-128050300D01*
X100330602Y-128050298D01*
X100333520Y-128049327D01*
X100474935Y-127986365D01*
X100688922Y-127891092D01*
X100688928Y-127891089D01*
X100691722Y-127889845D01*
X100694391Y-127888329D01*
X101029984Y-127697686D01*
X101029990Y-127697683D01*
X101032652Y-127696170D01*
X101353055Y-127470150D01*
X101649874Y-127213944D01*
X101920274Y-126929995D01*
X102161675Y-126621015D01*
X102371774Y-126289954D01*
X102548563Y-125939970D01*
X102608669Y-125785007D01*
X102689241Y-125577281D01*
X102689244Y-125577272D01*
X102690356Y-125574405D01*
X102724142Y-125453397D01*
X102761726Y-125393165D01*
X102825908Y-125362814D01*
X102896310Y-125371980D01*
X102950581Y-125417754D01*
X102971500Y-125487281D01*
X102971500Y-128473700D01*
X102951498Y-128541821D01*
X102897842Y-128588314D01*
X102845500Y-128599700D01*
X56293800Y-128599700D01*
X56225679Y-128579698D01*
X56179186Y-128526042D01*
X56167800Y-128473700D01*
X56167800Y-67924878D01*
X56187802Y-67856757D01*
X56241458Y-67810264D01*
X56311732Y-67800160D01*
X56376312Y-67829654D01*
X56408546Y-67872827D01*
X56500198Y-68074873D01*
X56500202Y-68074881D01*
X56501475Y-68077687D01*
X56697525Y-68417256D01*
X56699314Y-68419754D01*
X56699316Y-68419758D01*
X56855034Y-68637262D01*
X56925776Y-68736074D01*
X56927802Y-68738389D01*
X56927805Y-68738392D01*
X57182017Y-69028775D01*
X57184049Y-69031096D01*
X57469878Y-69299508D01*
X57635742Y-69427240D01*
X57700669Y-69477240D01*
X57780536Y-69538746D01*
X57783139Y-69540373D01*
X57783144Y-69540376D01*
X57859442Y-69588052D01*
X58113056Y-69746528D01*
X58464266Y-69920870D01*
X58830812Y-70060107D01*
X59209195Y-70162912D01*
X59507419Y-70213353D01*
X59592783Y-70227791D01*
X59592786Y-70227791D01*
X59595805Y-70228302D01*
X59750444Y-70239116D01*
X59983885Y-70255440D01*
X59983893Y-70255440D01*
X59986951Y-70255654D01*
X60239037Y-70248613D01*
X60375825Y-70244792D01*
X60375828Y-70244792D01*
X60378899Y-70244706D01*
X60381952Y-70244320D01*
X60381956Y-70244320D01*
X60523576Y-70226429D01*
X60767908Y-70195562D01*
X60770912Y-70194880D01*
X60770915Y-70194879D01*
X61147269Y-70109374D01*
X61147275Y-70109372D01*
X61150265Y-70108693D01*
X61153184Y-70107722D01*
X61519396Y-69985900D01*
X61519402Y-69985898D01*
X61522320Y-69984927D01*
X61663735Y-69921965D01*
X61877722Y-69826692D01*
X61877728Y-69826689D01*
X61880522Y-69825445D01*
X61891753Y-69819065D01*
X62218784Y-69633286D01*
X62218790Y-69633283D01*
X62221452Y-69631770D01*
X62417048Y-69493792D01*
X62539342Y-69407523D01*
X62539346Y-69407520D01*
X62541855Y-69405750D01*
X62712216Y-69258699D01*
X62836347Y-69151553D01*
X62836351Y-69151549D01*
X62838674Y-69149544D01*
X62862354Y-69124678D01*
X63106957Y-68867818D01*
X63109074Y-68865595D01*
X63156308Y-68805139D01*
X63348565Y-68559060D01*
X63348567Y-68559057D01*
X63350475Y-68556615D01*
X63560574Y-68225554D01*
X63562984Y-68220784D01*
X63659706Y-68029305D01*
X63737363Y-67875570D01*
X63739792Y-67869308D01*
X63878041Y-67512881D01*
X63878044Y-67512872D01*
X63879156Y-67510005D01*
X63963160Y-67209137D01*
X63983772Y-67135314D01*
X63983773Y-67135312D01*
X63984600Y-67132348D01*
X64052688Y-66746204D01*
X64069384Y-66529214D01*
X64082619Y-66357213D01*
X64082619Y-66357202D01*
X64082769Y-66355259D01*
X64084334Y-66243200D01*
X64065180Y-65851567D01*
X64007901Y-65463673D01*
X64003969Y-65447900D01*
X63955710Y-65254346D01*
X63913043Y-65083219D01*
X63894783Y-65031937D01*
X63811529Y-64798134D01*
X68526500Y-64798134D01*
X68533255Y-64860316D01*
X68584385Y-64996705D01*
X68671739Y-65113261D01*
X68788295Y-65200615D01*
X68788951Y-65200861D01*
X68836157Y-65248175D01*
X68851500Y-65308433D01*
X68851500Y-66393694D01*
X68831498Y-66461815D01*
X68820317Y-66475702D01*
X68820404Y-66475771D01*
X68815866Y-66481517D01*
X68810695Y-66486697D01*
X68806855Y-66492927D01*
X68806854Y-66492928D01*
X68752389Y-66581287D01*
X68717885Y-66637262D01*
X68715581Y-66644209D01*
X68673206Y-66771967D01*
X68662203Y-66805139D01*
X68651500Y-66909600D01*
X68651500Y-67710400D01*
X68651837Y-67713646D01*
X68651837Y-67713650D01*
X68661403Y-67805840D01*
X68662474Y-67816166D01*
X68664655Y-67822702D01*
X68664655Y-67822704D01*
X68683208Y-67878313D01*
X68718450Y-67983946D01*
X68811522Y-68134348D01*
X68816704Y-68139521D01*
X68898109Y-68220784D01*
X68932188Y-68283066D01*
X68927185Y-68353886D01*
X68898264Y-68398975D01*
X68810695Y-68486697D01*
X68806855Y-68492927D01*
X68806854Y-68492928D01*
X68766090Y-68559060D01*
X68717885Y-68637262D01*
X68715581Y-68644209D01*
X68666222Y-68793023D01*
X68662203Y-68805139D01*
X68651500Y-68909600D01*
X68651500Y-69710400D01*
X68651837Y-69713646D01*
X68651837Y-69713650D01*
X68661734Y-69809030D01*
X68662474Y-69816166D01*
X68664655Y-69822702D01*
X68664655Y-69822704D01*
X68676431Y-69858000D01*
X68718450Y-69983946D01*
X68811522Y-70134348D01*
X68936697Y-70259305D01*
X68942927Y-70263145D01*
X68942928Y-70263146D01*
X69070452Y-70341753D01*
X69087262Y-70352115D01*
X69102584Y-70357197D01*
X69248611Y-70405632D01*
X69248613Y-70405632D01*
X69255139Y-70407797D01*
X69261975Y-70408497D01*
X69261978Y-70408498D01*
X69305031Y-70412909D01*
X69359600Y-70418500D01*
X70360400Y-70418500D01*
X70363646Y-70418163D01*
X70363650Y-70418163D01*
X70459308Y-70408238D01*
X70459312Y-70408237D01*
X70466166Y-70407526D01*
X70472702Y-70405345D01*
X70472704Y-70405345D01*
X70617020Y-70357197D01*
X70633946Y-70351550D01*
X70656883Y-70337356D01*
X70723186Y-70318500D01*
X72349677Y-70318500D01*
X72415793Y-70337240D01*
X72527360Y-70406011D01*
X72537262Y-70412115D01*
X72604001Y-70434251D01*
X72661992Y-70453486D01*
X72689280Y-70466341D01*
X72701099Y-70473755D01*
X72736344Y-70495864D01*
X72944783Y-70579656D01*
X73164767Y-70625213D01*
X73169378Y-70625479D01*
X73169379Y-70625479D01*
X73219952Y-70628395D01*
X73219956Y-70628395D01*
X73221775Y-70628500D01*
X100888604Y-70628500D01*
X100905051Y-70629578D01*
X100921516Y-70631746D01*
X100921520Y-70631746D01*
X100927086Y-70632479D01*
X101008489Y-70628640D01*
X101014424Y-70628500D01*
X101036999Y-70628500D01*
X101062989Y-70626181D01*
X101068248Y-70625822D01*
X101151488Y-70621896D01*
X101156947Y-70620646D01*
X101156952Y-70620645D01*
X101168970Y-70617892D01*
X101185899Y-70615211D01*
X101203762Y-70613617D01*
X101209178Y-70612135D01*
X101209180Y-70612135D01*
X101284133Y-70591630D01*
X101289251Y-70590344D01*
X101365000Y-70572995D01*
X101365002Y-70572994D01*
X101370470Y-70571742D01*
X101380970Y-70567263D01*
X101386967Y-70564706D01*
X101403142Y-70559073D01*
X101415039Y-70555818D01*
X101415043Y-70555817D01*
X101420451Y-70554337D01*
X101495667Y-70518461D01*
X101500476Y-70516290D01*
X101571949Y-70485804D01*
X101571950Y-70485804D01*
X101577109Y-70483603D01*
X101592110Y-70473749D01*
X101607025Y-70465346D01*
X101623218Y-70457622D01*
X101627769Y-70454352D01*
X101627772Y-70454350D01*
X101677662Y-70418500D01*
X101690892Y-70408994D01*
X101695232Y-70406011D01*
X101761010Y-70362804D01*
X101761018Y-70362798D01*
X101764874Y-70360265D01*
X101785662Y-70341743D01*
X101795939Y-70333510D01*
X101805654Y-70326529D01*
X101880030Y-70249779D01*
X101881419Y-70248368D01*
X102384384Y-69745404D01*
X102446696Y-69711379D01*
X102473479Y-69708500D01*
X104214127Y-69708500D01*
X104259076Y-69716790D01*
X104285109Y-69726731D01*
X104369692Y-69759030D01*
X104374760Y-69760061D01*
X104374763Y-69760062D01*
X104469862Y-69779410D01*
X104588597Y-69803567D01*
X104593772Y-69803757D01*
X104593774Y-69803757D01*
X104806673Y-69811564D01*
X104806677Y-69811564D01*
X104811837Y-69811753D01*
X104816957Y-69811097D01*
X104816959Y-69811097D01*
X105028288Y-69784025D01*
X105028289Y-69784025D01*
X105033416Y-69783368D01*
X105038366Y-69781883D01*
X105242429Y-69720661D01*
X105242434Y-69720659D01*
X105247384Y-69719174D01*
X105447994Y-69620896D01*
X105629860Y-69491173D01*
X105647156Y-69473938D01*
X105773400Y-69348134D01*
X105788096Y-69333489D01*
X105918453Y-69152077D01*
X105919776Y-69153028D01*
X105966645Y-69109857D01*
X106036580Y-69097625D01*
X106102026Y-69125144D01*
X106129875Y-69156994D01*
X106140712Y-69174678D01*
X106189987Y-69255088D01*
X106336250Y-69423938D01*
X106508126Y-69566632D01*
X106701000Y-69679338D01*
X106909692Y-69759030D01*
X106914760Y-69760061D01*
X106914763Y-69760062D01*
X107009862Y-69779410D01*
X107128597Y-69803567D01*
X107133772Y-69803757D01*
X107133774Y-69803757D01*
X107346673Y-69811564D01*
X107346677Y-69811564D01*
X107351837Y-69811753D01*
X107356957Y-69811097D01*
X107356959Y-69811097D01*
X107568288Y-69784025D01*
X107568289Y-69784025D01*
X107573416Y-69783368D01*
X107578366Y-69781883D01*
X107782429Y-69720661D01*
X107782434Y-69720659D01*
X107787384Y-69719174D01*
X107987994Y-69620896D01*
X108169860Y-69491173D01*
X108187156Y-69473938D01*
X108313400Y-69348134D01*
X108328096Y-69333489D01*
X108458453Y-69152077D01*
X108459640Y-69152930D01*
X108506960Y-69109362D01*
X108576897Y-69097145D01*
X108642338Y-69124678D01*
X108670166Y-69156511D01*
X108727694Y-69250388D01*
X108733777Y-69258699D01*
X108873213Y-69419667D01*
X108880580Y-69426883D01*
X109044434Y-69562916D01*
X109052881Y-69568831D01*
X109236756Y-69676279D01*
X109246042Y-69680729D01*
X109445001Y-69756703D01*
X109454899Y-69759579D01*
X109558250Y-69780606D01*
X109572299Y-69779410D01*
X109576000Y-69769065D01*
X109576000Y-69768517D01*
X110084000Y-69768517D01*
X110088064Y-69782359D01*
X110101478Y-69784393D01*
X110108184Y-69783534D01*
X110118262Y-69781392D01*
X110322255Y-69720191D01*
X110331842Y-69716433D01*
X110523095Y-69622739D01*
X110531945Y-69617464D01*
X110705328Y-69493792D01*
X110713193Y-69487145D01*
X110817897Y-69382805D01*
X110880268Y-69348889D01*
X110951075Y-69354077D01*
X111007837Y-69396723D01*
X111024819Y-69427826D01*
X111039731Y-69467604D01*
X111069385Y-69546705D01*
X111156739Y-69663261D01*
X111273295Y-69750615D01*
X111409684Y-69801745D01*
X111471866Y-69808500D01*
X113268134Y-69808500D01*
X113330316Y-69801745D01*
X113466705Y-69750615D01*
X113583261Y-69663261D01*
X113670615Y-69546705D01*
X113721745Y-69410316D01*
X113723445Y-69394669D01*
X120292001Y-69394669D01*
X120292371Y-69401490D01*
X120297895Y-69452352D01*
X120301521Y-69467604D01*
X120346676Y-69588054D01*
X120355214Y-69603649D01*
X120431715Y-69705724D01*
X120444276Y-69718285D01*
X120546351Y-69794786D01*
X120561946Y-69803324D01*
X120682394Y-69848478D01*
X120697649Y-69852105D01*
X120748514Y-69857631D01*
X120755328Y-69858000D01*
X121377885Y-69858000D01*
X121393124Y-69853525D01*
X121394329Y-69852135D01*
X121396000Y-69844452D01*
X121396000Y-69839884D01*
X121904000Y-69839884D01*
X121908475Y-69855123D01*
X121909865Y-69856328D01*
X121917548Y-69857999D01*
X122544669Y-69857999D01*
X122551490Y-69857629D01*
X122602352Y-69852105D01*
X122617604Y-69848479D01*
X122738054Y-69803324D01*
X122753649Y-69794786D01*
X122855724Y-69718285D01*
X122868285Y-69705724D01*
X122944786Y-69603649D01*
X122953325Y-69588052D01*
X122994425Y-69478418D01*
X123037066Y-69421653D01*
X123103628Y-69396953D01*
X123172977Y-69412160D01*
X123207645Y-69440150D01*
X123233219Y-69469674D01*
X123240580Y-69476883D01*
X123404434Y-69612916D01*
X123412881Y-69618831D01*
X123596756Y-69726279D01*
X123606042Y-69730729D01*
X123805001Y-69806703D01*
X123814899Y-69809579D01*
X123918250Y-69830606D01*
X123932299Y-69829410D01*
X123936000Y-69819065D01*
X123936000Y-69818517D01*
X124444000Y-69818517D01*
X124448064Y-69832359D01*
X124461478Y-69834393D01*
X124468184Y-69833534D01*
X124478262Y-69831392D01*
X124682255Y-69770191D01*
X124691842Y-69766433D01*
X124883095Y-69672739D01*
X124891945Y-69667464D01*
X125065328Y-69543792D01*
X125073200Y-69537139D01*
X125224052Y-69386812D01*
X125230730Y-69378965D01*
X125358022Y-69201819D01*
X125359279Y-69202722D01*
X125406373Y-69159362D01*
X125476311Y-69147145D01*
X125541751Y-69174678D01*
X125569579Y-69206511D01*
X125629987Y-69305088D01*
X125776250Y-69473938D01*
X125948126Y-69616632D01*
X126141000Y-69729338D01*
X126145825Y-69731180D01*
X126145826Y-69731181D01*
X126196719Y-69750615D01*
X126349692Y-69809030D01*
X126354760Y-69810061D01*
X126354763Y-69810062D01*
X126436503Y-69826692D01*
X126568597Y-69853567D01*
X126573772Y-69853757D01*
X126573774Y-69853757D01*
X126786673Y-69861564D01*
X126786677Y-69861564D01*
X126791837Y-69861753D01*
X126796957Y-69861097D01*
X126796959Y-69861097D01*
X127008288Y-69834025D01*
X127008289Y-69834025D01*
X127013416Y-69833368D01*
X127018366Y-69831883D01*
X127222429Y-69770661D01*
X127222434Y-69770659D01*
X127227384Y-69769174D01*
X127427994Y-69670896D01*
X127609860Y-69541173D01*
X127768096Y-69383489D01*
X127792959Y-69348889D01*
X127898453Y-69202077D01*
X127899776Y-69203028D01*
X127946645Y-69159857D01*
X128016580Y-69147625D01*
X128082026Y-69175144D01*
X128109875Y-69206994D01*
X128169987Y-69305088D01*
X128316250Y-69473938D01*
X128488126Y-69616632D01*
X128681000Y-69729338D01*
X128685825Y-69731180D01*
X128685826Y-69731181D01*
X128736719Y-69750615D01*
X128889692Y-69809030D01*
X128894760Y-69810061D01*
X128894763Y-69810062D01*
X128976503Y-69826692D01*
X129108597Y-69853567D01*
X129113772Y-69853757D01*
X129113774Y-69853757D01*
X129326673Y-69861564D01*
X129326677Y-69861564D01*
X129331837Y-69861753D01*
X129336957Y-69861097D01*
X129336959Y-69861097D01*
X129548288Y-69834025D01*
X129548289Y-69834025D01*
X129553416Y-69833368D01*
X129558366Y-69831883D01*
X129762429Y-69770661D01*
X129762434Y-69770659D01*
X129767384Y-69769174D01*
X129967994Y-69670896D01*
X130149860Y-69541173D01*
X130296877Y-69394669D01*
X136691001Y-69394669D01*
X136691371Y-69401490D01*
X136696895Y-69452352D01*
X136700521Y-69467604D01*
X136745676Y-69588054D01*
X136754214Y-69603649D01*
X136830715Y-69705724D01*
X136843276Y-69718285D01*
X136945351Y-69794786D01*
X136960946Y-69803324D01*
X137081394Y-69848478D01*
X137096649Y-69852105D01*
X137147514Y-69857631D01*
X137154328Y-69858000D01*
X137776885Y-69858000D01*
X137792124Y-69853525D01*
X137793329Y-69852135D01*
X137795000Y-69844452D01*
X137795000Y-69839884D01*
X138303000Y-69839884D01*
X138307475Y-69855123D01*
X138308865Y-69856328D01*
X138316548Y-69857999D01*
X138943669Y-69857999D01*
X138950490Y-69857629D01*
X139001352Y-69852105D01*
X139016604Y-69848479D01*
X139137054Y-69803324D01*
X139152649Y-69794786D01*
X139254724Y-69718285D01*
X139267285Y-69705724D01*
X139343786Y-69603649D01*
X139352325Y-69588052D01*
X139393425Y-69478418D01*
X139436066Y-69421653D01*
X139502628Y-69396953D01*
X139571977Y-69412160D01*
X139606645Y-69440150D01*
X139632219Y-69469674D01*
X139639580Y-69476883D01*
X139803434Y-69612916D01*
X139811881Y-69618831D01*
X139995756Y-69726279D01*
X140005042Y-69730729D01*
X140204001Y-69806703D01*
X140213899Y-69809579D01*
X140317250Y-69830606D01*
X140331299Y-69829410D01*
X140335000Y-69819065D01*
X140335000Y-69818517D01*
X140843000Y-69818517D01*
X140847064Y-69832359D01*
X140860478Y-69834393D01*
X140867184Y-69833534D01*
X140877262Y-69831392D01*
X141081255Y-69770191D01*
X141090842Y-69766433D01*
X141282095Y-69672739D01*
X141290945Y-69667464D01*
X141464328Y-69543792D01*
X141472200Y-69537139D01*
X141623052Y-69386812D01*
X141629730Y-69378965D01*
X141757022Y-69201819D01*
X141758279Y-69202722D01*
X141805373Y-69159362D01*
X141875311Y-69147145D01*
X141940751Y-69174678D01*
X141968579Y-69206511D01*
X142028987Y-69305088D01*
X142175250Y-69473938D01*
X142347126Y-69616632D01*
X142540000Y-69729338D01*
X142544825Y-69731180D01*
X142544826Y-69731181D01*
X142595719Y-69750615D01*
X142748692Y-69809030D01*
X142753760Y-69810061D01*
X142753763Y-69810062D01*
X142835503Y-69826692D01*
X142967597Y-69853567D01*
X142972772Y-69853757D01*
X142972774Y-69853757D01*
X143185673Y-69861564D01*
X143185677Y-69861564D01*
X143190837Y-69861753D01*
X143195957Y-69861097D01*
X143195959Y-69861097D01*
X143407288Y-69834025D01*
X143407289Y-69834025D01*
X143412416Y-69833368D01*
X143417366Y-69831883D01*
X143621429Y-69770661D01*
X143621434Y-69770659D01*
X143626384Y-69769174D01*
X143826994Y-69670896D01*
X144008860Y-69541173D01*
X144167096Y-69383489D01*
X144191959Y-69348889D01*
X144297453Y-69202077D01*
X144298776Y-69203028D01*
X144345645Y-69159857D01*
X144415580Y-69147625D01*
X144481026Y-69175144D01*
X144508875Y-69206994D01*
X144568987Y-69305088D01*
X144715250Y-69473938D01*
X144887126Y-69616632D01*
X145080000Y-69729338D01*
X145084825Y-69731180D01*
X145084826Y-69731181D01*
X145135719Y-69750615D01*
X145288692Y-69809030D01*
X145293760Y-69810061D01*
X145293763Y-69810062D01*
X145375503Y-69826692D01*
X145507597Y-69853567D01*
X145512772Y-69853757D01*
X145512774Y-69853757D01*
X145725673Y-69861564D01*
X145725677Y-69861564D01*
X145730837Y-69861753D01*
X145735957Y-69861097D01*
X145735959Y-69861097D01*
X145947288Y-69834025D01*
X145947289Y-69834025D01*
X145952416Y-69833368D01*
X145957366Y-69831883D01*
X146161429Y-69770661D01*
X146161434Y-69770659D01*
X146166384Y-69769174D01*
X146366994Y-69670896D01*
X146548860Y-69541173D01*
X146707096Y-69383489D01*
X146731959Y-69348889D01*
X146834435Y-69206277D01*
X146837453Y-69202077D01*
X146850995Y-69174678D01*
X146934136Y-69006453D01*
X146934137Y-69006451D01*
X146936430Y-69001811D01*
X146977816Y-68865595D01*
X146999865Y-68793023D01*
X146999865Y-68793021D01*
X147001370Y-68788069D01*
X147030529Y-68566590D01*
X147032156Y-68500000D01*
X147013852Y-68277361D01*
X146959431Y-68060702D01*
X146870354Y-67855840D01*
X146815080Y-67770400D01*
X146751822Y-67672617D01*
X146751820Y-67672614D01*
X146749014Y-67668277D01*
X146598670Y-67503051D01*
X146594619Y-67499852D01*
X146594615Y-67499848D01*
X146427414Y-67367800D01*
X146427410Y-67367798D01*
X146423359Y-67364598D01*
X146418119Y-67361705D01*
X146368286Y-67334196D01*
X146227789Y-67256638D01*
X146222920Y-67254914D01*
X146222916Y-67254912D01*
X146022087Y-67183795D01*
X146022083Y-67183794D01*
X146017212Y-67182069D01*
X146012119Y-67181162D01*
X146012116Y-67181161D01*
X145802373Y-67143800D01*
X145802367Y-67143799D01*
X145797284Y-67142894D01*
X145723452Y-67141992D01*
X145579081Y-67140228D01*
X145579079Y-67140228D01*
X145573911Y-67140165D01*
X145353091Y-67173955D01*
X145140756Y-67243357D01*
X145107004Y-67260927D01*
X144997753Y-67317800D01*
X144942607Y-67346507D01*
X144938474Y-67349610D01*
X144938471Y-67349612D01*
X144795132Y-67457234D01*
X144763965Y-67480635D01*
X144732065Y-67514016D01*
X144622538Y-67628630D01*
X144609629Y-67642138D01*
X144502201Y-67799621D01*
X144447293Y-67844621D01*
X144376768Y-67852792D01*
X144313021Y-67821538D01*
X144292324Y-67797054D01*
X144211822Y-67672617D01*
X144211820Y-67672614D01*
X144209014Y-67668277D01*
X144058670Y-67503051D01*
X144054619Y-67499852D01*
X144054615Y-67499848D01*
X143887414Y-67367800D01*
X143887410Y-67367798D01*
X143883359Y-67364598D01*
X143878119Y-67361705D01*
X143828286Y-67334196D01*
X143687789Y-67256638D01*
X143682920Y-67254914D01*
X143682916Y-67254912D01*
X143482087Y-67183795D01*
X143482083Y-67183794D01*
X143477212Y-67182069D01*
X143472119Y-67181162D01*
X143472116Y-67181161D01*
X143262373Y-67143800D01*
X143262367Y-67143799D01*
X143257284Y-67142894D01*
X143183452Y-67141992D01*
X143039081Y-67140228D01*
X143039079Y-67140228D01*
X143033911Y-67140165D01*
X142813091Y-67173955D01*
X142600756Y-67243357D01*
X142567004Y-67260927D01*
X142457753Y-67317800D01*
X142402607Y-67346507D01*
X142398474Y-67349610D01*
X142398471Y-67349612D01*
X142255132Y-67457234D01*
X142223965Y-67480635D01*
X142192065Y-67514016D01*
X142082538Y-67628630D01*
X142069629Y-67642138D01*
X141962204Y-67799618D01*
X141961898Y-67800066D01*
X141906987Y-67845069D01*
X141836462Y-67853240D01*
X141772715Y-67821986D01*
X141752018Y-67797502D01*
X141671426Y-67672926D01*
X141665136Y-67664757D01*
X141521806Y-67507240D01*
X141514273Y-67500215D01*
X141347139Y-67368222D01*
X141338552Y-67362517D01*
X141152117Y-67259599D01*
X141142705Y-67255369D01*
X140941959Y-67184280D01*
X140931988Y-67181646D01*
X140860837Y-67168972D01*
X140847540Y-67170432D01*
X140843000Y-67184989D01*
X140843000Y-69818517D01*
X140335000Y-69818517D01*
X140335000Y-68772115D01*
X140330525Y-68756876D01*
X140329135Y-68755671D01*
X140321452Y-68754000D01*
X138321115Y-68754000D01*
X138305876Y-68758475D01*
X138304671Y-68759865D01*
X138303000Y-68767548D01*
X138303000Y-69839884D01*
X137795000Y-69839884D01*
X137795000Y-68772115D01*
X137790525Y-68756876D01*
X137789135Y-68755671D01*
X137781452Y-68754000D01*
X136709116Y-68754000D01*
X136693877Y-68758475D01*
X136692672Y-68759865D01*
X136691001Y-68767548D01*
X136691001Y-69394669D01*
X130296877Y-69394669D01*
X130308096Y-69383489D01*
X130332959Y-69348889D01*
X130435435Y-69206277D01*
X130438453Y-69202077D01*
X130451995Y-69174678D01*
X130535136Y-69006453D01*
X130535137Y-69006451D01*
X130537430Y-69001811D01*
X130578816Y-68865595D01*
X130600865Y-68793023D01*
X130600865Y-68793021D01*
X130602370Y-68788069D01*
X130631529Y-68566590D01*
X130633156Y-68500000D01*
X130614852Y-68277361D01*
X130602424Y-68227885D01*
X136691000Y-68227885D01*
X136695475Y-68243124D01*
X136696865Y-68244329D01*
X136704548Y-68246000D01*
X137776885Y-68246000D01*
X137792124Y-68241525D01*
X137793329Y-68240135D01*
X137795000Y-68232452D01*
X137795000Y-68227885D01*
X138303000Y-68227885D01*
X138307475Y-68243124D01*
X138308865Y-68244329D01*
X138316548Y-68246000D01*
X140316885Y-68246000D01*
X140332124Y-68241525D01*
X140333329Y-68240135D01*
X140335000Y-68232452D01*
X140335000Y-67183102D01*
X140331082Y-67169758D01*
X140316806Y-67167771D01*
X140278324Y-67173660D01*
X140268288Y-67176051D01*
X140065868Y-67242212D01*
X140056359Y-67246209D01*
X139867463Y-67344542D01*
X139858738Y-67350036D01*
X139688433Y-67477905D01*
X139680726Y-67484748D01*
X139603094Y-67565985D01*
X139541570Y-67601415D01*
X139470657Y-67597958D01*
X139412871Y-67556712D01*
X139394018Y-67523164D01*
X139352324Y-67411946D01*
X139343786Y-67396351D01*
X139267285Y-67294276D01*
X139254724Y-67281715D01*
X139152649Y-67205214D01*
X139137054Y-67196676D01*
X139016606Y-67151522D01*
X139001351Y-67147895D01*
X138950486Y-67142369D01*
X138943672Y-67142000D01*
X138321115Y-67142000D01*
X138305876Y-67146475D01*
X138304671Y-67147865D01*
X138303000Y-67155548D01*
X138303000Y-68227885D01*
X137795000Y-68227885D01*
X137795000Y-67160116D01*
X137790525Y-67144877D01*
X137789135Y-67143672D01*
X137781452Y-67142001D01*
X137154331Y-67142001D01*
X137147510Y-67142371D01*
X137096648Y-67147895D01*
X137081396Y-67151521D01*
X136960946Y-67196676D01*
X136945351Y-67205214D01*
X136843276Y-67281715D01*
X136830715Y-67294276D01*
X136754214Y-67396351D01*
X136745676Y-67411946D01*
X136700522Y-67532394D01*
X136696895Y-67547649D01*
X136691369Y-67598514D01*
X136691000Y-67605328D01*
X136691000Y-68227885D01*
X130602424Y-68227885D01*
X130560431Y-68060702D01*
X130471354Y-67855840D01*
X130416080Y-67770400D01*
X130352822Y-67672617D01*
X130352820Y-67672614D01*
X130350014Y-67668277D01*
X130199670Y-67503051D01*
X130195619Y-67499852D01*
X130195615Y-67499848D01*
X130028414Y-67367800D01*
X130028410Y-67367798D01*
X130024359Y-67364598D01*
X130019119Y-67361705D01*
X129969286Y-67334196D01*
X129828789Y-67256638D01*
X129823920Y-67254914D01*
X129823916Y-67254912D01*
X129623087Y-67183795D01*
X129623083Y-67183794D01*
X129618212Y-67182069D01*
X129613119Y-67181162D01*
X129613116Y-67181161D01*
X129403373Y-67143800D01*
X129403367Y-67143799D01*
X129398284Y-67142894D01*
X129324452Y-67141992D01*
X129180081Y-67140228D01*
X129180079Y-67140228D01*
X129174911Y-67140165D01*
X128954091Y-67173955D01*
X128741756Y-67243357D01*
X128708004Y-67260927D01*
X128598753Y-67317800D01*
X128543607Y-67346507D01*
X128539474Y-67349610D01*
X128539471Y-67349612D01*
X128396132Y-67457234D01*
X128364965Y-67480635D01*
X128333065Y-67514016D01*
X128223538Y-67628630D01*
X128210629Y-67642138D01*
X128103201Y-67799621D01*
X128048293Y-67844621D01*
X127977768Y-67852792D01*
X127914021Y-67821538D01*
X127893324Y-67797054D01*
X127812822Y-67672617D01*
X127812820Y-67672614D01*
X127810014Y-67668277D01*
X127659670Y-67503051D01*
X127655619Y-67499852D01*
X127655615Y-67499848D01*
X127488414Y-67367800D01*
X127488410Y-67367798D01*
X127484359Y-67364598D01*
X127479119Y-67361705D01*
X127429286Y-67334196D01*
X127288789Y-67256638D01*
X127283920Y-67254914D01*
X127283916Y-67254912D01*
X127083087Y-67183795D01*
X127083083Y-67183794D01*
X127078212Y-67182069D01*
X127073119Y-67181162D01*
X127073116Y-67181161D01*
X126863373Y-67143800D01*
X126863367Y-67143799D01*
X126858284Y-67142894D01*
X126784452Y-67141992D01*
X126640081Y-67140228D01*
X126640079Y-67140228D01*
X126634911Y-67140165D01*
X126414091Y-67173955D01*
X126201756Y-67243357D01*
X126168004Y-67260927D01*
X126058753Y-67317800D01*
X126003607Y-67346507D01*
X125999474Y-67349610D01*
X125999471Y-67349612D01*
X125856132Y-67457234D01*
X125824965Y-67480635D01*
X125793065Y-67514016D01*
X125683538Y-67628630D01*
X125670629Y-67642138D01*
X125563204Y-67799618D01*
X125562898Y-67800066D01*
X125507987Y-67845069D01*
X125437462Y-67853240D01*
X125373715Y-67821986D01*
X125353018Y-67797502D01*
X125272426Y-67672926D01*
X125266136Y-67664757D01*
X125122806Y-67507240D01*
X125115273Y-67500215D01*
X124948139Y-67368222D01*
X124939552Y-67362517D01*
X124753117Y-67259599D01*
X124743705Y-67255369D01*
X124542959Y-67184280D01*
X124532988Y-67181646D01*
X124461837Y-67168972D01*
X124448540Y-67170432D01*
X124444000Y-67184989D01*
X124444000Y-69818517D01*
X123936000Y-69818517D01*
X123936000Y-68772115D01*
X123931525Y-68756876D01*
X123930135Y-68755671D01*
X123922452Y-68754000D01*
X121922115Y-68754000D01*
X121906876Y-68758475D01*
X121905671Y-68759865D01*
X121904000Y-68767548D01*
X121904000Y-69839884D01*
X121396000Y-69839884D01*
X121396000Y-68772115D01*
X121391525Y-68756876D01*
X121390135Y-68755671D01*
X121382452Y-68754000D01*
X120310116Y-68754000D01*
X120294877Y-68758475D01*
X120293672Y-68759865D01*
X120292001Y-68767548D01*
X120292001Y-69394669D01*
X113723445Y-69394669D01*
X113728500Y-69348134D01*
X113728500Y-68227885D01*
X120292000Y-68227885D01*
X120296475Y-68243124D01*
X120297865Y-68244329D01*
X120305548Y-68246000D01*
X121377885Y-68246000D01*
X121393124Y-68241525D01*
X121394329Y-68240135D01*
X121396000Y-68232452D01*
X121396000Y-68227885D01*
X121904000Y-68227885D01*
X121908475Y-68243124D01*
X121909865Y-68244329D01*
X121917548Y-68246000D01*
X123917885Y-68246000D01*
X123933124Y-68241525D01*
X123934329Y-68240135D01*
X123936000Y-68232452D01*
X123936000Y-67183102D01*
X123932082Y-67169758D01*
X123917806Y-67167771D01*
X123879324Y-67173660D01*
X123869288Y-67176051D01*
X123666868Y-67242212D01*
X123657359Y-67246209D01*
X123468463Y-67344542D01*
X123459738Y-67350036D01*
X123289433Y-67477905D01*
X123281726Y-67484748D01*
X123204094Y-67565985D01*
X123142570Y-67601415D01*
X123071657Y-67597958D01*
X123013871Y-67556712D01*
X122995018Y-67523164D01*
X122953324Y-67411946D01*
X122944786Y-67396351D01*
X122868285Y-67294276D01*
X122855724Y-67281715D01*
X122753649Y-67205214D01*
X122738054Y-67196676D01*
X122617606Y-67151522D01*
X122602351Y-67147895D01*
X122551486Y-67142369D01*
X122544672Y-67142000D01*
X121922115Y-67142000D01*
X121906876Y-67146475D01*
X121905671Y-67147865D01*
X121904000Y-67155548D01*
X121904000Y-68227885D01*
X121396000Y-68227885D01*
X121396000Y-67160116D01*
X121391525Y-67144877D01*
X121390135Y-67143672D01*
X121382452Y-67142001D01*
X120755331Y-67142001D01*
X120748510Y-67142371D01*
X120697648Y-67147895D01*
X120682396Y-67151521D01*
X120561946Y-67196676D01*
X120546351Y-67205214D01*
X120444276Y-67281715D01*
X120431715Y-67294276D01*
X120355214Y-67396351D01*
X120346676Y-67411946D01*
X120301522Y-67532394D01*
X120297895Y-67547649D01*
X120292369Y-67598514D01*
X120292000Y-67605328D01*
X120292000Y-68227885D01*
X113728500Y-68227885D01*
X113728500Y-67551866D01*
X113721745Y-67489684D01*
X113670615Y-67353295D01*
X113583261Y-67236739D01*
X113466705Y-67149385D01*
X113330316Y-67098255D01*
X113268134Y-67091500D01*
X111471866Y-67091500D01*
X111409684Y-67098255D01*
X111273295Y-67149385D01*
X111156739Y-67236739D01*
X111069385Y-67353295D01*
X111066233Y-67361703D01*
X111066232Y-67361705D01*
X111024722Y-67472433D01*
X110982081Y-67529198D01*
X110915519Y-67553898D01*
X110846170Y-67538691D01*
X110813546Y-67513004D01*
X110762799Y-67457234D01*
X110755273Y-67450215D01*
X110588139Y-67318222D01*
X110579552Y-67312517D01*
X110393117Y-67209599D01*
X110383705Y-67205369D01*
X110182959Y-67134280D01*
X110172988Y-67131646D01*
X110101837Y-67118972D01*
X110088540Y-67120432D01*
X110084000Y-67134989D01*
X110084000Y-69768517D01*
X109576000Y-69768517D01*
X109576000Y-67133102D01*
X109572082Y-67119758D01*
X109557806Y-67117771D01*
X109519324Y-67123660D01*
X109509288Y-67126051D01*
X109306868Y-67192212D01*
X109297359Y-67196209D01*
X109108463Y-67294542D01*
X109099738Y-67300036D01*
X108929433Y-67427905D01*
X108921726Y-67434748D01*
X108774589Y-67588718D01*
X108772424Y-67591392D01*
X108771276Y-67592185D01*
X108771019Y-67592454D01*
X108770964Y-67592401D01*
X108714012Y-67631747D01*
X108643055Y-67634116D01*
X108582081Y-67597747D01*
X108550450Y-67534186D01*
X108548500Y-67512103D01*
X108548500Y-66151396D01*
X108549578Y-66134949D01*
X108551747Y-66118472D01*
X108552479Y-66112914D01*
X108548640Y-66031504D01*
X108548500Y-66025569D01*
X108548500Y-66003001D01*
X108548252Y-66000218D01*
X108548251Y-66000204D01*
X108546182Y-65977023D01*
X108545823Y-65971760D01*
X108542161Y-65894116D01*
X108541897Y-65888512D01*
X108537892Y-65871023D01*
X108535212Y-65854104D01*
X108534115Y-65841821D01*
X108533617Y-65836238D01*
X108532137Y-65830827D01*
X108511631Y-65755870D01*
X108510345Y-65750752D01*
X108492994Y-65674997D01*
X108491742Y-65669530D01*
X108484707Y-65653037D01*
X108479072Y-65636855D01*
X108475820Y-65624967D01*
X108475817Y-65624958D01*
X108474337Y-65619549D01*
X108471922Y-65614486D01*
X108471918Y-65614475D01*
X108438466Y-65544343D01*
X108436293Y-65539532D01*
X108405803Y-65468048D01*
X108403604Y-65462892D01*
X108393756Y-65447900D01*
X108385344Y-65432971D01*
X108377622Y-65416782D01*
X108328996Y-65349111D01*
X108326013Y-65344771D01*
X108282805Y-65278992D01*
X108282801Y-65278987D01*
X108280265Y-65275126D01*
X108261751Y-65254346D01*
X108253506Y-65244055D01*
X108249807Y-65238907D01*
X108249803Y-65238903D01*
X108246529Y-65234346D01*
X108169777Y-65159968D01*
X108168367Y-65158579D01*
X107234525Y-64224737D01*
X107223657Y-64212346D01*
X107213533Y-64199152D01*
X107210123Y-64194708D01*
X107149826Y-64139842D01*
X107145531Y-64135743D01*
X107129590Y-64119802D01*
X107127440Y-64118004D01*
X107109577Y-64103068D01*
X107105602Y-64099600D01*
X107048112Y-64047288D01*
X107048103Y-64047281D01*
X107043964Y-64043515D01*
X107028773Y-64033986D01*
X107014907Y-64023911D01*
X107005451Y-64016004D01*
X107005441Y-64015997D01*
X107001146Y-64012406D01*
X106928752Y-63971113D01*
X106924232Y-63968408D01*
X106914620Y-63962378D01*
X106873202Y-63936397D01*
X106858404Y-63927114D01*
X106858401Y-63927112D01*
X106853656Y-63924136D01*
X106848451Y-63922043D01*
X106848448Y-63922042D01*
X106837021Y-63917448D01*
X106821589Y-63909988D01*
X106810881Y-63903880D01*
X106810872Y-63903876D01*
X106806007Y-63901101D01*
X106800730Y-63899232D01*
X106800725Y-63899230D01*
X106727458Y-63873285D01*
X106722522Y-63871420D01*
X106650416Y-63842434D01*
X106645217Y-63840344D01*
X106639730Y-63839208D01*
X106639728Y-63839207D01*
X106627651Y-63836706D01*
X106611156Y-63832101D01*
X106594241Y-63826111D01*
X106511990Y-63812641D01*
X106506820Y-63811683D01*
X106447296Y-63799356D01*
X106429758Y-63795724D01*
X106429757Y-63795724D01*
X106425233Y-63794787D01*
X106420621Y-63794521D01*
X106420620Y-63794521D01*
X106397452Y-63793185D01*
X106384347Y-63791738D01*
X106378090Y-63790714D01*
X106378086Y-63790714D01*
X106372543Y-63789806D01*
X106366930Y-63789894D01*
X106366928Y-63789894D01*
X106265736Y-63791484D01*
X106263757Y-63791500D01*
X95581395Y-63791500D01*
X95564948Y-63790422D01*
X95548483Y-63788254D01*
X95548479Y-63788254D01*
X95542913Y-63787521D01*
X95461511Y-63791360D01*
X95455575Y-63791500D01*
X95433001Y-63791500D01*
X95408886Y-63793652D01*
X95407013Y-63793819D01*
X95401750Y-63794178D01*
X95388839Y-63794787D01*
X95318511Y-63798104D01*
X95313048Y-63799355D01*
X95313042Y-63799356D01*
X95301032Y-63802107D01*
X95284100Y-63804789D01*
X95266238Y-63806383D01*
X95260827Y-63807863D01*
X95260823Y-63807864D01*
X95214157Y-63820631D01*
X95185848Y-63828376D01*
X95180750Y-63829656D01*
X95099530Y-63848258D01*
X95094369Y-63850459D01*
X95094370Y-63850459D01*
X95083033Y-63855294D01*
X95066858Y-63860927D01*
X95054961Y-63864182D01*
X95054957Y-63864183D01*
X95049549Y-63865663D01*
X95044483Y-63868079D01*
X95044484Y-63868079D01*
X94974333Y-63901539D01*
X94969524Y-63903710D01*
X94898051Y-63934196D01*
X94892891Y-63936397D01*
X94877890Y-63946251D01*
X94862975Y-63954654D01*
X94846782Y-63962378D01*
X94842234Y-63965646D01*
X94842229Y-63965649D01*
X94779114Y-64011002D01*
X94774777Y-64013982D01*
X94705125Y-64059735D01*
X94684344Y-64078251D01*
X94674048Y-64086500D01*
X94664346Y-64093471D01*
X94636904Y-64121789D01*
X94589968Y-64170223D01*
X94588579Y-64171633D01*
X92685617Y-66074595D01*
X92623305Y-66108621D01*
X92596522Y-66111500D01*
X73559500Y-66111500D01*
X73491379Y-66091498D01*
X73444886Y-66037842D01*
X73433500Y-65985500D01*
X73433500Y-65114500D01*
X73453502Y-65046379D01*
X73507158Y-64999886D01*
X73559500Y-64988500D01*
X75333694Y-64988500D01*
X75401815Y-65008502D01*
X75415702Y-65019683D01*
X75415771Y-65019596D01*
X75421517Y-65024134D01*
X75426697Y-65029305D01*
X75432927Y-65033145D01*
X75432928Y-65033146D01*
X75570288Y-65117816D01*
X75577262Y-65122115D01*
X75657005Y-65148564D01*
X75738611Y-65175632D01*
X75738613Y-65175632D01*
X75745139Y-65177797D01*
X75751975Y-65178497D01*
X75751978Y-65178498D01*
X75795031Y-65182909D01*
X75849600Y-65188500D01*
X76650400Y-65188500D01*
X76653646Y-65188163D01*
X76653650Y-65188163D01*
X76749308Y-65178238D01*
X76749312Y-65178237D01*
X76756166Y-65177526D01*
X76762702Y-65175345D01*
X76762704Y-65175345D01*
X76894806Y-65131272D01*
X76923946Y-65121550D01*
X77074348Y-65028478D01*
X77106066Y-64996705D01*
X77161138Y-64941537D01*
X77223421Y-64907458D01*
X77294241Y-64912461D01*
X77339329Y-64941382D01*
X77421829Y-65023739D01*
X77433240Y-65032751D01*
X77571243Y-65117816D01*
X77584424Y-65123963D01*
X77738710Y-65175138D01*
X77752086Y-65178005D01*
X77846438Y-65187672D01*
X77852854Y-65188000D01*
X77977885Y-65188000D01*
X77993124Y-65183525D01*
X77994329Y-65182135D01*
X77996000Y-65174452D01*
X77996000Y-65169884D01*
X78504000Y-65169884D01*
X78508475Y-65185123D01*
X78509865Y-65186328D01*
X78517548Y-65187999D01*
X78647095Y-65187999D01*
X78653614Y-65187662D01*
X78749206Y-65177743D01*
X78762600Y-65174851D01*
X78916784Y-65123412D01*
X78929962Y-65117239D01*
X79067807Y-65031937D01*
X79079208Y-65022901D01*
X79193739Y-64908171D01*
X79202751Y-64896760D01*
X79287816Y-64758757D01*
X79293963Y-64745576D01*
X79345138Y-64591290D01*
X79348005Y-64577914D01*
X79357672Y-64483562D01*
X79358000Y-64477146D01*
X79358000Y-64252115D01*
X79353525Y-64236876D01*
X79352135Y-64235671D01*
X79344452Y-64234000D01*
X78522115Y-64234000D01*
X78506876Y-64238475D01*
X78505671Y-64239865D01*
X78504000Y-64247548D01*
X78504000Y-65169884D01*
X77996000Y-65169884D01*
X77996000Y-63707885D01*
X78504000Y-63707885D01*
X78508475Y-63723124D01*
X78509865Y-63724329D01*
X78517548Y-63726000D01*
X79339884Y-63726000D01*
X79355123Y-63721525D01*
X79356328Y-63720135D01*
X79357999Y-63712452D01*
X79357999Y-63482905D01*
X79357662Y-63476386D01*
X79347743Y-63380794D01*
X79344851Y-63367400D01*
X79293412Y-63213216D01*
X79287239Y-63200038D01*
X79201937Y-63062193D01*
X79192901Y-63050792D01*
X79078171Y-62936261D01*
X79066760Y-62927249D01*
X78928757Y-62842184D01*
X78915576Y-62836037D01*
X78761290Y-62784862D01*
X78747914Y-62781995D01*
X78653562Y-62772328D01*
X78647145Y-62772000D01*
X78522115Y-62772000D01*
X78506876Y-62776475D01*
X78505671Y-62777865D01*
X78504000Y-62785548D01*
X78504000Y-63707885D01*
X77996000Y-63707885D01*
X77996000Y-62790116D01*
X77991525Y-62774877D01*
X77990135Y-62773672D01*
X77982452Y-62772001D01*
X77852905Y-62772001D01*
X77846386Y-62772338D01*
X77750794Y-62782257D01*
X77737400Y-62785149D01*
X77583216Y-62836588D01*
X77570038Y-62842761D01*
X77432193Y-62928063D01*
X77420792Y-62937099D01*
X77339570Y-63018462D01*
X77277287Y-63052541D01*
X77206467Y-63047538D01*
X77161380Y-63018617D01*
X77078488Y-62935870D01*
X77078483Y-62935866D01*
X77073303Y-62930695D01*
X77067072Y-62926854D01*
X76928968Y-62841725D01*
X76928966Y-62841724D01*
X76922738Y-62837885D01*
X76796787Y-62796109D01*
X76761389Y-62784368D01*
X76761387Y-62784368D01*
X76754861Y-62782203D01*
X76748025Y-62781503D01*
X76748022Y-62781502D01*
X76704969Y-62777091D01*
X76650400Y-62771500D01*
X75849600Y-62771500D01*
X75846354Y-62771837D01*
X75846350Y-62771837D01*
X75750692Y-62781762D01*
X75750688Y-62781763D01*
X75743834Y-62782474D01*
X75737298Y-62784655D01*
X75737296Y-62784655D01*
X75681426Y-62803295D01*
X75576054Y-62838450D01*
X75465483Y-62906874D01*
X75440647Y-62922243D01*
X75425652Y-62931522D01*
X75420479Y-62936704D01*
X75414745Y-62941249D01*
X75413419Y-62939576D01*
X75360375Y-62968598D01*
X75333489Y-62971500D01*
X73472658Y-62971500D01*
X73404537Y-62951498D01*
X73379465Y-62930300D01*
X73364995Y-62914398D01*
X73354670Y-62903051D01*
X73350619Y-62899852D01*
X73350615Y-62899848D01*
X73183414Y-62767800D01*
X73183410Y-62767798D01*
X73179359Y-62764598D01*
X72983789Y-62656638D01*
X72978920Y-62654914D01*
X72978916Y-62654912D01*
X72778087Y-62583795D01*
X72778083Y-62583794D01*
X72773212Y-62582069D01*
X72768119Y-62581162D01*
X72768116Y-62581161D01*
X72558373Y-62543800D01*
X72558367Y-62543799D01*
X72553284Y-62542894D01*
X72479452Y-62541992D01*
X72335081Y-62540228D01*
X72335079Y-62540228D01*
X72329911Y-62540165D01*
X72109091Y-62573955D01*
X71896756Y-62643357D01*
X71698607Y-62746507D01*
X71694474Y-62749610D01*
X71694471Y-62749612D01*
X71524100Y-62877530D01*
X71519965Y-62880635D01*
X71463537Y-62939684D01*
X71439283Y-62965064D01*
X71377759Y-63000494D01*
X71306846Y-62997037D01*
X71249060Y-62955791D01*
X71230207Y-62922243D01*
X71188767Y-62811703D01*
X71185615Y-62803295D01*
X71098261Y-62686739D01*
X70981705Y-62599385D01*
X70845316Y-62548255D01*
X70783134Y-62541500D01*
X68986866Y-62541500D01*
X68924684Y-62548255D01*
X68788295Y-62599385D01*
X68671739Y-62686739D01*
X68584385Y-62803295D01*
X68533255Y-62939684D01*
X68526500Y-63001866D01*
X68526500Y-64798134D01*
X63811529Y-64798134D01*
X63782544Y-64716736D01*
X63781512Y-64713837D01*
X63614564Y-64359054D01*
X63612997Y-64356425D01*
X63612992Y-64356416D01*
X63428714Y-64047288D01*
X63413791Y-64022255D01*
X63411977Y-64019795D01*
X63411972Y-64019787D01*
X63182933Y-63709126D01*
X63182931Y-63709123D01*
X63181111Y-63706655D01*
X62918744Y-63415268D01*
X62629195Y-63150873D01*
X62315228Y-62915995D01*
X62267015Y-62886796D01*
X61982467Y-62714467D01*
X61982458Y-62714462D01*
X61979839Y-62712876D01*
X61689888Y-62573955D01*
X61629001Y-62544783D01*
X61628999Y-62544782D01*
X61626229Y-62543455D01*
X61623339Y-62542403D01*
X61623334Y-62542401D01*
X61260674Y-62410404D01*
X61260671Y-62410403D01*
X61257775Y-62409349D01*
X60981563Y-62338429D01*
X60880977Y-62312603D01*
X60880974Y-62312602D01*
X60877993Y-62311837D01*
X60490508Y-62251851D01*
X60099018Y-62229964D01*
X60095939Y-62230093D01*
X60095936Y-62230093D01*
X59840188Y-62240812D01*
X59707261Y-62246383D01*
X59704217Y-62246811D01*
X59704215Y-62246811D01*
X59493778Y-62276386D01*
X59318976Y-62300953D01*
X58937869Y-62393153D01*
X58567579Y-62522102D01*
X58211638Y-62686569D01*
X57873446Y-62884985D01*
X57719220Y-62997037D01*
X57558711Y-63113653D01*
X57558705Y-63113658D01*
X57556230Y-63115456D01*
X57553944Y-63117485D01*
X57553941Y-63117488D01*
X57474123Y-63188354D01*
X57263017Y-63375783D01*
X57260938Y-63378028D01*
X57260931Y-63378035D01*
X57163821Y-63482905D01*
X56996608Y-63663479D01*
X56963836Y-63706655D01*
X56778399Y-63950959D01*
X56759544Y-63975799D01*
X56691439Y-64086502D01*
X56589554Y-64252115D01*
X56554089Y-64309762D01*
X56552738Y-64312532D01*
X56407048Y-64611240D01*
X56359208Y-64663698D01*
X56290602Y-64681964D01*
X56223010Y-64660240D01*
X56177895Y-64605421D01*
X56167800Y-64556005D01*
X56167800Y-57587695D01*
X59148251Y-57587695D01*
X59148548Y-57592848D01*
X59148548Y-57592851D01*
X59154011Y-57687590D01*
X59161110Y-57810715D01*
X59162247Y-57815761D01*
X59162248Y-57815767D01*
X59171361Y-57856203D01*
X59210222Y-58028639D01*
X59248461Y-58122811D01*
X59288617Y-58221703D01*
X59294266Y-58235616D01*
X59296965Y-58240020D01*
X59404366Y-58415283D01*
X59410987Y-58426088D01*
X59557250Y-58594938D01*
X59729126Y-58737632D01*
X59922000Y-58850338D01*
X60130692Y-58930030D01*
X60135760Y-58931061D01*
X60135763Y-58931062D01*
X60243017Y-58952883D01*
X60349597Y-58974567D01*
X60354772Y-58974757D01*
X60354774Y-58974757D01*
X60567673Y-58982564D01*
X60567677Y-58982564D01*
X60572837Y-58982753D01*
X60577957Y-58982097D01*
X60577959Y-58982097D01*
X60789288Y-58955025D01*
X60789289Y-58955025D01*
X60794416Y-58954368D01*
X60799366Y-58952883D01*
X61003429Y-58891661D01*
X61003434Y-58891659D01*
X61008384Y-58890174D01*
X61208994Y-58791896D01*
X61390860Y-58662173D01*
X61549096Y-58504489D01*
X61596959Y-58437881D01*
X61676435Y-58327277D01*
X61679453Y-58323077D01*
X61706853Y-58267638D01*
X61776136Y-58127453D01*
X61776137Y-58127451D01*
X61778430Y-58122811D01*
X61829308Y-57955353D01*
X61841865Y-57914023D01*
X61841865Y-57914021D01*
X61843370Y-57909069D01*
X61872529Y-57687590D01*
X61873368Y-57653255D01*
X61874074Y-57624365D01*
X61874074Y-57624361D01*
X61874156Y-57621000D01*
X61867241Y-57536895D01*
X82109851Y-57536895D01*
X82110148Y-57542048D01*
X82110148Y-57542051D01*
X82118347Y-57684240D01*
X82122710Y-57759915D01*
X82123847Y-57764961D01*
X82123848Y-57764967D01*
X82133270Y-57806773D01*
X82171822Y-57977839D01*
X82255866Y-58184816D01*
X82372587Y-58375288D01*
X82518850Y-58544138D01*
X82690726Y-58686832D01*
X82883600Y-58799538D01*
X83092292Y-58879230D01*
X83097360Y-58880261D01*
X83097363Y-58880262D01*
X83204617Y-58902083D01*
X83311197Y-58923767D01*
X83316372Y-58923957D01*
X83316374Y-58923957D01*
X83529273Y-58931764D01*
X83529277Y-58931764D01*
X83534437Y-58931953D01*
X83539557Y-58931297D01*
X83539559Y-58931297D01*
X83750888Y-58904225D01*
X83750889Y-58904225D01*
X83756016Y-58903568D01*
X83795704Y-58891661D01*
X83965029Y-58840861D01*
X83965034Y-58840859D01*
X83969984Y-58839374D01*
X84170594Y-58741096D01*
X84352460Y-58611373D01*
X84510696Y-58453689D01*
X84519096Y-58442000D01*
X84638035Y-58276477D01*
X84641053Y-58272277D01*
X84656996Y-58240020D01*
X84737736Y-58076653D01*
X84737737Y-58076651D01*
X84740030Y-58072011D01*
X84796732Y-57885383D01*
X84803465Y-57863223D01*
X84803465Y-57863221D01*
X84804970Y-57858269D01*
X84834129Y-57636790D01*
X84834211Y-57633440D01*
X84835674Y-57573565D01*
X84835674Y-57573561D01*
X84835756Y-57570200D01*
X84817452Y-57347561D01*
X84763031Y-57130902D01*
X84673954Y-56926040D01*
X84613240Y-56832190D01*
X84555422Y-56742817D01*
X84555420Y-56742814D01*
X84552614Y-56738477D01*
X84546989Y-56732295D01*
X103590251Y-56732295D01*
X103590548Y-56737448D01*
X103590548Y-56737451D01*
X103596552Y-56841573D01*
X103603110Y-56955315D01*
X103604247Y-56960361D01*
X103604248Y-56960367D01*
X103609031Y-56981590D01*
X103652222Y-57173239D01*
X103736266Y-57380216D01*
X103738965Y-57384620D01*
X103832279Y-57536895D01*
X103852987Y-57570688D01*
X103999250Y-57739538D01*
X104003225Y-57742838D01*
X104003228Y-57742841D01*
X104018475Y-57755499D01*
X104058110Y-57814402D01*
X104059608Y-57885383D01*
X104022493Y-57945905D01*
X103982220Y-57970425D01*
X103949677Y-57982625D01*
X103878295Y-58009385D01*
X103761739Y-58096739D01*
X103674385Y-58213295D01*
X103623255Y-58349684D01*
X103616500Y-58411866D01*
X103616500Y-60208134D01*
X103623255Y-60270316D01*
X103674385Y-60406705D01*
X103761739Y-60523261D01*
X103878295Y-60610615D01*
X104014684Y-60661745D01*
X104076866Y-60668500D01*
X105873134Y-60668500D01*
X105935316Y-60661745D01*
X106071705Y-60610615D01*
X106188261Y-60523261D01*
X106275615Y-60406705D01*
X106326745Y-60270316D01*
X106333500Y-60208134D01*
X106333500Y-58442000D01*
X135577654Y-58442000D01*
X135577924Y-58446119D01*
X135592085Y-58662173D01*
X135597017Y-58737426D01*
X135597819Y-58741459D01*
X135597820Y-58741465D01*
X135645816Y-58982753D01*
X135654776Y-59027797D01*
X135749941Y-59308145D01*
X135880885Y-59573673D01*
X136045367Y-59819838D01*
X136048081Y-59822932D01*
X136048085Y-59822938D01*
X136172948Y-59965316D01*
X136240573Y-60042427D01*
X136243662Y-60045136D01*
X136460062Y-60234915D01*
X136460068Y-60234919D01*
X136463162Y-60237633D01*
X136466588Y-60239922D01*
X136466593Y-60239926D01*
X136650405Y-60362744D01*
X136709327Y-60402115D01*
X136713026Y-60403939D01*
X136713031Y-60403942D01*
X136733206Y-60413891D01*
X136974855Y-60533059D01*
X136978760Y-60534384D01*
X136978761Y-60534385D01*
X137251290Y-60626896D01*
X137251294Y-60626897D01*
X137255203Y-60628224D01*
X137259247Y-60629028D01*
X137259253Y-60629030D01*
X137541535Y-60685180D01*
X137541541Y-60685181D01*
X137545574Y-60685983D01*
X137549679Y-60686252D01*
X137549686Y-60686253D01*
X137836881Y-60705076D01*
X137841000Y-60705346D01*
X137845119Y-60705076D01*
X138132314Y-60686253D01*
X138132321Y-60686252D01*
X138136426Y-60685983D01*
X138140459Y-60685181D01*
X138140465Y-60685180D01*
X138422747Y-60629030D01*
X138422753Y-60629028D01*
X138426797Y-60628224D01*
X138430706Y-60626897D01*
X138430710Y-60626896D01*
X138703239Y-60534385D01*
X138703240Y-60534384D01*
X138707145Y-60533059D01*
X138948794Y-60413891D01*
X138968969Y-60403942D01*
X138968974Y-60403939D01*
X138972673Y-60402115D01*
X139031595Y-60362744D01*
X139215407Y-60239926D01*
X139215412Y-60239922D01*
X139218838Y-60237633D01*
X139221932Y-60234919D01*
X139221938Y-60234915D01*
X139438338Y-60045136D01*
X139441427Y-60042427D01*
X139509052Y-59965316D01*
X139633915Y-59822938D01*
X139633919Y-59822932D01*
X139636633Y-59819838D01*
X139801115Y-59573673D01*
X139932059Y-59308145D01*
X140027224Y-59027797D01*
X140036184Y-58982753D01*
X140084180Y-58741465D01*
X140084181Y-58741459D01*
X140084983Y-58737426D01*
X140089916Y-58662173D01*
X140104076Y-58446119D01*
X140104346Y-58442000D01*
X140098295Y-58349684D01*
X140085253Y-58150686D01*
X140085252Y-58150679D01*
X140084983Y-58146574D01*
X140080257Y-58122811D01*
X140028030Y-57860253D01*
X140028028Y-57860247D01*
X140027224Y-57856203D01*
X140005342Y-57791739D01*
X139933385Y-57579761D01*
X139933384Y-57579760D01*
X139932059Y-57575855D01*
X139844529Y-57398361D01*
X139802942Y-57314031D01*
X139802939Y-57314026D01*
X139801115Y-57310327D01*
X139702592Y-57162877D01*
X139638926Y-57067593D01*
X139638922Y-57067588D01*
X139636633Y-57064162D01*
X139633919Y-57061068D01*
X139633915Y-57061062D01*
X139444136Y-56844662D01*
X139441427Y-56841573D01*
X139354797Y-56765600D01*
X139221938Y-56649085D01*
X139221932Y-56649081D01*
X139218838Y-56646367D01*
X139215412Y-56644078D01*
X139215407Y-56644074D01*
X139019003Y-56512842D01*
X138972673Y-56481885D01*
X138968974Y-56480061D01*
X138968969Y-56480058D01*
X138862380Y-56427495D01*
X143061851Y-56427495D01*
X143062148Y-56432648D01*
X143062148Y-56432651D01*
X143069104Y-56553287D01*
X143074710Y-56650515D01*
X143075847Y-56655561D01*
X143075848Y-56655567D01*
X143091983Y-56727162D01*
X143123822Y-56868439D01*
X143161150Y-56960367D01*
X143199036Y-57053669D01*
X143207866Y-57075416D01*
X143324587Y-57265888D01*
X143470850Y-57434738D01*
X143489411Y-57450148D01*
X143529047Y-57509049D01*
X143530546Y-57580030D01*
X143493432Y-57640553D01*
X143453156Y-57665074D01*
X143356705Y-57701232D01*
X143356704Y-57701233D01*
X143348295Y-57704385D01*
X143231739Y-57791739D01*
X143144385Y-57908295D01*
X143093255Y-58044684D01*
X143086500Y-58106866D01*
X143086500Y-59903134D01*
X143093255Y-59965316D01*
X143144385Y-60101705D01*
X143231739Y-60218261D01*
X143348295Y-60305615D01*
X143484684Y-60356745D01*
X143546866Y-60363500D01*
X145343134Y-60363500D01*
X145405316Y-60356745D01*
X145541705Y-60305615D01*
X145658261Y-60218261D01*
X145745615Y-60101705D01*
X145796745Y-59965316D01*
X145803500Y-59903134D01*
X145803500Y-58106866D01*
X145796745Y-58044684D01*
X145745615Y-57908295D01*
X145658261Y-57791739D01*
X145541705Y-57704385D01*
X145505755Y-57690908D01*
X145405317Y-57653255D01*
X145348553Y-57610613D01*
X145323853Y-57544052D01*
X145339061Y-57474703D01*
X145360607Y-57446022D01*
X145431447Y-57375429D01*
X145462696Y-57344289D01*
X145483908Y-57314770D01*
X145590035Y-57167077D01*
X145593053Y-57162877D01*
X145596800Y-57155297D01*
X145689736Y-56967253D01*
X145689737Y-56967251D01*
X145692030Y-56962611D01*
X145732673Y-56828840D01*
X145755465Y-56753823D01*
X145755465Y-56753821D01*
X145756970Y-56748869D01*
X145786129Y-56527390D01*
X145786424Y-56515307D01*
X145787674Y-56464165D01*
X145787674Y-56464161D01*
X145787756Y-56460800D01*
X145769452Y-56238161D01*
X145715031Y-56021502D01*
X145625954Y-55816640D01*
X145504614Y-55629077D01*
X145354270Y-55463851D01*
X145350219Y-55460652D01*
X145350215Y-55460648D01*
X145183014Y-55328600D01*
X145183010Y-55328598D01*
X145178959Y-55325398D01*
X144983389Y-55217438D01*
X144978520Y-55215714D01*
X144978516Y-55215712D01*
X144777687Y-55144595D01*
X144777683Y-55144594D01*
X144772812Y-55142869D01*
X144767719Y-55141962D01*
X144767716Y-55141961D01*
X144557973Y-55104600D01*
X144557967Y-55104599D01*
X144552884Y-55103694D01*
X144479052Y-55102792D01*
X144334681Y-55101028D01*
X144334679Y-55101028D01*
X144329511Y-55100965D01*
X144108691Y-55134755D01*
X143896356Y-55204157D01*
X143698207Y-55307307D01*
X143694074Y-55310410D01*
X143694071Y-55310412D01*
X143523700Y-55438330D01*
X143519565Y-55441435D01*
X143365229Y-55602938D01*
X143239343Y-55787480D01*
X143223603Y-55821390D01*
X143148804Y-55982531D01*
X143145288Y-55990105D01*
X143085589Y-56205370D01*
X143061851Y-56427495D01*
X138862380Y-56427495D01*
X138832687Y-56412852D01*
X138707145Y-56350941D01*
X138657141Y-56333967D01*
X138430710Y-56257104D01*
X138430706Y-56257103D01*
X138426797Y-56255776D01*
X138422753Y-56254972D01*
X138422747Y-56254970D01*
X138140465Y-56198820D01*
X138140459Y-56198819D01*
X138136426Y-56198017D01*
X138132321Y-56197748D01*
X138132314Y-56197747D01*
X137845119Y-56178924D01*
X137841000Y-56178654D01*
X137836881Y-56178924D01*
X137549686Y-56197747D01*
X137549679Y-56197748D01*
X137545574Y-56198017D01*
X137541541Y-56198819D01*
X137541535Y-56198820D01*
X137259253Y-56254970D01*
X137259247Y-56254972D01*
X137255203Y-56255776D01*
X137251294Y-56257103D01*
X137251290Y-56257104D01*
X137024859Y-56333967D01*
X136974855Y-56350941D01*
X136849313Y-56412852D01*
X136713031Y-56480058D01*
X136713026Y-56480061D01*
X136709327Y-56481885D01*
X136662997Y-56512842D01*
X136466593Y-56644074D01*
X136466588Y-56644078D01*
X136463162Y-56646367D01*
X136460068Y-56649081D01*
X136460062Y-56649085D01*
X136327203Y-56765600D01*
X136240573Y-56841573D01*
X136237864Y-56844662D01*
X136048085Y-57061062D01*
X136048081Y-57061068D01*
X136045367Y-57064162D01*
X136043078Y-57067588D01*
X136043074Y-57067593D01*
X135979408Y-57162877D01*
X135880885Y-57310327D01*
X135879061Y-57314026D01*
X135879058Y-57314031D01*
X135837471Y-57398361D01*
X135749941Y-57575855D01*
X135748616Y-57579760D01*
X135748615Y-57579761D01*
X135676659Y-57791739D01*
X135654776Y-57856203D01*
X135653972Y-57860247D01*
X135653970Y-57860253D01*
X135601744Y-58122811D01*
X135597017Y-58146574D01*
X135596748Y-58150679D01*
X135596747Y-58150686D01*
X135583705Y-58349684D01*
X135577654Y-58442000D01*
X106333500Y-58442000D01*
X106333500Y-58411866D01*
X106326745Y-58349684D01*
X106275615Y-58213295D01*
X106188261Y-58096739D01*
X106071705Y-58009385D01*
X105935316Y-57958255D01*
X105936404Y-57955353D01*
X105887271Y-57927261D01*
X105854472Y-57864295D01*
X105860922Y-57793592D01*
X105889154Y-57750676D01*
X105987430Y-57652744D01*
X105987440Y-57652732D01*
X105991096Y-57649089D01*
X105997550Y-57640108D01*
X106118435Y-57471877D01*
X106121453Y-57467677D01*
X106130118Y-57450146D01*
X106218136Y-57272053D01*
X106218137Y-57272051D01*
X106220430Y-57267411D01*
X106285370Y-57053669D01*
X106314529Y-56832190D01*
X106314611Y-56828840D01*
X106316074Y-56768965D01*
X106316074Y-56768961D01*
X106316156Y-56765600D01*
X106297852Y-56542961D01*
X106243431Y-56326302D01*
X106154354Y-56121440D01*
X106097437Y-56033460D01*
X106035822Y-55938217D01*
X106035820Y-55938214D01*
X106033014Y-55933877D01*
X105882670Y-55768651D01*
X105878619Y-55765452D01*
X105878615Y-55765448D01*
X105711414Y-55633400D01*
X105711410Y-55633398D01*
X105707359Y-55630198D01*
X105698409Y-55625257D01*
X105651208Y-55599201D01*
X105511789Y-55522238D01*
X105506920Y-55520514D01*
X105506916Y-55520512D01*
X105306087Y-55449395D01*
X105306083Y-55449394D01*
X105301212Y-55447669D01*
X105296119Y-55446762D01*
X105296116Y-55446761D01*
X105086373Y-55409400D01*
X105086367Y-55409399D01*
X105081284Y-55408494D01*
X105007452Y-55407592D01*
X104863081Y-55405828D01*
X104863079Y-55405828D01*
X104857911Y-55405765D01*
X104637091Y-55439555D01*
X104424756Y-55508957D01*
X104226607Y-55612107D01*
X104222474Y-55615210D01*
X104222471Y-55615212D01*
X104052100Y-55743130D01*
X104047965Y-55746235D01*
X103893629Y-55907738D01*
X103767743Y-56092280D01*
X103752003Y-56126190D01*
X103677320Y-56287081D01*
X103673688Y-56294905D01*
X103613989Y-56510170D01*
X103590251Y-56732295D01*
X84546989Y-56732295D01*
X84542318Y-56727162D01*
X84405398Y-56576688D01*
X84374346Y-56512842D01*
X84382741Y-56442343D01*
X84427917Y-56387575D01*
X84454361Y-56373906D01*
X84560897Y-56333967D01*
X84569305Y-56330815D01*
X84685861Y-56243461D01*
X84773215Y-56126905D01*
X84824345Y-55990516D01*
X84831100Y-55928334D01*
X84831100Y-54132066D01*
X84824345Y-54069884D01*
X84773215Y-53933495D01*
X84685861Y-53816939D01*
X84569305Y-53729585D01*
X84432916Y-53678455D01*
X84370734Y-53671700D01*
X82574466Y-53671700D01*
X82512284Y-53678455D01*
X82375895Y-53729585D01*
X82259339Y-53816939D01*
X82171985Y-53933495D01*
X82120855Y-54069884D01*
X82114100Y-54132066D01*
X82114100Y-55928334D01*
X82120855Y-55990516D01*
X82171985Y-56126905D01*
X82259339Y-56243461D01*
X82375895Y-56330815D01*
X82384304Y-56333967D01*
X82384305Y-56333968D01*
X82493051Y-56374735D01*
X82549816Y-56417376D01*
X82574516Y-56483938D01*
X82559309Y-56553287D01*
X82539916Y-56579768D01*
X82413229Y-56712338D01*
X82410315Y-56716610D01*
X82410314Y-56716611D01*
X82376896Y-56765600D01*
X82287343Y-56896880D01*
X82256832Y-56962611D01*
X82204470Y-57075416D01*
X82193288Y-57099505D01*
X82133589Y-57314770D01*
X82109851Y-57536895D01*
X61867241Y-57536895D01*
X61855852Y-57398361D01*
X61801431Y-57181702D01*
X61712354Y-56976840D01*
X61657857Y-56892601D01*
X61593822Y-56793617D01*
X61593820Y-56793614D01*
X61591014Y-56789277D01*
X61572532Y-56768965D01*
X61443798Y-56627488D01*
X61412746Y-56563642D01*
X61421141Y-56493143D01*
X61466317Y-56438375D01*
X61492761Y-56424706D01*
X61599297Y-56384767D01*
X61607705Y-56381615D01*
X61724261Y-56294261D01*
X61811615Y-56177705D01*
X61862745Y-56041316D01*
X61869500Y-55979134D01*
X61869500Y-54182866D01*
X61862745Y-54120684D01*
X61811615Y-53984295D01*
X61724261Y-53867739D01*
X61607705Y-53780385D01*
X61471316Y-53729255D01*
X61409134Y-53722500D01*
X59612866Y-53722500D01*
X59550684Y-53729255D01*
X59414295Y-53780385D01*
X59297739Y-53867739D01*
X59210385Y-53984295D01*
X59159255Y-54120684D01*
X59152500Y-54182866D01*
X59152500Y-55979134D01*
X59159255Y-56041316D01*
X59210385Y-56177705D01*
X59297739Y-56294261D01*
X59414295Y-56381615D01*
X59422704Y-56384767D01*
X59422705Y-56384768D01*
X59531451Y-56425535D01*
X59588216Y-56468176D01*
X59612916Y-56534738D01*
X59597709Y-56604087D01*
X59578316Y-56630568D01*
X59460531Y-56753823D01*
X59451629Y-56763138D01*
X59448715Y-56767410D01*
X59448714Y-56767411D01*
X59399972Y-56838864D01*
X59325743Y-56947680D01*
X59310003Y-56981590D01*
X59240695Y-57130902D01*
X59231688Y-57150305D01*
X59171989Y-57365570D01*
X59148251Y-57587695D01*
X56167800Y-57587695D01*
X56167800Y-51191695D01*
X149677251Y-51191695D01*
X149677548Y-51196848D01*
X149677548Y-51196851D01*
X149683011Y-51291590D01*
X149690110Y-51414715D01*
X149691247Y-51419761D01*
X149691248Y-51419767D01*
X149711119Y-51507939D01*
X149739222Y-51632639D01*
X149823266Y-51839616D01*
X149939987Y-52030088D01*
X150086250Y-52198938D01*
X150258126Y-52341632D01*
X150451000Y-52454338D01*
X150659692Y-52534030D01*
X150664760Y-52535061D01*
X150664763Y-52535062D01*
X150772017Y-52556883D01*
X150878597Y-52578567D01*
X150883772Y-52578757D01*
X150883774Y-52578757D01*
X151096673Y-52586564D01*
X151096677Y-52586564D01*
X151101837Y-52586753D01*
X151106957Y-52586097D01*
X151106959Y-52586097D01*
X151318288Y-52559025D01*
X151318289Y-52559025D01*
X151323416Y-52558368D01*
X151328366Y-52556883D01*
X151532429Y-52495661D01*
X151532434Y-52495659D01*
X151537384Y-52494174D01*
X151737994Y-52395896D01*
X151919860Y-52266173D01*
X152078096Y-52108489D01*
X152137594Y-52025689D01*
X152205435Y-51931277D01*
X152208453Y-51927077D01*
X152307430Y-51726811D01*
X152372370Y-51513069D01*
X152401529Y-51291590D01*
X152403156Y-51225000D01*
X152384852Y-51002361D01*
X152330431Y-50785702D01*
X152241354Y-50580840D01*
X152120014Y-50393277D01*
X152116532Y-50389450D01*
X151972798Y-50231488D01*
X151941746Y-50167642D01*
X151950141Y-50097143D01*
X151995317Y-50042375D01*
X152021761Y-50028706D01*
X152128297Y-49988767D01*
X152136705Y-49985615D01*
X152253261Y-49898261D01*
X152340615Y-49781705D01*
X152391745Y-49645316D01*
X152398500Y-49583134D01*
X152398500Y-47786866D01*
X152391745Y-47724684D01*
X152340615Y-47588295D01*
X152253261Y-47471739D01*
X152136705Y-47384385D01*
X152000316Y-47333255D01*
X151938134Y-47326500D01*
X150141866Y-47326500D01*
X150079684Y-47333255D01*
X149943295Y-47384385D01*
X149826739Y-47471739D01*
X149739385Y-47588295D01*
X149688255Y-47724684D01*
X149681500Y-47786866D01*
X149681500Y-49583134D01*
X149688255Y-49645316D01*
X149739385Y-49781705D01*
X149826739Y-49898261D01*
X149943295Y-49985615D01*
X149951704Y-49988767D01*
X149951705Y-49988768D01*
X150060451Y-50029535D01*
X150117216Y-50072176D01*
X150141916Y-50138738D01*
X150126709Y-50208087D01*
X150107316Y-50234568D01*
X149980629Y-50367138D01*
X149854743Y-50551680D01*
X149760688Y-50754305D01*
X149700989Y-50969570D01*
X149677251Y-51191695D01*
X56167800Y-51191695D01*
X56167800Y-41645695D01*
X59157451Y-41645695D01*
X59157748Y-41650848D01*
X59157748Y-41650851D01*
X59166440Y-41801590D01*
X59170310Y-41868715D01*
X59171447Y-41873761D01*
X59171448Y-41873767D01*
X59182667Y-41923547D01*
X59219422Y-42086639D01*
X59303466Y-42293616D01*
X59342933Y-42358020D01*
X59396404Y-42445277D01*
X59420187Y-42484088D01*
X59566450Y-42652938D01*
X59570430Y-42656242D01*
X59575181Y-42660187D01*
X59614816Y-42719090D01*
X59616313Y-42790071D01*
X59579197Y-42850593D01*
X59538924Y-42875112D01*
X59423495Y-42918385D01*
X59306939Y-43005739D01*
X59219585Y-43122295D01*
X59168455Y-43258684D01*
X59161700Y-43320866D01*
X59161700Y-45117134D01*
X59168455Y-45179316D01*
X59219585Y-45315705D01*
X59306939Y-45432261D01*
X59423495Y-45519615D01*
X59559884Y-45570745D01*
X59622066Y-45577500D01*
X61418334Y-45577500D01*
X61480516Y-45570745D01*
X61616905Y-45519615D01*
X61733461Y-45432261D01*
X61820815Y-45315705D01*
X61871945Y-45179316D01*
X61878700Y-45117134D01*
X61878700Y-43320866D01*
X61871945Y-43258684D01*
X61820815Y-43122295D01*
X61733461Y-43005739D01*
X61616905Y-42918385D01*
X61583591Y-42905896D01*
X61498403Y-42873960D01*
X61441639Y-42831318D01*
X61416939Y-42764756D01*
X61432147Y-42695408D01*
X61453693Y-42666727D01*
X61502100Y-42618489D01*
X61558296Y-42562489D01*
X61571519Y-42544088D01*
X61685635Y-42385277D01*
X61688653Y-42381077D01*
X61700049Y-42358020D01*
X61785336Y-42185453D01*
X61785337Y-42185451D01*
X61787630Y-42180811D01*
X61835899Y-42021939D01*
X61851065Y-41972023D01*
X61851065Y-41972021D01*
X61852570Y-41967069D01*
X61881729Y-41745590D01*
X61882704Y-41705695D01*
X82077451Y-41705695D01*
X82077748Y-41710848D01*
X82077748Y-41710851D01*
X82087142Y-41873767D01*
X82090310Y-41928715D01*
X82091447Y-41933761D01*
X82091448Y-41933767D01*
X82100070Y-41972023D01*
X82139422Y-42146639D01*
X82223466Y-42353616D01*
X82340187Y-42544088D01*
X82486450Y-42712938D01*
X82490430Y-42716242D01*
X82495181Y-42720187D01*
X82534816Y-42779090D01*
X82536313Y-42850071D01*
X82499197Y-42910593D01*
X82458925Y-42935112D01*
X82401326Y-42956705D01*
X82343495Y-42978385D01*
X82226939Y-43065739D01*
X82139585Y-43182295D01*
X82088455Y-43318684D01*
X82081700Y-43380866D01*
X82081700Y-45177134D01*
X82088455Y-45239316D01*
X82139585Y-45375705D01*
X82226939Y-45492261D01*
X82343495Y-45579615D01*
X82479884Y-45630745D01*
X82542066Y-45637500D01*
X84338334Y-45637500D01*
X84400516Y-45630745D01*
X84536905Y-45579615D01*
X84653461Y-45492261D01*
X84740815Y-45375705D01*
X84791945Y-45239316D01*
X84798700Y-45177134D01*
X84798700Y-43380866D01*
X84791945Y-43318684D01*
X84740815Y-43182295D01*
X84653461Y-43065739D01*
X84536905Y-42978385D01*
X84517827Y-42971233D01*
X84418403Y-42933960D01*
X84361639Y-42891318D01*
X84336939Y-42824756D01*
X84352147Y-42755408D01*
X84373693Y-42726727D01*
X84474635Y-42626137D01*
X84478296Y-42622489D01*
X84491465Y-42604163D01*
X84605635Y-42445277D01*
X84608653Y-42441077D01*
X84640600Y-42376438D01*
X84705336Y-42245453D01*
X84705337Y-42245451D01*
X84707630Y-42240811D01*
X84769650Y-42036681D01*
X84771065Y-42032023D01*
X84771065Y-42032021D01*
X84772570Y-42027069D01*
X84801729Y-41805590D01*
X84803356Y-41739000D01*
X84800289Y-41701695D01*
X92147251Y-41701695D01*
X92147548Y-41706848D01*
X92147548Y-41706851D01*
X92153011Y-41801590D01*
X92160110Y-41924715D01*
X92161247Y-41929761D01*
X92161248Y-41929767D01*
X92168499Y-41961939D01*
X92209222Y-42142639D01*
X92293266Y-42349616D01*
X92312545Y-42381077D01*
X92372975Y-42479689D01*
X92409987Y-42540088D01*
X92556250Y-42708938D01*
X92560230Y-42712242D01*
X92564981Y-42716187D01*
X92604616Y-42775090D01*
X92606113Y-42846071D01*
X92568997Y-42906593D01*
X92528725Y-42931112D01*
X92460456Y-42956705D01*
X92413295Y-42974385D01*
X92296739Y-43061739D01*
X92209385Y-43178295D01*
X92158255Y-43314684D01*
X92151500Y-43376866D01*
X92151500Y-45173134D01*
X92158255Y-45235316D01*
X92209385Y-45371705D01*
X92296739Y-45488261D01*
X92413295Y-45575615D01*
X92549684Y-45626745D01*
X92611866Y-45633500D01*
X94408134Y-45633500D01*
X94470316Y-45626745D01*
X94606705Y-45575615D01*
X94723261Y-45488261D01*
X94810615Y-45371705D01*
X94861745Y-45235316D01*
X94868500Y-45173134D01*
X94868500Y-44337095D01*
X103590251Y-44337095D01*
X103590548Y-44342248D01*
X103590548Y-44342251D01*
X103601435Y-44531059D01*
X103603110Y-44560115D01*
X103604247Y-44565161D01*
X103604248Y-44565167D01*
X103618449Y-44628178D01*
X103652222Y-44778039D01*
X103736266Y-44985016D01*
X103738965Y-44989420D01*
X103849451Y-45169717D01*
X103852987Y-45175488D01*
X103999250Y-45344338D01*
X104171126Y-45487032D01*
X104364000Y-45599738D01*
X104572692Y-45679430D01*
X104577760Y-45680461D01*
X104577763Y-45680462D01*
X104672862Y-45699810D01*
X104791597Y-45723967D01*
X104796772Y-45724157D01*
X104796774Y-45724157D01*
X105009673Y-45731964D01*
X105009677Y-45731964D01*
X105014837Y-45732153D01*
X105019957Y-45731497D01*
X105019959Y-45731497D01*
X105231288Y-45704425D01*
X105231289Y-45704425D01*
X105236416Y-45703768D01*
X105241366Y-45702283D01*
X105445429Y-45641061D01*
X105445434Y-45641059D01*
X105450384Y-45639574D01*
X105650994Y-45541296D01*
X105832860Y-45411573D01*
X105861643Y-45382891D01*
X105987435Y-45257537D01*
X105991096Y-45253889D01*
X106050594Y-45171089D01*
X106118435Y-45076677D01*
X106121453Y-45072477D01*
X106220430Y-44872211D01*
X106285370Y-44658469D01*
X106314529Y-44436990D01*
X106314611Y-44433640D01*
X106316074Y-44373765D01*
X106316074Y-44373761D01*
X106316156Y-44370400D01*
X106297852Y-44147761D01*
X106243431Y-43931102D01*
X106154354Y-43726240D01*
X106051964Y-43567969D01*
X106035822Y-43543017D01*
X106035820Y-43543014D01*
X106033014Y-43538677D01*
X106029540Y-43534859D01*
X106029533Y-43534850D01*
X105911476Y-43405107D01*
X105880424Y-43341262D01*
X105888820Y-43270763D01*
X105933997Y-43215995D01*
X105960441Y-43202326D01*
X106063295Y-43163768D01*
X106063296Y-43163767D01*
X106071705Y-43160615D01*
X106188261Y-43073261D01*
X106275615Y-42956705D01*
X106326745Y-42820316D01*
X106333500Y-42758134D01*
X106333500Y-42440000D01*
X109315654Y-42440000D01*
X109315924Y-42444119D01*
X109334447Y-42726727D01*
X109335017Y-42735426D01*
X109335819Y-42739459D01*
X109335820Y-42739465D01*
X109388786Y-43005739D01*
X109392776Y-43025797D01*
X109394103Y-43029706D01*
X109394104Y-43029710D01*
X109471384Y-43257370D01*
X109487941Y-43306145D01*
X109530092Y-43391618D01*
X109611653Y-43557007D01*
X109618885Y-43571673D01*
X109621179Y-43575106D01*
X109725487Y-43731214D01*
X109783367Y-43817838D01*
X109786081Y-43820932D01*
X109786085Y-43820938D01*
X109859692Y-43904870D01*
X109978573Y-44040427D01*
X109981662Y-44043136D01*
X110198062Y-44232915D01*
X110198068Y-44232919D01*
X110201162Y-44235633D01*
X110204588Y-44237922D01*
X110204593Y-44237926D01*
X110345329Y-44331962D01*
X110447327Y-44400115D01*
X110451026Y-44401939D01*
X110451031Y-44401942D01*
X110539896Y-44445765D01*
X110712855Y-44531059D01*
X110716760Y-44532384D01*
X110716761Y-44532385D01*
X110989290Y-44624896D01*
X110989294Y-44624897D01*
X110993203Y-44626224D01*
X110997247Y-44627028D01*
X110997253Y-44627030D01*
X111279535Y-44683180D01*
X111279541Y-44683181D01*
X111283574Y-44683983D01*
X111287679Y-44684252D01*
X111287686Y-44684253D01*
X111574881Y-44703076D01*
X111579000Y-44703346D01*
X111583119Y-44703076D01*
X111870314Y-44684253D01*
X111870321Y-44684252D01*
X111874426Y-44683983D01*
X111878459Y-44683181D01*
X111878465Y-44683180D01*
X112103758Y-44638366D01*
X143092857Y-44638366D01*
X143123165Y-44772846D01*
X143126245Y-44782675D01*
X143206370Y-44980003D01*
X143211013Y-44989194D01*
X143322294Y-45170788D01*
X143328377Y-45179099D01*
X143467813Y-45340067D01*
X143475180Y-45347283D01*
X143639034Y-45483316D01*
X143647481Y-45489231D01*
X143831356Y-45596679D01*
X143840642Y-45601129D01*
X144039601Y-45677103D01*
X144049499Y-45679979D01*
X144152850Y-45701006D01*
X144166899Y-45699810D01*
X144170600Y-45689465D01*
X144170600Y-45688917D01*
X144678600Y-45688917D01*
X144682664Y-45702759D01*
X144696078Y-45704793D01*
X144702784Y-45703934D01*
X144712862Y-45701792D01*
X144916855Y-45640591D01*
X144926442Y-45636833D01*
X145117695Y-45543139D01*
X145126545Y-45537864D01*
X145299928Y-45414192D01*
X145307800Y-45407539D01*
X145458652Y-45257212D01*
X145465330Y-45249365D01*
X145589603Y-45076420D01*
X145594913Y-45067583D01*
X145689270Y-44876667D01*
X145693069Y-44867072D01*
X145754977Y-44663310D01*
X145757155Y-44653237D01*
X145758586Y-44642362D01*
X145756375Y-44628178D01*
X145743217Y-44624400D01*
X144696715Y-44624400D01*
X144681476Y-44628875D01*
X144680271Y-44630265D01*
X144678600Y-44637948D01*
X144678600Y-45688917D01*
X144170600Y-45688917D01*
X144170600Y-44642515D01*
X144166125Y-44627276D01*
X144164735Y-44626071D01*
X144157052Y-44624400D01*
X143107825Y-44624400D01*
X143094294Y-44628373D01*
X143092857Y-44638366D01*
X112103758Y-44638366D01*
X112160747Y-44627030D01*
X112160753Y-44627028D01*
X112164797Y-44626224D01*
X112168706Y-44624897D01*
X112168710Y-44624896D01*
X112441239Y-44532385D01*
X112441240Y-44532384D01*
X112445145Y-44531059D01*
X112618104Y-44445765D01*
X112706969Y-44401942D01*
X112706974Y-44401939D01*
X112710673Y-44400115D01*
X112812671Y-44331962D01*
X112953407Y-44237926D01*
X112953412Y-44237922D01*
X112956838Y-44235633D01*
X112959932Y-44232919D01*
X112959938Y-44232915D01*
X113176338Y-44043136D01*
X113179427Y-44040427D01*
X113298308Y-43904870D01*
X113371915Y-43820938D01*
X113371919Y-43820932D01*
X113374633Y-43817838D01*
X113432514Y-43731214D01*
X113536821Y-43575106D01*
X113539115Y-43571673D01*
X113546348Y-43557007D01*
X113627908Y-43391618D01*
X113670059Y-43306145D01*
X113686616Y-43257370D01*
X113763896Y-43029710D01*
X113763897Y-43029706D01*
X113765224Y-43025797D01*
X113769214Y-43005739D01*
X113819156Y-42754669D01*
X143087001Y-42754669D01*
X143087371Y-42761490D01*
X143092895Y-42812352D01*
X143096521Y-42827604D01*
X143141676Y-42948054D01*
X143150214Y-42963649D01*
X143226715Y-43065724D01*
X143239276Y-43078285D01*
X143341351Y-43154786D01*
X143356948Y-43163325D01*
X143430491Y-43190895D01*
X143487256Y-43233536D01*
X143511956Y-43300098D01*
X143496749Y-43369447D01*
X143477356Y-43395928D01*
X143369190Y-43509117D01*
X143362704Y-43517127D01*
X143242698Y-43693049D01*
X143237600Y-43702023D01*
X143147938Y-43895183D01*
X143144375Y-43904870D01*
X143088989Y-44104583D01*
X143090512Y-44113007D01*
X143102892Y-44116400D01*
X144152485Y-44116400D01*
X144167724Y-44111925D01*
X144168929Y-44110535D01*
X144170600Y-44102852D01*
X144170600Y-44098285D01*
X144678600Y-44098285D01*
X144683075Y-44113524D01*
X144684465Y-44114729D01*
X144692148Y-44116400D01*
X145742944Y-44116400D01*
X145756475Y-44112427D01*
X145757780Y-44103347D01*
X145715814Y-43936275D01*
X145712494Y-43926524D01*
X145627572Y-43731214D01*
X145622705Y-43722139D01*
X145507026Y-43543326D01*
X145500736Y-43535157D01*
X145381803Y-43404452D01*
X145350751Y-43340606D01*
X145359146Y-43270107D01*
X145404322Y-43215339D01*
X145430767Y-43201670D01*
X145533052Y-43163325D01*
X145548649Y-43154786D01*
X145650724Y-43078285D01*
X145663285Y-43065724D01*
X145739786Y-42963649D01*
X145748324Y-42948054D01*
X145793478Y-42827606D01*
X145797105Y-42812351D01*
X145802631Y-42761486D01*
X145803000Y-42754672D01*
X145803000Y-42132115D01*
X145798525Y-42116876D01*
X145797135Y-42115671D01*
X145789452Y-42114000D01*
X144717115Y-42114000D01*
X144701876Y-42118475D01*
X144700671Y-42119865D01*
X144699000Y-42127548D01*
X144699000Y-43195255D01*
X144684322Y-43245245D01*
X144678600Y-43271548D01*
X144678600Y-44098285D01*
X144170600Y-44098285D01*
X144170600Y-43035145D01*
X144185278Y-42985155D01*
X144191000Y-42958852D01*
X144191000Y-42132115D01*
X144186525Y-42116876D01*
X144185135Y-42115671D01*
X144177452Y-42114000D01*
X143105116Y-42114000D01*
X143089877Y-42118475D01*
X143088672Y-42119865D01*
X143087001Y-42127548D01*
X143087001Y-42754669D01*
X113819156Y-42754669D01*
X113822180Y-42739465D01*
X113822181Y-42739459D01*
X113822983Y-42735426D01*
X113823554Y-42726727D01*
X113842076Y-42444119D01*
X113842346Y-42440000D01*
X113839683Y-42399370D01*
X113823253Y-42148686D01*
X113823252Y-42148679D01*
X113822983Y-42144574D01*
X113819597Y-42127548D01*
X113766030Y-41858253D01*
X113766028Y-41858247D01*
X113765224Y-41854203D01*
X113749849Y-41808908D01*
X113674822Y-41587885D01*
X143087000Y-41587885D01*
X143091475Y-41603124D01*
X143092865Y-41604329D01*
X143100548Y-41606000D01*
X144172885Y-41606000D01*
X144188124Y-41601525D01*
X144189329Y-41600135D01*
X144191000Y-41592452D01*
X144191000Y-41587885D01*
X144699000Y-41587885D01*
X144703475Y-41603124D01*
X144704865Y-41604329D01*
X144712548Y-41606000D01*
X145784884Y-41606000D01*
X145800123Y-41601525D01*
X145801328Y-41600135D01*
X145802999Y-41592452D01*
X145802999Y-40965331D01*
X145802629Y-40958510D01*
X145797105Y-40907648D01*
X145793479Y-40892396D01*
X145748324Y-40771946D01*
X145739786Y-40756351D01*
X145663285Y-40654276D01*
X145650724Y-40641715D01*
X145548649Y-40565214D01*
X145533054Y-40556676D01*
X145412606Y-40511522D01*
X145397351Y-40507895D01*
X145346486Y-40502369D01*
X145339672Y-40502000D01*
X144717115Y-40502000D01*
X144701876Y-40506475D01*
X144700671Y-40507865D01*
X144699000Y-40515548D01*
X144699000Y-41587885D01*
X144191000Y-41587885D01*
X144191000Y-40520116D01*
X144186525Y-40504877D01*
X144185135Y-40503672D01*
X144177452Y-40502001D01*
X143550331Y-40502001D01*
X143543510Y-40502371D01*
X143492648Y-40507895D01*
X143477396Y-40511521D01*
X143356946Y-40556676D01*
X143341351Y-40565214D01*
X143239276Y-40641715D01*
X143226715Y-40654276D01*
X143150214Y-40756351D01*
X143141676Y-40771946D01*
X143096522Y-40892394D01*
X143092895Y-40907649D01*
X143087369Y-40958514D01*
X143087000Y-40965328D01*
X143087000Y-41587885D01*
X113674822Y-41587885D01*
X113671385Y-41577761D01*
X113671384Y-41577760D01*
X113670059Y-41573855D01*
X113539115Y-41308327D01*
X113472283Y-41208305D01*
X113376926Y-41065593D01*
X113376922Y-41065588D01*
X113374633Y-41062162D01*
X113371919Y-41059068D01*
X113371915Y-41059062D01*
X113182136Y-40842662D01*
X113179427Y-40839573D01*
X113154145Y-40817401D01*
X112959938Y-40647085D01*
X112959932Y-40647081D01*
X112956838Y-40644367D01*
X112953412Y-40642078D01*
X112953407Y-40642074D01*
X112769595Y-40519256D01*
X112710673Y-40479885D01*
X112706974Y-40478061D01*
X112706969Y-40478058D01*
X112505693Y-40378800D01*
X112445145Y-40348941D01*
X112368136Y-40322800D01*
X112168710Y-40255104D01*
X112168706Y-40255103D01*
X112164797Y-40253776D01*
X112160753Y-40252972D01*
X112160747Y-40252970D01*
X111878465Y-40196820D01*
X111878459Y-40196819D01*
X111874426Y-40196017D01*
X111870321Y-40195748D01*
X111870314Y-40195747D01*
X111583119Y-40176924D01*
X111579000Y-40176654D01*
X111574881Y-40176924D01*
X111287686Y-40195747D01*
X111287679Y-40195748D01*
X111283574Y-40196017D01*
X111279541Y-40196819D01*
X111279535Y-40196820D01*
X110997253Y-40252970D01*
X110997247Y-40252972D01*
X110993203Y-40253776D01*
X110989294Y-40255103D01*
X110989290Y-40255104D01*
X110789864Y-40322800D01*
X110712855Y-40348941D01*
X110652307Y-40378800D01*
X110451031Y-40478058D01*
X110451026Y-40478061D01*
X110447327Y-40479885D01*
X110388405Y-40519256D01*
X110204593Y-40642074D01*
X110204588Y-40642078D01*
X110201162Y-40644367D01*
X110198068Y-40647081D01*
X110198062Y-40647085D01*
X110003855Y-40817401D01*
X109978573Y-40839573D01*
X109975864Y-40842662D01*
X109786085Y-41059062D01*
X109786081Y-41059068D01*
X109783367Y-41062162D01*
X109781078Y-41065588D01*
X109781074Y-41065593D01*
X109685717Y-41208305D01*
X109618885Y-41308327D01*
X109487941Y-41573855D01*
X109486616Y-41577760D01*
X109486615Y-41577761D01*
X109408152Y-41808908D01*
X109392776Y-41854203D01*
X109391972Y-41858247D01*
X109391970Y-41858253D01*
X109338404Y-42127548D01*
X109335017Y-42144574D01*
X109334748Y-42148679D01*
X109334747Y-42148686D01*
X109318317Y-42399370D01*
X109315654Y-42440000D01*
X106333500Y-42440000D01*
X106333500Y-40961866D01*
X106326745Y-40899684D01*
X106275615Y-40763295D01*
X106188261Y-40646739D01*
X106071705Y-40559385D01*
X105935316Y-40508255D01*
X105873134Y-40501500D01*
X104076866Y-40501500D01*
X104014684Y-40508255D01*
X103878295Y-40559385D01*
X103761739Y-40646739D01*
X103674385Y-40763295D01*
X103623255Y-40899684D01*
X103616500Y-40961866D01*
X103616500Y-42758134D01*
X103623255Y-42820316D01*
X103674385Y-42956705D01*
X103761739Y-43073261D01*
X103878295Y-43160615D01*
X103886703Y-43163767D01*
X103958429Y-43190656D01*
X104015193Y-43233298D01*
X104039893Y-43299859D01*
X104024686Y-43369208D01*
X104005294Y-43395687D01*
X103893629Y-43512538D01*
X103890715Y-43516810D01*
X103890714Y-43516811D01*
X103853290Y-43571673D01*
X103767743Y-43697080D01*
X103673688Y-43899705D01*
X103613989Y-44114970D01*
X103590251Y-44337095D01*
X94868500Y-44337095D01*
X94868500Y-43376866D01*
X94861745Y-43314684D01*
X94810615Y-43178295D01*
X94723261Y-43061739D01*
X94606705Y-42974385D01*
X94594132Y-42969672D01*
X94488203Y-42929960D01*
X94431439Y-42887318D01*
X94406739Y-42820756D01*
X94421947Y-42751408D01*
X94443493Y-42722727D01*
X94544435Y-42622137D01*
X94548096Y-42618489D01*
X94607594Y-42535689D01*
X94675435Y-42441277D01*
X94678453Y-42437077D01*
X94708423Y-42376438D01*
X94775136Y-42241453D01*
X94775137Y-42241451D01*
X94777430Y-42236811D01*
X94842370Y-42023069D01*
X94871529Y-41801590D01*
X94873156Y-41735000D01*
X94854852Y-41512361D01*
X94800431Y-41295702D01*
X94711354Y-41090840D01*
X94630157Y-40965328D01*
X94592822Y-40907617D01*
X94592820Y-40907614D01*
X94590014Y-40903277D01*
X94439670Y-40738051D01*
X94435619Y-40734852D01*
X94435615Y-40734848D01*
X94268414Y-40602800D01*
X94268410Y-40602798D01*
X94264359Y-40599598D01*
X94234506Y-40583118D01*
X94191513Y-40559385D01*
X94068789Y-40491638D01*
X94063920Y-40489914D01*
X94063916Y-40489912D01*
X93863087Y-40418795D01*
X93863083Y-40418794D01*
X93858212Y-40417069D01*
X93853119Y-40416162D01*
X93853116Y-40416161D01*
X93643373Y-40378800D01*
X93643367Y-40378799D01*
X93638284Y-40377894D01*
X93564452Y-40376992D01*
X93420081Y-40375228D01*
X93420079Y-40375228D01*
X93414911Y-40375165D01*
X93194091Y-40408955D01*
X92981756Y-40478357D01*
X92935626Y-40502371D01*
X92814906Y-40565214D01*
X92783607Y-40581507D01*
X92779474Y-40584610D01*
X92779471Y-40584612D01*
X92609100Y-40712530D01*
X92604965Y-40715635D01*
X92586605Y-40734848D01*
X92500061Y-40825411D01*
X92450629Y-40877138D01*
X92447715Y-40881410D01*
X92447714Y-40881411D01*
X92429890Y-40907540D01*
X92324743Y-41061680D01*
X92309351Y-41094840D01*
X92258862Y-41203610D01*
X92230688Y-41264305D01*
X92170989Y-41479570D01*
X92147251Y-41701695D01*
X84800289Y-41701695D01*
X84785052Y-41516361D01*
X84730631Y-41299702D01*
X84641554Y-41094840D01*
X84520214Y-40907277D01*
X84369870Y-40742051D01*
X84365819Y-40738852D01*
X84365815Y-40738848D01*
X84198614Y-40606800D01*
X84198610Y-40606798D01*
X84194559Y-40603598D01*
X83998989Y-40495638D01*
X83994120Y-40493914D01*
X83994116Y-40493912D01*
X83793287Y-40422795D01*
X83793283Y-40422794D01*
X83788412Y-40421069D01*
X83783319Y-40420162D01*
X83783316Y-40420161D01*
X83573573Y-40382800D01*
X83573567Y-40382799D01*
X83568484Y-40381894D01*
X83494652Y-40380992D01*
X83350281Y-40379228D01*
X83350279Y-40379228D01*
X83345111Y-40379165D01*
X83124291Y-40412955D01*
X82911956Y-40482357D01*
X82713807Y-40585507D01*
X82709674Y-40588610D01*
X82709671Y-40588612D01*
X82539300Y-40716530D01*
X82535165Y-40719635D01*
X82489902Y-40767000D01*
X82388223Y-40873401D01*
X82380829Y-40881138D01*
X82377915Y-40885410D01*
X82377914Y-40885411D01*
X82368178Y-40899684D01*
X82254943Y-41065680D01*
X82207915Y-41166993D01*
X82171836Y-41244720D01*
X82160888Y-41268305D01*
X82101189Y-41483570D01*
X82077451Y-41705695D01*
X61882704Y-41705695D01*
X61883274Y-41682365D01*
X61883274Y-41682361D01*
X61883356Y-41679000D01*
X61865052Y-41456361D01*
X61810631Y-41239702D01*
X61721554Y-41034840D01*
X61674345Y-40961866D01*
X61603022Y-40851617D01*
X61603020Y-40851614D01*
X61600214Y-40847277D01*
X61449870Y-40682051D01*
X61445819Y-40678852D01*
X61445815Y-40678848D01*
X61278614Y-40546800D01*
X61278610Y-40546798D01*
X61274559Y-40543598D01*
X61078989Y-40435638D01*
X61074120Y-40433914D01*
X61074116Y-40433912D01*
X60873287Y-40362795D01*
X60873283Y-40362794D01*
X60868412Y-40361069D01*
X60863319Y-40360162D01*
X60863316Y-40360161D01*
X60653573Y-40322800D01*
X60653567Y-40322799D01*
X60648484Y-40321894D01*
X60574652Y-40320992D01*
X60430281Y-40319228D01*
X60430279Y-40319228D01*
X60425111Y-40319165D01*
X60204291Y-40352955D01*
X59991956Y-40422357D01*
X59961643Y-40438137D01*
X59835752Y-40503672D01*
X59793807Y-40525507D01*
X59789674Y-40528610D01*
X59789671Y-40528612D01*
X59619300Y-40656530D01*
X59615165Y-40659635D01*
X59549546Y-40728301D01*
X59512565Y-40767000D01*
X59460829Y-40821138D01*
X59457915Y-40825410D01*
X59457914Y-40825411D01*
X59404798Y-40903277D01*
X59334943Y-41005680D01*
X59240888Y-41208305D01*
X59181189Y-41423570D01*
X59157451Y-41645695D01*
X56167800Y-41645695D01*
X56167800Y-36894500D01*
X56187802Y-36826379D01*
X56241458Y-36779886D01*
X56293800Y-36768500D01*
X149297213Y-36768500D01*
X149365334Y-36788502D01*
G37*
G04 #@! TD.AperFunction*
M02*
