M48
; DRILL file {KiCad (6.0.10)} date Mon Feb  6 13:43:28 2023
; FORMAT={-:-/ absolute / metric / decimal}
; #@! TF.CreationDate,2023-02-06T13:43:28-03:00
; #@! TF.GenerationSoftware,Kicad,Pcbnew,(6.0.10)
; #@! TF.FileFunction,Plated,1,2,PTH
FMAT,2
METRIC
; #@! TA.AperFunction,Plated,PTH,ComponentDrill
T1C1.000
; #@! TA.AperFunction,Plated,PTH,ComponentDrill
T2C3.500
%
G90
G05
T1
X60.511Y-55.081
X60.511Y-57.621
X60.52Y-41.679
X60.52Y-44.219
X69.885Y-63.9
X72.425Y-63.9
X83.44Y-41.739
X83.44Y-44.279
X83.473Y-55.03
X83.473Y-57.57
X93.51Y-41.735
X93.51Y-44.275
X104.75Y-68.45
X104.953Y-44.37
X104.953Y-56.766
X104.975Y-41.86
X104.975Y-59.31
X107.29Y-68.45
X109.83Y-68.45
X112.37Y-68.45
X121.65Y-68.5
X124.19Y-68.5
X126.73Y-68.5
X129.27Y-68.5
X138.049Y-68.5
X140.589Y-68.5
X143.129Y-68.5
X144.425Y-44.37
X144.425Y-56.461
X144.445Y-41.86
X144.445Y-59.005
X145.669Y-68.5
X151.04Y-48.685
X151.04Y-51.225
T2
X60.071Y-66.243
X98.882Y-124.308
X150.749Y-40.767
T0
M30
