G04 #@! TF.GenerationSoftware,KiCad,Pcbnew,(6.0.10)*
G04 #@! TF.CreationDate,2023-02-06T13:43:24-03:00*
G04 #@! TF.ProjectId,PowerSupply_HW,506f7765-7253-4757-9070-6c795f48572e,rev?*
G04 #@! TF.SameCoordinates,Original*
G04 #@! TF.FileFunction,Soldermask,Top*
G04 #@! TF.FilePolarity,Negative*
%FSLAX46Y46*%
G04 Gerber Fmt 4.6, Leading zero omitted, Abs format (unit mm)*
G04 Created by KiCad (PCBNEW (6.0.10)) date 2023-02-06 13:43:24*
%MOMM*%
%LPD*%
G01*
G04 APERTURE LIST*
G04 Aperture macros list*
%AMRoundRect*
0 Rectangle with rounded corners*
0 $1 Rounding radius*
0 $2 $3 $4 $5 $6 $7 $8 $9 X,Y pos of 4 corners*
0 Add a 4 corners polygon primitive as box body*
4,1,4,$2,$3,$4,$5,$6,$7,$8,$9,$2,$3,0*
0 Add four circle primitives for the rounded corners*
1,1,$1+$1,$2,$3*
1,1,$1+$1,$4,$5*
1,1,$1+$1,$6,$7*
1,1,$1+$1,$8,$9*
0 Add four rect primitives between the rounded corners*
20,1,$1+$1,$2,$3,$4,$5,0*
20,1,$1+$1,$4,$5,$6,$7,0*
20,1,$1+$1,$6,$7,$8,$9,0*
20,1,$1+$1,$8,$9,$2,$3,0*%
G04 Aperture macros list end*
%ADD10C,7.000000*%
%ADD11RoundRect,0.250000X-0.450000X0.350000X-0.450000X-0.350000X0.450000X-0.350000X0.450000X0.350000X0*%
%ADD12R,1.700000X1.700000*%
%ADD13O,1.700000X1.700000*%
%ADD14RoundRect,0.250000X0.350000X0.450000X-0.350000X0.450000X-0.350000X-0.450000X0.350000X-0.450000X0*%
G04 APERTURE END LIST*
D10*
X150749000Y-40767000D03*
D11*
X73310000Y-67370000D03*
X73310000Y-69370000D03*
D12*
X151040000Y-48685000D03*
D13*
X151040000Y-51225000D03*
D10*
X98882200Y-124307600D03*
D12*
X112370000Y-68450000D03*
D13*
X109830000Y-68450000D03*
X107290000Y-68450000D03*
X104750000Y-68450000D03*
D10*
X60071000Y-66243200D03*
D14*
X78250000Y-63980000D03*
X76250000Y-63980000D03*
D12*
X138049000Y-68500000D03*
D13*
X140589000Y-68500000D03*
X143129000Y-68500000D03*
X145669000Y-68500000D03*
D12*
X69885000Y-63900000D03*
D13*
X72425000Y-63900000D03*
D12*
X60520200Y-44219000D03*
D13*
X60520200Y-41679000D03*
D12*
X60511000Y-55081000D03*
D13*
X60511000Y-57621000D03*
X83440200Y-41739000D03*
D12*
X83440200Y-44279000D03*
D13*
X83472600Y-57570200D03*
D12*
X83472600Y-55030200D03*
X121650000Y-68500000D03*
D13*
X124190000Y-68500000D03*
X126730000Y-68500000D03*
X129270000Y-68500000D03*
D12*
X93510000Y-44275000D03*
D13*
X93510000Y-41735000D03*
D11*
X69860000Y-67310000D03*
X69860000Y-69310000D03*
D12*
X104975000Y-41860000D03*
D13*
X104953000Y-44370400D03*
X104953000Y-56765600D03*
D12*
X104975000Y-59310000D03*
X144445000Y-59005000D03*
D13*
X144424600Y-56460800D03*
D12*
X144445000Y-41860000D03*
D13*
X144424600Y-44370400D03*
M02*
