G04 #@! TF.GenerationSoftware,KiCad,Pcbnew,(6.0.10)*
G04 #@! TF.CreationDate,2023-02-06T13:43:24-03:00*
G04 #@! TF.ProjectId,PowerSupply_HW,506f7765-7253-4757-9070-6c795f48572e,rev?*
G04 #@! TF.SameCoordinates,Original*
G04 #@! TF.FileFunction,Legend,Bot*
G04 #@! TF.FilePolarity,Positive*
%FSLAX46Y46*%
G04 Gerber Fmt 4.6, Leading zero omitted, Abs format (unit mm)*
G04 Created by KiCad (PCBNEW (6.0.10)) date 2023-02-06 13:43:24*
%MOMM*%
%LPD*%
G01*
G04 APERTURE LIST*
G04 Aperture macros list*
%AMRoundRect*
0 Rectangle with rounded corners*
0 $1 Rounding radius*
0 $2 $3 $4 $5 $6 $7 $8 $9 X,Y pos of 4 corners*
0 Add a 4 corners polygon primitive as box body*
4,1,4,$2,$3,$4,$5,$6,$7,$8,$9,$2,$3,0*
0 Add four circle primitives for the rounded corners*
1,1,$1+$1,$2,$3*
1,1,$1+$1,$4,$5*
1,1,$1+$1,$6,$7*
1,1,$1+$1,$8,$9*
0 Add four rect primitives between the rounded corners*
20,1,$1+$1,$2,$3,$4,$5,0*
20,1,$1+$1,$4,$5,$6,$7,0*
20,1,$1+$1,$6,$7,$8,$9,0*
20,1,$1+$1,$8,$9,$2,$3,0*%
G04 Aperture macros list end*
%ADD10C,0.150000*%
%ADD11C,0.120000*%
%ADD12C,7.000000*%
%ADD13R,1.700000X1.700000*%
%ADD14O,1.700000X1.700000*%
%ADD15RoundRect,0.250000X-0.475000X0.250000X-0.475000X-0.250000X0.475000X-0.250000X0.475000X0.250000X0*%
%ADD16RoundRect,0.250000X0.475000X-0.250000X0.475000X0.250000X-0.475000X0.250000X-0.475000X-0.250000X0*%
G04 APERTURE END LIST*
D10*
X78297142Y-42087142D02*
X78344761Y-42039523D01*
X78392380Y-41896666D01*
X78392380Y-41801428D01*
X78344761Y-41658571D01*
X78249523Y-41563333D01*
X78154285Y-41515714D01*
X77963809Y-41468095D01*
X77820952Y-41468095D01*
X77630476Y-41515714D01*
X77535238Y-41563333D01*
X77440000Y-41658571D01*
X77392380Y-41801428D01*
X77392380Y-41896666D01*
X77440000Y-42039523D01*
X77487619Y-42087142D01*
X78392380Y-43039523D02*
X78392380Y-42468095D01*
X78392380Y-42753809D02*
X77392380Y-42753809D01*
X77535238Y-42658571D01*
X77630476Y-42563333D01*
X77678095Y-42468095D01*
X78392380Y-43991904D02*
X78392380Y-43420476D01*
X78392380Y-43706190D02*
X77392380Y-43706190D01*
X77535238Y-43610952D01*
X77630476Y-43515714D01*
X77678095Y-43420476D01*
X81677142Y-56107142D02*
X81724761Y-56059523D01*
X81772380Y-55916666D01*
X81772380Y-55821428D01*
X81724761Y-55678571D01*
X81629523Y-55583333D01*
X81534285Y-55535714D01*
X81343809Y-55488095D01*
X81200952Y-55488095D01*
X81010476Y-55535714D01*
X80915238Y-55583333D01*
X80820000Y-55678571D01*
X80772380Y-55821428D01*
X80772380Y-55916666D01*
X80820000Y-56059523D01*
X80867619Y-56107142D01*
X81772380Y-57059523D02*
X81772380Y-56488095D01*
X81772380Y-56773809D02*
X80772380Y-56773809D01*
X80915238Y-56678571D01*
X81010476Y-56583333D01*
X81058095Y-56488095D01*
X80867619Y-57440476D02*
X80820000Y-57488095D01*
X80772380Y-57583333D01*
X80772380Y-57821428D01*
X80820000Y-57916666D01*
X80867619Y-57964285D01*
X80962857Y-58011904D01*
X81058095Y-58011904D01*
X81200952Y-57964285D01*
X81772380Y-57392857D01*
X81772380Y-58011904D01*
X146457142Y-49607142D02*
X146504761Y-49559523D01*
X146552380Y-49416666D01*
X146552380Y-49321428D01*
X146504761Y-49178571D01*
X146409523Y-49083333D01*
X146314285Y-49035714D01*
X146123809Y-48988095D01*
X145980952Y-48988095D01*
X145790476Y-49035714D01*
X145695238Y-49083333D01*
X145600000Y-49178571D01*
X145552380Y-49321428D01*
X145552380Y-49416666D01*
X145600000Y-49559523D01*
X145647619Y-49607142D01*
X146552380Y-50559523D02*
X146552380Y-49988095D01*
X146552380Y-50273809D02*
X145552380Y-50273809D01*
X145695238Y-50178571D01*
X145790476Y-50083333D01*
X145838095Y-49988095D01*
X145552380Y-50892857D02*
X145552380Y-51511904D01*
X145933333Y-51178571D01*
X145933333Y-51321428D01*
X145980952Y-51416666D01*
X146028571Y-51464285D01*
X146123809Y-51511904D01*
X146361904Y-51511904D01*
X146457142Y-51464285D01*
X146504761Y-51416666D01*
X146552380Y-51321428D01*
X146552380Y-51035714D01*
X146504761Y-50940476D01*
X146457142Y-50892857D01*
D11*
X78885000Y-42468748D02*
X78885000Y-42991252D01*
X80355000Y-42468748D02*
X80355000Y-42991252D01*
X80375000Y-57011252D02*
X80375000Y-56488748D01*
X78905000Y-57011252D02*
X78905000Y-56488748D01*
X143685000Y-50511252D02*
X143685000Y-49988748D01*
X145155000Y-50511252D02*
X145155000Y-49988748D01*
%LPC*%
D12*
X150749000Y-40767000D03*
D13*
X151040000Y-48685000D03*
D14*
X151040000Y-51225000D03*
D12*
X98882200Y-124307600D03*
D13*
X112370000Y-68450000D03*
D14*
X109830000Y-68450000D03*
X107290000Y-68450000D03*
X104750000Y-68450000D03*
D12*
X60071000Y-66243200D03*
D13*
X138049000Y-68500000D03*
D14*
X140589000Y-68500000D03*
X143129000Y-68500000D03*
X145669000Y-68500000D03*
D13*
X69885000Y-63900000D03*
D14*
X72425000Y-63900000D03*
D13*
X60520200Y-44219000D03*
D14*
X60520200Y-41679000D03*
D13*
X60511000Y-55081000D03*
D14*
X60511000Y-57621000D03*
X83440200Y-41739000D03*
D13*
X83440200Y-44279000D03*
D14*
X83472600Y-57570200D03*
D13*
X83472600Y-55030200D03*
X121650000Y-68500000D03*
D14*
X124190000Y-68500000D03*
X126730000Y-68500000D03*
X129270000Y-68500000D03*
D13*
X93510000Y-44275000D03*
D14*
X93510000Y-41735000D03*
D13*
X104975000Y-41860000D03*
D14*
X104953000Y-44370400D03*
X104953000Y-56765600D03*
D13*
X104975000Y-59310000D03*
X144445000Y-59005000D03*
D14*
X144424600Y-56460800D03*
D13*
X144445000Y-41860000D03*
D14*
X144424600Y-44370400D03*
D15*
X79620000Y-41780000D03*
X79620000Y-43680000D03*
D16*
X79640000Y-57700000D03*
X79640000Y-55800000D03*
X144420000Y-51200000D03*
X144420000Y-49300000D03*
M02*
