G04 #@! TF.GenerationSoftware,KiCad,Pcbnew,(6.0.10)*
G04 #@! TF.CreationDate,2023-02-06T13:43:24-03:00*
G04 #@! TF.ProjectId,PowerSupply_HW,506f7765-7253-4757-9070-6c795f48572e,rev?*
G04 #@! TF.SameCoordinates,Original*
G04 #@! TF.FileFunction,Copper,L2,Bot*
G04 #@! TF.FilePolarity,Positive*
%FSLAX46Y46*%
G04 Gerber Fmt 4.6, Leading zero omitted, Abs format (unit mm)*
G04 Created by KiCad (PCBNEW (6.0.10)) date 2023-02-06 13:43:24*
%MOMM*%
%LPD*%
G01*
G04 APERTURE LIST*
G04 Aperture macros list*
%AMRoundRect*
0 Rectangle with rounded corners*
0 $1 Rounding radius*
0 $2 $3 $4 $5 $6 $7 $8 $9 X,Y pos of 4 corners*
0 Add a 4 corners polygon primitive as box body*
4,1,4,$2,$3,$4,$5,$6,$7,$8,$9,$2,$3,0*
0 Add four circle primitives for the rounded corners*
1,1,$1+$1,$2,$3*
1,1,$1+$1,$4,$5*
1,1,$1+$1,$6,$7*
1,1,$1+$1,$8,$9*
0 Add four rect primitives between the rounded corners*
20,1,$1+$1,$2,$3,$4,$5,0*
20,1,$1+$1,$4,$5,$6,$7,0*
20,1,$1+$1,$6,$7,$8,$9,0*
20,1,$1+$1,$8,$9,$2,$3,0*%
G04 Aperture macros list end*
G04 #@! TA.AperFunction,ComponentPad*
%ADD10C,7.000000*%
G04 #@! TD*
G04 #@! TA.AperFunction,ComponentPad*
%ADD11R,1.700000X1.700000*%
G04 #@! TD*
G04 #@! TA.AperFunction,ComponentPad*
%ADD12O,1.700000X1.700000*%
G04 #@! TD*
G04 #@! TA.AperFunction,WasherPad*
%ADD13C,3.500000*%
G04 #@! TD*
G04 #@! TA.AperFunction,SMDPad,CuDef*
%ADD14RoundRect,0.250000X-0.475000X0.250000X-0.475000X-0.250000X0.475000X-0.250000X0.475000X0.250000X0*%
G04 #@! TD*
G04 #@! TA.AperFunction,SMDPad,CuDef*
%ADD15RoundRect,0.250000X0.475000X-0.250000X0.475000X0.250000X-0.475000X0.250000X-0.475000X-0.250000X0*%
G04 #@! TD*
G04 #@! TA.AperFunction,Conductor*
%ADD16C,1.500000*%
G04 #@! TD*
G04 #@! TA.AperFunction,Conductor*
%ADD17C,1.000000*%
G04 #@! TD*
G04 APERTURE END LIST*
D10*
X150749000Y-40767000D03*
D11*
X151040000Y-48685000D03*
D12*
X151040000Y-51225000D03*
D10*
X98882200Y-124307600D03*
D11*
X112370000Y-68450000D03*
D12*
X109830000Y-68450000D03*
X107290000Y-68450000D03*
X104750000Y-68450000D03*
D10*
X60071000Y-66243200D03*
D11*
X138049000Y-68500000D03*
D12*
X140589000Y-68500000D03*
X143129000Y-68500000D03*
X145669000Y-68500000D03*
D11*
X69885000Y-63900000D03*
D12*
X72425000Y-63900000D03*
D11*
X60520200Y-44219000D03*
D12*
X60520200Y-41679000D03*
D11*
X60511000Y-55081000D03*
D12*
X60511000Y-57621000D03*
X83440200Y-41739000D03*
D11*
X83440200Y-44279000D03*
D12*
X83472600Y-57570200D03*
D11*
X83472600Y-55030200D03*
X121650000Y-68500000D03*
D12*
X124190000Y-68500000D03*
X126730000Y-68500000D03*
X129270000Y-68500000D03*
D11*
X93510000Y-44275000D03*
D12*
X93510000Y-41735000D03*
D13*
X111579000Y-42440000D03*
X137841000Y-58442000D03*
D11*
X104975000Y-41860000D03*
D12*
X104953000Y-44370400D03*
X104953000Y-56765600D03*
D11*
X104975000Y-59310000D03*
X144445000Y-59005000D03*
D12*
X144424600Y-56460800D03*
D11*
X144445000Y-41860000D03*
D12*
X144424600Y-44370400D03*
D14*
X79620000Y-41780000D03*
X79620000Y-43680000D03*
D15*
X79640000Y-57700000D03*
X79640000Y-55800000D03*
X144420000Y-51200000D03*
X144420000Y-49300000D03*
D16*
X78130000Y-46680000D02*
X82080000Y-46680000D01*
X83440200Y-45319800D02*
X83440200Y-44279000D01*
X69885000Y-54925000D02*
X78130000Y-46680000D01*
X82080000Y-46680000D02*
X83440200Y-45319800D01*
X69885000Y-63900000D02*
X69885000Y-54925000D01*
X72425000Y-57355000D02*
X77400000Y-52380000D01*
X83472600Y-53242600D02*
X83472600Y-55030200D01*
X72425000Y-63900000D02*
X72425000Y-57355000D01*
X82610000Y-52380000D02*
X83472600Y-53242600D01*
X77400000Y-52380000D02*
X82610000Y-52380000D01*
D17*
X144424600Y-44370400D02*
X144424600Y-41880400D01*
X144420000Y-49300000D02*
X144420000Y-44375000D01*
X144420000Y-44375000D02*
X144424600Y-44370400D01*
X144424600Y-41880400D02*
X144445000Y-41860000D01*
X104148400Y-57570200D02*
X104953000Y-56765600D01*
X83472600Y-57570200D02*
X104148400Y-57570200D01*
X104975000Y-56787600D02*
X104953000Y-56765600D01*
X83342800Y-57700000D02*
X83472600Y-57570200D01*
X104975000Y-59310000D02*
X104975000Y-56787600D01*
X79640000Y-57700000D02*
X83342800Y-57700000D01*
X86519000Y-41739000D02*
X89055000Y-44275000D01*
X83440200Y-41739000D02*
X86519000Y-41739000D01*
X79620000Y-41780000D02*
X83399200Y-41780000D01*
X83399200Y-41780000D02*
X83440200Y-41739000D01*
X89055000Y-44275000D02*
X93510000Y-44275000D01*
X60520200Y-41679000D02*
X60520200Y-44219000D01*
X60511000Y-55081000D02*
X60511000Y-57621000D01*
D16*
X148035000Y-68500000D02*
X145669000Y-68500000D01*
X151040000Y-65495000D02*
X148035000Y-68500000D01*
X151040000Y-51225000D02*
X151040000Y-65495000D01*
X113284000Y-65405000D02*
X112370000Y-66319000D01*
X143129000Y-66294000D02*
X142240000Y-65405000D01*
D17*
X151035000Y-51200000D02*
X151070000Y-51235000D01*
D16*
X143129000Y-68500000D02*
X143129000Y-66294000D01*
X129270000Y-66945000D02*
X129270000Y-68500000D01*
X145669000Y-68500000D02*
X143129000Y-68500000D01*
X142240000Y-65405000D02*
X130810000Y-65405000D01*
X129270000Y-68500000D02*
X126730000Y-68500000D01*
X130810000Y-65405000D02*
X129270000Y-66945000D01*
X112370000Y-66319000D02*
X112370000Y-68450000D01*
X130810000Y-65405000D02*
X113284000Y-65405000D01*
D17*
X148515000Y-48685000D02*
X151040000Y-48685000D01*
X146000000Y-51200000D02*
X148515000Y-48685000D01*
X144420000Y-51200000D02*
X146000000Y-51200000D01*
X144420000Y-56456200D02*
X144424600Y-56460800D01*
X144445000Y-56481200D02*
X144424600Y-56460800D01*
X144445000Y-59005000D02*
X144445000Y-56481200D01*
X144420000Y-51200000D02*
X144420000Y-56456200D01*
X104975000Y-44348400D02*
X104953000Y-44370400D01*
X93510000Y-41735000D02*
X104850000Y-41735000D01*
X104975000Y-41860000D02*
X104975000Y-44348400D01*
X104850000Y-41735000D02*
X104975000Y-41860000D01*
G04 #@! TA.AperFunction,Conductor*
G36*
X149365334Y-36788502D02*
G01*
X149411827Y-36842158D01*
X149421931Y-36912432D01*
X149392437Y-36977012D01*
X149338650Y-37013491D01*
X149245579Y-37045902D01*
X148889638Y-37210369D01*
X148551446Y-37408785D01*
X148391444Y-37525033D01*
X148236711Y-37637453D01*
X148236705Y-37637458D01*
X148234230Y-37639256D01*
X148231944Y-37641285D01*
X148231941Y-37641288D01*
X148152123Y-37712154D01*
X147941017Y-37899583D01*
X147938938Y-37901828D01*
X147938931Y-37901835D01*
X147676694Y-38185026D01*
X147674608Y-38187279D01*
X147437544Y-38499599D01*
X147232089Y-38833562D01*
X147060203Y-39185980D01*
X146923527Y-39553489D01*
X146823367Y-39932581D01*
X146813932Y-39990833D01*
X146783836Y-40176654D01*
X146760677Y-40319638D01*
X146760483Y-40322718D01*
X146760483Y-40322720D01*
X146738078Y-40678848D01*
X146736057Y-40710965D01*
X146738324Y-40775892D01*
X146748441Y-41065593D01*
X146749741Y-41102827D01*
X146750147Y-41105871D01*
X146750148Y-41105881D01*
X146770660Y-41259610D01*
X146801599Y-41491484D01*
X146802299Y-41494468D01*
X146802300Y-41494474D01*
X146885757Y-41850290D01*
X146891136Y-41873225D01*
X147017496Y-42244407D01*
X147179475Y-42601487D01*
X147375525Y-42941056D01*
X147377314Y-42943554D01*
X147377316Y-42943558D01*
X147594200Y-43246498D01*
X147603776Y-43259874D01*
X147605802Y-43262189D01*
X147605805Y-43262192D01*
X147844501Y-43534851D01*
X147862049Y-43554896D01*
X148147878Y-43823308D01*
X148285837Y-43929550D01*
X148433332Y-44043136D01*
X148458536Y-44062546D01*
X148461139Y-44064173D01*
X148461144Y-44064176D01*
X148542046Y-44114729D01*
X148791056Y-44270328D01*
X149142266Y-44444670D01*
X149508812Y-44583907D01*
X149887195Y-44686712D01*
X150185419Y-44737153D01*
X150270783Y-44751591D01*
X150270786Y-44751591D01*
X150273805Y-44752102D01*
X150428444Y-44762916D01*
X150661885Y-44779240D01*
X150661893Y-44779240D01*
X150664951Y-44779454D01*
X150917037Y-44772413D01*
X151053825Y-44768592D01*
X151053828Y-44768592D01*
X151056899Y-44768506D01*
X151059952Y-44768120D01*
X151059956Y-44768120D01*
X151201576Y-44750229D01*
X151445908Y-44719362D01*
X151448912Y-44718680D01*
X151448915Y-44718679D01*
X151825269Y-44633174D01*
X151825275Y-44633172D01*
X151828265Y-44632493D01*
X151843948Y-44627276D01*
X152197396Y-44509700D01*
X152197402Y-44509698D01*
X152200320Y-44508727D01*
X152341735Y-44445765D01*
X152555722Y-44350492D01*
X152555728Y-44350489D01*
X152558522Y-44349245D01*
X152588946Y-44331962D01*
X152896784Y-44157086D01*
X152896790Y-44157083D01*
X152899452Y-44155570D01*
X153143215Y-43983614D01*
X153217342Y-43931323D01*
X153217346Y-43931320D01*
X153219855Y-43929550D01*
X153455393Y-43726240D01*
X153514347Y-43675353D01*
X153514351Y-43675349D01*
X153516674Y-43673344D01*
X153610225Y-43575106D01*
X153784957Y-43391618D01*
X153787074Y-43389395D01*
X153842320Y-43318684D01*
X154026565Y-43082860D01*
X154026567Y-43082857D01*
X154028475Y-43080415D01*
X154238574Y-42749354D01*
X154243570Y-42739465D01*
X154332966Y-42562489D01*
X154415363Y-42399370D01*
X154416473Y-42396509D01*
X154556041Y-42036681D01*
X154556044Y-42036672D01*
X154557156Y-42033805D01*
X154638563Y-41742240D01*
X154661771Y-41659118D01*
X154661772Y-41659113D01*
X154662600Y-41656148D01*
X154662797Y-41655030D01*
X154697234Y-41593329D01*
X154759859Y-41559883D01*
X154830625Y-41565605D01*
X154887064Y-41608676D01*
X154911257Y-41675424D01*
X154911500Y-41683247D01*
X154911500Y-73665500D01*
X154891498Y-73733621D01*
X154837842Y-73780114D01*
X154785500Y-73791500D01*
X103488623Y-73791500D01*
X103487853Y-73791498D01*
X103487037Y-73791493D01*
X103410279Y-73791024D01*
X103387918Y-73797415D01*
X103381847Y-73799150D01*
X103365085Y-73802728D01*
X103335813Y-73806920D01*
X103327645Y-73810634D01*
X103327644Y-73810634D01*
X103312438Y-73817548D01*
X103294914Y-73823996D01*
X103270229Y-73831051D01*
X103262635Y-73835843D01*
X103262632Y-73835844D01*
X103245220Y-73846830D01*
X103230137Y-73854969D01*
X103203218Y-73867208D01*
X103196416Y-73873069D01*
X103183765Y-73883970D01*
X103168761Y-73895073D01*
X103147042Y-73908776D01*
X103141103Y-73915501D01*
X103141099Y-73915504D01*
X103127468Y-73930938D01*
X103115276Y-73942982D01*
X103099673Y-73956427D01*
X103099671Y-73956430D01*
X103092873Y-73962287D01*
X103087993Y-73969816D01*
X103087992Y-73969817D01*
X103078906Y-73983835D01*
X103067615Y-73998709D01*
X103056569Y-74011217D01*
X103050622Y-74017951D01*
X103038058Y-74044711D01*
X103029737Y-74059691D01*
X103018529Y-74076983D01*
X103018527Y-74076988D01*
X103013648Y-74084515D01*
X103011078Y-74093108D01*
X103011076Y-74093113D01*
X103006289Y-74109120D01*
X102999628Y-74126564D01*
X102988719Y-74149800D01*
X102987338Y-74158667D01*
X102987338Y-74158668D01*
X102984170Y-74179015D01*
X102980387Y-74195732D01*
X102974485Y-74215466D01*
X102974484Y-74215472D01*
X102971914Y-74224066D01*
X102971859Y-74233037D01*
X102971859Y-74233038D01*
X102971704Y-74258497D01*
X102971671Y-74259289D01*
X102971500Y-74260386D01*
X102971500Y-74291377D01*
X102971499Y-74291906D01*
X102971024Y-74369721D01*
X102971408Y-74371065D01*
X102971500Y-74372410D01*
X102971500Y-123113825D01*
X102951498Y-123181946D01*
X102897842Y-123228439D01*
X102827568Y-123238543D01*
X102762988Y-123209049D01*
X102724909Y-123150291D01*
X102724243Y-123147619D01*
X102592712Y-122778237D01*
X102425764Y-122423454D01*
X102424197Y-122420825D01*
X102424192Y-122420816D01*
X102226561Y-122089289D01*
X102224991Y-122086655D01*
X102223177Y-122084195D01*
X102223172Y-122084187D01*
X101994133Y-121773526D01*
X101994131Y-121773523D01*
X101992311Y-121771055D01*
X101729944Y-121479668D01*
X101440395Y-121215273D01*
X101126428Y-120980395D01*
X101078215Y-120951196D01*
X100793667Y-120778867D01*
X100793658Y-120778862D01*
X100791039Y-120777276D01*
X100437429Y-120607855D01*
X100434539Y-120606803D01*
X100434534Y-120606801D01*
X100071874Y-120474804D01*
X100071871Y-120474803D01*
X100068975Y-120473749D01*
X99792763Y-120402829D01*
X99692177Y-120377003D01*
X99692174Y-120377002D01*
X99689193Y-120376237D01*
X99301708Y-120316251D01*
X98910218Y-120294364D01*
X98907139Y-120294493D01*
X98907136Y-120294493D01*
X98651388Y-120305212D01*
X98518461Y-120310783D01*
X98515417Y-120311211D01*
X98515415Y-120311211D01*
X98304978Y-120340786D01*
X98130176Y-120365353D01*
X97749069Y-120457553D01*
X97378779Y-120586502D01*
X97022838Y-120750969D01*
X96684646Y-120949385D01*
X96524644Y-121065633D01*
X96369911Y-121178053D01*
X96369905Y-121178058D01*
X96367430Y-121179856D01*
X96365144Y-121181885D01*
X96365141Y-121181888D01*
X96285323Y-121252754D01*
X96074217Y-121440183D01*
X96072138Y-121442428D01*
X96072131Y-121442435D01*
X95809894Y-121725626D01*
X95807808Y-121727879D01*
X95570744Y-122040199D01*
X95365289Y-122374162D01*
X95193403Y-122726580D01*
X95056727Y-123094089D01*
X94956567Y-123473181D01*
X94893877Y-123860238D01*
X94869257Y-124251565D01*
X94882941Y-124643427D01*
X94934799Y-125032084D01*
X95024336Y-125413825D01*
X95150696Y-125785007D01*
X95312675Y-126142087D01*
X95508725Y-126481656D01*
X95510514Y-126484154D01*
X95510516Y-126484158D01*
X95610247Y-126623460D01*
X95736976Y-126800474D01*
X95995249Y-127095496D01*
X96281078Y-127363908D01*
X96591736Y-127603146D01*
X96594339Y-127604773D01*
X96594344Y-127604776D01*
X96713776Y-127679405D01*
X96924256Y-127810928D01*
X97275466Y-127985270D01*
X97642012Y-128124507D01*
X98020395Y-128227312D01*
X98318619Y-128277753D01*
X98403983Y-128292191D01*
X98403986Y-128292191D01*
X98407005Y-128292702D01*
X98561644Y-128303516D01*
X98795085Y-128319840D01*
X98795093Y-128319840D01*
X98798151Y-128320054D01*
X99050237Y-128313013D01*
X99187025Y-128309192D01*
X99187028Y-128309192D01*
X99190099Y-128309106D01*
X99193152Y-128308720D01*
X99193156Y-128308720D01*
X99334776Y-128290829D01*
X99579108Y-128259962D01*
X99582112Y-128259280D01*
X99582115Y-128259279D01*
X99958469Y-128173774D01*
X99958475Y-128173772D01*
X99961465Y-128173093D01*
X99964384Y-128172122D01*
X100330596Y-128050300D01*
X100330602Y-128050298D01*
X100333520Y-128049327D01*
X100474935Y-127986365D01*
X100688922Y-127891092D01*
X100688928Y-127891089D01*
X100691722Y-127889845D01*
X100694391Y-127888329D01*
X101029984Y-127697686D01*
X101029990Y-127697683D01*
X101032652Y-127696170D01*
X101353055Y-127470150D01*
X101649874Y-127213944D01*
X101920274Y-126929995D01*
X102161675Y-126621015D01*
X102371774Y-126289954D01*
X102548563Y-125939970D01*
X102608669Y-125785007D01*
X102689241Y-125577281D01*
X102689244Y-125577272D01*
X102690356Y-125574405D01*
X102724142Y-125453397D01*
X102761726Y-125393165D01*
X102825908Y-125362814D01*
X102896310Y-125371980D01*
X102950581Y-125417754D01*
X102971500Y-125487281D01*
X102971500Y-128473700D01*
X102951498Y-128541821D01*
X102897842Y-128588314D01*
X102845500Y-128599700D01*
X56293800Y-128599700D01*
X56225679Y-128579698D01*
X56179186Y-128526042D01*
X56167800Y-128473700D01*
X56167800Y-67924878D01*
X56187802Y-67856757D01*
X56241458Y-67810264D01*
X56311732Y-67800160D01*
X56376312Y-67829654D01*
X56408546Y-67872827D01*
X56500198Y-68074873D01*
X56500202Y-68074881D01*
X56501475Y-68077687D01*
X56697525Y-68417256D01*
X56699314Y-68419754D01*
X56699316Y-68419758D01*
X56860407Y-68644767D01*
X56925776Y-68736074D01*
X56927802Y-68738389D01*
X56927805Y-68738392D01*
X57182017Y-69028775D01*
X57184049Y-69031096D01*
X57469878Y-69299508D01*
X57673775Y-69456529D01*
X57776985Y-69536011D01*
X57780536Y-69538746D01*
X57783139Y-69540373D01*
X57783144Y-69540376D01*
X57858754Y-69587622D01*
X58113056Y-69746528D01*
X58464266Y-69920870D01*
X58830812Y-70060107D01*
X59209195Y-70162912D01*
X59507419Y-70213353D01*
X59592783Y-70227791D01*
X59592786Y-70227791D01*
X59595805Y-70228302D01*
X59750444Y-70239116D01*
X59983885Y-70255440D01*
X59983893Y-70255440D01*
X59986951Y-70255654D01*
X60239037Y-70248613D01*
X60375825Y-70244792D01*
X60375828Y-70244792D01*
X60378899Y-70244706D01*
X60381952Y-70244320D01*
X60381956Y-70244320D01*
X60523576Y-70226429D01*
X60767908Y-70195562D01*
X60770912Y-70194880D01*
X60770915Y-70194879D01*
X61147269Y-70109374D01*
X61147275Y-70109372D01*
X61150265Y-70108693D01*
X61153184Y-70107722D01*
X61519396Y-69985900D01*
X61519402Y-69985898D01*
X61522320Y-69984927D01*
X61663735Y-69921965D01*
X61877722Y-69826692D01*
X61877728Y-69826689D01*
X61880522Y-69825445D01*
X61891753Y-69819065D01*
X62218784Y-69633286D01*
X62218790Y-69633283D01*
X62221452Y-69631770D01*
X62417048Y-69493792D01*
X62539342Y-69407523D01*
X62539346Y-69407520D01*
X62541855Y-69405750D01*
X62712216Y-69258699D01*
X62836347Y-69151553D01*
X62836351Y-69151549D01*
X62838674Y-69149544D01*
X62862354Y-69124678D01*
X63106957Y-68867818D01*
X63109074Y-68865595D01*
X63165774Y-68793023D01*
X63348565Y-68559060D01*
X63348567Y-68559057D01*
X63350475Y-68556615D01*
X63439271Y-68416695D01*
X103387251Y-68416695D01*
X103387548Y-68421848D01*
X103387548Y-68421851D01*
X103395894Y-68566590D01*
X103400110Y-68639715D01*
X103401247Y-68644761D01*
X103401248Y-68644767D01*
X103411378Y-68689715D01*
X103449222Y-68857639D01*
X103533266Y-69064616D01*
X103583840Y-69147145D01*
X103647291Y-69250688D01*
X103649987Y-69255088D01*
X103796250Y-69423938D01*
X103968126Y-69566632D01*
X104161000Y-69679338D01*
X104369692Y-69759030D01*
X104374760Y-69760061D01*
X104374763Y-69760062D01*
X104469862Y-69779410D01*
X104588597Y-69803567D01*
X104593772Y-69803757D01*
X104593774Y-69803757D01*
X104806673Y-69811564D01*
X104806677Y-69811564D01*
X104811837Y-69811753D01*
X104816957Y-69811097D01*
X104816959Y-69811097D01*
X105028288Y-69784025D01*
X105028289Y-69784025D01*
X105033416Y-69783368D01*
X105038366Y-69781883D01*
X105242429Y-69720661D01*
X105242434Y-69720659D01*
X105247384Y-69719174D01*
X105447994Y-69620896D01*
X105629860Y-69491173D01*
X105647156Y-69473938D01*
X105773400Y-69348134D01*
X105788096Y-69333489D01*
X105847594Y-69250689D01*
X105918453Y-69152077D01*
X105919776Y-69153028D01*
X105966645Y-69109857D01*
X106036580Y-69097625D01*
X106102026Y-69125144D01*
X106129875Y-69156994D01*
X106189987Y-69255088D01*
X106336250Y-69423938D01*
X106508126Y-69566632D01*
X106701000Y-69679338D01*
X106909692Y-69759030D01*
X106914760Y-69760061D01*
X106914763Y-69760062D01*
X107009862Y-69779410D01*
X107128597Y-69803567D01*
X107133772Y-69803757D01*
X107133774Y-69803757D01*
X107346673Y-69811564D01*
X107346677Y-69811564D01*
X107351837Y-69811753D01*
X107356957Y-69811097D01*
X107356959Y-69811097D01*
X107568288Y-69784025D01*
X107568289Y-69784025D01*
X107573416Y-69783368D01*
X107578366Y-69781883D01*
X107782429Y-69720661D01*
X107782434Y-69720659D01*
X107787384Y-69719174D01*
X107987994Y-69620896D01*
X108169860Y-69491173D01*
X108187156Y-69473938D01*
X108313400Y-69348134D01*
X108328096Y-69333489D01*
X108387594Y-69250689D01*
X108458453Y-69152077D01*
X108459640Y-69152930D01*
X108506960Y-69109362D01*
X108576897Y-69097145D01*
X108642338Y-69124678D01*
X108670166Y-69156511D01*
X108727694Y-69250388D01*
X108733777Y-69258699D01*
X108873213Y-69419667D01*
X108880580Y-69426883D01*
X109044434Y-69562916D01*
X109052881Y-69568831D01*
X109236756Y-69676279D01*
X109246042Y-69680729D01*
X109445001Y-69756703D01*
X109454899Y-69759579D01*
X109558250Y-69780606D01*
X109572299Y-69779410D01*
X109576000Y-69769065D01*
X109576000Y-69768517D01*
X110084000Y-69768517D01*
X110088064Y-69782359D01*
X110101478Y-69784393D01*
X110108184Y-69783534D01*
X110118262Y-69781392D01*
X110322255Y-69720191D01*
X110331842Y-69716433D01*
X110523095Y-69622739D01*
X110531945Y-69617464D01*
X110705328Y-69493792D01*
X110713193Y-69487145D01*
X110817897Y-69382805D01*
X110880268Y-69348889D01*
X110951075Y-69354077D01*
X111007837Y-69396723D01*
X111024819Y-69427826D01*
X111048567Y-69491173D01*
X111069385Y-69546705D01*
X111156739Y-69663261D01*
X111273295Y-69750615D01*
X111409684Y-69801745D01*
X111471866Y-69808500D01*
X113268134Y-69808500D01*
X113330316Y-69801745D01*
X113466705Y-69750615D01*
X113583261Y-69663261D01*
X113670615Y-69546705D01*
X113721745Y-69410316D01*
X113723445Y-69394669D01*
X120292001Y-69394669D01*
X120292371Y-69401490D01*
X120297895Y-69452352D01*
X120301521Y-69467604D01*
X120346676Y-69588054D01*
X120355214Y-69603649D01*
X120431715Y-69705724D01*
X120444276Y-69718285D01*
X120546351Y-69794786D01*
X120561946Y-69803324D01*
X120682394Y-69848478D01*
X120697649Y-69852105D01*
X120748514Y-69857631D01*
X120755328Y-69858000D01*
X121377885Y-69858000D01*
X121393124Y-69853525D01*
X121394329Y-69852135D01*
X121396000Y-69844452D01*
X121396000Y-69839884D01*
X121904000Y-69839884D01*
X121908475Y-69855123D01*
X121909865Y-69856328D01*
X121917548Y-69857999D01*
X122544669Y-69857999D01*
X122551490Y-69857629D01*
X122602352Y-69852105D01*
X122617604Y-69848479D01*
X122738054Y-69803324D01*
X122753649Y-69794786D01*
X122855724Y-69718285D01*
X122868285Y-69705724D01*
X122944786Y-69603649D01*
X122953325Y-69588052D01*
X122994425Y-69478418D01*
X123037066Y-69421653D01*
X123103628Y-69396953D01*
X123172977Y-69412160D01*
X123207645Y-69440150D01*
X123233219Y-69469674D01*
X123240580Y-69476883D01*
X123404434Y-69612916D01*
X123412881Y-69618831D01*
X123596756Y-69726279D01*
X123606042Y-69730729D01*
X123805001Y-69806703D01*
X123814899Y-69809579D01*
X123918250Y-69830606D01*
X123932299Y-69829410D01*
X123936000Y-69819065D01*
X123936000Y-68772115D01*
X123931525Y-68756876D01*
X123930135Y-68755671D01*
X123922452Y-68754000D01*
X121922115Y-68754000D01*
X121906876Y-68758475D01*
X121905671Y-68759865D01*
X121904000Y-68767548D01*
X121904000Y-69839884D01*
X121396000Y-69839884D01*
X121396000Y-68772115D01*
X121391525Y-68756876D01*
X121390135Y-68755671D01*
X121382452Y-68754000D01*
X120310116Y-68754000D01*
X120294877Y-68758475D01*
X120293672Y-68759865D01*
X120292001Y-68767548D01*
X120292001Y-69394669D01*
X113723445Y-69394669D01*
X113728500Y-69348134D01*
X113728500Y-68227885D01*
X120292000Y-68227885D01*
X120296475Y-68243124D01*
X120297865Y-68244329D01*
X120305548Y-68246000D01*
X121377885Y-68246000D01*
X121393124Y-68241525D01*
X121394329Y-68240135D01*
X121396000Y-68232452D01*
X121396000Y-68227885D01*
X121904000Y-68227885D01*
X121908475Y-68243124D01*
X121909865Y-68244329D01*
X121917548Y-68246000D01*
X123917885Y-68246000D01*
X123933124Y-68241525D01*
X123934329Y-68240135D01*
X123936000Y-68232452D01*
X123936000Y-67183102D01*
X123932082Y-67169758D01*
X123917806Y-67167771D01*
X123879324Y-67173660D01*
X123869288Y-67176051D01*
X123666868Y-67242212D01*
X123657359Y-67246209D01*
X123468463Y-67344542D01*
X123459738Y-67350036D01*
X123289433Y-67477905D01*
X123281726Y-67484748D01*
X123204094Y-67565985D01*
X123142570Y-67601415D01*
X123071657Y-67597958D01*
X123013871Y-67556712D01*
X122995018Y-67523164D01*
X122953324Y-67411946D01*
X122944786Y-67396351D01*
X122868285Y-67294276D01*
X122855724Y-67281715D01*
X122753649Y-67205214D01*
X122738054Y-67196676D01*
X122617606Y-67151522D01*
X122602351Y-67147895D01*
X122551486Y-67142369D01*
X122544672Y-67142000D01*
X121922115Y-67142000D01*
X121906876Y-67146475D01*
X121905671Y-67147865D01*
X121904000Y-67155548D01*
X121904000Y-68227885D01*
X121396000Y-68227885D01*
X121396000Y-67160116D01*
X121391525Y-67144877D01*
X121390135Y-67143672D01*
X121382452Y-67142001D01*
X120755331Y-67142001D01*
X120748510Y-67142371D01*
X120697648Y-67147895D01*
X120682396Y-67151521D01*
X120561946Y-67196676D01*
X120546351Y-67205214D01*
X120444276Y-67281715D01*
X120431715Y-67294276D01*
X120355214Y-67396351D01*
X120346676Y-67411946D01*
X120301522Y-67532394D01*
X120297895Y-67547649D01*
X120292369Y-67598514D01*
X120292000Y-67605328D01*
X120292000Y-68227885D01*
X113728500Y-68227885D01*
X113728500Y-67551866D01*
X113721745Y-67489684D01*
X113670615Y-67353295D01*
X113653673Y-67330689D01*
X113628826Y-67264185D01*
X113628500Y-67255126D01*
X113628500Y-66892478D01*
X113648502Y-66824357D01*
X113665405Y-66803382D01*
X113768384Y-66700404D01*
X113830696Y-66666379D01*
X113857479Y-66663500D01*
X127889393Y-66663500D01*
X127957514Y-66683502D01*
X128004007Y-66737158D01*
X128013377Y-66799688D01*
X128014787Y-66799769D01*
X128013185Y-66827548D01*
X128011738Y-66840653D01*
X128010714Y-66846910D01*
X128009806Y-66852457D01*
X128009894Y-66858070D01*
X128009894Y-66858072D01*
X128011484Y-66959264D01*
X128011500Y-66961243D01*
X128011500Y-67115500D01*
X127991498Y-67183621D01*
X127937842Y-67230114D01*
X127885500Y-67241500D01*
X127267692Y-67241500D01*
X127225632Y-67234273D01*
X127083087Y-67183795D01*
X127083083Y-67183794D01*
X127078212Y-67182069D01*
X127073119Y-67181162D01*
X127073116Y-67181161D01*
X126863373Y-67143800D01*
X126863367Y-67143799D01*
X126858284Y-67142894D01*
X126784452Y-67141992D01*
X126640081Y-67140228D01*
X126640079Y-67140228D01*
X126634911Y-67140165D01*
X126414091Y-67173955D01*
X126201756Y-67243357D01*
X126161746Y-67264185D01*
X126058753Y-67317800D01*
X126003607Y-67346507D01*
X125999474Y-67349610D01*
X125999471Y-67349612D01*
X125835889Y-67472433D01*
X125824965Y-67480635D01*
X125788802Y-67518477D01*
X125697082Y-67614457D01*
X125670629Y-67642138D01*
X125667715Y-67646410D01*
X125667714Y-67646411D01*
X125562898Y-67800066D01*
X125507987Y-67845069D01*
X125437462Y-67853240D01*
X125373715Y-67821986D01*
X125353018Y-67797502D01*
X125272426Y-67672926D01*
X125266136Y-67664757D01*
X125122806Y-67507240D01*
X125115273Y-67500215D01*
X124948139Y-67368222D01*
X124939552Y-67362517D01*
X124753117Y-67259599D01*
X124743705Y-67255369D01*
X124542959Y-67184280D01*
X124532988Y-67181646D01*
X124461837Y-67168972D01*
X124448540Y-67170432D01*
X124444000Y-67184989D01*
X124444000Y-69818517D01*
X124448064Y-69832359D01*
X124461478Y-69834393D01*
X124468184Y-69833534D01*
X124478262Y-69831392D01*
X124682255Y-69770191D01*
X124691842Y-69766433D01*
X124883095Y-69672739D01*
X124891945Y-69667464D01*
X125065328Y-69543792D01*
X125073200Y-69537139D01*
X125224052Y-69386812D01*
X125230730Y-69378965D01*
X125358022Y-69201819D01*
X125359279Y-69202722D01*
X125406373Y-69159362D01*
X125476311Y-69147145D01*
X125541751Y-69174678D01*
X125569579Y-69206511D01*
X125629987Y-69305088D01*
X125776250Y-69473938D01*
X125909242Y-69584350D01*
X125926938Y-69599041D01*
X125948126Y-69616632D01*
X126141000Y-69729338D01*
X126145825Y-69731180D01*
X126145826Y-69731181D01*
X126210679Y-69755946D01*
X126349692Y-69809030D01*
X126354760Y-69810061D01*
X126354763Y-69810062D01*
X126436503Y-69826692D01*
X126568597Y-69853567D01*
X126573772Y-69853757D01*
X126573774Y-69853757D01*
X126786673Y-69861564D01*
X126786677Y-69861564D01*
X126791837Y-69861753D01*
X126796957Y-69861097D01*
X126796959Y-69861097D01*
X127008288Y-69834025D01*
X127008289Y-69834025D01*
X127013416Y-69833368D01*
X127018366Y-69831883D01*
X127222432Y-69770660D01*
X127222435Y-69770659D01*
X127227384Y-69769174D01*
X127231531Y-69767143D01*
X127277268Y-69758500D01*
X128734127Y-69758500D01*
X128779076Y-69766790D01*
X128812125Y-69779410D01*
X128889692Y-69809030D01*
X128894760Y-69810061D01*
X128894763Y-69810062D01*
X128976503Y-69826692D01*
X129108597Y-69853567D01*
X129113772Y-69853757D01*
X129113774Y-69853757D01*
X129326673Y-69861564D01*
X129326677Y-69861564D01*
X129331837Y-69861753D01*
X129336957Y-69861097D01*
X129336959Y-69861097D01*
X129548288Y-69834025D01*
X129548289Y-69834025D01*
X129553416Y-69833368D01*
X129558366Y-69831883D01*
X129762429Y-69770661D01*
X129762434Y-69770659D01*
X129767384Y-69769174D01*
X129967994Y-69670896D01*
X130149860Y-69541173D01*
X130296877Y-69394669D01*
X136691001Y-69394669D01*
X136691371Y-69401490D01*
X136696895Y-69452352D01*
X136700521Y-69467604D01*
X136745676Y-69588054D01*
X136754214Y-69603649D01*
X136830715Y-69705724D01*
X136843276Y-69718285D01*
X136945351Y-69794786D01*
X136960946Y-69803324D01*
X137081394Y-69848478D01*
X137096649Y-69852105D01*
X137147514Y-69857631D01*
X137154328Y-69858000D01*
X137776885Y-69858000D01*
X137792124Y-69853525D01*
X137793329Y-69852135D01*
X137795000Y-69844452D01*
X137795000Y-69839884D01*
X138303000Y-69839884D01*
X138307475Y-69855123D01*
X138308865Y-69856328D01*
X138316548Y-69857999D01*
X138943669Y-69857999D01*
X138950490Y-69857629D01*
X139001352Y-69852105D01*
X139016604Y-69848479D01*
X139137054Y-69803324D01*
X139152649Y-69794786D01*
X139254724Y-69718285D01*
X139267285Y-69705724D01*
X139343786Y-69603649D01*
X139352325Y-69588052D01*
X139393425Y-69478418D01*
X139436066Y-69421653D01*
X139502628Y-69396953D01*
X139571977Y-69412160D01*
X139606645Y-69440150D01*
X139632219Y-69469674D01*
X139639580Y-69476883D01*
X139803434Y-69612916D01*
X139811881Y-69618831D01*
X139995756Y-69726279D01*
X140005042Y-69730729D01*
X140204001Y-69806703D01*
X140213899Y-69809579D01*
X140317250Y-69830606D01*
X140331299Y-69829410D01*
X140335000Y-69819065D01*
X140335000Y-68772115D01*
X140330525Y-68756876D01*
X140329135Y-68755671D01*
X140321452Y-68754000D01*
X138321115Y-68754000D01*
X138305876Y-68758475D01*
X138304671Y-68759865D01*
X138303000Y-68767548D01*
X138303000Y-69839884D01*
X137795000Y-69839884D01*
X137795000Y-68772115D01*
X137790525Y-68756876D01*
X137789135Y-68755671D01*
X137781452Y-68754000D01*
X136709116Y-68754000D01*
X136693877Y-68758475D01*
X136692672Y-68759865D01*
X136691001Y-68767548D01*
X136691001Y-69394669D01*
X130296877Y-69394669D01*
X130308096Y-69383489D01*
X130332959Y-69348889D01*
X130435435Y-69206277D01*
X130438453Y-69202077D01*
X130451995Y-69174678D01*
X130535136Y-69006453D01*
X130535137Y-69006451D01*
X130537430Y-69001811D01*
X130578816Y-68865595D01*
X130600865Y-68793023D01*
X130600865Y-68793021D01*
X130602370Y-68788069D01*
X130631529Y-68566590D01*
X130633156Y-68500000D01*
X130614852Y-68277361D01*
X130602425Y-68227885D01*
X136691000Y-68227885D01*
X136695475Y-68243124D01*
X136696865Y-68244329D01*
X136704548Y-68246000D01*
X137776885Y-68246000D01*
X137792124Y-68241525D01*
X137793329Y-68240135D01*
X137795000Y-68232452D01*
X137795000Y-68227885D01*
X138303000Y-68227885D01*
X138307475Y-68243124D01*
X138308865Y-68244329D01*
X138316548Y-68246000D01*
X140316885Y-68246000D01*
X140332124Y-68241525D01*
X140333329Y-68240135D01*
X140335000Y-68232452D01*
X140335000Y-67183102D01*
X140331082Y-67169758D01*
X140316806Y-67167771D01*
X140278324Y-67173660D01*
X140268288Y-67176051D01*
X140065868Y-67242212D01*
X140056359Y-67246209D01*
X139867463Y-67344542D01*
X139858738Y-67350036D01*
X139688433Y-67477905D01*
X139680726Y-67484748D01*
X139603094Y-67565985D01*
X139541570Y-67601415D01*
X139470657Y-67597958D01*
X139412871Y-67556712D01*
X139394018Y-67523164D01*
X139352324Y-67411946D01*
X139343786Y-67396351D01*
X139267285Y-67294276D01*
X139254724Y-67281715D01*
X139152649Y-67205214D01*
X139137054Y-67196676D01*
X139016606Y-67151522D01*
X139001351Y-67147895D01*
X138950486Y-67142369D01*
X138943672Y-67142000D01*
X138321115Y-67142000D01*
X138305876Y-67146475D01*
X138304671Y-67147865D01*
X138303000Y-67155548D01*
X138303000Y-68227885D01*
X137795000Y-68227885D01*
X137795000Y-67160116D01*
X137790525Y-67144877D01*
X137789135Y-67143672D01*
X137781452Y-67142001D01*
X137154331Y-67142001D01*
X137147510Y-67142371D01*
X137096648Y-67147895D01*
X137081396Y-67151521D01*
X136960946Y-67196676D01*
X136945351Y-67205214D01*
X136843276Y-67281715D01*
X136830715Y-67294276D01*
X136754214Y-67396351D01*
X136745676Y-67411946D01*
X136700522Y-67532394D01*
X136696895Y-67547649D01*
X136691369Y-67598514D01*
X136691000Y-67605328D01*
X136691000Y-68227885D01*
X130602425Y-68227885D01*
X130565370Y-68080363D01*
X130561689Y-68065709D01*
X130561688Y-68065705D01*
X130560431Y-68060702D01*
X130558375Y-68055973D01*
X130558372Y-68055965D01*
X130538950Y-68011298D01*
X130528500Y-67961056D01*
X130528500Y-67518477D01*
X130548502Y-67450356D01*
X130565405Y-67429382D01*
X131294382Y-66700405D01*
X131356694Y-66666379D01*
X131383477Y-66663500D01*
X141666523Y-66663500D01*
X141734644Y-66683502D01*
X141755618Y-66700405D01*
X141833595Y-66778382D01*
X141867621Y-66840694D01*
X141870500Y-66867477D01*
X141870500Y-67564760D01*
X141850498Y-67632881D01*
X141796842Y-67679374D01*
X141726568Y-67689478D01*
X141661988Y-67659984D01*
X141651306Y-67649560D01*
X141521799Y-67507234D01*
X141514273Y-67500215D01*
X141347139Y-67368222D01*
X141338552Y-67362517D01*
X141152117Y-67259599D01*
X141142705Y-67255369D01*
X140941959Y-67184280D01*
X140931988Y-67181646D01*
X140860837Y-67168972D01*
X140847540Y-67170432D01*
X140843000Y-67184989D01*
X140843000Y-69818517D01*
X140847064Y-69832359D01*
X140860478Y-69834393D01*
X140867184Y-69833534D01*
X140877262Y-69831392D01*
X141081255Y-69770191D01*
X141090842Y-69766433D01*
X141282095Y-69672739D01*
X141290945Y-69667464D01*
X141464328Y-69543792D01*
X141472200Y-69537139D01*
X141623052Y-69386812D01*
X141629730Y-69378965D01*
X141757022Y-69201819D01*
X141758279Y-69202722D01*
X141805373Y-69159362D01*
X141875311Y-69147145D01*
X141940751Y-69174678D01*
X141968579Y-69206511D01*
X142028987Y-69305088D01*
X142175250Y-69473938D01*
X142308242Y-69584350D01*
X142325938Y-69599041D01*
X142347126Y-69616632D01*
X142540000Y-69729338D01*
X142544825Y-69731180D01*
X142544826Y-69731181D01*
X142609679Y-69755946D01*
X142748692Y-69809030D01*
X142753760Y-69810061D01*
X142753763Y-69810062D01*
X142835503Y-69826692D01*
X142967597Y-69853567D01*
X142972772Y-69853757D01*
X142972774Y-69853757D01*
X143185673Y-69861564D01*
X143185677Y-69861564D01*
X143190837Y-69861753D01*
X143195957Y-69861097D01*
X143195959Y-69861097D01*
X143407288Y-69834025D01*
X143407289Y-69834025D01*
X143412416Y-69833368D01*
X143417366Y-69831883D01*
X143621432Y-69770660D01*
X143621435Y-69770659D01*
X143626384Y-69769174D01*
X143630531Y-69767143D01*
X143676268Y-69758500D01*
X145133127Y-69758500D01*
X145178076Y-69766790D01*
X145211125Y-69779410D01*
X145288692Y-69809030D01*
X145293760Y-69810061D01*
X145293763Y-69810062D01*
X145375503Y-69826692D01*
X145507597Y-69853567D01*
X145512772Y-69853757D01*
X145512774Y-69853757D01*
X145725673Y-69861564D01*
X145725677Y-69861564D01*
X145730837Y-69861753D01*
X145735957Y-69861097D01*
X145735959Y-69861097D01*
X145947288Y-69834025D01*
X145947289Y-69834025D01*
X145952416Y-69833368D01*
X145957366Y-69831883D01*
X146161432Y-69770660D01*
X146161435Y-69770659D01*
X146166384Y-69769174D01*
X146170531Y-69767143D01*
X146216268Y-69758500D01*
X147943604Y-69758500D01*
X147960051Y-69759578D01*
X147976516Y-69761746D01*
X147976520Y-69761746D01*
X147982086Y-69762479D01*
X148063489Y-69758640D01*
X148069424Y-69758500D01*
X148091999Y-69758500D01*
X148117989Y-69756181D01*
X148123248Y-69755822D01*
X148206488Y-69751896D01*
X148211947Y-69750646D01*
X148211952Y-69750645D01*
X148223970Y-69747892D01*
X148240899Y-69745211D01*
X148258762Y-69743617D01*
X148264178Y-69742135D01*
X148264180Y-69742135D01*
X148339133Y-69721630D01*
X148344251Y-69720344D01*
X148420000Y-69702995D01*
X148420002Y-69702994D01*
X148425470Y-69701742D01*
X148435970Y-69697263D01*
X148441967Y-69694706D01*
X148458142Y-69689073D01*
X148470039Y-69685818D01*
X148470043Y-69685817D01*
X148475451Y-69684337D01*
X148550667Y-69648461D01*
X148555476Y-69646290D01*
X148626949Y-69615804D01*
X148626950Y-69615804D01*
X148632109Y-69613603D01*
X148647110Y-69603749D01*
X148662025Y-69595346D01*
X148678218Y-69587622D01*
X148682769Y-69584352D01*
X148682772Y-69584350D01*
X148735160Y-69546705D01*
X148745892Y-69538994D01*
X148750232Y-69536011D01*
X148816010Y-69492804D01*
X148816018Y-69492798D01*
X148819874Y-69490265D01*
X148840662Y-69471743D01*
X148850939Y-69463510D01*
X148860654Y-69456529D01*
X148935063Y-69379745D01*
X148936452Y-69378335D01*
X151865259Y-66449528D01*
X151877651Y-66438660D01*
X151890843Y-66428538D01*
X151890851Y-66428531D01*
X151895292Y-66425123D01*
X151950168Y-66364815D01*
X151954267Y-66360520D01*
X151970198Y-66344589D01*
X151986934Y-66324573D01*
X151990379Y-66320624D01*
X152042703Y-66263121D01*
X152042706Y-66263117D01*
X152046485Y-66258964D01*
X152056013Y-66243775D01*
X152066091Y-66229903D01*
X152073992Y-66220455D01*
X152073997Y-66220448D01*
X152077594Y-66216146D01*
X152118887Y-66143752D01*
X152121592Y-66139232D01*
X152132081Y-66122512D01*
X152152729Y-66089595D01*
X152162886Y-66073404D01*
X152162888Y-66073401D01*
X152165864Y-66068656D01*
X152172552Y-66052021D01*
X152180012Y-66036589D01*
X152186120Y-66025881D01*
X152186124Y-66025872D01*
X152188899Y-66021007D01*
X152190768Y-66015730D01*
X152190770Y-66015725D01*
X152216715Y-65942458D01*
X152218580Y-65937522D01*
X152247566Y-65865416D01*
X152249656Y-65860217D01*
X152251448Y-65851567D01*
X152253294Y-65842651D01*
X152257899Y-65826156D01*
X152263889Y-65809241D01*
X152269340Y-65775952D01*
X152277355Y-65727009D01*
X152278317Y-65721819D01*
X152294277Y-65644754D01*
X152294278Y-65644750D01*
X152295213Y-65640233D01*
X152296815Y-65612452D01*
X152298262Y-65599347D01*
X152299286Y-65593090D01*
X152299286Y-65593083D01*
X152300194Y-65587542D01*
X152300037Y-65577505D01*
X152298516Y-65480736D01*
X152298500Y-65478757D01*
X152298500Y-51772250D01*
X152307003Y-51727674D01*
X152307430Y-51726811D01*
X152372370Y-51513069D01*
X152401529Y-51291590D01*
X152401611Y-51288240D01*
X152403074Y-51228365D01*
X152403074Y-51228361D01*
X152403156Y-51225000D01*
X152384852Y-51002361D01*
X152330431Y-50785702D01*
X152241354Y-50580840D01*
X152120014Y-50393277D01*
X152116532Y-50389450D01*
X151972798Y-50231488D01*
X151941746Y-50167642D01*
X151950141Y-50097143D01*
X151995317Y-50042375D01*
X152021761Y-50028706D01*
X152128297Y-49988767D01*
X152136705Y-49985615D01*
X152253261Y-49898261D01*
X152340615Y-49781705D01*
X152391745Y-49645316D01*
X152398500Y-49583134D01*
X152398500Y-47786866D01*
X152391745Y-47724684D01*
X152340615Y-47588295D01*
X152253261Y-47471739D01*
X152136705Y-47384385D01*
X152000316Y-47333255D01*
X151938134Y-47326500D01*
X150141866Y-47326500D01*
X150079684Y-47333255D01*
X149943295Y-47384385D01*
X149826739Y-47471739D01*
X149739385Y-47588295D01*
X149736233Y-47596703D01*
X149731923Y-47604575D01*
X149730259Y-47603664D01*
X149694337Y-47651490D01*
X149627776Y-47676193D01*
X149618991Y-47676500D01*
X148576842Y-47676500D01*
X148563235Y-47675763D01*
X148531737Y-47672341D01*
X148531732Y-47672341D01*
X148525611Y-47671676D01*
X148512718Y-47672804D01*
X148475609Y-47676050D01*
X148470784Y-47676379D01*
X148468313Y-47676500D01*
X148465231Y-47676500D01*
X148442763Y-47678703D01*
X148422489Y-47680691D01*
X148421174Y-47680813D01*
X148388913Y-47683636D01*
X148328587Y-47688913D01*
X148323468Y-47690400D01*
X148318167Y-47690920D01*
X148229166Y-47717791D01*
X148228033Y-47718126D01*
X148144586Y-47742370D01*
X148144582Y-47742372D01*
X148138664Y-47744091D01*
X148133932Y-47746544D01*
X148128831Y-47748084D01*
X148123388Y-47750978D01*
X148046740Y-47791731D01*
X148045574Y-47792343D01*
X147980085Y-47826290D01*
X147963074Y-47835108D01*
X147958911Y-47838431D01*
X147954204Y-47840934D01*
X147882082Y-47899755D01*
X147881226Y-47900446D01*
X147842027Y-47931738D01*
X147839523Y-47934242D01*
X147838805Y-47934884D01*
X147834472Y-47938585D01*
X147800938Y-47965935D01*
X147797011Y-47970682D01*
X147797009Y-47970684D01*
X147771713Y-48001262D01*
X147763723Y-48010042D01*
X146727766Y-49046000D01*
X145806696Y-49967070D01*
X145744384Y-50001095D01*
X145673569Y-49996031D01*
X145616733Y-49953484D01*
X145591922Y-49886964D01*
X145598008Y-49838308D01*
X145640137Y-49711293D01*
X145643005Y-49697914D01*
X145652672Y-49603562D01*
X145653000Y-49597146D01*
X145653000Y-49572115D01*
X145648525Y-49556876D01*
X145647135Y-49555671D01*
X145639452Y-49554000D01*
X143205116Y-49554000D01*
X143189877Y-49558475D01*
X143188672Y-49559865D01*
X143187001Y-49567548D01*
X143187001Y-49597095D01*
X143187338Y-49603614D01*
X143197257Y-49699206D01*
X143200149Y-49712600D01*
X143251588Y-49866784D01*
X143257761Y-49879962D01*
X143343063Y-50017807D01*
X143352099Y-50029208D01*
X143466828Y-50143738D01*
X143475762Y-50150794D01*
X143516823Y-50208712D01*
X143520053Y-50279635D01*
X143484426Y-50341046D01*
X143476593Y-50347846D01*
X143470652Y-50351522D01*
X143345695Y-50476697D01*
X143341855Y-50482927D01*
X143341854Y-50482928D01*
X143296581Y-50556375D01*
X143252885Y-50627262D01*
X143197203Y-50795139D01*
X143186500Y-50899600D01*
X143186500Y-51500400D01*
X143186837Y-51503646D01*
X143186837Y-51503650D01*
X143188329Y-51518023D01*
X143197474Y-51606166D01*
X143199655Y-51612702D01*
X143199655Y-51612704D01*
X143206306Y-51632639D01*
X143253450Y-51773946D01*
X143346522Y-51924348D01*
X143351704Y-51929521D01*
X143351708Y-51929526D01*
X143374517Y-51952295D01*
X143408597Y-52014577D01*
X143411500Y-52041468D01*
X143411500Y-55503994D01*
X143391498Y-55572115D01*
X143376595Y-55591044D01*
X143365229Y-55602938D01*
X143362315Y-55607210D01*
X143362314Y-55607211D01*
X143277156Y-55732049D01*
X143239343Y-55787480D01*
X143223603Y-55821390D01*
X143148804Y-55982531D01*
X143145288Y-55990105D01*
X143085589Y-56205370D01*
X143061851Y-56427495D01*
X143062148Y-56432648D01*
X143062148Y-56432651D01*
X143071554Y-56595783D01*
X143074710Y-56650515D01*
X143075847Y-56655561D01*
X143075848Y-56655567D01*
X143092060Y-56727502D01*
X143123822Y-56868439D01*
X143166073Y-56972492D01*
X143199036Y-57053669D01*
X143207866Y-57075416D01*
X143324587Y-57265888D01*
X143375044Y-57324136D01*
X143405737Y-57359569D01*
X143435220Y-57424154D01*
X143436500Y-57442067D01*
X143436500Y-57583991D01*
X143416498Y-57652112D01*
X143362842Y-57698605D01*
X143357306Y-57700903D01*
X143356704Y-57701232D01*
X143348295Y-57704385D01*
X143231739Y-57791739D01*
X143144385Y-57908295D01*
X143093255Y-58044684D01*
X143086500Y-58106866D01*
X143086500Y-59903134D01*
X143093255Y-59965316D01*
X143144385Y-60101705D01*
X143231739Y-60218261D01*
X143348295Y-60305615D01*
X143484684Y-60356745D01*
X143546866Y-60363500D01*
X145343134Y-60363500D01*
X145405316Y-60356745D01*
X145541705Y-60305615D01*
X145658261Y-60218261D01*
X145745615Y-60101705D01*
X145796745Y-59965316D01*
X145803500Y-59903134D01*
X145803500Y-58106866D01*
X145796745Y-58044684D01*
X145745615Y-57908295D01*
X145658261Y-57791739D01*
X145541705Y-57704385D01*
X145533296Y-57701233D01*
X145525425Y-57696923D01*
X145526336Y-57695259D01*
X145478510Y-57659337D01*
X145453807Y-57592776D01*
X145453500Y-57583991D01*
X145453500Y-57397662D01*
X145477177Y-57324136D01*
X145498014Y-57295139D01*
X145593053Y-57162877D01*
X145596800Y-57155297D01*
X145689736Y-56967253D01*
X145689737Y-56967251D01*
X145692030Y-56962611D01*
X145756970Y-56748869D01*
X145786129Y-56527390D01*
X145787056Y-56489469D01*
X145787674Y-56464165D01*
X145787674Y-56464161D01*
X145787756Y-56460800D01*
X145769452Y-56238161D01*
X145715031Y-56021502D01*
X145625954Y-55816640D01*
X145504614Y-55629077D01*
X145489173Y-55612107D01*
X145461306Y-55581482D01*
X145430254Y-55517636D01*
X145428500Y-55496683D01*
X145428500Y-52334500D01*
X145448502Y-52266379D01*
X145502158Y-52219886D01*
X145554500Y-52208500D01*
X145938157Y-52208500D01*
X145951764Y-52209237D01*
X145983262Y-52212659D01*
X145983267Y-52212659D01*
X145989388Y-52213324D01*
X146015638Y-52211027D01*
X146039388Y-52208950D01*
X146044214Y-52208621D01*
X146046686Y-52208500D01*
X146049769Y-52208500D01*
X146061738Y-52207326D01*
X146092506Y-52204310D01*
X146093819Y-52204188D01*
X146138084Y-52200315D01*
X146186413Y-52196087D01*
X146191532Y-52194600D01*
X146196833Y-52194080D01*
X146285834Y-52167209D01*
X146286967Y-52166874D01*
X146370414Y-52142630D01*
X146370418Y-52142628D01*
X146376336Y-52140909D01*
X146381068Y-52138456D01*
X146386169Y-52136916D01*
X146391612Y-52134022D01*
X146468260Y-52093269D01*
X146469426Y-52092657D01*
X146546453Y-52052729D01*
X146551926Y-52049892D01*
X146556089Y-52046569D01*
X146560796Y-52044066D01*
X146632918Y-51985245D01*
X146633774Y-51984554D01*
X146672973Y-51953262D01*
X146675477Y-51950758D01*
X146676195Y-51950116D01*
X146680528Y-51946415D01*
X146714062Y-51919065D01*
X146743288Y-51883737D01*
X146751277Y-51874958D01*
X147729833Y-50896402D01*
X148895829Y-49730405D01*
X148958141Y-49696380D01*
X148984924Y-49693500D01*
X149618991Y-49693500D01*
X149687112Y-49713502D01*
X149733605Y-49767158D01*
X149735903Y-49772694D01*
X149736232Y-49773296D01*
X149739385Y-49781705D01*
X149826739Y-49898261D01*
X149943295Y-49985615D01*
X149951704Y-49988767D01*
X149951705Y-49988768D01*
X150060451Y-50029535D01*
X150117216Y-50072176D01*
X150141916Y-50138738D01*
X150126709Y-50208087D01*
X150107316Y-50234568D01*
X149980629Y-50367138D01*
X149854743Y-50551680D01*
X149760688Y-50754305D01*
X149700989Y-50969570D01*
X149677251Y-51191695D01*
X149677548Y-51196848D01*
X149677548Y-51196851D01*
X149682917Y-51289965D01*
X149690110Y-51414715D01*
X149691247Y-51419761D01*
X149691248Y-51419767D01*
X149708684Y-51497134D01*
X149739222Y-51632639D01*
X149765484Y-51697316D01*
X149772243Y-51713961D01*
X149781500Y-51761365D01*
X149781500Y-64921522D01*
X149761498Y-64989643D01*
X149744595Y-65010617D01*
X147550617Y-67204595D01*
X147488305Y-67238621D01*
X147461522Y-67241500D01*
X146206692Y-67241500D01*
X146164632Y-67234273D01*
X146022087Y-67183795D01*
X146022083Y-67183794D01*
X146017212Y-67182069D01*
X146012119Y-67181162D01*
X146012116Y-67181161D01*
X145802373Y-67143800D01*
X145802367Y-67143799D01*
X145797284Y-67142894D01*
X145723452Y-67141992D01*
X145579081Y-67140228D01*
X145579079Y-67140228D01*
X145573911Y-67140165D01*
X145353091Y-67173955D01*
X145168548Y-67234273D01*
X145165513Y-67235265D01*
X145126368Y-67241500D01*
X144513500Y-67241500D01*
X144445379Y-67221498D01*
X144398886Y-67167842D01*
X144387500Y-67115500D01*
X144387500Y-66385396D01*
X144388578Y-66368949D01*
X144390747Y-66352472D01*
X144391479Y-66346914D01*
X144390331Y-66322558D01*
X144387640Y-66265504D01*
X144387500Y-66259569D01*
X144387500Y-66237001D01*
X144387252Y-66234218D01*
X144387251Y-66234204D01*
X144385182Y-66211023D01*
X144384823Y-66205760D01*
X144381161Y-66128116D01*
X144380897Y-66122512D01*
X144376892Y-66105023D01*
X144374212Y-66088104D01*
X144373115Y-66075821D01*
X144372617Y-66070238D01*
X144371137Y-66064827D01*
X144350631Y-65989870D01*
X144349345Y-65984752D01*
X144331995Y-65909000D01*
X144331994Y-65908998D01*
X144330742Y-65903530D01*
X144323706Y-65887033D01*
X144318073Y-65870858D01*
X144314815Y-65858953D01*
X144313337Y-65853549D01*
X144310926Y-65848494D01*
X144310924Y-65848489D01*
X144277454Y-65778317D01*
X144275283Y-65773508D01*
X144244805Y-65702053D01*
X144244802Y-65702047D01*
X144242603Y-65696892D01*
X144232756Y-65681902D01*
X144224343Y-65666971D01*
X144219037Y-65655846D01*
X144216622Y-65650782D01*
X144213350Y-65646229D01*
X144213348Y-65646225D01*
X144167990Y-65583103D01*
X144165001Y-65578753D01*
X144121801Y-65512987D01*
X144119265Y-65509126D01*
X144100743Y-65488338D01*
X144092506Y-65478056D01*
X144088799Y-65472897D01*
X144085529Y-65468346D01*
X144008779Y-65393970D01*
X144007368Y-65392581D01*
X143194521Y-64579733D01*
X143183654Y-64567342D01*
X143173538Y-64554159D01*
X143170123Y-64549708D01*
X143165977Y-64545935D01*
X143165972Y-64545930D01*
X143109836Y-64494851D01*
X143105541Y-64490753D01*
X143089590Y-64474802D01*
X143087440Y-64473004D01*
X143069577Y-64458068D01*
X143065602Y-64454600D01*
X143008112Y-64402288D01*
X143008103Y-64402281D01*
X143003964Y-64398515D01*
X142988773Y-64388986D01*
X142974907Y-64378911D01*
X142965451Y-64371004D01*
X142965441Y-64370997D01*
X142961146Y-64367406D01*
X142888752Y-64326113D01*
X142884232Y-64323408D01*
X142874620Y-64317378D01*
X142833202Y-64291397D01*
X142818404Y-64282114D01*
X142818401Y-64282112D01*
X142813656Y-64279136D01*
X142808451Y-64277043D01*
X142808448Y-64277042D01*
X142797021Y-64272448D01*
X142781589Y-64264988D01*
X142770881Y-64258880D01*
X142770872Y-64258876D01*
X142766007Y-64256101D01*
X142760730Y-64254232D01*
X142760725Y-64254230D01*
X142687458Y-64228285D01*
X142682522Y-64226420D01*
X142610416Y-64197434D01*
X142605217Y-64195344D01*
X142599730Y-64194208D01*
X142599728Y-64194207D01*
X142587651Y-64191706D01*
X142571156Y-64187101D01*
X142554241Y-64181111D01*
X142471990Y-64167641D01*
X142466820Y-64166683D01*
X142407291Y-64154355D01*
X142389758Y-64150724D01*
X142389757Y-64150724D01*
X142385233Y-64149787D01*
X142380621Y-64149521D01*
X142380620Y-64149521D01*
X142357452Y-64148185D01*
X142344347Y-64146738D01*
X142338090Y-64145714D01*
X142338086Y-64145714D01*
X142332543Y-64144806D01*
X142326930Y-64144894D01*
X142326928Y-64144894D01*
X142225736Y-64146484D01*
X142223757Y-64146500D01*
X130901396Y-64146500D01*
X130884949Y-64145422D01*
X130880270Y-64144806D01*
X130862914Y-64142521D01*
X130857314Y-64142785D01*
X130857313Y-64142785D01*
X130781504Y-64146360D01*
X130775569Y-64146500D01*
X113375395Y-64146500D01*
X113358948Y-64145422D01*
X113342483Y-64143254D01*
X113342479Y-64143254D01*
X113336913Y-64142521D01*
X113255512Y-64146360D01*
X113249576Y-64146500D01*
X113227001Y-64146500D01*
X113208118Y-64148185D01*
X113201011Y-64148819D01*
X113195749Y-64149178D01*
X113182838Y-64149787D01*
X113112512Y-64153104D01*
X113107053Y-64154354D01*
X113107048Y-64154355D01*
X113095030Y-64157108D01*
X113078101Y-64159789D01*
X113060238Y-64161383D01*
X113054822Y-64162865D01*
X113054820Y-64162865D01*
X112979867Y-64183370D01*
X112974749Y-64184656D01*
X112899000Y-64202005D01*
X112898998Y-64202006D01*
X112893530Y-64203258D01*
X112883030Y-64207737D01*
X112877033Y-64210294D01*
X112860858Y-64215927D01*
X112848961Y-64219182D01*
X112848957Y-64219183D01*
X112843549Y-64220663D01*
X112838483Y-64223079D01*
X112838484Y-64223079D01*
X112768333Y-64256539D01*
X112763524Y-64258710D01*
X112692051Y-64289196D01*
X112686891Y-64291397D01*
X112671890Y-64301251D01*
X112656975Y-64309654D01*
X112640782Y-64317378D01*
X112636234Y-64320646D01*
X112636229Y-64320649D01*
X112573114Y-64366002D01*
X112568777Y-64368982D01*
X112499125Y-64414735D01*
X112478344Y-64433251D01*
X112468048Y-64441500D01*
X112458346Y-64448471D01*
X112430904Y-64476789D01*
X112383968Y-64525223D01*
X112382579Y-64526633D01*
X111544737Y-65364475D01*
X111532347Y-65375342D01*
X111514708Y-65388877D01*
X111460188Y-65448794D01*
X111459842Y-65449174D01*
X111455743Y-65453469D01*
X111439802Y-65469410D01*
X111438007Y-65471557D01*
X111438005Y-65471559D01*
X111423068Y-65489423D01*
X111419600Y-65493398D01*
X111367288Y-65550888D01*
X111367281Y-65550897D01*
X111363515Y-65555036D01*
X111360538Y-65559782D01*
X111360537Y-65559783D01*
X111353987Y-65570225D01*
X111343911Y-65584093D01*
X111336004Y-65593549D01*
X111335997Y-65593559D01*
X111332406Y-65597854D01*
X111291118Y-65670240D01*
X111288413Y-65674759D01*
X111244136Y-65745344D01*
X111242043Y-65750549D01*
X111242042Y-65750552D01*
X111237448Y-65761979D01*
X111229988Y-65777411D01*
X111223880Y-65788119D01*
X111223876Y-65788128D01*
X111221101Y-65792993D01*
X111219232Y-65798270D01*
X111219230Y-65798275D01*
X111193285Y-65871542D01*
X111191420Y-65876478D01*
X111160344Y-65953783D01*
X111159208Y-65959270D01*
X111159207Y-65959272D01*
X111156706Y-65971349D01*
X111152101Y-65987844D01*
X111146111Y-66004759D01*
X111134870Y-66073404D01*
X111132643Y-66087001D01*
X111131683Y-66092180D01*
X111114787Y-66173767D01*
X111114521Y-66178379D01*
X111114521Y-66178380D01*
X111113185Y-66201548D01*
X111111738Y-66214653D01*
X111110714Y-66220910D01*
X111109806Y-66226457D01*
X111109894Y-66232070D01*
X111109894Y-66232072D01*
X111111484Y-66333264D01*
X111111500Y-66335243D01*
X111111500Y-67255126D01*
X111091498Y-67323247D01*
X111086339Y-67330673D01*
X111069385Y-67353295D01*
X111066233Y-67361703D01*
X111066232Y-67361705D01*
X111024722Y-67472433D01*
X110982081Y-67529198D01*
X110915519Y-67553898D01*
X110846170Y-67538691D01*
X110813546Y-67513004D01*
X110762799Y-67457234D01*
X110755273Y-67450215D01*
X110588139Y-67318222D01*
X110579552Y-67312517D01*
X110393117Y-67209599D01*
X110383705Y-67205369D01*
X110182959Y-67134280D01*
X110172988Y-67131646D01*
X110101837Y-67118972D01*
X110088540Y-67120432D01*
X110084000Y-67134989D01*
X110084000Y-69768517D01*
X109576000Y-69768517D01*
X109576000Y-67133102D01*
X109572082Y-67119758D01*
X109557806Y-67117771D01*
X109519324Y-67123660D01*
X109509288Y-67126051D01*
X109306868Y-67192212D01*
X109297359Y-67196209D01*
X109108463Y-67294542D01*
X109099738Y-67300036D01*
X108929433Y-67427905D01*
X108921726Y-67434748D01*
X108774590Y-67588717D01*
X108768109Y-67596722D01*
X108663498Y-67750074D01*
X108608587Y-67795076D01*
X108538062Y-67803247D01*
X108474315Y-67771993D01*
X108453618Y-67747509D01*
X108372822Y-67622617D01*
X108372820Y-67622614D01*
X108370014Y-67618277D01*
X108219670Y-67453051D01*
X108215619Y-67449852D01*
X108215615Y-67449848D01*
X108048414Y-67317800D01*
X108048410Y-67317798D01*
X108044359Y-67314598D01*
X108008028Y-67294542D01*
X107984791Y-67281715D01*
X107848789Y-67206638D01*
X107843920Y-67204914D01*
X107843916Y-67204912D01*
X107643087Y-67133795D01*
X107643083Y-67133794D01*
X107638212Y-67132069D01*
X107633119Y-67131162D01*
X107633116Y-67131161D01*
X107423373Y-67093800D01*
X107423367Y-67093799D01*
X107418284Y-67092894D01*
X107344452Y-67091992D01*
X107200081Y-67090228D01*
X107200079Y-67090228D01*
X107194911Y-67090165D01*
X106974091Y-67123955D01*
X106761756Y-67193357D01*
X106563607Y-67296507D01*
X106559474Y-67299610D01*
X106559471Y-67299612D01*
X106468091Y-67368222D01*
X106384965Y-67430635D01*
X106230629Y-67592138D01*
X106123201Y-67749621D01*
X106068293Y-67794621D01*
X105997768Y-67802792D01*
X105934021Y-67771538D01*
X105913324Y-67747054D01*
X105832822Y-67622617D01*
X105832820Y-67622614D01*
X105830014Y-67618277D01*
X105679670Y-67453051D01*
X105675619Y-67449852D01*
X105675615Y-67449848D01*
X105508414Y-67317800D01*
X105508410Y-67317798D01*
X105504359Y-67314598D01*
X105468028Y-67294542D01*
X105444791Y-67281715D01*
X105308789Y-67206638D01*
X105303920Y-67204914D01*
X105303916Y-67204912D01*
X105103087Y-67133795D01*
X105103083Y-67133794D01*
X105098212Y-67132069D01*
X105093119Y-67131162D01*
X105093116Y-67131161D01*
X104883373Y-67093800D01*
X104883367Y-67093799D01*
X104878284Y-67092894D01*
X104804452Y-67091992D01*
X104660081Y-67090228D01*
X104660079Y-67090228D01*
X104654911Y-67090165D01*
X104434091Y-67123955D01*
X104221756Y-67193357D01*
X104023607Y-67296507D01*
X104019474Y-67299610D01*
X104019471Y-67299612D01*
X103928091Y-67368222D01*
X103844965Y-67430635D01*
X103690629Y-67592138D01*
X103687720Y-67596403D01*
X103687714Y-67596411D01*
X103656521Y-67642138D01*
X103564743Y-67776680D01*
X103470688Y-67979305D01*
X103410989Y-68194570D01*
X103387251Y-68416695D01*
X63439271Y-68416695D01*
X63560574Y-68225554D01*
X63573631Y-68199707D01*
X63735977Y-67878313D01*
X63737363Y-67875570D01*
X63744660Y-67856757D01*
X63878041Y-67512881D01*
X63878044Y-67512872D01*
X63879156Y-67510005D01*
X63972983Y-67173955D01*
X63983772Y-67135314D01*
X63983773Y-67135312D01*
X63984600Y-67132348D01*
X64052688Y-66746204D01*
X64075516Y-66449528D01*
X64082619Y-66357213D01*
X64082619Y-66357202D01*
X64082769Y-66355259D01*
X64084334Y-66243200D01*
X64082773Y-66211270D01*
X64067469Y-65898368D01*
X64065180Y-65851567D01*
X64007901Y-65463673D01*
X63984626Y-65370320D01*
X63973045Y-65323875D01*
X63913043Y-65083219D01*
X63907586Y-65067892D01*
X63838521Y-64873938D01*
X63811529Y-64798134D01*
X68526500Y-64798134D01*
X68533255Y-64860316D01*
X68584385Y-64996705D01*
X68671739Y-65113261D01*
X68788295Y-65200615D01*
X68924684Y-65251745D01*
X68986866Y-65258500D01*
X70783134Y-65258500D01*
X70845316Y-65251745D01*
X70981705Y-65200615D01*
X71098261Y-65113261D01*
X71185615Y-64996705D01*
X71213800Y-64921522D01*
X71229598Y-64879382D01*
X71272240Y-64822618D01*
X71338802Y-64797918D01*
X71408150Y-64813126D01*
X71442817Y-64841114D01*
X71471250Y-64873938D01*
X71643126Y-65016632D01*
X71836000Y-65129338D01*
X72044692Y-65209030D01*
X72049760Y-65210061D01*
X72049763Y-65210062D01*
X72157017Y-65231883D01*
X72263597Y-65253567D01*
X72268772Y-65253757D01*
X72268774Y-65253757D01*
X72481673Y-65261564D01*
X72481677Y-65261564D01*
X72486837Y-65261753D01*
X72491957Y-65261097D01*
X72491959Y-65261097D01*
X72703288Y-65234025D01*
X72703289Y-65234025D01*
X72708416Y-65233368D01*
X72713366Y-65231883D01*
X72917429Y-65170661D01*
X72917434Y-65170659D01*
X72922384Y-65169174D01*
X73122994Y-65070896D01*
X73304860Y-64941173D01*
X73463096Y-64783489D01*
X73593453Y-64602077D01*
X73617136Y-64554159D01*
X73690136Y-64406453D01*
X73690137Y-64406451D01*
X73692430Y-64401811D01*
X73757370Y-64188069D01*
X73786529Y-63966590D01*
X73788156Y-63900000D01*
X73769852Y-63677361D01*
X73715431Y-63460702D01*
X73713375Y-63455973D01*
X73713372Y-63455965D01*
X73693950Y-63411298D01*
X73683500Y-63361056D01*
X73683500Y-57928477D01*
X73703502Y-57860356D01*
X73720405Y-57839382D01*
X76031903Y-55527885D01*
X78407000Y-55527885D01*
X78411475Y-55543124D01*
X78412865Y-55544329D01*
X78420548Y-55546000D01*
X79367885Y-55546000D01*
X79383124Y-55541525D01*
X79384329Y-55540135D01*
X79386000Y-55532452D01*
X79386000Y-55527885D01*
X79894000Y-55527885D01*
X79898475Y-55543124D01*
X79899865Y-55544329D01*
X79907548Y-55546000D01*
X80854884Y-55546000D01*
X80870123Y-55541525D01*
X80871328Y-55540135D01*
X80872999Y-55532452D01*
X80872999Y-55502905D01*
X80872662Y-55496386D01*
X80862743Y-55400794D01*
X80859851Y-55387400D01*
X80808412Y-55233216D01*
X80802239Y-55220038D01*
X80716937Y-55082193D01*
X80707901Y-55070792D01*
X80593171Y-54956261D01*
X80581760Y-54947249D01*
X80443757Y-54862184D01*
X80430576Y-54856037D01*
X80276290Y-54804862D01*
X80262914Y-54801995D01*
X80168562Y-54792328D01*
X80162145Y-54792000D01*
X79912115Y-54792000D01*
X79896876Y-54796475D01*
X79895671Y-54797865D01*
X79894000Y-54805548D01*
X79894000Y-55527885D01*
X79386000Y-55527885D01*
X79386000Y-54810116D01*
X79381525Y-54794877D01*
X79380135Y-54793672D01*
X79372452Y-54792001D01*
X79117905Y-54792001D01*
X79111386Y-54792338D01*
X79015794Y-54802257D01*
X79002400Y-54805149D01*
X78848216Y-54856588D01*
X78835038Y-54862761D01*
X78697193Y-54948063D01*
X78685792Y-54957099D01*
X78571261Y-55071829D01*
X78562249Y-55083240D01*
X78477184Y-55221243D01*
X78471037Y-55234424D01*
X78419862Y-55388710D01*
X78416995Y-55402086D01*
X78407328Y-55496438D01*
X78407000Y-55502855D01*
X78407000Y-55527885D01*
X76031903Y-55527885D01*
X77884383Y-53675405D01*
X77946695Y-53641379D01*
X77973478Y-53638500D01*
X82036522Y-53638500D01*
X82104643Y-53658502D01*
X82125618Y-53675405D01*
X82177196Y-53726984D01*
X82211221Y-53789297D01*
X82214100Y-53816079D01*
X82214100Y-53835326D01*
X82194098Y-53903447D01*
X82188939Y-53910873D01*
X82171985Y-53933495D01*
X82120855Y-54069884D01*
X82114100Y-54132066D01*
X82114100Y-55928334D01*
X82120855Y-55990516D01*
X82171985Y-56126905D01*
X82259339Y-56243461D01*
X82375895Y-56330815D01*
X82384304Y-56333967D01*
X82384305Y-56333968D01*
X82493051Y-56374735D01*
X82549816Y-56417376D01*
X82574516Y-56483938D01*
X82559309Y-56553287D01*
X82539916Y-56579768D01*
X82472309Y-56650515D01*
X82470363Y-56652551D01*
X82408839Y-56687981D01*
X82379269Y-56691500D01*
X80835721Y-56691500D01*
X80767600Y-56671498D01*
X80721107Y-56617842D01*
X80711003Y-56547568D01*
X80728461Y-56499384D01*
X80802816Y-56378757D01*
X80808963Y-56365576D01*
X80860138Y-56211290D01*
X80863005Y-56197914D01*
X80872672Y-56103562D01*
X80873000Y-56097146D01*
X80873000Y-56072115D01*
X80868525Y-56056876D01*
X80867135Y-56055671D01*
X80859452Y-56054000D01*
X78425116Y-56054000D01*
X78409877Y-56058475D01*
X78408672Y-56059865D01*
X78407001Y-56067548D01*
X78407001Y-56097095D01*
X78407338Y-56103614D01*
X78417257Y-56199206D01*
X78420149Y-56212600D01*
X78471588Y-56366784D01*
X78477761Y-56379962D01*
X78563063Y-56517807D01*
X78572099Y-56529208D01*
X78686828Y-56643738D01*
X78695762Y-56650794D01*
X78736823Y-56708712D01*
X78740053Y-56779635D01*
X78704426Y-56841046D01*
X78696593Y-56847846D01*
X78690652Y-56851522D01*
X78565695Y-56976697D01*
X78561855Y-56982927D01*
X78561854Y-56982928D01*
X78509666Y-57067593D01*
X78472885Y-57127262D01*
X78417203Y-57295139D01*
X78416503Y-57301975D01*
X78416502Y-57301978D01*
X78415647Y-57310327D01*
X78406500Y-57399600D01*
X78406500Y-58000400D01*
X78406837Y-58003646D01*
X78406837Y-58003650D01*
X78416496Y-58096739D01*
X78417474Y-58106166D01*
X78419655Y-58112702D01*
X78419655Y-58112704D01*
X78430955Y-58146574D01*
X78473450Y-58273946D01*
X78566522Y-58424348D01*
X78691697Y-58549305D01*
X78697927Y-58553145D01*
X78697928Y-58553146D01*
X78797260Y-58614375D01*
X78842262Y-58642115D01*
X78911774Y-58665171D01*
X79003611Y-58695632D01*
X79003613Y-58695632D01*
X79010139Y-58697797D01*
X79016975Y-58698497D01*
X79016978Y-58698498D01*
X79060031Y-58702909D01*
X79114600Y-58708500D01*
X82693691Y-58708500D01*
X82757261Y-58725712D01*
X82883600Y-58799538D01*
X83092292Y-58879230D01*
X83097360Y-58880261D01*
X83097363Y-58880262D01*
X83204617Y-58902083D01*
X83311197Y-58923767D01*
X83316372Y-58923957D01*
X83316374Y-58923957D01*
X83529273Y-58931764D01*
X83529277Y-58931764D01*
X83534437Y-58931953D01*
X83539557Y-58931297D01*
X83539559Y-58931297D01*
X83750888Y-58904225D01*
X83750889Y-58904225D01*
X83756016Y-58903568D01*
X83795704Y-58891661D01*
X83965029Y-58840861D01*
X83965034Y-58840859D01*
X83969984Y-58839374D01*
X84170594Y-58741096D01*
X84352460Y-58611373D01*
X84355486Y-58608357D01*
X84420188Y-58579770D01*
X84436576Y-58578700D01*
X103490500Y-58578700D01*
X103558621Y-58598702D01*
X103605114Y-58652358D01*
X103616500Y-58704700D01*
X103616500Y-60208134D01*
X103623255Y-60270316D01*
X103674385Y-60406705D01*
X103761739Y-60523261D01*
X103878295Y-60610615D01*
X104014684Y-60661745D01*
X104076866Y-60668500D01*
X105873134Y-60668500D01*
X105935316Y-60661745D01*
X106071705Y-60610615D01*
X106188261Y-60523261D01*
X106275615Y-60406705D01*
X106326745Y-60270316D01*
X106333500Y-60208134D01*
X106333500Y-58442000D01*
X135577654Y-58442000D01*
X135577924Y-58446119D01*
X135595100Y-58708172D01*
X135597017Y-58737426D01*
X135597819Y-58741459D01*
X135597820Y-58741465D01*
X135645816Y-58982753D01*
X135654776Y-59027797D01*
X135749941Y-59308145D01*
X135880885Y-59573673D01*
X136045367Y-59819838D01*
X136048081Y-59822932D01*
X136048085Y-59822938D01*
X136172948Y-59965316D01*
X136240573Y-60042427D01*
X136243662Y-60045136D01*
X136460062Y-60234915D01*
X136460068Y-60234919D01*
X136463162Y-60237633D01*
X136466588Y-60239922D01*
X136466593Y-60239926D01*
X136650405Y-60362744D01*
X136709327Y-60402115D01*
X136713026Y-60403939D01*
X136713031Y-60403942D01*
X136733206Y-60413891D01*
X136974855Y-60533059D01*
X136978760Y-60534384D01*
X136978761Y-60534385D01*
X137251290Y-60626896D01*
X137251294Y-60626897D01*
X137255203Y-60628224D01*
X137259247Y-60629028D01*
X137259253Y-60629030D01*
X137541535Y-60685180D01*
X137541541Y-60685181D01*
X137545574Y-60685983D01*
X137549679Y-60686252D01*
X137549686Y-60686253D01*
X137836881Y-60705076D01*
X137841000Y-60705346D01*
X137845119Y-60705076D01*
X138132314Y-60686253D01*
X138132321Y-60686252D01*
X138136426Y-60685983D01*
X138140459Y-60685181D01*
X138140465Y-60685180D01*
X138422747Y-60629030D01*
X138422753Y-60629028D01*
X138426797Y-60628224D01*
X138430706Y-60626897D01*
X138430710Y-60626896D01*
X138703239Y-60534385D01*
X138703240Y-60534384D01*
X138707145Y-60533059D01*
X138948794Y-60413891D01*
X138968969Y-60403942D01*
X138968974Y-60403939D01*
X138972673Y-60402115D01*
X139031595Y-60362744D01*
X139215407Y-60239926D01*
X139215412Y-60239922D01*
X139218838Y-60237633D01*
X139221932Y-60234919D01*
X139221938Y-60234915D01*
X139438338Y-60045136D01*
X139441427Y-60042427D01*
X139509052Y-59965316D01*
X139633915Y-59822938D01*
X139633919Y-59822932D01*
X139636633Y-59819838D01*
X139801115Y-59573673D01*
X139932059Y-59308145D01*
X140027224Y-59027797D01*
X140036184Y-58982753D01*
X140084180Y-58741465D01*
X140084181Y-58741459D01*
X140084983Y-58737426D01*
X140086901Y-58708172D01*
X140104076Y-58446119D01*
X140104346Y-58442000D01*
X140098295Y-58349684D01*
X140085253Y-58150686D01*
X140085252Y-58150679D01*
X140084983Y-58146574D01*
X140080257Y-58122811D01*
X140028030Y-57860253D01*
X140028028Y-57860247D01*
X140027224Y-57856203D01*
X140005342Y-57791739D01*
X139933385Y-57579761D01*
X139933384Y-57579760D01*
X139932059Y-57575855D01*
X139842912Y-57395083D01*
X139802942Y-57314031D01*
X139802939Y-57314026D01*
X139801115Y-57310327D01*
X139702592Y-57162877D01*
X139638926Y-57067593D01*
X139638922Y-57067588D01*
X139636633Y-57064162D01*
X139633919Y-57061068D01*
X139633915Y-57061062D01*
X139444136Y-56844662D01*
X139441427Y-56841573D01*
X139400807Y-56805950D01*
X139221938Y-56649085D01*
X139221932Y-56649081D01*
X139218838Y-56646367D01*
X139215412Y-56644078D01*
X139215407Y-56644074D01*
X139026434Y-56517807D01*
X138972673Y-56481885D01*
X138968974Y-56480061D01*
X138968969Y-56480058D01*
X138784477Y-56389077D01*
X138707145Y-56350941D01*
X138657144Y-56333968D01*
X138430710Y-56257104D01*
X138430706Y-56257103D01*
X138426797Y-56255776D01*
X138422753Y-56254972D01*
X138422747Y-56254970D01*
X138140465Y-56198820D01*
X138140459Y-56198819D01*
X138136426Y-56198017D01*
X138132321Y-56197748D01*
X138132314Y-56197747D01*
X137845119Y-56178924D01*
X137841000Y-56178654D01*
X137836881Y-56178924D01*
X137549686Y-56197747D01*
X137549679Y-56197748D01*
X137545574Y-56198017D01*
X137541541Y-56198819D01*
X137541535Y-56198820D01*
X137259253Y-56254970D01*
X137259247Y-56254972D01*
X137255203Y-56255776D01*
X137251294Y-56257103D01*
X137251290Y-56257104D01*
X137024856Y-56333968D01*
X136974855Y-56350941D01*
X136897523Y-56389077D01*
X136713031Y-56480058D01*
X136713026Y-56480061D01*
X136709327Y-56481885D01*
X136655566Y-56517807D01*
X136466593Y-56644074D01*
X136466588Y-56644078D01*
X136463162Y-56646367D01*
X136460068Y-56649081D01*
X136460062Y-56649085D01*
X136281193Y-56805950D01*
X136240573Y-56841573D01*
X136237864Y-56844662D01*
X136048085Y-57061062D01*
X136048081Y-57061068D01*
X136045367Y-57064162D01*
X136043078Y-57067588D01*
X136043074Y-57067593D01*
X135979408Y-57162877D01*
X135880885Y-57310327D01*
X135879061Y-57314026D01*
X135879058Y-57314031D01*
X135839088Y-57395083D01*
X135749941Y-57575855D01*
X135748616Y-57579760D01*
X135748615Y-57579761D01*
X135676659Y-57791739D01*
X135654776Y-57856203D01*
X135653972Y-57860247D01*
X135653970Y-57860253D01*
X135601744Y-58122811D01*
X135597017Y-58146574D01*
X135596748Y-58150679D01*
X135596747Y-58150686D01*
X135583705Y-58349684D01*
X135577654Y-58442000D01*
X106333500Y-58442000D01*
X106333500Y-58411866D01*
X106326745Y-58349684D01*
X106275615Y-58213295D01*
X106188261Y-58096739D01*
X106071705Y-58009385D01*
X106063296Y-58006233D01*
X106055425Y-58001923D01*
X106056336Y-58000259D01*
X106008510Y-57964337D01*
X105983807Y-57897776D01*
X105983500Y-57888991D01*
X105983500Y-57700236D01*
X106007177Y-57626710D01*
X106118435Y-57471877D01*
X106121453Y-57467677D01*
X106142964Y-57424154D01*
X106218136Y-57272053D01*
X106218137Y-57272051D01*
X106220430Y-57267411D01*
X106263517Y-57125595D01*
X106283865Y-57058623D01*
X106283865Y-57058621D01*
X106285370Y-57053669D01*
X106314529Y-56832190D01*
X106315170Y-56805950D01*
X106316074Y-56768965D01*
X106316074Y-56768961D01*
X106316156Y-56765600D01*
X106297852Y-56542961D01*
X106243431Y-56326302D01*
X106154354Y-56121440D01*
X106097437Y-56033460D01*
X106035822Y-55938217D01*
X106035820Y-55938214D01*
X106033014Y-55933877D01*
X105882670Y-55768651D01*
X105878619Y-55765452D01*
X105878615Y-55765448D01*
X105711414Y-55633400D01*
X105711410Y-55633398D01*
X105707359Y-55630198D01*
X105698398Y-55625251D01*
X105570264Y-55554518D01*
X105511789Y-55522238D01*
X105506920Y-55520514D01*
X105506916Y-55520512D01*
X105306087Y-55449395D01*
X105306083Y-55449394D01*
X105301212Y-55447669D01*
X105296119Y-55446762D01*
X105296116Y-55446761D01*
X105086373Y-55409400D01*
X105086367Y-55409399D01*
X105081284Y-55408494D01*
X105007452Y-55407592D01*
X104863081Y-55405828D01*
X104863079Y-55405828D01*
X104857911Y-55405765D01*
X104637091Y-55439555D01*
X104424756Y-55508957D01*
X104394443Y-55524737D01*
X104267069Y-55591044D01*
X104226607Y-55612107D01*
X104222474Y-55615210D01*
X104222471Y-55615212D01*
X104052100Y-55743130D01*
X104047965Y-55746235D01*
X103893629Y-55907738D01*
X103767743Y-56092280D01*
X103752003Y-56126190D01*
X103677320Y-56287081D01*
X103673688Y-56294905D01*
X103639909Y-56416707D01*
X103625303Y-56469373D01*
X103587824Y-56529670D01*
X103523695Y-56560133D01*
X103503886Y-56561700D01*
X84637456Y-56561700D01*
X84569335Y-56541698D01*
X84522842Y-56488042D01*
X84512738Y-56417768D01*
X84542232Y-56353188D01*
X84569553Y-56331146D01*
X84569305Y-56330815D01*
X84610899Y-56299642D01*
X84685861Y-56243461D01*
X84773215Y-56126905D01*
X84824345Y-55990516D01*
X84831100Y-55928334D01*
X84831100Y-54132066D01*
X84824345Y-54069884D01*
X84773215Y-53933495D01*
X84756273Y-53910889D01*
X84731426Y-53844385D01*
X84731100Y-53835326D01*
X84731100Y-53333996D01*
X84732178Y-53317549D01*
X84734347Y-53301072D01*
X84735079Y-53295514D01*
X84731240Y-53214104D01*
X84731100Y-53208169D01*
X84731100Y-53185601D01*
X84730852Y-53182818D01*
X84730851Y-53182804D01*
X84728782Y-53159623D01*
X84728423Y-53154360D01*
X84724761Y-53076716D01*
X84724497Y-53071112D01*
X84720492Y-53053623D01*
X84717812Y-53036704D01*
X84716715Y-53024421D01*
X84716217Y-53018838D01*
X84714737Y-53013427D01*
X84694231Y-52938470D01*
X84692945Y-52933352D01*
X84675594Y-52857597D01*
X84674342Y-52852130D01*
X84667307Y-52835637D01*
X84661672Y-52819455D01*
X84658420Y-52807567D01*
X84658417Y-52807558D01*
X84656937Y-52802149D01*
X84654522Y-52797086D01*
X84654518Y-52797075D01*
X84621066Y-52726943D01*
X84618893Y-52722132D01*
X84588403Y-52650648D01*
X84586204Y-52645492D01*
X84576356Y-52630500D01*
X84567944Y-52615571D01*
X84560222Y-52599382D01*
X84511596Y-52531711D01*
X84508613Y-52527371D01*
X84465405Y-52461592D01*
X84465401Y-52461587D01*
X84462865Y-52457726D01*
X84444351Y-52436946D01*
X84436106Y-52426655D01*
X84432407Y-52421507D01*
X84432403Y-52421503D01*
X84429129Y-52416946D01*
X84352377Y-52342568D01*
X84350967Y-52341179D01*
X83564525Y-51554737D01*
X83553657Y-51542346D01*
X83543533Y-51529152D01*
X83540123Y-51524708D01*
X83479826Y-51469842D01*
X83475531Y-51465743D01*
X83459590Y-51449802D01*
X83457440Y-51448004D01*
X83439577Y-51433068D01*
X83435602Y-51429600D01*
X83378112Y-51377288D01*
X83378103Y-51377281D01*
X83373964Y-51373515D01*
X83358773Y-51363986D01*
X83344907Y-51353911D01*
X83335451Y-51346004D01*
X83335441Y-51345997D01*
X83331146Y-51342406D01*
X83258752Y-51301113D01*
X83254232Y-51298408D01*
X83244620Y-51292378D01*
X83203202Y-51266397D01*
X83188404Y-51257114D01*
X83188401Y-51257112D01*
X83183656Y-51254136D01*
X83178451Y-51252043D01*
X83178448Y-51252042D01*
X83167021Y-51247448D01*
X83151589Y-51239988D01*
X83140881Y-51233880D01*
X83140872Y-51233876D01*
X83136007Y-51231101D01*
X83130730Y-51229232D01*
X83130725Y-51229230D01*
X83057458Y-51203285D01*
X83052522Y-51201420D01*
X82980416Y-51172434D01*
X82975217Y-51170344D01*
X82969730Y-51169208D01*
X82969728Y-51169207D01*
X82957651Y-51166706D01*
X82941156Y-51162101D01*
X82924241Y-51156111D01*
X82841990Y-51142641D01*
X82836820Y-51141683D01*
X82777296Y-51129356D01*
X82759758Y-51125724D01*
X82759757Y-51125724D01*
X82755233Y-51124787D01*
X82750621Y-51124521D01*
X82750620Y-51124521D01*
X82727452Y-51123185D01*
X82714347Y-51121738D01*
X82708090Y-51120714D01*
X82708086Y-51120714D01*
X82702543Y-51119806D01*
X82696930Y-51119894D01*
X82696928Y-51119894D01*
X82595736Y-51121484D01*
X82593757Y-51121500D01*
X77491395Y-51121500D01*
X77474948Y-51120422D01*
X77458483Y-51118254D01*
X77458479Y-51118254D01*
X77452913Y-51117521D01*
X77371511Y-51121360D01*
X77365575Y-51121500D01*
X77343001Y-51121500D01*
X77318886Y-51123652D01*
X77317013Y-51123819D01*
X77311750Y-51124178D01*
X77298839Y-51124787D01*
X77228511Y-51128104D01*
X77223048Y-51129355D01*
X77223042Y-51129356D01*
X77211032Y-51132107D01*
X77194100Y-51134789D01*
X77176238Y-51136383D01*
X77170827Y-51137863D01*
X77170823Y-51137864D01*
X77124157Y-51150631D01*
X77095848Y-51158376D01*
X77090750Y-51159656D01*
X77009530Y-51178258D01*
X77004369Y-51180459D01*
X77004370Y-51180459D01*
X76993033Y-51185294D01*
X76976858Y-51190927D01*
X76964961Y-51194182D01*
X76964957Y-51194183D01*
X76959549Y-51195663D01*
X76954483Y-51198079D01*
X76954484Y-51198079D01*
X76884333Y-51231539D01*
X76879524Y-51233710D01*
X76808051Y-51264196D01*
X76802891Y-51266397D01*
X76787890Y-51276251D01*
X76772975Y-51284654D01*
X76756782Y-51292378D01*
X76752234Y-51295646D01*
X76752229Y-51295649D01*
X76689114Y-51341002D01*
X76684777Y-51343982D01*
X76615125Y-51389735D01*
X76594344Y-51408251D01*
X76584048Y-51416500D01*
X76574346Y-51423471D01*
X76546904Y-51451789D01*
X76499968Y-51500223D01*
X76498579Y-51501633D01*
X71599737Y-56400475D01*
X71587347Y-56411342D01*
X71569708Y-56424877D01*
X71561509Y-56433888D01*
X71514842Y-56485174D01*
X71510743Y-56489469D01*
X71494802Y-56505410D01*
X71493007Y-56507557D01*
X71493005Y-56507559D01*
X71478068Y-56525423D01*
X71474600Y-56529398D01*
X71422288Y-56586888D01*
X71422281Y-56586897D01*
X71418515Y-56591036D01*
X71415538Y-56595782D01*
X71415537Y-56595783D01*
X71408987Y-56606225D01*
X71398911Y-56620093D01*
X71391004Y-56629549D01*
X71390997Y-56629559D01*
X71387406Y-56633854D01*
X71384629Y-56638722D01*
X71384628Y-56638724D01*
X71378947Y-56648683D01*
X71327821Y-56697944D01*
X71258178Y-56711744D01*
X71192130Y-56685702D01*
X71150647Y-56628086D01*
X71143500Y-56586254D01*
X71143500Y-55498477D01*
X71163502Y-55430356D01*
X71180405Y-55409382D01*
X77561902Y-49027885D01*
X143187000Y-49027885D01*
X143191475Y-49043124D01*
X143192865Y-49044329D01*
X143200548Y-49046000D01*
X144147885Y-49046000D01*
X144163124Y-49041525D01*
X144164329Y-49040135D01*
X144166000Y-49032452D01*
X144166000Y-49027885D01*
X144674000Y-49027885D01*
X144678475Y-49043124D01*
X144679865Y-49044329D01*
X144687548Y-49046000D01*
X145634884Y-49046000D01*
X145650123Y-49041525D01*
X145651328Y-49040135D01*
X145652999Y-49032452D01*
X145652999Y-49002905D01*
X145652662Y-48996386D01*
X145642743Y-48900794D01*
X145639851Y-48887400D01*
X145588412Y-48733216D01*
X145582239Y-48720038D01*
X145496937Y-48582193D01*
X145487901Y-48570792D01*
X145373171Y-48456261D01*
X145361760Y-48447249D01*
X145223757Y-48362184D01*
X145210576Y-48356037D01*
X145056290Y-48304862D01*
X145042914Y-48301995D01*
X144948562Y-48292328D01*
X144942145Y-48292000D01*
X144692115Y-48292000D01*
X144676876Y-48296475D01*
X144675671Y-48297865D01*
X144674000Y-48305548D01*
X144674000Y-49027885D01*
X144166000Y-49027885D01*
X144166000Y-48310116D01*
X144161525Y-48294877D01*
X144160135Y-48293672D01*
X144152452Y-48292001D01*
X143897905Y-48292001D01*
X143891386Y-48292338D01*
X143795794Y-48302257D01*
X143782400Y-48305149D01*
X143628216Y-48356588D01*
X143615038Y-48362761D01*
X143477193Y-48448063D01*
X143465792Y-48457099D01*
X143351261Y-48571829D01*
X143342249Y-48583240D01*
X143257184Y-48721243D01*
X143251037Y-48734424D01*
X143199862Y-48888710D01*
X143196995Y-48902086D01*
X143187328Y-48996438D01*
X143187000Y-49002855D01*
X143187000Y-49027885D01*
X77561902Y-49027885D01*
X78614382Y-47975405D01*
X78676694Y-47941379D01*
X78703477Y-47938500D01*
X81988604Y-47938500D01*
X82005051Y-47939578D01*
X82021516Y-47941746D01*
X82021520Y-47941746D01*
X82027086Y-47942479D01*
X82108489Y-47938640D01*
X82114424Y-47938500D01*
X82136999Y-47938500D01*
X82162989Y-47936181D01*
X82168248Y-47935822D01*
X82251488Y-47931896D01*
X82256947Y-47930646D01*
X82256952Y-47930645D01*
X82268970Y-47927892D01*
X82285899Y-47925211D01*
X82303762Y-47923617D01*
X82309178Y-47922135D01*
X82309180Y-47922135D01*
X82384133Y-47901630D01*
X82389251Y-47900344D01*
X82465000Y-47882995D01*
X82465002Y-47882994D01*
X82470470Y-47881742D01*
X82480970Y-47877263D01*
X82486967Y-47874706D01*
X82503142Y-47869073D01*
X82515039Y-47865818D01*
X82515043Y-47865817D01*
X82520451Y-47864337D01*
X82567164Y-47842056D01*
X82595667Y-47828461D01*
X82600476Y-47826290D01*
X82671949Y-47795804D01*
X82671950Y-47795804D01*
X82677109Y-47793603D01*
X82692110Y-47783749D01*
X82707025Y-47775346D01*
X82723218Y-47767622D01*
X82727769Y-47764352D01*
X82727772Y-47764350D01*
X82772040Y-47732540D01*
X82790892Y-47718994D01*
X82795232Y-47716011D01*
X82861010Y-47672804D01*
X82861018Y-47672798D01*
X82864874Y-47670265D01*
X82885662Y-47651743D01*
X82895939Y-47643510D01*
X82905654Y-47636529D01*
X82980062Y-47559746D01*
X82981451Y-47558336D01*
X84265463Y-46274325D01*
X84277854Y-46263457D01*
X84291041Y-46253338D01*
X84295492Y-46249923D01*
X84299265Y-46245777D01*
X84299270Y-46245772D01*
X84350349Y-46189636D01*
X84354447Y-46185341D01*
X84370398Y-46169390D01*
X84387142Y-46149364D01*
X84390601Y-46145399D01*
X84442908Y-46087915D01*
X84442909Y-46087914D01*
X84446685Y-46083764D01*
X84456216Y-46068570D01*
X84466285Y-46054710D01*
X84477793Y-46040947D01*
X84519069Y-45968582D01*
X84521779Y-45964053D01*
X84563085Y-45898205D01*
X84566064Y-45893456D01*
X84572753Y-45876817D01*
X84580212Y-45861387D01*
X84586319Y-45850681D01*
X84586323Y-45850672D01*
X84589098Y-45845807D01*
X84616912Y-45767262D01*
X84618773Y-45762337D01*
X84632777Y-45727503D01*
X84649856Y-45685017D01*
X84653496Y-45667439D01*
X84658102Y-45650946D01*
X84664088Y-45634041D01*
X84669706Y-45599738D01*
X84677552Y-45551823D01*
X84678514Y-45546633D01*
X84679620Y-45541296D01*
X84695413Y-45465033D01*
X84695542Y-45462792D01*
X84719379Y-45404307D01*
X84735434Y-45382886D01*
X84735436Y-45382882D01*
X84740815Y-45375705D01*
X84791945Y-45239316D01*
X84798700Y-45177134D01*
X84798700Y-43380866D01*
X84791945Y-43318684D01*
X84740815Y-43182295D01*
X84653461Y-43065739D01*
X84536905Y-42978385D01*
X84537771Y-42977229D01*
X84494402Y-42933763D01*
X84479387Y-42864372D01*
X84504271Y-42797880D01*
X84561154Y-42755396D01*
X84605056Y-42747500D01*
X86049075Y-42747500D01*
X86117196Y-42767502D01*
X86138170Y-42784405D01*
X88298145Y-44944379D01*
X88307247Y-44954522D01*
X88330968Y-44984025D01*
X88369421Y-45016291D01*
X88373070Y-45019473D01*
X88374883Y-45021117D01*
X88377075Y-45023309D01*
X88410276Y-45050580D01*
X88411164Y-45051318D01*
X88430549Y-45067583D01*
X88477753Y-45107193D01*
X88477756Y-45107195D01*
X88482474Y-45111154D01*
X88487147Y-45113723D01*
X88491262Y-45117103D01*
X88496691Y-45120014D01*
X88496694Y-45120016D01*
X88573180Y-45161028D01*
X88574338Y-45161657D01*
X88650388Y-45203465D01*
X88655787Y-45206433D01*
X88660865Y-45208044D01*
X88665563Y-45210563D01*
X88754498Y-45237753D01*
X88755702Y-45238128D01*
X88844306Y-45266235D01*
X88849597Y-45266828D01*
X88854698Y-45268388D01*
X88947311Y-45277795D01*
X88948431Y-45277915D01*
X88998227Y-45283500D01*
X89001756Y-45283500D01*
X89002739Y-45283555D01*
X89008426Y-45284003D01*
X89028683Y-45286060D01*
X89045336Y-45287752D01*
X89045339Y-45287752D01*
X89051463Y-45288374D01*
X89097112Y-45284059D01*
X89108969Y-45283500D01*
X92088991Y-45283500D01*
X92157112Y-45303502D01*
X92203605Y-45357158D01*
X92205903Y-45362694D01*
X92206232Y-45363296D01*
X92209385Y-45371705D01*
X92296739Y-45488261D01*
X92413295Y-45575615D01*
X92549684Y-45626745D01*
X92611866Y-45633500D01*
X94408134Y-45633500D01*
X94470316Y-45626745D01*
X94606705Y-45575615D01*
X94723261Y-45488261D01*
X94810615Y-45371705D01*
X94861745Y-45235316D01*
X94868500Y-45173134D01*
X94868500Y-43376866D01*
X94861745Y-43314684D01*
X94810615Y-43178295D01*
X94723261Y-43061739D01*
X94606705Y-42974385D01*
X94607571Y-42973229D01*
X94564202Y-42929763D01*
X94549187Y-42860372D01*
X94574071Y-42793880D01*
X94630954Y-42751396D01*
X94674856Y-42743500D01*
X103507130Y-42743500D01*
X103575251Y-42763502D01*
X103621744Y-42817158D01*
X103625112Y-42825270D01*
X103655599Y-42906593D01*
X103674385Y-42956705D01*
X103761739Y-43073261D01*
X103878295Y-43160615D01*
X103886704Y-43163767D01*
X103894575Y-43168077D01*
X103893664Y-43169741D01*
X103941490Y-43205663D01*
X103966193Y-43272224D01*
X103966500Y-43281009D01*
X103966500Y-43385759D01*
X103946498Y-43453880D01*
X103931594Y-43472810D01*
X103893629Y-43512538D01*
X103890715Y-43516810D01*
X103890714Y-43516811D01*
X103853290Y-43571673D01*
X103767743Y-43697080D01*
X103673688Y-43899705D01*
X103613989Y-44114970D01*
X103590251Y-44337095D01*
X103590548Y-44342248D01*
X103590548Y-44342251D01*
X103601435Y-44531059D01*
X103603110Y-44560115D01*
X103604247Y-44565161D01*
X103604248Y-44565167D01*
X103618449Y-44628178D01*
X103652222Y-44778039D01*
X103713673Y-44929376D01*
X103733912Y-44979218D01*
X103736266Y-44985016D01*
X103738965Y-44989420D01*
X103849451Y-45169717D01*
X103852987Y-45175488D01*
X103999250Y-45344338D01*
X104111902Y-45437863D01*
X104163208Y-45480458D01*
X104171126Y-45487032D01*
X104364000Y-45599738D01*
X104572692Y-45679430D01*
X104577760Y-45680461D01*
X104577763Y-45680462D01*
X104638456Y-45692810D01*
X104791597Y-45723967D01*
X104796772Y-45724157D01*
X104796774Y-45724157D01*
X105009673Y-45731964D01*
X105009677Y-45731964D01*
X105014837Y-45732153D01*
X105019957Y-45731497D01*
X105019959Y-45731497D01*
X105231288Y-45704425D01*
X105231289Y-45704425D01*
X105236416Y-45703768D01*
X105241366Y-45702283D01*
X105445429Y-45641061D01*
X105445434Y-45641059D01*
X105450384Y-45639574D01*
X105650994Y-45541296D01*
X105832860Y-45411573D01*
X105840152Y-45404307D01*
X105960820Y-45284059D01*
X105991096Y-45253889D01*
X106024265Y-45207730D01*
X106118435Y-45076677D01*
X106121453Y-45072477D01*
X106132307Y-45050517D01*
X106218136Y-44876853D01*
X106218137Y-44876851D01*
X106220430Y-44872211D01*
X106276398Y-44687999D01*
X106283865Y-44663423D01*
X106283865Y-44663421D01*
X106285370Y-44658469D01*
X106314529Y-44436990D01*
X106315233Y-44408171D01*
X106316074Y-44373765D01*
X106316074Y-44373761D01*
X106316156Y-44370400D01*
X106297852Y-44147761D01*
X106243431Y-43931102D01*
X106154354Y-43726240D01*
X106051964Y-43567969D01*
X106035824Y-43543020D01*
X106035822Y-43543017D01*
X106033014Y-43538677D01*
X106016306Y-43520315D01*
X105985254Y-43456469D01*
X105983500Y-43435516D01*
X105983500Y-43281009D01*
X106003502Y-43212888D01*
X106057158Y-43166395D01*
X106062694Y-43164097D01*
X106063296Y-43163768D01*
X106071705Y-43160615D01*
X106188261Y-43073261D01*
X106275615Y-42956705D01*
X106326745Y-42820316D01*
X106333500Y-42758134D01*
X106333500Y-42440000D01*
X109315654Y-42440000D01*
X109315924Y-42444119D01*
X109334145Y-42722115D01*
X109335017Y-42735426D01*
X109335819Y-42739459D01*
X109335820Y-42739465D01*
X109388786Y-43005739D01*
X109392776Y-43025797D01*
X109394103Y-43029706D01*
X109394104Y-43029710D01*
X109479774Y-43282086D01*
X109487941Y-43306145D01*
X109530092Y-43391618D01*
X109611653Y-43557007D01*
X109618885Y-43571673D01*
X109621179Y-43575106D01*
X109725487Y-43731214D01*
X109783367Y-43817838D01*
X109786081Y-43820932D01*
X109786085Y-43820938D01*
X109928749Y-43983614D01*
X109978573Y-44040427D01*
X109981662Y-44043136D01*
X110198062Y-44232915D01*
X110198068Y-44232919D01*
X110201162Y-44235633D01*
X110204588Y-44237922D01*
X110204593Y-44237926D01*
X110345329Y-44331962D01*
X110447327Y-44400115D01*
X110451026Y-44401939D01*
X110451031Y-44401942D01*
X110539896Y-44445765D01*
X110712855Y-44531059D01*
X110716760Y-44532384D01*
X110716761Y-44532385D01*
X110989290Y-44624896D01*
X110989294Y-44624897D01*
X110993203Y-44626224D01*
X110997247Y-44627028D01*
X110997253Y-44627030D01*
X111279535Y-44683180D01*
X111279541Y-44683181D01*
X111283574Y-44683983D01*
X111287679Y-44684252D01*
X111287686Y-44684253D01*
X111574881Y-44703076D01*
X111579000Y-44703346D01*
X111583119Y-44703076D01*
X111870314Y-44684253D01*
X111870321Y-44684252D01*
X111874426Y-44683983D01*
X111878459Y-44683181D01*
X111878465Y-44683180D01*
X112103758Y-44638366D01*
X143092857Y-44638366D01*
X143123165Y-44772846D01*
X143126245Y-44782675D01*
X143206370Y-44980003D01*
X143211013Y-44989194D01*
X143322294Y-45170788D01*
X143328377Y-45179099D01*
X143467813Y-45340067D01*
X143475180Y-45347283D01*
X143639034Y-45483316D01*
X143647481Y-45489231D01*
X143831356Y-45596679D01*
X143840642Y-45601129D01*
X144039601Y-45677103D01*
X144049499Y-45679979D01*
X144152850Y-45701006D01*
X144166899Y-45699810D01*
X144170600Y-45689465D01*
X144170600Y-45688917D01*
X144678600Y-45688917D01*
X144682664Y-45702759D01*
X144696078Y-45704793D01*
X144702784Y-45703934D01*
X144712862Y-45701792D01*
X144916855Y-45640591D01*
X144926442Y-45636833D01*
X145117695Y-45543139D01*
X145126545Y-45537864D01*
X145299928Y-45414192D01*
X145307800Y-45407539D01*
X145458652Y-45257212D01*
X145465330Y-45249365D01*
X145589603Y-45076420D01*
X145594913Y-45067583D01*
X145689270Y-44876667D01*
X145693069Y-44867072D01*
X145754977Y-44663310D01*
X145757155Y-44653237D01*
X145758586Y-44642362D01*
X145756375Y-44628178D01*
X145743217Y-44624400D01*
X144696715Y-44624400D01*
X144681476Y-44628875D01*
X144680271Y-44630265D01*
X144678600Y-44637948D01*
X144678600Y-45688917D01*
X144170600Y-45688917D01*
X144170600Y-44642515D01*
X144166125Y-44627276D01*
X144164735Y-44626071D01*
X144157052Y-44624400D01*
X143107825Y-44624400D01*
X143094294Y-44628373D01*
X143092857Y-44638366D01*
X112103758Y-44638366D01*
X112160747Y-44627030D01*
X112160753Y-44627028D01*
X112164797Y-44626224D01*
X112168706Y-44624897D01*
X112168710Y-44624896D01*
X112441239Y-44532385D01*
X112441240Y-44532384D01*
X112445145Y-44531059D01*
X112618104Y-44445765D01*
X112706969Y-44401942D01*
X112706974Y-44401939D01*
X112710673Y-44400115D01*
X112812671Y-44331962D01*
X112953407Y-44237926D01*
X112953412Y-44237922D01*
X112956838Y-44235633D01*
X112959932Y-44232919D01*
X112959938Y-44232915D01*
X113176338Y-44043136D01*
X113179427Y-44040427D01*
X113229251Y-43983614D01*
X113371915Y-43820938D01*
X113371919Y-43820932D01*
X113374633Y-43817838D01*
X113432514Y-43731214D01*
X113536821Y-43575106D01*
X113539115Y-43571673D01*
X113546348Y-43557007D01*
X113627908Y-43391618D01*
X113670059Y-43306145D01*
X113678226Y-43282086D01*
X113763896Y-43029710D01*
X113763897Y-43029706D01*
X113765224Y-43025797D01*
X113769214Y-43005739D01*
X113819156Y-42754669D01*
X143087001Y-42754669D01*
X143087371Y-42761490D01*
X143092895Y-42812352D01*
X143096521Y-42827604D01*
X143141676Y-42948054D01*
X143150214Y-42963649D01*
X143226715Y-43065724D01*
X143239276Y-43078285D01*
X143341351Y-43154786D01*
X143356948Y-43163325D01*
X143430491Y-43190895D01*
X143487256Y-43233536D01*
X143511956Y-43300098D01*
X143496749Y-43369447D01*
X143477356Y-43395928D01*
X143369190Y-43509117D01*
X143362704Y-43517127D01*
X143242698Y-43693049D01*
X143237600Y-43702023D01*
X143147938Y-43895183D01*
X143144375Y-43904870D01*
X143088989Y-44104583D01*
X143090512Y-44113007D01*
X143102892Y-44116400D01*
X144152485Y-44116400D01*
X144167724Y-44111925D01*
X144168929Y-44110535D01*
X144170600Y-44102852D01*
X144170600Y-44098285D01*
X144678600Y-44098285D01*
X144683075Y-44113524D01*
X144684465Y-44114729D01*
X144692148Y-44116400D01*
X145742944Y-44116400D01*
X145756475Y-44112427D01*
X145757780Y-44103347D01*
X145715814Y-43936275D01*
X145712494Y-43926524D01*
X145627572Y-43731214D01*
X145622705Y-43722139D01*
X145507026Y-43543326D01*
X145500736Y-43535157D01*
X145381803Y-43404452D01*
X145350751Y-43340606D01*
X145359146Y-43270107D01*
X145404322Y-43215339D01*
X145430767Y-43201670D01*
X145533052Y-43163325D01*
X145548649Y-43154786D01*
X145650724Y-43078285D01*
X145663285Y-43065724D01*
X145739786Y-42963649D01*
X145748324Y-42948054D01*
X145793478Y-42827606D01*
X145797105Y-42812351D01*
X145802631Y-42761486D01*
X145803000Y-42754672D01*
X145803000Y-42132115D01*
X145798525Y-42116876D01*
X145797135Y-42115671D01*
X145789452Y-42114000D01*
X144717115Y-42114000D01*
X144701876Y-42118475D01*
X144700671Y-42119865D01*
X144699000Y-42127548D01*
X144699000Y-43195255D01*
X144684322Y-43245245D01*
X144678600Y-43271548D01*
X144678600Y-44098285D01*
X144170600Y-44098285D01*
X144170600Y-43035145D01*
X144185278Y-42985155D01*
X144191000Y-42958852D01*
X144191000Y-42132115D01*
X144186525Y-42116876D01*
X144185135Y-42115671D01*
X144177452Y-42114000D01*
X143105116Y-42114000D01*
X143089877Y-42118475D01*
X143088672Y-42119865D01*
X143087001Y-42127548D01*
X143087001Y-42754669D01*
X113819156Y-42754669D01*
X113822180Y-42739465D01*
X113822181Y-42739459D01*
X113822983Y-42735426D01*
X113823856Y-42722115D01*
X113842076Y-42444119D01*
X113842346Y-42440000D01*
X113839683Y-42399370D01*
X113823253Y-42148686D01*
X113823252Y-42148679D01*
X113822983Y-42144574D01*
X113819597Y-42127548D01*
X113766030Y-41858253D01*
X113766028Y-41858247D01*
X113765224Y-41854203D01*
X113707193Y-41683247D01*
X113674822Y-41587885D01*
X143087000Y-41587885D01*
X143091475Y-41603124D01*
X143092865Y-41604329D01*
X143100548Y-41606000D01*
X144172885Y-41606000D01*
X144188124Y-41601525D01*
X144189329Y-41600135D01*
X144191000Y-41592452D01*
X144191000Y-41587885D01*
X144699000Y-41587885D01*
X144703475Y-41603124D01*
X144704865Y-41604329D01*
X144712548Y-41606000D01*
X145784884Y-41606000D01*
X145800123Y-41601525D01*
X145801328Y-41600135D01*
X145802999Y-41592452D01*
X145802999Y-40965331D01*
X145802629Y-40958510D01*
X145797105Y-40907648D01*
X145793479Y-40892396D01*
X145748324Y-40771946D01*
X145739786Y-40756351D01*
X145663285Y-40654276D01*
X145650724Y-40641715D01*
X145548649Y-40565214D01*
X145533054Y-40556676D01*
X145412606Y-40511522D01*
X145397351Y-40507895D01*
X145346486Y-40502369D01*
X145339672Y-40502000D01*
X144717115Y-40502000D01*
X144701876Y-40506475D01*
X144700671Y-40507865D01*
X144699000Y-40515548D01*
X144699000Y-41587885D01*
X144191000Y-41587885D01*
X144191000Y-40520116D01*
X144186525Y-40504877D01*
X144185135Y-40503672D01*
X144177452Y-40502001D01*
X143550331Y-40502001D01*
X143543510Y-40502371D01*
X143492648Y-40507895D01*
X143477396Y-40511521D01*
X143356946Y-40556676D01*
X143341351Y-40565214D01*
X143239276Y-40641715D01*
X143226715Y-40654276D01*
X143150214Y-40756351D01*
X143141676Y-40771946D01*
X143096522Y-40892394D01*
X143092895Y-40907649D01*
X143087369Y-40958514D01*
X143087000Y-40965328D01*
X143087000Y-41587885D01*
X113674822Y-41587885D01*
X113671385Y-41577761D01*
X113671384Y-41577760D01*
X113670059Y-41573855D01*
X113539115Y-41308327D01*
X113490089Y-41234954D01*
X113376926Y-41065593D01*
X113376922Y-41065588D01*
X113374633Y-41062162D01*
X113371919Y-41059068D01*
X113371915Y-41059062D01*
X113182136Y-40842662D01*
X113179427Y-40839573D01*
X113146319Y-40810538D01*
X112959938Y-40647085D01*
X112959932Y-40647081D01*
X112956838Y-40644367D01*
X112953412Y-40642078D01*
X112953407Y-40642074D01*
X112769595Y-40519256D01*
X112710673Y-40479885D01*
X112706974Y-40478061D01*
X112706969Y-40478058D01*
X112505693Y-40378800D01*
X112445145Y-40348941D01*
X112368136Y-40322800D01*
X112168710Y-40255104D01*
X112168706Y-40255103D01*
X112164797Y-40253776D01*
X112160753Y-40252972D01*
X112160747Y-40252970D01*
X111878465Y-40196820D01*
X111878459Y-40196819D01*
X111874426Y-40196017D01*
X111870321Y-40195748D01*
X111870314Y-40195747D01*
X111583119Y-40176924D01*
X111579000Y-40176654D01*
X111574881Y-40176924D01*
X111287686Y-40195747D01*
X111287679Y-40195748D01*
X111283574Y-40196017D01*
X111279541Y-40196819D01*
X111279535Y-40196820D01*
X110997253Y-40252970D01*
X110997247Y-40252972D01*
X110993203Y-40253776D01*
X110989294Y-40255103D01*
X110989290Y-40255104D01*
X110789864Y-40322800D01*
X110712855Y-40348941D01*
X110652307Y-40378800D01*
X110451031Y-40478058D01*
X110451026Y-40478061D01*
X110447327Y-40479885D01*
X110388405Y-40519256D01*
X110204593Y-40642074D01*
X110204588Y-40642078D01*
X110201162Y-40644367D01*
X110198068Y-40647081D01*
X110198062Y-40647085D01*
X110011681Y-40810538D01*
X109978573Y-40839573D01*
X109975864Y-40842662D01*
X109786085Y-41059062D01*
X109786081Y-41059068D01*
X109783367Y-41062162D01*
X109781078Y-41065588D01*
X109781074Y-41065593D01*
X109667911Y-41234954D01*
X109618885Y-41308327D01*
X109487941Y-41573855D01*
X109486616Y-41577760D01*
X109486615Y-41577761D01*
X109450808Y-41683247D01*
X109392776Y-41854203D01*
X109391972Y-41858247D01*
X109391970Y-41858253D01*
X109338404Y-42127548D01*
X109335017Y-42144574D01*
X109334748Y-42148679D01*
X109334747Y-42148686D01*
X109318317Y-42399370D01*
X109315654Y-42440000D01*
X106333500Y-42440000D01*
X106333500Y-40961866D01*
X106326745Y-40899684D01*
X106275615Y-40763295D01*
X106188261Y-40646739D01*
X106071705Y-40559385D01*
X105935316Y-40508255D01*
X105873134Y-40501500D01*
X104076866Y-40501500D01*
X104014684Y-40508255D01*
X103878295Y-40559385D01*
X103761739Y-40646739D01*
X103739759Y-40676067D01*
X103682900Y-40718580D01*
X103638934Y-40726500D01*
X94468799Y-40726500D01*
X94400678Y-40706498D01*
X94390707Y-40699382D01*
X94268414Y-40602800D01*
X94268410Y-40602798D01*
X94264359Y-40599598D01*
X94234506Y-40583118D01*
X94191513Y-40559385D01*
X94068789Y-40491638D01*
X94063920Y-40489914D01*
X94063916Y-40489912D01*
X93863087Y-40418795D01*
X93863083Y-40418794D01*
X93858212Y-40417069D01*
X93853119Y-40416162D01*
X93853116Y-40416161D01*
X93643373Y-40378800D01*
X93643367Y-40378799D01*
X93638284Y-40377894D01*
X93564452Y-40376992D01*
X93420081Y-40375228D01*
X93420079Y-40375228D01*
X93414911Y-40375165D01*
X93194091Y-40408955D01*
X92981756Y-40478357D01*
X92935626Y-40502371D01*
X92814906Y-40565214D01*
X92783607Y-40581507D01*
X92779474Y-40584610D01*
X92779471Y-40584612D01*
X92609100Y-40712530D01*
X92604965Y-40715635D01*
X92566287Y-40756109D01*
X92474003Y-40852679D01*
X92450629Y-40877138D01*
X92447715Y-40881410D01*
X92447714Y-40881411D01*
X92429890Y-40907540D01*
X92324743Y-41061680D01*
X92322564Y-41066375D01*
X92258862Y-41203610D01*
X92230688Y-41264305D01*
X92170989Y-41479570D01*
X92147251Y-41701695D01*
X92160110Y-41924715D01*
X92161247Y-41929761D01*
X92161248Y-41929767D01*
X92168499Y-41961939D01*
X92209222Y-42142639D01*
X92293266Y-42349616D01*
X92312545Y-42381077D01*
X92391256Y-42509521D01*
X92409987Y-42540088D01*
X92556250Y-42708938D01*
X92560230Y-42712242D01*
X92564981Y-42716187D01*
X92604616Y-42775090D01*
X92606113Y-42846071D01*
X92568997Y-42906593D01*
X92528725Y-42931112D01*
X92473463Y-42951829D01*
X92413295Y-42974385D01*
X92296739Y-43061739D01*
X92209385Y-43178295D01*
X92206233Y-43186703D01*
X92201923Y-43194575D01*
X92200259Y-43193664D01*
X92164337Y-43241490D01*
X92097776Y-43266193D01*
X92088991Y-43266500D01*
X89524924Y-43266500D01*
X89456803Y-43246498D01*
X89435829Y-43229595D01*
X87275855Y-41069621D01*
X87266753Y-41059478D01*
X87246897Y-41034782D01*
X87243032Y-41029975D01*
X87204578Y-40997708D01*
X87200931Y-40994528D01*
X87199119Y-40992885D01*
X87196925Y-40990691D01*
X87163651Y-40963358D01*
X87162853Y-40962696D01*
X87091526Y-40902846D01*
X87086856Y-40900278D01*
X87082739Y-40896897D01*
X87000914Y-40853023D01*
X86999755Y-40852394D01*
X86923619Y-40810538D01*
X86923611Y-40810535D01*
X86918213Y-40807567D01*
X86913131Y-40805955D01*
X86908437Y-40803438D01*
X86819469Y-40776238D01*
X86818441Y-40775918D01*
X86729694Y-40747765D01*
X86724398Y-40747171D01*
X86719302Y-40745613D01*
X86626743Y-40736210D01*
X86625607Y-40736089D01*
X86591992Y-40732319D01*
X86579270Y-40730892D01*
X86579266Y-40730892D01*
X86575773Y-40730500D01*
X86572246Y-40730500D01*
X86571261Y-40730445D01*
X86565581Y-40729998D01*
X86536175Y-40727011D01*
X86528663Y-40726248D01*
X86528661Y-40726248D01*
X86522538Y-40725626D01*
X86480259Y-40729623D01*
X86476891Y-40729941D01*
X86465033Y-40730500D01*
X84398999Y-40730500D01*
X84330878Y-40710498D01*
X84320907Y-40703382D01*
X84198614Y-40606800D01*
X84198610Y-40606798D01*
X84194559Y-40603598D01*
X83998989Y-40495638D01*
X83994120Y-40493914D01*
X83994116Y-40493912D01*
X83793287Y-40422795D01*
X83793283Y-40422794D01*
X83788412Y-40421069D01*
X83783319Y-40420162D01*
X83783316Y-40420161D01*
X83573573Y-40382800D01*
X83573567Y-40382799D01*
X83568484Y-40381894D01*
X83494652Y-40380992D01*
X83350281Y-40379228D01*
X83350279Y-40379228D01*
X83345111Y-40379165D01*
X83124291Y-40412955D01*
X82911956Y-40482357D01*
X82713807Y-40585507D01*
X82709674Y-40588610D01*
X82709671Y-40588612D01*
X82539300Y-40716530D01*
X82535165Y-40719635D01*
X82531598Y-40723368D01*
X82531592Y-40723373D01*
X82522821Y-40732552D01*
X82461297Y-40767981D01*
X82431728Y-40771500D01*
X79094600Y-40771500D01*
X79091354Y-40771837D01*
X79091350Y-40771837D01*
X78995692Y-40781762D01*
X78995688Y-40781763D01*
X78988834Y-40782474D01*
X78982298Y-40784655D01*
X78982296Y-40784655D01*
X78850194Y-40828728D01*
X78821054Y-40838450D01*
X78670652Y-40931522D01*
X78545695Y-41056697D01*
X78452885Y-41207262D01*
X78397203Y-41375139D01*
X78386500Y-41479600D01*
X78386500Y-42080400D01*
X78386837Y-42083646D01*
X78386837Y-42083650D01*
X78393159Y-42144574D01*
X78397474Y-42186166D01*
X78399655Y-42192702D01*
X78399655Y-42192704D01*
X78431725Y-42288829D01*
X78453450Y-42353946D01*
X78546522Y-42504348D01*
X78671697Y-42629305D01*
X78676235Y-42632102D01*
X78716824Y-42689353D01*
X78720054Y-42760276D01*
X78684428Y-42821687D01*
X78675932Y-42829062D01*
X78665793Y-42837098D01*
X78551261Y-42951829D01*
X78542249Y-42963240D01*
X78457184Y-43101243D01*
X78451037Y-43114424D01*
X78399862Y-43268710D01*
X78396995Y-43282086D01*
X78387328Y-43376438D01*
X78387000Y-43382855D01*
X78387000Y-43407885D01*
X78391475Y-43423124D01*
X78392865Y-43424329D01*
X78400548Y-43426000D01*
X80834884Y-43426000D01*
X80850123Y-43421525D01*
X80851328Y-43420135D01*
X80852999Y-43412452D01*
X80852999Y-43382905D01*
X80852662Y-43376386D01*
X80842743Y-43280794D01*
X80839851Y-43267400D01*
X80788412Y-43113216D01*
X80782240Y-43100042D01*
X80708453Y-42980804D01*
X80689615Y-42912352D01*
X80710776Y-42844582D01*
X80765217Y-42799011D01*
X80815597Y-42788500D01*
X82218640Y-42788500D01*
X82286761Y-42808502D01*
X82333254Y-42862158D01*
X82343358Y-42932432D01*
X82313864Y-42997012D01*
X82294206Y-43015325D01*
X82226939Y-43065739D01*
X82139585Y-43182295D01*
X82088455Y-43318684D01*
X82081700Y-43380866D01*
X82081700Y-44846322D01*
X82061698Y-44914443D01*
X82044795Y-44935417D01*
X81595617Y-45384595D01*
X81533305Y-45418621D01*
X81506522Y-45421500D01*
X78221396Y-45421500D01*
X78204949Y-45420422D01*
X78204270Y-45420333D01*
X78182914Y-45417521D01*
X78177314Y-45417785D01*
X78177313Y-45417785D01*
X78101504Y-45421360D01*
X78095569Y-45421500D01*
X78073001Y-45421500D01*
X78070218Y-45421748D01*
X78070204Y-45421749D01*
X78047023Y-45423818D01*
X78041760Y-45424177D01*
X78012342Y-45425564D01*
X77958512Y-45428103D01*
X77941023Y-45432108D01*
X77924104Y-45434788D01*
X77919618Y-45435189D01*
X77906238Y-45436383D01*
X77900830Y-45437862D01*
X77900827Y-45437863D01*
X77825870Y-45458369D01*
X77820752Y-45459655D01*
X77777537Y-45469553D01*
X77739530Y-45478258D01*
X77723037Y-45485293D01*
X77706855Y-45490928D01*
X77694967Y-45494180D01*
X77694958Y-45494183D01*
X77689549Y-45495663D01*
X77684486Y-45498078D01*
X77684475Y-45498082D01*
X77614343Y-45531534D01*
X77609542Y-45533702D01*
X77532892Y-45566396D01*
X77528204Y-45569475D01*
X77528203Y-45569476D01*
X77517900Y-45576244D01*
X77502971Y-45584656D01*
X77486782Y-45592378D01*
X77482226Y-45595652D01*
X77482224Y-45595653D01*
X77455064Y-45615169D01*
X77421445Y-45639328D01*
X77419122Y-45640997D01*
X77414771Y-45643987D01*
X77348992Y-45687195D01*
X77348987Y-45687199D01*
X77345126Y-45689735D01*
X77329189Y-45703934D01*
X77324346Y-45708249D01*
X77314055Y-45716494D01*
X77308907Y-45720193D01*
X77308903Y-45720197D01*
X77304346Y-45723471D01*
X77296116Y-45731964D01*
X77229968Y-45800223D01*
X77228579Y-45801633D01*
X69059737Y-53970475D01*
X69047347Y-53981342D01*
X69029708Y-53994877D01*
X68975188Y-54054794D01*
X68974842Y-54055174D01*
X68970743Y-54059469D01*
X68954802Y-54075410D01*
X68953007Y-54077557D01*
X68953005Y-54077559D01*
X68938068Y-54095423D01*
X68934600Y-54099398D01*
X68882288Y-54156888D01*
X68882281Y-54156897D01*
X68878515Y-54161036D01*
X68875538Y-54165782D01*
X68875537Y-54165783D01*
X68868987Y-54176225D01*
X68858911Y-54190093D01*
X68851004Y-54199549D01*
X68850997Y-54199559D01*
X68847406Y-54203854D01*
X68806118Y-54276240D01*
X68803413Y-54280759D01*
X68759136Y-54351344D01*
X68757043Y-54356549D01*
X68757042Y-54356552D01*
X68752448Y-54367979D01*
X68744988Y-54383411D01*
X68738880Y-54394119D01*
X68738876Y-54394128D01*
X68736101Y-54398993D01*
X68734232Y-54404270D01*
X68734230Y-54404275D01*
X68708285Y-54477542D01*
X68706420Y-54482478D01*
X68675344Y-54559783D01*
X68674208Y-54565270D01*
X68674207Y-54565272D01*
X68671706Y-54577349D01*
X68667101Y-54593844D01*
X68661111Y-54610759D01*
X68660204Y-54616298D01*
X68647643Y-54693001D01*
X68646683Y-54698180D01*
X68629787Y-54779767D01*
X68629521Y-54784379D01*
X68629521Y-54784380D01*
X68628185Y-54807548D01*
X68626738Y-54820653D01*
X68625714Y-54826910D01*
X68624806Y-54832457D01*
X68624894Y-54838070D01*
X68624894Y-54838072D01*
X68626484Y-54939264D01*
X68626500Y-54941243D01*
X68626500Y-62705126D01*
X68606498Y-62773247D01*
X68601339Y-62780673D01*
X68584385Y-62803295D01*
X68533255Y-62939684D01*
X68526500Y-63001866D01*
X68526500Y-64798134D01*
X63811529Y-64798134D01*
X63781512Y-64713837D01*
X63614564Y-64359054D01*
X63612997Y-64356425D01*
X63612992Y-64356416D01*
X63415361Y-64024889D01*
X63413791Y-64022255D01*
X63411977Y-64019795D01*
X63411972Y-64019787D01*
X63182933Y-63709126D01*
X63182931Y-63709123D01*
X63181111Y-63706655D01*
X62918744Y-63415268D01*
X62629195Y-63150873D01*
X62315228Y-62915995D01*
X62267015Y-62886796D01*
X61982467Y-62714467D01*
X61982458Y-62714462D01*
X61979839Y-62712876D01*
X61626229Y-62543455D01*
X61623339Y-62542403D01*
X61623334Y-62542401D01*
X61260674Y-62410404D01*
X61260671Y-62410403D01*
X61257775Y-62409349D01*
X60981563Y-62338429D01*
X60880977Y-62312603D01*
X60880974Y-62312602D01*
X60877993Y-62311837D01*
X60490508Y-62251851D01*
X60099018Y-62229964D01*
X60095939Y-62230093D01*
X60095936Y-62230093D01*
X59840188Y-62240812D01*
X59707261Y-62246383D01*
X59704217Y-62246811D01*
X59704215Y-62246811D01*
X59493778Y-62276386D01*
X59318976Y-62300953D01*
X58937869Y-62393153D01*
X58567579Y-62522102D01*
X58211638Y-62686569D01*
X57873446Y-62884985D01*
X57717249Y-62998469D01*
X57558711Y-63113653D01*
X57558705Y-63113658D01*
X57556230Y-63115456D01*
X57553944Y-63117485D01*
X57553941Y-63117488D01*
X57474123Y-63188354D01*
X57263017Y-63375783D01*
X57260938Y-63378028D01*
X57260931Y-63378035D01*
X56998694Y-63661226D01*
X56996608Y-63663479D01*
X56963836Y-63706655D01*
X56764016Y-63969908D01*
X56759544Y-63975799D01*
X56730964Y-64022255D01*
X56556429Y-64305959D01*
X56554089Y-64309762D01*
X56552738Y-64312532D01*
X56407048Y-64611240D01*
X56359208Y-64663698D01*
X56290602Y-64681964D01*
X56223010Y-64660240D01*
X56177895Y-64605421D01*
X56167800Y-64556005D01*
X56167800Y-57587695D01*
X59148251Y-57587695D01*
X59148548Y-57592848D01*
X59148548Y-57592851D01*
X59154011Y-57687590D01*
X59161110Y-57810715D01*
X59162247Y-57815761D01*
X59162248Y-57815767D01*
X59180730Y-57897776D01*
X59210222Y-58028639D01*
X59248461Y-58122811D01*
X59288617Y-58221703D01*
X59294266Y-58235616D01*
X59296965Y-58240020D01*
X59404366Y-58415283D01*
X59410987Y-58426088D01*
X59557250Y-58594938D01*
X59729126Y-58737632D01*
X59922000Y-58850338D01*
X60130692Y-58930030D01*
X60135760Y-58931061D01*
X60135763Y-58931062D01*
X60243017Y-58952883D01*
X60349597Y-58974567D01*
X60354772Y-58974757D01*
X60354774Y-58974757D01*
X60567673Y-58982564D01*
X60567677Y-58982564D01*
X60572837Y-58982753D01*
X60577957Y-58982097D01*
X60577959Y-58982097D01*
X60789288Y-58955025D01*
X60789289Y-58955025D01*
X60794416Y-58954368D01*
X60799366Y-58952883D01*
X61003429Y-58891661D01*
X61003434Y-58891659D01*
X61008384Y-58890174D01*
X61208994Y-58791896D01*
X61390860Y-58662173D01*
X61400710Y-58652358D01*
X61545435Y-58508137D01*
X61549096Y-58504489D01*
X61596959Y-58437881D01*
X61676435Y-58327277D01*
X61679453Y-58323077D01*
X61733711Y-58213295D01*
X61776136Y-58127453D01*
X61776137Y-58127451D01*
X61778430Y-58122811D01*
X61826578Y-57964337D01*
X61841865Y-57914023D01*
X61841865Y-57914021D01*
X61843370Y-57909069D01*
X61872529Y-57687590D01*
X61873470Y-57649089D01*
X61874074Y-57624365D01*
X61874074Y-57624361D01*
X61874156Y-57621000D01*
X61855852Y-57398361D01*
X61801431Y-57181702D01*
X61712354Y-56976840D01*
X61591014Y-56789277D01*
X61583796Y-56781344D01*
X61552306Y-56746737D01*
X61521254Y-56682891D01*
X61519500Y-56661938D01*
X61519500Y-56502009D01*
X61539502Y-56433888D01*
X61593158Y-56387395D01*
X61598694Y-56385097D01*
X61599296Y-56384768D01*
X61607705Y-56381615D01*
X61724261Y-56294261D01*
X61811615Y-56177705D01*
X61862745Y-56041316D01*
X61869500Y-55979134D01*
X61869500Y-54182866D01*
X61862745Y-54120684D01*
X61811615Y-53984295D01*
X61724261Y-53867739D01*
X61607705Y-53780385D01*
X61471316Y-53729255D01*
X61409134Y-53722500D01*
X59612866Y-53722500D01*
X59550684Y-53729255D01*
X59414295Y-53780385D01*
X59297739Y-53867739D01*
X59210385Y-53984295D01*
X59159255Y-54120684D01*
X59152500Y-54182866D01*
X59152500Y-55979134D01*
X59159255Y-56041316D01*
X59210385Y-56177705D01*
X59297739Y-56294261D01*
X59414295Y-56381615D01*
X59422704Y-56384767D01*
X59430575Y-56389077D01*
X59429664Y-56390741D01*
X59477490Y-56426663D01*
X59502193Y-56493224D01*
X59502500Y-56502009D01*
X59502500Y-56659381D01*
X59482498Y-56727502D01*
X59467594Y-56746432D01*
X59451629Y-56763138D01*
X59325743Y-56947680D01*
X59231688Y-57150305D01*
X59171989Y-57365570D01*
X59148251Y-57587695D01*
X56167800Y-57587695D01*
X56167800Y-41645695D01*
X59157451Y-41645695D01*
X59157748Y-41650848D01*
X59157748Y-41650851D01*
X59163211Y-41745590D01*
X59170310Y-41868715D01*
X59171447Y-41873761D01*
X59171448Y-41873767D01*
X59182930Y-41924715D01*
X59219422Y-42086639D01*
X59303466Y-42293616D01*
X59420187Y-42484088D01*
X59464886Y-42535689D01*
X59480937Y-42554219D01*
X59510420Y-42618804D01*
X59511700Y-42636717D01*
X59511700Y-42797991D01*
X59491698Y-42866112D01*
X59438042Y-42912605D01*
X59432506Y-42914903D01*
X59431904Y-42915232D01*
X59423495Y-42918385D01*
X59306939Y-43005739D01*
X59219585Y-43122295D01*
X59168455Y-43258684D01*
X59161700Y-43320866D01*
X59161700Y-45117134D01*
X59168455Y-45179316D01*
X59219585Y-45315705D01*
X59306939Y-45432261D01*
X59423495Y-45519615D01*
X59559884Y-45570745D01*
X59622066Y-45577500D01*
X61418334Y-45577500D01*
X61480516Y-45570745D01*
X61616905Y-45519615D01*
X61733461Y-45432261D01*
X61820815Y-45315705D01*
X61871945Y-45179316D01*
X61878700Y-45117134D01*
X61878700Y-43977095D01*
X78387001Y-43977095D01*
X78387338Y-43983614D01*
X78397257Y-44079206D01*
X78400149Y-44092600D01*
X78451588Y-44246784D01*
X78457761Y-44259962D01*
X78543063Y-44397807D01*
X78552099Y-44409208D01*
X78666829Y-44523739D01*
X78678240Y-44532751D01*
X78816243Y-44617816D01*
X78829424Y-44623963D01*
X78983710Y-44675138D01*
X78997086Y-44678005D01*
X79091438Y-44687672D01*
X79097854Y-44688000D01*
X79347885Y-44688000D01*
X79363124Y-44683525D01*
X79364329Y-44682135D01*
X79366000Y-44674452D01*
X79366000Y-44669884D01*
X79874000Y-44669884D01*
X79878475Y-44685123D01*
X79879865Y-44686328D01*
X79887548Y-44687999D01*
X80142095Y-44687999D01*
X80148614Y-44687662D01*
X80244206Y-44677743D01*
X80257600Y-44674851D01*
X80411784Y-44623412D01*
X80424962Y-44617239D01*
X80562807Y-44531937D01*
X80574208Y-44522901D01*
X80688739Y-44408171D01*
X80697751Y-44396760D01*
X80782816Y-44258757D01*
X80788963Y-44245576D01*
X80840138Y-44091290D01*
X80843005Y-44077914D01*
X80852672Y-43983562D01*
X80853000Y-43977146D01*
X80853000Y-43952115D01*
X80848525Y-43936876D01*
X80847135Y-43935671D01*
X80839452Y-43934000D01*
X79892115Y-43934000D01*
X79876876Y-43938475D01*
X79875671Y-43939865D01*
X79874000Y-43947548D01*
X79874000Y-44669884D01*
X79366000Y-44669884D01*
X79366000Y-43952115D01*
X79361525Y-43936876D01*
X79360135Y-43935671D01*
X79352452Y-43934000D01*
X78405116Y-43934000D01*
X78389877Y-43938475D01*
X78388672Y-43939865D01*
X78387001Y-43947548D01*
X78387001Y-43977095D01*
X61878700Y-43977095D01*
X61878700Y-43320866D01*
X61871945Y-43258684D01*
X61820815Y-43122295D01*
X61733461Y-43005739D01*
X61616905Y-42918385D01*
X61608496Y-42915233D01*
X61600625Y-42910923D01*
X61601536Y-42909259D01*
X61553710Y-42873337D01*
X61529007Y-42806776D01*
X61528700Y-42797991D01*
X61528700Y-42642970D01*
X61548702Y-42574849D01*
X61556660Y-42564120D01*
X61558296Y-42562489D01*
X61688653Y-42381077D01*
X61702026Y-42354020D01*
X61785336Y-42185453D01*
X61785337Y-42185451D01*
X61787630Y-42180811D01*
X61852570Y-41967069D01*
X61881729Y-41745590D01*
X61882676Y-41706851D01*
X61883274Y-41682365D01*
X61883274Y-41682361D01*
X61883356Y-41679000D01*
X61865052Y-41456361D01*
X61810631Y-41239702D01*
X61721554Y-41034840D01*
X61674345Y-40961866D01*
X61603022Y-40851617D01*
X61603020Y-40851614D01*
X61600214Y-40847277D01*
X61449870Y-40682051D01*
X61445819Y-40678852D01*
X61445815Y-40678848D01*
X61278614Y-40546800D01*
X61278610Y-40546798D01*
X61274559Y-40543598D01*
X61078989Y-40435638D01*
X61074120Y-40433914D01*
X61074116Y-40433912D01*
X60873287Y-40362795D01*
X60873283Y-40362794D01*
X60868412Y-40361069D01*
X60863319Y-40360162D01*
X60863316Y-40360161D01*
X60653573Y-40322800D01*
X60653567Y-40322799D01*
X60648484Y-40321894D01*
X60574652Y-40320992D01*
X60430281Y-40319228D01*
X60430279Y-40319228D01*
X60425111Y-40319165D01*
X60204291Y-40352955D01*
X59991956Y-40422357D01*
X59961643Y-40438137D01*
X59835752Y-40503672D01*
X59793807Y-40525507D01*
X59789674Y-40528610D01*
X59789671Y-40528612D01*
X59619300Y-40656530D01*
X59615165Y-40659635D01*
X59552102Y-40725626D01*
X59470959Y-40810538D01*
X59460829Y-40821138D01*
X59457915Y-40825410D01*
X59457914Y-40825411D01*
X59407044Y-40899984D01*
X59334943Y-41005680D01*
X59240888Y-41208305D01*
X59181189Y-41423570D01*
X59157451Y-41645695D01*
X56167800Y-41645695D01*
X56167800Y-36894500D01*
X56187802Y-36826379D01*
X56241458Y-36779886D01*
X56293800Y-36768500D01*
X149297213Y-36768500D01*
X149365334Y-36788502D01*
G37*
G04 #@! TD.AperFunction*
M02*
